<svg id="レイヤー_1" data-name="レイヤー 1" xmlns="http://www.w3.org/2000/svg" viewBox="0 0 779.59 416.96"><defs><style>.cls-1{fill:none;}.cls-1,.cls-2{stroke:#000;stroke-miterlimit:10;stroke-width:2.83px;}.cls-2{fill:#fff;}.cls-3{fill:#231815;}</style></defs><path class="cls-1" d="M617.86,19.48C536.76,17.43,247.32,6,184.07,15.4S53,10.74,23,76.38c-24,52.34,27,99.18,60.79,99.18,49.71,0,266.5-1.05,329.75-4.15s160.67-5.94,210.82.41S756.73,182.39,766,132.5C781.29,49.87,697.34,21.49,617.86,19.48Z"/><path class="cls-1" d="M547.76,230.3c-59.89-2.06-248.69-10.72-295.4-1.32s-93.45,8.41-102,63c-9.14,58.58,25.77,77.46,47.89,78.66,37.66,2.05,166.5,15.7,213.21,12.59s109.48,2.05,146.06-6.21c44.28-10,79.94-17.62,80.54-68.8C638.72,254.85,606.46,232.32,547.76,230.3Z"/><path class="cls-2" d="M199.51,161.67c57.21-6.31,303.75-12.51,328.27,3.37s34.06,30.55,16.35,56.14-88.54,25.6-159.37,25.6-163.88,9.14-205.68,0C143.66,239,152.35,166.88,199.51,161.67Z"/><ellipse class="cls-2" cx="675.07" cy="178.33" rx="21.96" ry="12.18"/><ellipse class="cls-2" cx="715.23" cy="193.57" rx="12.57" ry="8.33"/><ellipse class="cls-2" cx="747.58" cy="197.61" rx="8.82" ry="7.11"/><ellipse class="cls-2" cx="199.93" cy="370.49" rx="16.04" ry="12.18"/><ellipse class="cls-2" cx="166.84" cy="379.44" rx="10.98" ry="8.33"/><ellipse class="cls-2" cx="140.37" cy="390.48" rx="6.45" ry="5.43"/><path class="cls-3" d="M215.11,284.16a6.25,6.25,0,0,0-.08-1.79,5.77,5.77,0,0,1,2.1.78.4.4,0,0,1,.14.56,1.76,1.76,0,0,0-.31.84c-.19,1.26-.53,2.94-.87,4.26a34.65,34.65,0,0,1,4.74,2.88c.16.09.16.2.11.37-.2.39-.51,1-.73,1.4-.11.16-.25.11-.36,0a26,26,0,0,0-4.29-2.89c-1.4,3.64-2.94,5.91-5.88,8-.33.25-.45.28-.7.11a3,3,0,0,0-1.43-.7,15,15,0,0,0,6.33-8.12,19.76,19.76,0,0,0-6.89-2,21.14,21.14,0,0,1-3.08,5.34,4.44,4.44,0,0,1-3.44,1.8,2.85,2.85,0,0,1-2.83-3.17c0-3.11,3.47-5.6,8.15-5.63a79.75,79.75,0,0,0,2.88-7.78c-1.93.2-3.94.42-4.92.56a8.34,8.34,0,0,0-1.24.25.68.68,0,0,1-.33.09.38.38,0,0,1-.34-.17,10.08,10.08,0,0,1-.59-2,8,8,0,0,0,2.44.14c1.23,0,2.74-.19,4.28-.39a2.82,2.82,0,0,0,1.29-.39.52.52,0,0,1,.59-.06,4.58,4.58,0,0,1,1.2,1.07c.23.28.23.47,0,.67a3.93,3.93,0,0,0-.67,1.34c-.92,2.58-1.79,4.57-2.71,6.81a23.65,23.65,0,0,1,6.8,1.79A32.23,32.23,0,0,0,215.11,284.16Zm-15.84,7.5c0,.93.47,1.57,1.26,1.57a3,3,0,0,0,2.26-1.37,17.1,17.1,0,0,0,2.38-4.09C201.81,287.88,199.27,289.65,199.27,291.66Z"/><path class="cls-3" d="M233.26,289.37a5.71,5.71,0,0,1,4-2.05c2.77,0,3.66,2,3.94,4.85.23,2.38.68,3.75,2.24,3.75A4.48,4.48,0,0,0,247,294a13.47,13.47,0,0,0,2.35-4.62,3.59,3.59,0,0,0,1,1.48c.22.17.25.39.14.73a12.84,12.84,0,0,1-2.21,3.81,6.07,6.07,0,0,1-4.9,2.46c-2.69,0-3.64-1.65-4-5.07-.31-2.82-1-3.92-2.43-3.92-1.24,0-2.47.76-3.87,2.41a31.53,31.53,0,0,0-3.44,6.19c-.11.28-.25.31-.51.2a5.7,5.7,0,0,1-1.23-.73c-.17-.14-.17-.28,0-.48,3.61-7.05,6.58-13,8.51-17.08a12.29,12.29,0,0,0,1.09-3.22,10.11,10.11,0,0,1,2,1.07.49.49,0,0,1,.05.81,3.61,3.61,0,0,0-.84,1.15c-1.93,3.61-3.81,7.19-5.46,10.13Z"/><path class="cls-3" d="M269.21,279.85c.25-.06.34,0,.36.17a11.27,11.27,0,0,1,.14,1.2c0,.25,0,.31-.25.34-1.51.3-3,.56-4.67.81a67.78,67.78,0,0,1-5.63,11.81c-.14.23-.28.2-.45.09a6.39,6.39,0,0,1-1.12-.84c-.17-.14-.17-.25,0-.48a49.26,49.26,0,0,0,5.27-10.41c-1.21.11-2.33.19-3.53.19-.42,0-.84,0-1.49-.05-.25,0-.28-.06-.33-.34a9.4,9.4,0,0,1-.17-1.4c.9.08,1.63.11,2.21.11a35.93,35.93,0,0,0,3.81-.22,33.39,33.39,0,0,0,.84-3.28,8.51,8.51,0,0,0,.23-2.18,11.27,11.27,0,0,1,2.18.56.31.31,0,0,1,.25.31.6.6,0,0,1-.22.42,2.44,2.44,0,0,0-.4.86c-.3,1-.61,2.05-.89,3C266.58,280.38,267.78,280.18,269.21,279.85Zm1.71,6.77a8.71,8.71,0,0,0-.17-1.79,8.77,8.77,0,0,1,1.9.37c.2.05.31.16.31.33a1.37,1.37,0,0,1-.17.51,4.32,4.32,0,0,0-.11,1.31,46.19,46.19,0,0,0,.34,5.15,25.08,25.08,0,0,1,5.29,2.8c.22.14.2.23.11.45a8.73,8.73,0,0,1-.67,1.23c-.14.2-.28.17-.45,0a16.91,16.91,0,0,0-4.25-2.66c0,2.83-1.4,4.37-5,4.37-2.12,0-4.34-1.09-4.34-3.42,0-2.1,2-3.52,4.76-3.52a14.25,14.25,0,0,1,2.8.33C271.09,290.38,271,288.14,270.92,286.62Zm-2.38,6.7c-2.24,0-3.25.86-3.25,1.9,0,1.29,1,1.88,2.88,1.88,2.3,0,3.14-1.21,3.14-2.64a3.55,3.55,0,0,0,0-.67A9.22,9.22,0,0,0,268.54,293.32Zm4.76-12.55c.14-.22.22-.25.47-.17a19.74,19.74,0,0,1,5.49,2.64c.2.16.2.28.06.5a7.27,7.27,0,0,1-.65,1.12c-.14.2-.22.17-.39.06a18.67,18.67,0,0,0-5.71-2.86C272.85,281.58,273.07,281.11,273.3,280.77Z"/><path class="cls-3" d="M294.63,278.73a9.72,9.72,0,0,0,.26-2.69,11.4,11.4,0,0,1,2.18.76.41.41,0,0,1,.11.72,2,2,0,0,0-.47.93c-.42,1.37-.79,2.69-1.21,4.06a26.61,26.61,0,0,1,2.72-.2c2.43,0,3.64,1.23,3.64,4.59a23.26,23.26,0,0,1-1.54,9,3.36,3.36,0,0,1-3.19,2.22,7.32,7.32,0,0,1-2.86-.51.46.46,0,0,1-.34-.47,4.75,4.75,0,0,0-.33-1.68,8.18,8.18,0,0,0,3.25.78c.81,0,1.34-.28,1.87-1.46a21.1,21.1,0,0,0,1.26-7.86c0-2.19-.42-3-1.93-3a19.47,19.47,0,0,0-3,.31,76.42,76.42,0,0,1-5.72,13.24.33.33,0,0,1-.47.14,7.4,7.4,0,0,1-1.12-.76c-.17-.14-.14-.28-.06-.44A59.69,59.69,0,0,0,293,284.47c-1.15.17-2.3.36-3.7.61a4.21,4.21,0,0,0-1.23.37c-.31.19-.56.19-.73-.14a10.56,10.56,0,0,1-.64-1.91,17.73,17.73,0,0,0,2.91-.14c1.54-.16,2.63-.33,4-.53C294,281.42,294.27,280.3,294.63,278.73ZM304.77,281a.37.37,0,0,1,.42.12,16,16,0,0,1,4.51,6.77c.05.2.08.34-.09.48a6.06,6.06,0,0,1-1.14.75c-.23.14-.42.12-.48-.16a15.54,15.54,0,0,0-4.48-7.09A13.44,13.44,0,0,1,304.77,281Zm.59-4.31c.11-.08.17,0,.28,0a13.51,13.51,0,0,1,3.16,3.39.2.2,0,0,1-.05.31l-.82.67a.22.22,0,0,1-.36-.06,12,12,0,0,0-3.25-3.58Zm2.32-1.82c.11-.08.2-.11.31,0a16,16,0,0,1,3.19,3.28c.09.14.06.22-.08.34l-.76.67c-.11.11-.22.11-.33-.06a13.45,13.45,0,0,0-3.22-3.5Z"/><path class="cls-3" d="M327.53,273.77v1.46h-7V298H319V273.77Z"/><path class="cls-3" d="M345.4,288.67a14,14,0,0,0,3,4.14,37,37,0,0,0,4.45-2.69,3.9,3.9,0,0,0,.95-.95,15,15,0,0,1,1.4,1c.17.14.23.22.23.36s-.17.23-.4.25a2.47,2.47,0,0,0-1,.48c-1.17.73-2.57,1.54-4.5,2.52a21.88,21.88,0,0,0,8.84,4,4.47,4.47,0,0,0-.78,1c-.28.5-.31.53-.87.39-6.19-1.73-10.72-5.23-12.91-10.58h-4.56v7.87c2.13-.54,4.11-1.15,6.55-2a8.6,8.6,0,0,0-.11,1c0,.58,0,.61-.5.78-3.56,1.23-6.47,2-9.22,2.69a4.16,4.16,0,0,0-1.17.39.56.56,0,0,1-.28.14.35.35,0,0,1-.31-.22c-.2-.51-.39-1.12-.56-1.66a29.19,29.19,0,0,0,3-.53c.27,0,.58-.11.86-.19V282.45c0-3-.05-4.37-.05-4.53s0-.23.22-.23,1.37.06,4.09.06h2.88v-.53a13.79,13.79,0,0,0-.19-2.78,18.77,18.77,0,0,1,1.87.17c.23,0,.34.11.34.23a1.27,1.27,0,0,1-.17.53,5.27,5.27,0,0,0-.14,1.71v.67h3.11c2.77,0,3.86-.06,4-.06s.23,0,.23.23-.06,1-.06,3v4.68c0,2,.06,2.8.06,2.94s0,.22-.23.22-1.23-.05-4-.05Zm6.5-9.41H339.24v3.05H351.9Zm0,4.54H339.24v3.36H351.9Z"/><path class="cls-3" d="M368.81,279.18c.16.08.25.19.25.3a2.49,2.49,0,0,1-.11.51,9.12,9.12,0,0,0-.23,2.57,45.28,45.28,0,0,0,.39,6.36c.42,3.3,1.63,5.71,3,5.71,1.12,0,2.19-1.79,3-4.39a3.72,3.72,0,0,0,.92,1.4.62.62,0,0,1,.23.7c-.79,2.26-2.3,4.39-4.18,4.39-2.35,0-4.11-3.25-4.73-7.64a61.78,61.78,0,0,1-.5-7.81,11.63,11.63,0,0,0-.23-2.69A7.4,7.4,0,0,1,368.81,279.18Zm13.35,2.15c.17-.08.31-.11.42,0A17,17,0,0,1,388,291a.31.31,0,0,1-.19.36,5.78,5.78,0,0,1-1.29.65.27.27,0,0,1-.37-.23,16.25,16.25,0,0,0-5.26-9.71A10.53,10.53,0,0,1,382.16,281.33Z"/><path class="cls-3" d="M394.79,300.37v-1.45h7V276.15h1.57v24.22Z"/><path class="cls-3" d="M419.91,276a.4.4,0,0,1,.33.36c0,.28-.14.54-.14,1,0,.62.09,1.18.17,1.8a37.72,37.72,0,0,0,1.09,5.65c1.65-.81,3.33-1.59,5-2.52A4.45,4.45,0,0,0,428,281a13.22,13.22,0,0,1,1.43,1.57c.22.34.17.73-.34.79a10.57,10.57,0,0,0-2.46.89c-2.05,1-4.45,2.1-6.36,3.19-2.83,1.66-4.14,3.11-4.14,5.07,0,2.49,2.35,3.11,6.58,3.08a53.72,53.72,0,0,0,7.19-.59c.26,0,.34,0,.4.26a11.28,11.28,0,0,1,.16,1.45c0,.25-.08.37-.39.39a60.42,60.42,0,0,1-7.45.4c-4.84,0-8.34-1.07-8.34-4.9,0-2.69,1.9-4.76,5.46-6.92a49.52,49.52,0,0,1-1.48-7.17,10.16,10.16,0,0,0-.62-2.74A13,13,0,0,1,419.91,276Z"/><path class="cls-3" d="M442.06,291.22c.33.14.39.19.3.36a17.59,17.59,0,0,1-3,5.6c-.14.2-.17.17-.48,0l-.78-.5c-.34-.23-.36-.28-.23-.45a14.2,14.2,0,0,0,2.92-5.21c.05-.22.05-.28.45-.11Zm17.21-6.53c0,2.07.06,2.83.06,3s0,.25-.22.25-1.15-.05-4-.05h-9.57c-2.8,0-3.81.05-4,.05s-.23,0-.23-.25.06-.9.06-3v-5.57c0-2.07-.06-2.83-.06-3s0-.22.23-.22,1.18.06,4,.06h9.57c2.83,0,3.84-.06,4-.06s.22,0,.22.22-.06.93-.06,3Zm-9.85-7.31H443v3.78h6.38Zm0,5.16H443v3.89h6.38Zm-2.8,12.93c0,.9.14,1.23.59,1.49a7.61,7.61,0,0,0,3.1.36c2.13,0,3.34-.08,4.12-.62.59-.36,1-1.54,1-3.05a4.91,4.91,0,0,0,1.17.59c.48.17.51.17.42.67-.28,1.93-.78,2.77-1.54,3.22-1.09.67-2.63.76-5.23.76a10.49,10.49,0,0,1-4.29-.53c-.56-.34-1.06-.9-1.06-2.36v-3.8a12.06,12.06,0,0,0-.17-2.22,11.46,11.46,0,0,1,1.79.17c.23.06.34.17.34.25a.76.76,0,0,1-.11.4,3.88,3.88,0,0,0-.17,1.48Zm3.05-6.55c.23-.17.28-.17.45,0a22,22,0,0,1,3.28,3.33c.14.17.11.28-.17.48l-.7.53c-.37.28-.37.31-.51.11a17.68,17.68,0,0,0-3.13-3.52c-.17-.14-.14-.2.14-.42Zm8-11.54H451v3.78h6.61Zm0,5.16H451v3.89h6.61Zm1.26,8.23c.31-.17.36-.17.48,0a27.17,27.17,0,0,1,3.36,4.9c.08.19.05.28-.25.45l-.79.44c-.36.23-.42.26-.53,0a21.06,21.06,0,0,0-3.22-5c-.11-.17-.08-.2.22-.39Z"/><path class="cls-3" d="M473.14,283.4a19.5,19.5,0,0,1,6.07-1.34c2.77,0,5.18,1.9,5.18,6.27a10,10,0,0,1-2.29,6.47,16.25,16.25,0,0,1-5,3.95c-.56.31-.76.25-.95,0a3.56,3.56,0,0,0-1.4-.95,14.93,14.93,0,0,0,6-4.57,8.26,8.26,0,0,0,1.6-5.09c0-3.36-1.77-4.32-3.48-4.32a13.45,13.45,0,0,0-4.08,1,23,23,0,0,0-2.52,1.15c-.4.23-.62.42-.9.42s-.39-.22-.53-.45a12.22,12.22,0,0,1-.9-1.79A13,13,0,0,0,473.14,283.4Zm9.32-6.07c.22,0,.31.14.28.36a7.69,7.69,0,0,1-.34,1.32c-.08.22-.11.33-.3.31a33,33,0,0,1-7.65-2.1c-.08,0-.11-.14-.08-.4a8.32,8.32,0,0,1,.44-1.54A29.19,29.19,0,0,0,482.46,277.33Z"/><path class="cls-3" d="M500.72,293c0,2.85,1.51,3.83,4.34,3.83,3,0,5.59-1.37,5.59-4.31,0-1.48-.47-2.91-2.57-5a7,7,0,0,0,1.73-.11.56.56,0,0,1,.48.08,7,7,0,0,1,2.32,5.07c0,3.78-3.19,6.08-7.25,6.08-4.37,0-6.41-1.91-6.41-5.6,0-1,.17-2.3.28-3.48a27.06,27.06,0,0,1-4.45-.86c-.14,0-.22-.12-.25-.37a9.13,9.13,0,0,1,0-1.57,19.6,19.6,0,0,0,4.95,1.07c.26-1.74.48-3.36.65-4.82a22.54,22.54,0,0,1-4.76-.89c-.2-.06-.23-.09-.25-.37s-.06-1-.06-1.57a22.57,22.57,0,0,0,5.38,1.1c.22-1.52.31-2.19.42-3.39a8.26,8.26,0,0,0,0-2.38,9.87,9.87,0,0,1,2.19.67c.25.11.42.28.42.45a.61.61,0,0,1-.2.39,2.51,2.51,0,0,0-.5,1.32c-.2,1.09-.34,1.9-.5,3.08a27.09,27.09,0,0,0,3.92-.06c.11,0,.16.06.16.22,0,.42,0,.9,0,1.29,0,.23-.11.28-.28.28a37.21,37.21,0,0,1-4.08,0c-.23,1.37-.48,3.08-.73,4.79a36,36,0,0,0,4.54-.06c.25,0,.33,0,.33.2s0,.89-.06,1.23-.11.31-.25.31a47.59,47.59,0,0,1-4.79,0C500.88,290.8,500.72,292.14,500.72,293Z"/><path class="cls-3" d="M533.48,280a31.42,31.42,0,0,1-3.7,12.24c-1.2,2-2.46,2.88-4.12,2.88-2.1,0-4.08-2.29-4.08-6.35a10.15,10.15,0,0,1,3.24-7.25,11.93,11.93,0,0,1,8.4-3.11c6.28,0,10,3.67,10,9,0,4.57-2.83,8.24-8.9,9.78a.56.56,0,0,1-.73-.31,3.31,3.31,0,0,0-1.09-1c5.54-1.09,8.73-4.09,8.73-8.76A7,7,0,0,0,534,280Zm-7.42,2.69a8.68,8.68,0,0,0-2.69,6c0,3.05,1.26,4.37,2.27,4.37s1.79-.62,2.6-2a29.81,29.81,0,0,0,3.28-10.94A9.42,9.42,0,0,0,526.06,282.73Z"/><path class="cls-3" d="M556.49,277.22a.46.46,0,0,1,.17.75,4.44,4.44,0,0,0-.45,1.4,55.18,55.18,0,0,0-1.34,10.33,37,37,0,0,0,.19,4.85c.59-1.51,1.24-2.91,2-4.57a4.16,4.16,0,0,0,.65,1.15.51.51,0,0,1,0,.62,23.51,23.51,0,0,0-1.68,4.42,4.55,4.55,0,0,0,0,1.26.28.28,0,0,1-.14.37,7.19,7.19,0,0,1-1.26.36c-.2.06-.28,0-.37-.22a24.28,24.28,0,0,1-1.06-8.18,63.88,63.88,0,0,1,1.2-10.5,11.54,11.54,0,0,0,.14-2.77A6.81,6.81,0,0,1,556.49,277.22Zm10.73,6.55a51.88,51.88,0,0,1-6.25,0c-.17,0-.28,0-.31-.26a12.63,12.63,0,0,1-.11-1.48,47,47,0,0,0,6.61,0c0-1,0-2.1,0-3.22a10.49,10.49,0,0,0-.28-2.49,8.83,8.83,0,0,1,2.15.39c.2.08.31.2.31.34a.8.8,0,0,1-.11.39,3.71,3.71,0,0,0-.22,1.34c-.06,1-.06,2-.06,3.11,1.46-.14,3-.36,4.42-.64.23-.06.26,0,.28.19a6.86,6.86,0,0,1,.12,1.12c0,.2-.09.31-.2.34a36.45,36.45,0,0,1-4.62.67c0,3.28.11,5.94.25,8.46a19.76,19.76,0,0,1,4.93,2.88c.14.11.14.17.06.36a5.24,5.24,0,0,1-.76,1.24c-.11.16-.22.14-.34,0A18.29,18.29,0,0,0,569.2,294c-.11,2.46-1.51,3.78-4.67,3.78-2.63,0-4.37-1.15-4.37-3.19s1.93-3.34,4.31-3.34a15.37,15.37,0,0,1,2.94.31C567.3,289.23,567.22,286.65,567.22,283.77Zm.19,9.49a10.86,10.86,0,0,0-3-.48c-1.57,0-2.6.65-2.6,1.8s1,1.59,2.68,1.59c2,0,3-.89,3-2.38Z"/><path class="cls-3" d="M319.75,328.85c.25-.06.34,0,.36.17a11.27,11.27,0,0,1,.14,1.2c0,.25,0,.31-.25.34-1.51.3-3,.56-4.67.81a67.78,67.78,0,0,1-5.63,11.81c-.14.23-.28.2-.45.09a6.39,6.39,0,0,1-1.12-.84c-.17-.14-.17-.25,0-.48a49.26,49.26,0,0,0,5.27-10.41c-1.21.11-2.33.19-3.53.19-.42,0-.84,0-1.49-.05-.25,0-.28-.06-.33-.34a8.24,8.24,0,0,1-.17-1.4c.9.08,1.62.11,2.21.11a35.93,35.93,0,0,0,3.81-.22,33.39,33.39,0,0,0,.84-3.28,8.08,8.08,0,0,0,.22-2.18,11.2,11.2,0,0,1,2.19.56.31.31,0,0,1,.25.31.6.6,0,0,1-.22.42,2.44,2.44,0,0,0-.4.86c-.3,1-.61,2.05-.89,3C317.12,329.38,318.32,329.18,319.75,328.85Zm1.71,6.77a8.71,8.71,0,0,0-.17-1.79,8.77,8.77,0,0,1,1.9.37c.2.05.31.16.31.33a1.37,1.37,0,0,1-.17.51,4.32,4.32,0,0,0-.11,1.31,46.19,46.19,0,0,0,.34,5.15,25.08,25.08,0,0,1,5.29,2.8c.22.14.2.23.11.45a8.73,8.73,0,0,1-.67,1.23c-.14.2-.28.17-.45,0a16.91,16.91,0,0,0-4.25-2.66c0,2.83-1.4,4.37-5,4.37-2.12,0-4.34-1.09-4.34-3.42,0-2.1,2-3.52,4.76-3.52a14.25,14.25,0,0,1,2.8.33C321.63,339.38,321.49,337.14,321.46,335.62Zm-2.38,6.7c-2.24,0-3.25.86-3.25,1.9,0,1.29,1,1.88,2.88,1.88,2.3,0,3.14-1.21,3.14-2.64a3.55,3.55,0,0,0,0-.67A9.27,9.27,0,0,0,319.08,342.32Zm4.76-12.55c.14-.22.22-.25.47-.17a19.74,19.74,0,0,1,5.49,2.64c.2.16.2.28.06.5a7.27,7.27,0,0,1-.65,1.12c-.14.2-.22.17-.39.06a18.67,18.67,0,0,0-5.71-2.86C323.39,330.58,323.61,330.11,323.84,329.77Z"/><path class="cls-3" d="M342.54,338.37a5.71,5.71,0,0,1,3.95-2.05c2.77,0,3.67,2,3.95,4.85.22,2.38.67,3.75,2.24,3.75a4.47,4.47,0,0,0,3.58-1.93,13.47,13.47,0,0,0,2.35-4.62,3.68,3.68,0,0,0,1,1.48c.23.17.25.39.14.73a12.84,12.84,0,0,1-2.21,3.81,6.05,6.05,0,0,1-4.9,2.46c-2.69,0-3.64-1.65-4-5.07-.31-2.82-1-3.92-2.44-3.92-1.23,0-2.46.76-3.86,2.41a31.45,31.45,0,0,0-3.45,6.19c-.11.28-.25.31-.5.2a5.47,5.47,0,0,1-1.23-.73c-.17-.14-.17-.28-.06-.48,3.61-7.05,6.58-13,8.51-17.08a12.29,12.29,0,0,0,1.09-3.22,10.11,10.11,0,0,1,2,1.07.48.48,0,0,1,.06.81,3.33,3.33,0,0,0-.84,1.15c-1.94,3.61-3.81,7.19-5.46,10.13Z"/><path class="cls-3" d="M380.06,329c.23-.06.31,0,.34.2s.11.81.14,1.14,0,.37-.28.42a45.07,45.07,0,0,1-5.07,1.15A125.38,125.38,0,0,1,369.81,347c-.11.26-.22.26-.42.17s-.95-.42-1.31-.61a.28.28,0,0,1-.11-.37,86.51,86.51,0,0,0,5.23-14c-1.82.2-3.75.31-5.65.34-.34,0-.4,0-.45-.28-.06-.4-.14-1-.23-1.54.54.05,1,.05,1.77.05a45,45,0,0,0,5-.33c.39-1.49.61-2.5.81-3.53a11.08,11.08,0,0,0,.22-2.63,11.06,11.06,0,0,1,2.24.64.34.34,0,0,1,.23.31.77.77,0,0,1-.23.45,2.59,2.59,0,0,0-.44,1.09c-.34,1.15-.59,2.29-.9,3.36A35.36,35.36,0,0,0,380.06,329Zm-1.4,12.82c.23,0,.28.06.31.28.2,2.52,1.76,3.36,5.29,3.36a29.85,29.85,0,0,0,4.15-.36c.22,0,.3,0,.33.2a9.32,9.32,0,0,1,.11,1.34c0,.28-.08.34-.3.36a25.56,25.56,0,0,1-3.67.28c-3,0-4.9-.39-6.16-1.54a4.73,4.73,0,0,1-1.37-3.78A9.18,9.18,0,0,1,378.66,341.78Zm.7-7.19c0-.25.06-.34.37-.42a21.89,21.89,0,0,1,4.9-.59,28.16,28.16,0,0,1,3.47.28c.33.06.39.14.42.31a9.7,9.7,0,0,1,0,1.23c0,.34-.12.42-.37.36a23.06,23.06,0,0,0-3.58-.3,24.66,24.66,0,0,0-5.15.61A14.19,14.19,0,0,1,379.36,334.59Zm5.8-8.4a.21.21,0,0,1,.28,0,13.47,13.47,0,0,1,3.16,3.38.2.2,0,0,1-.05.31l-.82.67a.22.22,0,0,1-.36-.05,12.16,12.16,0,0,0-3.25-3.59Zm2.32-1.82a.22.22,0,0,1,.31,0,16,16,0,0,1,3.19,3.28c.09.14.06.22-.08.33l-.76.67c-.11.12-.22.12-.33-.05a13.45,13.45,0,0,0-3.22-3.5Z"/><path class="cls-3" d="M404,336.07a12.12,12.12,0,0,1,6.66-2.21c4.12,0,6.61,2.35,6.61,5.8,0,3.8-3,7-10.42,8.26-.42.08-.56.08-.75-.23a3.84,3.84,0,0,0-1.26-1.2c6.74-.95,10.47-3.42,10.47-7.06,0-2.29-1.77-4-4.9-4s-6.55,1.71-9.3,4.06a25.88,25.88,0,0,0-2.27,2.35c-.19.2-.33.25-.56.08a6.67,6.67,0,0,1-1-1,.25.25,0,0,1,0-.42c2.05-1.94,3.76-3.62,6-6,1.65-1.82,4-4.53,6.61-7.64-2.38.42-4.65.81-6.78,1.2a9.76,9.76,0,0,0-1.15.31,1.38,1.38,0,0,1-.56.17c-.14,0-.28-.11-.42-.36a10.36,10.36,0,0,1-.73-1.85,18.36,18.36,0,0,0,3.39-.17c1.77-.22,4.06-.56,6.16-1a2,2,0,0,0,.95-.37.54.54,0,0,1,.68,0,5,5,0,0,1,1.28,1.38.56.56,0,0,1-.3.86,3.2,3.2,0,0,0-1,.9c-2.27,2.49-4.34,4.68-7.48,8Z"/><path class="cls-3" d="M429.09,332.4a19.5,19.5,0,0,1,6.08-1.34c2.77,0,5.18,1.9,5.18,6.27a10,10,0,0,1-2.3,6.47,16.33,16.33,0,0,1-4.95,3.95c-.57.31-.76.25-1,0a3.49,3.49,0,0,0-1.4-.95,15,15,0,0,0,6-4.57,8.32,8.32,0,0,0,1.59-5.09c0-3.36-1.76-4.32-3.47-4.32a13.49,13.49,0,0,0-4.09,1,24,24,0,0,0-2.52,1.15c-.39.23-.61.42-.89.42s-.39-.22-.53-.45a12.22,12.22,0,0,1-.9-1.79A13,13,0,0,0,429.09,332.4Zm9.32-6.07c.23,0,.31.14.28.36a7.71,7.71,0,0,1-.33,1.32c-.09.22-.11.33-.31.31a32.77,32.77,0,0,1-7.64-2.1c-.09,0-.11-.14-.09-.4a8.36,8.36,0,0,1,.45-1.54A29.22,29.22,0,0,0,438.41,326.33Z"/><path class="cls-3" d="M450,330.19a6.24,6.24,0,0,1,6.6-5.51c3.67,0,6.19,2.12,6.19,5.4,0,2-.84,3.39-3.3,5.54-1.93,1.74-2.3,2.64-2.33,5.35h-1.85v-.7a6.56,6.56,0,0,1,2.41-5.65c2.13-2.05,2.64-3,2.64-4.54,0-2.1-1.35-3.47-3.73-3.47-2.57,0-4,1.45-4.34,4.17Zm7.75,17h-3.05v-3h3.05Z"/><path class="cls-3" d="M209.35,205.41c0,7.45.05,8.74.05,8.88s0,.2-.22.2h-1.32c-.19,0-.22,0-.22-.2v-1.57H193.78v1.6c0,.17,0,.19-.23.19h-1.31c-.2,0-.23,0-.23-.19s.06-1.46.06-8.88v-5.18c0-5.21-.06-6.55-.06-6.69s0-.22.23-.22,1.15.05,3.92.05h1.65a23.3,23.3,0,0,0,1.12-3,6.56,6.56,0,0,0,.2-1.23c.64.09,1.31.23,1.79.34.22.05.33.19.33.31a.39.39,0,0,1-.17.3,2.11,2.11,0,0,0-.41.7,24.59,24.59,0,0,1-1.07,2.55h5.66c2.77,0,3.75-.05,3.92-.05s.22,0,.22.22-.05,1.48-.05,6.05ZM207.64,195H193.78v4.17h13.86Zm0,5.71H193.78v4.2h13.86Zm0,5.74H193.78v4.68h13.86Z"/><path class="cls-3" d="M229.37,191.58a1.57,1.57,0,0,0-.51.62A26.22,26.22,0,0,1,220,202.64c-.22.17-.33.25-.42.25s-.22-.11-.39-.36a3.37,3.37,0,0,0-1-.92,22.73,22.73,0,0,0,8.74-9.78,5.86,5.86,0,0,0,.44-1.65,11.57,11.57,0,0,1,1.8.67c.25.12.36.26.36.42S229.5,191.47,229.37,191.58Zm5.17,9.13c2.75,0,3.65-.06,3.81-.06s.26.06.26.26c-.06.86-.06,1.79-.12,3a48.42,48.42,0,0,1-.67,7.06c-.33,1.88-1.2,3.19-3.58,3.19A19.87,19.87,0,0,1,232,214c-.56,0-.56,0-.67-.65a3.44,3.44,0,0,0-.56-1.31,17.88,17.88,0,0,0,3.19.28c1.31,0,1.9-.62,2.15-2.1a51.34,51.34,0,0,0,.62-8h-6.24a13.62,13.62,0,0,1-8.43,12.18,1.55,1.55,0,0,1-.39.14c-.14,0-.23-.11-.42-.42a3.2,3.2,0,0,0-.9-.93c5.15-2,8-5.65,8.37-11h-1.26c-2.71,0-3.61.05-3.75.05s-.22,0-.22-.22v-1.23c0-.2,0-.23.22-.23s1,.06,3.75.06Zm-.33-10.5c.33-.17.36-.14.45.08a24.15,24.15,0,0,0,9.74,11,4.38,4.38,0,0,0-1,1.12c-.17.25-.25.39-.34.39s-.19-.08-.39-.22A29.57,29.57,0,0,1,233.12,191c-.12-.22,0-.22.25-.36Z"/><path class="cls-3" d="M263.11,195.11a31.48,31.48,0,0,1-3.7,12.24c-1.2,2-2.46,2.88-4.12,2.88-2.1,0-4.08-2.3-4.08-6.36a10.17,10.17,0,0,1,3.24-7.25,12,12,0,0,1,8.4-3.11c6.28,0,10,3.67,10,9,0,4.56-2.83,8.23-8.9,9.77a.55.55,0,0,1-.73-.31,3.2,3.2,0,0,0-1.09-1c5.54-1.09,8.73-4.09,8.73-8.77a7,7,0,0,0-7.22-7.08Zm-7.42,2.69a8.66,8.66,0,0,0-2.69,6c0,3.05,1.26,4.36,2.27,4.36s1.79-.61,2.6-2a29.8,29.8,0,0,0,3.28-10.95A9.37,9.37,0,0,0,255.69,197.8Z"/><path class="cls-3" d="M298.36,204.83a15.53,15.53,0,0,0,7.5,3.38,3.4,3.4,0,0,0-.73,1c-.22.51-.28.48-.78.31a16.16,16.16,0,0,1-7.9-4.7H289a20.28,20.28,0,0,1-7.53,4.84c-.51.2-.53.2-.81-.25a3.36,3.36,0,0,0-.76-.9,19.39,19.39,0,0,0,7.08-3.69h-2.66c-2.63,0-3.47,0-3.64,0s-.19,0-.19-.25v-1c0-.19,0-.22.19-.22s1,.06,3.64.06h2.41v-9h-1c-2.75,0-3.7.06-3.84.06s-.22,0-.22-.23v-1.09c0-.2,0-.22.22-.22s1.09,0,3.84,0h1v-.11a18.58,18.58,0,0,0-.17-3.3,16.06,16.06,0,0,1,1.8.16c.16,0,.3.12.3.23a1.72,1.72,0,0,1-.16.5,10.55,10.55,0,0,0-.14,2.41V193H297v-.11a18.58,18.58,0,0,0-.17-3.3,16.77,16.77,0,0,1,1.79.16c.2,0,.31.12.31.23a1.26,1.26,0,0,1-.17.53,10.65,10.65,0,0,0-.14,2.38V193H300c2.75,0,3.67,0,3.84,0s.22,0,.22.22v1.09c0,.2,0,.23-.22.23s-1.09-.06-3.84-.06h-1.37v9h2.66c2.63,0,3.47-.06,3.64-.06s.23,0,.23.22v1c0,.22,0,.25-.23.25s-1,0-3.64,0Zm5.21,8.84c0,.2,0,.23-.23.23s-1.06-.06-3.86-.06H286c-2.8,0-3.73.06-3.89.06s-.23,0-.23-.23v-1.12c0-.19,0-.22.23-.22s1.09.06,3.89.06h5.85v-2.55h-2.21c-2.63,0-3.47,0-3.61,0s-.23,0-.23-.22v-1.06c0-.2,0-.23.23-.23s1,.06,3.61.06h2.21v-.23a13.64,13.64,0,0,0-.17-2.4c.7,0,1.21.08,1.74.14.17,0,.28.11.28.22a1.7,1.7,0,0,1-.11.39,5.43,5.43,0,0,0-.14,1.6v.28h2.32c2.6,0,3.47-.06,3.64-.06s.22,0,.22.23v1.06c0,.2,0,.22-.22.22s-1,0-3.64,0h-2.32v2.55h6c2.8,0,3.69-.06,3.86-.06s.23,0,.23.22ZM297,194.41h-8.65v2H297Zm0,3.36h-8.65v2.1H297Zm0,3.42h-8.65v2.24H297Z"/><path class="cls-3" d="M335.71,209.45c0,.16,0,.19-.22.19s-1,0-3.7,0h-7.64v1.7c0,2.3.05,3.11.05,3.25s0,.2-.22.2h-1.37c-.2,0-.23,0-.23-.2s.06-.95.06-3.25v-1.7h-7.17c-2.63,0-3.5,0-3.67,0s-.22,0-.22-.19V208.3c0-.2,0-.23.22-.23s1,.06,3.67.06h7.17a14.8,14.8,0,0,0-.2-2.44,18.18,18.18,0,0,1,1.88.17c.17,0,.31.09.31.23a1.28,1.28,0,0,1-.14.47,4.55,4.55,0,0,0-.14,1.57h7.64c2.66,0,3.53-.06,3.7-.06s.22,0,.22.23Zm-23.55-14.31c.14-.2.17-.23.37-.14a18.69,18.69,0,0,1,3.61,1.9c.14.11.11.2,0,.42l-.48.7c-.25.37-.25.42-.47.25a16.43,16.43,0,0,0-3.5-2c-.2-.08-.2-.17,0-.45Zm5.35,6.58a40.91,40.91,0,0,1-3.56,3.47,5.38,5.38,0,0,0-.86.9c-.12.19-.2.25-.31.25s-.2-.06-.31-.2c-.28-.39-.62-.89-.9-1.37a10.67,10.67,0,0,0,1.8-1.15,29.71,29.71,0,0,0,4-4,4.61,4.61,0,0,0,.31,1.1C317.9,201.27,317.87,201.33,317.51,201.72Zm-3.58-11.54c.14-.19.22-.19.39-.14a17.43,17.43,0,0,1,3.53,2.19c.14.11.16.16,0,.42l-.51.67c-.22.31-.3.33-.5.17a16.54,16.54,0,0,0-3.42-2.22c-.19-.11-.16-.14.06-.44Zm21.25,14.76c0,.19,0,.22-.23.22s-1.06,0-3.72,0h-6.86c-2.69,0-3.64,0-3.78,0s-.22,0-.22-.22.05-1.07.05-3.19v-5.88a22.73,22.73,0,0,1-1.57,1.73c-.19.17-.28.28-.39.28s-.17-.11-.36-.31a3,3,0,0,0-.79-.61,20,20,0,0,0,4.4-5.74,8.87,8.87,0,0,0,.64-1.82,11,11,0,0,1,1.63.42c.19.08.28.17.28.31a.52.52,0,0,1-.28.39,3.24,3.24,0,0,0-.76,1.09,12.24,12.24,0,0,1-.81,1.46h4.51a18.08,18.08,0,0,0,.92-2,7.63,7.63,0,0,0,.42-1.51,11.65,11.65,0,0,1,1.6.42c.17,0,.28.16.28.28s-.09.22-.25.33a1.12,1.12,0,0,0-.34.45c-.28.53-.73,1.4-1.09,2H331c2.52,0,3.36-.06,3.5-.06s.22,0,.22.22v.93c0,.22,0,.25-.22.25s-1-.06-3.5-.06h-2.64v2.19h1.85c2.47,0,3.22-.06,3.39-.06s.22,0,.22.23v.92c0,.2,0,.22-.22.22s-.92,0-3.39,0h-1.85v2.27h1.77c2.46,0,3.27-.06,3.39-.06s.22,0,.22.22v.93c0,.19,0,.22-.22.22s-.93,0-3.39,0h-1.77v2.49h2.86c2.66,0,3.56,0,3.72,0s.23,0,.23.2Zm-8.32-10.59H322v2.19h4.9Zm0,3.45H322v2.27h4.9Zm0,3.53H322v2.49h4.9Z"/><path class="cls-3" d="M346.29,201.16a27.21,27.21,0,0,1,7.56-1.6c3.48,0,5.83,2.16,5.83,5.46,0,2.69-1.18,4.43-3.7,5.8a18.24,18.24,0,0,1-5.79,1.87c-.31.06-.42,0-.56-.28a3.86,3.86,0,0,0-1.07-1.17,19.14,19.14,0,0,0,6.41-1.85,4.65,4.65,0,0,0,2.8-4.48c0-2.49-1.65-3.72-4.14-3.72-2.07,0-5.1.95-8.26,2.24a6.52,6.52,0,0,0-1.32.7,1.46,1.46,0,0,1-.53.25.7.7,0,0,1-.5-.31,10.16,10.16,0,0,1-1-1.85A25.35,25.35,0,0,0,346.29,201.16Z"/><path class="cls-3" d="M382.55,195.28c-4.2.67-7.84,1.26-11.36,2a5.73,5.73,0,0,0-1.68.47,1.5,1.5,0,0,1-.54.2.49.49,0,0,1-.39-.25,15.62,15.62,0,0,1-.78-2,22.25,22.25,0,0,0,3.47-.34c4.17-.67,9.86-1.51,17.36-2.43.28,0,.42,0,.48.22a8.34,8.34,0,0,1,.16,1.4c0,.25-.08.31-.36.34a11.5,11.5,0,0,0-4.09.84c-4.09,1.62-7.22,5.06-7.22,8.82,0,4.64,4.06,6,8.15,6.35.36,0,.44.09.44.31a8.67,8.67,0,0,1-.16,1.34c-.06.31-.14.42-.45.4-4.73-.42-9.83-2.44-9.83-8.1,0-3.94,2.44-7.19,6.83-9.52Z"/><path class="cls-3" d="M420.63,212.61c0,.2,0,.22-.19.22s-1-.05-3.64-.05H399.89c-2.61,0-3.48.05-3.62.05s-.22,0-.22-.22v-1.32c0-.19,0-.22.22-.22s1,.06,3.62.06h.67v-8.74a18.65,18.65,0,0,0-.23-3.84c.7,0,1.4.09,2,.17.23,0,.37.11.37.25a1.51,1.51,0,0,1-.2.56,9.86,9.86,0,0,0-.17,2.83v8.77h5.6v-18h-6.75c-2.74,0-3.69.06-3.83.06s-.23,0-.23-.23v-1.31c0-.2,0-.23.23-.23s1.09.06,3.83.06h14.37c2.74,0,3.69-.06,3.83-.06s.23,0,.23.23V193c0,.2,0,.23-.23.23s-1.09-.06-3.83-.06h-5.83v7.7h4.85c2.18,0,2.88-.06,3-.06s.23,0,.23.23v1.29c0,.19,0,.22-.23.22s-.84-.06-3-.06h-4.85v8.66h7.09c2.63,0,3.47-.06,3.64-.06s.19,0,.19.22Z"/><path class="cls-3" d="M437.8,208.35c0,1.26.05,2.52.05,3.7a2.24,2.24,0,0,1-.67,1.88c-.45.33-1.12.47-2.77.47-.56,0-.56,0-.7-.56a3.16,3.16,0,0,0-.5-1.12,17.35,17.35,0,0,0,2.32.09c.53,0,.87-.28.87-1.07v-5h-6.53a17.58,17.58,0,0,1-1.93,7.34c-.11.22-.19.33-.28.33a.45.45,0,0,1-.31-.19,3.52,3.52,0,0,0-1-.7c1.71-2.86,2.19-5.94,2.19-11V200c0-1.42,0-2.29,0-2.8l-.93,1.07c-.16.17-.25.28-.33.28s-.2-.11-.37-.34a3.2,3.2,0,0,0-.7-.67,18.82,18.82,0,0,0,4.09-6.16,7,7,0,0,0,.51-1.85,11.76,11.76,0,0,1,1.51.48c.19.08.31.17.31.31s-.09.25-.23.36a3.21,3.21,0,0,0-.67,1.23h3a1.26,1.26,0,0,0,.5-.08.52.52,0,0,1,.25-.09c.11,0,.28.09.65.4s.53.53.53.64-.06.22-.25.39a1.93,1.93,0,0,0-.48.67,27.89,27.89,0,0,1-1.51,2.69h.31c2.07,0,2.71,0,2.88,0s.22,0,.22.22-.05,1.12-.05,3.3Zm-6.67-15.2a24,24,0,0,1-2.07,3.3c.37,0,1.09,0,2.58,0h1.23a19.54,19.54,0,0,0,1.71-3.33Zm1.38,9H430v.47c0,1,0,1.91-.05,2.75h2.55Zm0-4.4H430v3.08h2.5Zm3.89,0h-2.52v3.08h2.52Zm0,4.4h-2.52v3.22h2.52ZM447,191.3c2.36,0,3.14-.05,3.31-.05s.25.05.25.25c-.06.42-.06.84-.08,1.26a17.23,17.23,0,0,1-.68,4.7,2.06,2.06,0,0,1-2.15,1.26,13.72,13.72,0,0,1-1.74-.08c-.5-.06-.5-.06-.59-.53a4,4,0,0,0-.36-1.15,10.27,10.27,0,0,0,2.16.22c.75,0,1.14-.17,1.31-.73a18,18,0,0,0,.42-3.75h-4.14c-.37,3.19-1.68,5-4.54,6.64a1,1,0,0,1-.39.17c-.11,0-.2-.12-.39-.34a3.57,3.57,0,0,0-.9-.78c3-1.4,4.26-2.92,4.59-5.69h-.5c-2.35,0-3.11.06-3.25.06s-.22,0-.22-.23v-1.06c0-.2,0-.22.22-.22s.9.05,3.25.05Zm4.74,17.31c0,.22,0,.25-.2.25s-1-.06-3.53-.06h-1.87v2c0,2.41.05,3.45.05,3.59s0,.22-.22.22h-1.21c-.19,0-.22,0-.22-.22s.06-1.18.06-3.59v-2h-2c-2.55,0-3.39.06-3.53.06s-.22,0-.22-.25v-1.1c0-.19,0-.22.22-.22s1,.06,3.53.06h2v-3.22h-3.34c-.3.58-.64,1.2-1,1.82-.17.25-.25.36-.37.36a.8.8,0,0,1-.42-.2,3.82,3.82,0,0,0-.92-.36,13.64,13.64,0,0,0,2.16-3.95,8,8,0,0,0,.36-1.57,12.62,12.62,0,0,1,1.34.42c.23.09.34.17.34.31s-.08.2-.17.28a1.71,1.71,0,0,0-.36.73l-.28.73h2.69v-1.21a9.11,9.11,0,0,0-.17-2c.67,0,1.2.08,1.71.14.16,0,.28.08.28.22a1.39,1.39,0,0,1-.14.42,4,4,0,0,0-.14,1.26v1.21h1c2.49,0,3.27-.06,3.41-.06s.23,0,.23.23V204c0,.19,0,.22-.23.22s-.92-.05-3.41-.05h-1v3.22H448c2.55,0,3.39-.06,3.53-.06s.2,0,.2.22Z"/><path class="cls-3" d="M470.05,194.91c.26,0,.34,0,.37.17.05.34.11.84.14,1.21s0,.3-.25.33c-1.52.31-3,.56-4.68.81A66.85,66.85,0,0,1,460,209.25c-.14.22-.28.2-.45.08a6.27,6.27,0,0,1-1.12-.84c-.16-.14-.16-.25,0-.47a49.28,49.28,0,0,0,5.26-10.42c-1.2.11-2.32.2-3.53.2a14.16,14.16,0,0,1-1.48-.06c-.25,0-.28-.05-.34-.33a8.47,8.47,0,0,1-.16-1.4c.89.08,1.62.11,2.21.11a35.82,35.82,0,0,0,3.8-.23,33.18,33.18,0,0,0,.84-3.27,8.12,8.12,0,0,0,.23-2.19,12,12,0,0,1,2.18.56.32.32,0,0,1,.25.31.56.56,0,0,1-.22.42,2.67,2.67,0,0,0-.39.87c-.31,1-.62,2-.9,3A35,35,0,0,0,470.05,194.91Zm1.71,6.78a8.71,8.71,0,0,0-.17-1.79,9,9,0,0,1,1.91.36c.19.06.31.17.31.34a1.5,1.5,0,0,1-.17.5,4.43,4.43,0,0,0-.11,1.32,48.64,48.64,0,0,0,.33,5.15,24,24,0,0,1,5.29,2.8c.23.14.2.22.12.45a8.37,8.37,0,0,1-.68,1.23c-.13.2-.28.17-.44,0a16.79,16.79,0,0,0-4.26-2.66c0,2.83-1.4,4.37-5,4.37-2.13,0-4.34-1.1-4.34-3.42,0-2.1,2-3.53,4.76-3.53a13.64,13.64,0,0,1,2.8.34C471.93,205.44,471.79,203.2,471.76,201.69Zm-2.38,6.69c-2.24,0-3.25.87-3.25,1.91,0,1.28,1,1.87,2.89,1.87,2.29,0,3.14-1.2,3.14-2.63a3.55,3.55,0,0,0,0-.67A9.3,9.3,0,0,0,469.38,208.38Zm4.76-12.54c.14-.23.23-.25.48-.17a19.85,19.85,0,0,1,5.49,2.63c.19.17.19.28.05.51a7.23,7.23,0,0,1-.64,1.12c-.14.19-.23.16-.39,0a18.87,18.87,0,0,0-5.71-2.85C473.69,196.65,473.92,196.17,474.14,195.84Z"/><path class="cls-3" d="M500,195.11a31.31,31.31,0,0,1-3.69,12.24c-1.21,2-2.47,2.88-4.12,2.88-2.1,0-4.09-2.3-4.09-6.36a10.18,10.18,0,0,1,3.25-7.25,11.94,11.94,0,0,1,8.4-3.11c6.27,0,10,3.67,10,9,0,4.56-2.83,8.23-8.91,9.77a.55.55,0,0,1-.73-.31,3.11,3.11,0,0,0-1.09-1c5.55-1.09,8.74-4.09,8.74-8.77a7,7,0,0,0-7.23-7.08Zm-7.42,2.69a8.71,8.71,0,0,0-2.69,6c0,3.05,1.26,4.36,2.27,4.36s1.79-.61,2.61-2a29.81,29.81,0,0,0,3.27-10.95A9.43,9.43,0,0,0,492.62,197.8Z"/><path class="cls-3" d="M518.08,196.26a6.25,6.25,0,0,1,6.6-5.52c3.67,0,6.19,2.13,6.19,5.41,0,2-.84,3.38-3.3,5.54-1.94,1.74-2.3,2.63-2.33,5.35h-1.85v-.7a6.59,6.59,0,0,1,2.41-5.66c2.13-2,2.63-3,2.63-4.53,0-2.1-1.34-3.48-3.72-3.48-2.58,0-4,1.46-4.34,4.18Zm7.75,17h-3.05v-3h3.05Z"/><path class="cls-3" d="M63.61,72.28c.16.08.19.19.08.36a4.49,4.49,0,0,0-.76,2.18c0,2.3,2.58,3.42,7.17,3.42a35.08,35.08,0,0,0,8-.81c.25-.06.33,0,.39.19a13.7,13.7,0,0,1,.25,1.46c0,.22-.08.31-.36.36a40.34,40.34,0,0,1-8.49.73c-5.43,0-8.7-1.65-8.7-5.26a5.85,5.85,0,0,1,1.14-3.31C62.77,71.8,63.21,72.05,63.61,72.28Zm6.55-10.47c2,0,4.25-.09,6.19-.26.25,0,.36.06.39.26a8.84,8.84,0,0,1,.08,1.25c0,.31-.11.4-.39.42a18.58,18.58,0,0,0-7.25,3.2.65.65,0,0,1-.79,0,3.28,3.28,0,0,0-1.14-.56,37.26,37.26,0,0,1,4.81-2.8c-.92.09-2.15.11-3,.11a29.6,29.6,0,0,1-5.69-.5c-.16,0-.25-.11-.25-.39s0-1,.06-1.43A33.21,33.21,0,0,0,70.16,61.81Z"/><path class="cls-3" d="M94.8,59c.31.11.45.25.45.45a1.07,1.07,0,0,1-.14.36,2.48,2.48,0,0,0-.23,1.09c-.11,1.29-.17,2.33-.22,3.75a4.9,4.9,0,0,1,1,.65c.17.14.19.31,0,.56-.4.64-.76,1.31-1.18,2.15,0,.37,0,.68-.06,1.07a40.45,40.45,0,0,1,3.17-3.28c1.71-1.65,3.33-2.77,5-2.77,1.94,0,3,1.26,3,3.5,0,1.23-.08,3.08-.25,5.21s-.28,3.69-.28,4.62c0,1.76.47,2.18,1.4,2.18a3.31,3.31,0,0,0,2.32-1.06,8.14,8.14,0,0,0,1.71-2.66,3.48,3.48,0,0,0,.64,1.43.65.65,0,0,1,0,.89c-1.28,2.08-2.88,3.19-4.81,3.19s-3.08-1.06-3.08-3.66c0-1.26.08-2.86.22-4.79s.23-3.45.23-4.82c0-1.54-.4-2.41-1.29-2.41s-2.19.68-3.73,2.08a60.28,60.28,0,0,0-4.22,4.42c0,2.91.08,6.64.11,10.56,0,.16-.06.25-.28.28s-.9,0-1.35,0c-.14,0-.22-.08-.22-.3,0-4.12,0-7,.06-9.41-1.35,1.9-2.66,3.89-4.12,6.07-.17.25-.25.28-.48.14a5.1,5.1,0,0,1-1-.95c-.17-.14-.09-.31.05-.5,2.27-2.94,3.92-5.24,5.58-7.79,0-1,0-1.73.08-2.43-1.4.42-2.69.84-3.84,1.31-.3.12-.56.37-.72.37a.54.54,0,0,1-.42-.28A7.23,7.23,0,0,1,87,66.59a10,10,0,0,0,2-.28c1-.28,2.22-.61,3.92-1.17,0-1.29.06-2.52.09-3.78a13.16,13.16,0,0,0-.2-2.78A8.51,8.51,0,0,1,94.8,59Z"/><path class="cls-3" d="M124.53,64.58a16.66,16.66,0,0,0,6.28,6.63,3.24,3.24,0,0,0-.79,1.07c-.11.25-.19.36-.31.36s-.22-.08-.39-.22A20,20,0,0,1,123.78,66a22.62,22.62,0,0,1-4,5.49c.28,0,1,.06,2.58.06h2.8c1.93,0,2.55-.06,2.69-.06s.22,0,.22.2-.06.81-.06,2.4v2.16c0,3.53.06,4.09.06,4.23s0,.22-.22.22h-1.21c-.19,0-.22,0-.22-.22v-.62h-5.35v1.6c0,.2,0,.22-.22.22h-1.21c-.17,0-.19,0-.19-.22s0-.76,0-4.65V74.71c0-1.79,0-2.54,0-2.85-.54.53-1.1,1-1.68,1.51-.17.14-.28.22-.37.22s-.19-.14-.33-.39a2.93,2.93,0,0,0-.7-1,18.19,18.19,0,0,0,6-6.94,4.8,4.8,0,0,0,.53-1.69c.62.09,1.26.2,1.63.28.22.06.36.14.36.29a.27.27,0,0,1-.17.27Zm-2-4.71a3.34,3.34,0,0,0-.59.84,20.84,20.84,0,0,1-3.75,4.57c-.2.14-.31.22-.39.22s-.2-.11-.34-.33a2.67,2.67,0,0,0-.73-.9,15.52,15.52,0,0,0,3.67-4,5.78,5.78,0,0,0,.7-1.71,7.77,7.77,0,0,1,1.43.67c.17.11.25.2.25.34S122.69,59.76,122.52,59.87Zm3.92,13.19h-5.35v5.35h5.35Zm-.62-14.36c.28-.17.31-.17.45,0a13.37,13.37,0,0,0,4,4.33,3.83,3.83,0,0,0-.84.9c-.14.23-.23.34-.34.34s-.19-.09-.39-.26A15.67,15.67,0,0,1,125,59.48c-.09-.17-.06-.22.22-.42Zm16.07,23.38c-.16.25-.22.39-.33.39s-.2-.09-.37-.25a19.44,19.44,0,0,1-6-10.31,15,15,0,0,1-6,10.59c-.2.14-.31.22-.4.22s-.19-.11-.39-.36a3,3,0,0,0-1-.84c4.93-2.75,6.64-8.4,6.61-13a20.79,20.79,0,0,0-.11-2.94,12.38,12.38,0,0,1,1.73.2c.25.06.34.14.34.25a1,1,0,0,1-.14.51c-.09.17-.2.42-.23,1.84,1,5.74,3.45,9.94,7.2,12.63A3.78,3.78,0,0,0,141.89,82.08Zm-1.76-19.8a1.4,1.4,0,0,0,.56-.08.84.84,0,0,1,.28-.09c.17,0,.34.09.76.51s.5.56.5.7-.08.22-.2.33a1.27,1.27,0,0,0-.39.7,37.65,37.65,0,0,1-2.24,5.13c-.11.25-.19.36-.28.36a.88.88,0,0,1-.42-.25,4.3,4.3,0,0,0-1.06-.51,21.22,21.22,0,0,0,2.46-5.31h-7A22.57,22.57,0,0,1,130.81,68c-.17.25-.26.36-.37.36a.88.88,0,0,1-.42-.25,3.16,3.16,0,0,0-1-.53,19.86,19.86,0,0,0,3.75-8.23,13.82,13.82,0,0,0,.28-1.93,14.16,14.16,0,0,1,1.68.36c.22.06.33.2.33.31a.57.57,0,0,1-.22.42,2.77,2.77,0,0,0-.45,1.09c-.25.92-.5,1.79-.78,2.66Z"/><path class="cls-3" d="M153.82,59.51c.31.08.45.22.45.42a2.2,2.2,0,0,1-.22.73,14.71,14.71,0,0,0-.34,2.88c-.25,4.23-.42,8.06-.42,11.93,0,3.13.87,4.09,3.3,4.09,3.56,0,7.2-2.16,10.08-5.35a6.81,6.81,0,0,0,.48,1.62,1.28,1.28,0,0,1,.11.4c0,.16-.08.3-.33.53a15.63,15.63,0,0,1-10.67,4.7c-3.17,0-4.87-1.51-4.87-5.63,0-4,.25-8.54.39-12.49a15.49,15.49,0,0,0-.23-4.22A10.63,10.63,0,0,1,153.82,59.51Z"/><path class="cls-3" d="M178,62.28a.38.38,0,0,1,.26.31,1.88,1.88,0,0,1-.12.5,9.84,9.84,0,0,0-.22,2.58,45.15,45.15,0,0,0,.39,6.35c.42,3.31,1.63,5.72,3,5.72,1.12,0,2.18-1.8,3-4.4a3.53,3.53,0,0,0,.92,1.4.62.62,0,0,1,.22.7c-.78,2.27-2.29,4.4-4.17,4.4-2.35,0-4.11-3.25-4.73-7.65a61.67,61.67,0,0,1-.5-7.81,11.73,11.73,0,0,0-.23-2.69A7.87,7.87,0,0,1,178,62.28Zm13.36,2.16c.17-.09.31-.11.42,0a16.93,16.93,0,0,1,5.46,9.68c0,.2-.06.28-.2.37a5.68,5.68,0,0,1-1.28.64.26.26,0,0,1-.37-.22,16.33,16.33,0,0,0-5.26-9.72A11.65,11.65,0,0,1,191.37,64.44Z"/><path class="cls-3" d="M217.58,63.15a31.2,31.2,0,0,1-3.7,12.23c-1.2,2.05-2.46,2.89-4.11,2.89-2.1,0-4.09-2.3-4.09-6.36a10.14,10.14,0,0,1,3.25-7.25,11.94,11.94,0,0,1,8.4-3.11c6.27,0,10,3.67,10,9,0,4.56-2.83,8.23-8.9,9.77a.56.56,0,0,1-.73-.31,3.2,3.2,0,0,0-1.09-1c5.54-1.1,8.73-4.09,8.73-8.77a7,7,0,0,0-7.22-7.08Zm-7.42,2.69a8.66,8.66,0,0,0-2.69,6c0,3.06,1.26,4.37,2.27,4.37s1.79-.61,2.6-2a29.8,29.8,0,0,0,3.28-10.95A9.37,9.37,0,0,0,210.16,65.84Z"/><path class="cls-3" d="M248.91,63.06c.22-.05.31,0,.34.2s.11.81.14,1.15,0,.36-.28.42A47.37,47.37,0,0,1,244,66a126.64,126.64,0,0,1-5.38,15.09c-.11.25-.22.25-.42.17s-1-.42-1.31-.62a.28.28,0,0,1-.12-.36,86.94,86.94,0,0,0,5.24-14c-1.82.19-3.75.3-5.66.33-.33,0-.39,0-.44-.28s-.14-1-.23-1.54a15.3,15.3,0,0,0,1.77.06,43.08,43.08,0,0,0,5-.34c.39-1.48.61-2.49.81-3.53a11,11,0,0,0,.22-2.63,11.26,11.26,0,0,1,2.24.64.34.34,0,0,1,.23.31.77.77,0,0,1-.23.45,2.64,2.64,0,0,0-.45,1.09c-.33,1.15-.58,2.3-.89,3.36A32.59,32.59,0,0,0,248.91,63.06Zm-1.4,12.83c.22,0,.28,0,.31.28.19,2.52,1.76,3.36,5.29,3.36a31.15,31.15,0,0,0,4.14-.36c.23,0,.31,0,.34.19a9.46,9.46,0,0,1,.11,1.35c0,.27-.08.33-.31.36a25.29,25.29,0,0,1-3.66.28c-3,0-4.9-.39-6.16-1.54A4.76,4.76,0,0,1,246.19,76,8.14,8.14,0,0,1,247.51,75.89Zm.7-7.2c0-.25.06-.33.36-.42a22.62,22.62,0,0,1,4.9-.58A30.45,30.45,0,0,1,257,68c.33.06.39.14.42.31a9.82,9.82,0,0,1,0,1.23c0,.34-.11.42-.36.37a21.92,21.92,0,0,0-3.58-.31,24.11,24.11,0,0,0-5.16.62C248.24,69.7,248.21,69,248.21,68.69Zm5.8-8.4a.23.23,0,0,1,.28,0,13.51,13.51,0,0,1,3.16,3.39.2.2,0,0,1-.06.31l-.81.67a.22.22,0,0,1-.36-.06A12,12,0,0,0,253,61.05Zm2.32-1.82c.11-.08.2-.11.31,0a16,16,0,0,1,3.19,3.28c.08.14.06.22-.08.34l-.76.67c-.11.11-.22.11-.34-.06a13.27,13.27,0,0,0-3.22-3.5Z"/><path class="cls-3" d="M270.78,60c.28.17.39.31.39.45a1.05,1.05,0,0,1-.17.45,8.4,8.4,0,0,0-.44,1.65,52.13,52.13,0,0,0-1.07,9.24,20.33,20.33,0,0,0,.65,5.46c.69-1.65,1.26-2.91,2-4.65a4.1,4.1,0,0,0,.64,1.26.5.5,0,0,1,.17.34,1.72,1.72,0,0,1-.25.64,41.69,41.69,0,0,0-1.57,4,3.55,3.55,0,0,0-.11.68c0,.19,0,.36,0,.53a.28.28,0,0,1-.17.25,4.29,4.29,0,0,1-1.09.34.36.36,0,0,1-.45-.23,22.11,22.11,0,0,1-1.59-8.15,52.43,52.43,0,0,1,.75-8.56,25.57,25.57,0,0,0,.37-4.43A8.59,8.59,0,0,1,270.78,60Zm11.28,6.75c-1.4.11-2.74.19-3.92.19-.7,0-1.42,0-2.29,0-.31,0-.39-.12-.45-.34a11.78,11.78,0,0,1-.14-1.45c1,.08,2.13.11,3.14.11s2.46-.06,3.64-.17c-.06-2.07-.09-3.39-.14-4.28a5.64,5.64,0,0,0-.4-1.94,9.3,9.3,0,0,1,2.24.26c.23.08.34.16.34.33a2,2,0,0,1-.11.39,3,3,0,0,0-.14,1.15c0,1.09,0,2.49,0,3.89a33.9,33.9,0,0,0,4-.7c.22,0,.34,0,.36.17.06.39.09.79.14,1.23,0,.25-.05.34-.25.37a36.48,36.48,0,0,1-4.2.64l.06,4.06a14.73,14.73,0,0,1-1.18,6.78,10.44,10.44,0,0,1-3.86,4.28.86.86,0,0,1-.53.22c-.15,0-.26,0-.45-.25a3.24,3.24,0,0,0-1.23-.64,8.92,8.92,0,0,0,4.56-4.79,15.54,15.54,0,0,0,.84-6.41Z"/><path class="cls-3" d="M302.87,59.71a.39.39,0,0,1,.33.36c0,.28-.14.53-.14,1,0,.62.09,1.18.17,1.79a37.86,37.86,0,0,0,1.09,5.66c1.66-.81,3.34-1.6,5-2.52a4.67,4.67,0,0,0,1.62-1.29,11.18,11.18,0,0,1,1.43,1.57c.22.33.17.72-.34.78a10.2,10.2,0,0,0-2.46.9c-2,1-4.45,2.1-6.36,3.19-2.82,1.65-4.14,3.11-4.14,5.07,0,2.49,2.35,3.1,6.58,3.08a53.72,53.72,0,0,0,7.19-.59c.26,0,.34,0,.4.25a13.56,13.56,0,0,1,.17,1.46c0,.25-.09.36-.4.39a62.63,62.63,0,0,1-7.44.39c-4.85,0-8.35-1.06-8.35-4.9,0-2.69,1.91-4.76,5.46-6.92a50.76,50.76,0,0,1-1.48-7.16,10.34,10.34,0,0,0-.62-2.75A12.08,12.08,0,0,1,302.87,59.71Zm9.35.11c.11-.09.2-.06.31,0a13.47,13.47,0,0,1,3.16,3.38.2.2,0,0,1-.06.31l-.81.67a.22.22,0,0,1-.36,0,12.16,12.16,0,0,0-3.25-3.59ZM314.57,58c.11-.09.2-.12.31,0a16,16,0,0,1,3.19,3.28c.09.13.06.22-.08.33l-.76.67c-.11.11-.22.11-.33,0a13.32,13.32,0,0,0-3.23-3.5Z"/><path class="cls-3" d="M324.23,76.56a.51.51,0,0,1,.31-.17c.08,0,.17.06.31.17a19.47,19.47,0,0,1,5.37,5,.61.61,0,0,1,.14.34c0,.11,0,.19-.19.33l-1,.84c-.14.12-.22.17-.28.17s-.2,0-.31-.22a20.4,20.4,0,0,0-5.15-5.24c-.14-.08-.2-.14-.2-.2s0-.14.14-.28Z"/><path class="cls-3" d="M345,62.28a.37.37,0,0,1,.25.31,1.82,1.82,0,0,1-.11.5,9.84,9.84,0,0,0-.22,2.58,43.67,43.67,0,0,0,.39,6.35c.42,3.31,1.62,5.72,3,5.72,1.13,0,2.19-1.8,3-4.4a3.64,3.64,0,0,0,.92,1.4.63.63,0,0,1,.23.7c-.78,2.27-2.3,4.4-4.17,4.4-2.35,0-4.12-3.25-4.73-7.65a60.08,60.08,0,0,1-.51-7.81,12.32,12.32,0,0,0-.22-2.69A8,8,0,0,1,345,62.28Zm13.35,2.16c.17-.09.31-.11.42,0a16.88,16.88,0,0,1,5.46,9.68.32.32,0,0,1-.19.37,5.54,5.54,0,0,1-1.29.64.26.26,0,0,1-.36-.22,16.34,16.34,0,0,0-5.27-9.72A12.79,12.79,0,0,1,358.33,64.44Z"/><path class="cls-3" d="M378.66,70.18A12.11,12.11,0,0,1,385.33,68c4.11,0,6.61,2.36,6.61,5.8,0,3.81-3,7-10.42,8.26-.42.08-.56.08-.76-.22a3.67,3.67,0,0,0-1.26-1.21c6.75-1,10.48-3.41,10.48-7,0-2.3-1.77-4-4.9-4s-6.56,1.71-9.3,4.06a27.26,27.26,0,0,0-2.27,2.35c-.19.2-.33.26-.56.09a7.29,7.29,0,0,1-1-1c-.14-.14-.17-.25,0-.42,2-1.93,3.75-3.61,6-6,1.65-1.82,4-4.54,6.6-7.65l-6.77,1.21a6.69,6.69,0,0,0-1.15.31,1.38,1.38,0,0,1-.56.17c-.14,0-.28-.12-.42-.37a9.38,9.38,0,0,1-.73-1.85,18.5,18.5,0,0,0,3.39-.16c1.76-.23,4.06-.56,6.16-1a1.89,1.89,0,0,0,1-.36.5.5,0,0,1,.67,0,5.1,5.1,0,0,1,1.29,1.37.56.56,0,0,1-.31.87,2.93,2.93,0,0,0-1,.89c-2.27,2.5-4.34,4.68-7.48,8Z"/><path class="cls-3" d="M404.09,62.28a.37.37,0,0,1,.25.31,2.28,2.28,0,0,1-.11.5,9.65,9.65,0,0,0-.23,2.58,43.92,43.92,0,0,0,.4,6.35c.42,3.31,1.62,5.72,3,5.72,1.12,0,2.19-1.8,3-4.4a3.64,3.64,0,0,0,.92,1.4.63.63,0,0,1,.23.7c-.79,2.27-2.3,4.4-4.17,4.4-2.36,0-4.12-3.25-4.74-7.65a61.67,61.67,0,0,1-.5-7.81,12.32,12.32,0,0,0-.22-2.69A8,8,0,0,1,404.09,62.28Zm13.35,2.16c.17-.09.31-.11.42,0a16.93,16.93,0,0,1,5.46,9.68.32.32,0,0,1-.19.37,5.54,5.54,0,0,1-1.29.64.25.25,0,0,1-.36-.22,16.34,16.34,0,0,0-5.27-9.72A11.65,11.65,0,0,1,417.44,64.44Z"/><path class="cls-3" d="M437.77,70.18A12.11,12.11,0,0,1,444.44,68c4.11,0,6.6,2.36,6.6,5.8,0,3.81-3,7-10.41,8.26-.42.08-.56.08-.76-.22a3.67,3.67,0,0,0-1.26-1.21c6.75-1,10.47-3.41,10.47-7,0-2.3-1.76-4-4.9-4s-6.55,1.71-9.29,4.06a27.26,27.26,0,0,0-2.27,2.35c-.2.2-.34.26-.56.09a7.29,7.29,0,0,1-1-1c-.14-.14-.17-.25,0-.42,2-1.93,3.75-3.61,6-6,1.66-1.82,4-4.54,6.61-7.65-2.38.42-4.65.82-6.77,1.21a6.69,6.69,0,0,0-1.15.31,1.38,1.38,0,0,1-.56.17c-.14,0-.28-.12-.42-.37a8.79,8.79,0,0,1-.73-1.85,18.5,18.5,0,0,0,3.39-.16c1.76-.23,4.06-.56,6.16-1a1.93,1.93,0,0,0,.95-.36.5.5,0,0,1,.67,0,5.1,5.1,0,0,1,1.29,1.37.57.57,0,0,1-.31.87,3.05,3.05,0,0,0-1,.89c-2.26,2.5-4.34,4.68-7.47,8Z"/><path class="cls-3" d="M471.06,63c.26-.05.34,0,.37.17.05.34.11.84.14,1.21s0,.3-.25.33c-1.52.31-3,.56-4.68.81A66.85,66.85,0,0,1,461,77.29c-.14.22-.28.19-.45.08a6.27,6.27,0,0,1-1.12-.84c-.16-.14-.16-.25,0-.47a49.28,49.28,0,0,0,5.26-10.42c-1.2.11-2.32.2-3.53.2a14.16,14.16,0,0,1-1.48-.06c-.25,0-.28,0-.34-.34a8.21,8.21,0,0,1-.16-1.4,22,22,0,0,0,2.21.12,35.82,35.82,0,0,0,3.8-.23,33.18,33.18,0,0,0,.84-3.27,8.12,8.12,0,0,0,.23-2.19,12,12,0,0,1,2.18.56.32.32,0,0,1,.25.31.56.56,0,0,1-.22.42,2.56,2.56,0,0,0-.39.87c-.31,1-.62,2-.9,3A37.45,37.45,0,0,0,471.06,63Zm1.71,6.78a8.71,8.71,0,0,0-.17-1.79,8.43,8.43,0,0,1,1.91.36c.19.06.31.17.31.34a1.5,1.5,0,0,1-.17.5,4.43,4.43,0,0,0-.11,1.32,48.64,48.64,0,0,0,.33,5.15,24,24,0,0,1,5.29,2.8c.23.14.2.22.12.45a8.37,8.37,0,0,1-.68,1.23c-.14.19-.28.17-.44,0a17,17,0,0,0-4.26-2.66c0,2.82-1.4,4.36-5,4.36-2.13,0-4.34-1.09-4.34-3.41,0-2.1,2-3.53,4.76-3.53a13.64,13.64,0,0,1,2.8.34C472.94,73.48,472.8,71.24,472.77,69.73Zm-2.38,6.69c-2.24,0-3.25.87-3.25,1.9,0,1.29,1,1.88,2.89,1.88,2.29,0,3.14-1.2,3.14-2.63a3.55,3.55,0,0,0,0-.67A9.3,9.3,0,0,0,470.39,76.42Zm4.76-12.54c.14-.23.23-.26.48-.17a20,20,0,0,1,5.49,2.63c.19.17.19.28.05.5a7.11,7.11,0,0,1-.64,1.12c-.14.2-.23.17-.39.06a18.81,18.81,0,0,0-5.72-2.85C474.7,64.69,474.93,64.21,475.15,63.88Z"/><path class="cls-3" d="M502.76,63.23a9.51,9.51,0,0,0,.95-3.27,10.39,10.39,0,0,1,2.33,1.2.46.46,0,0,1,0,.78,5.48,5.48,0,0,0-1.21,1.71,44,44,0,0,1-3.55,6.19,32.19,32.19,0,0,1,4.37,3.92.35.35,0,0,1,0,.53,10,10,0,0,1-.95,1.09c-.19.2-.33.17-.5,0a27.37,27.37,0,0,0-4-3.92,38.86,38.86,0,0,1-10,9.32c-.28.17-.56.25-.81,0a4,4,0,0,0-1.57-.87,35,35,0,0,0,10.84-9.66,42.92,42.92,0,0,0-5.66-3.42c.42-.53.81-1.06,1.07-1.34s.25-.11.44,0a55.72,55.72,0,0,1,5.27,3.14A38.08,38.08,0,0,0,502.76,63.23Z"/><path class="cls-3" d="M520.57,71.44a22.88,22.88,0,0,0-3.78.28c-.25,0-.39-.12-.48-.4A17.53,17.53,0,0,1,516,69.2a52.11,52.11,0,0,0,6.19.25h8.6c1.93,0,4,0,6.13-.09.33,0,.42,0,.42.34a11.85,11.85,0,0,1,0,1.46c0,.3-.09.36-.42.33-2.1,0-4.17,0-6.05,0Z"/><path class="cls-3" d="M553.36,65.11c.08-1,.16-1.88.19-3a13.17,13.17,0,0,0-.14-3,9,9,0,0,1,2.24.42c.39.14.48.42.23.87a5.85,5.85,0,0,0-.37,1.85c0,1-.14,1.79-.25,2.88H560c1.2,0,2.35-.06,3.53-.06.36,0,.42.06.42.34,0,.61,0,1.54-.09,2.57a49.81,49.81,0,0,1-1,8.85c-.56,2.1-1.21,2.92-2.58,3.36a10.13,10.13,0,0,1-2.91.34.41.41,0,0,1-.45-.34,3.13,3.13,0,0,0-1-1.57,9.85,9.85,0,0,0,3.59-.28c.81-.28,1-.55,1.45-2.29a44.71,44.71,0,0,0,.95-9.19H555a20.9,20.9,0,0,1-2.52,7.87,17.78,17.78,0,0,1-5.94,5.77c-.25.17-.48.2-.67,0a3.81,3.81,0,0,0-1.51-.92,16,16,0,0,0,6.44-5.63,18.69,18.69,0,0,0,2.29-7h-3.27c-1.26,0-2.5,0-3.87.14-.25,0-.28-.05-.33-.36s-.14-1.12-.17-1.68c1.57.11,2.85.14,4.34.14Z"/><path class="cls-3" d="M578.16,71.44a23,23,0,0,0-3.78.28c-.25,0-.39-.12-.47-.4a15.73,15.73,0,0,1-.28-2.12,52,52,0,0,0,6.19.25h8.59c1.93,0,4,0,6.13-.09.34,0,.42,0,.42.34a11.85,11.85,0,0,1,0,1.46c0,.3-.08.36-.42.33-2.1,0-4.17,0-6,0Z"/><path class="cls-3" d="M610.73,61.83a9.68,9.68,0,0,0,.25-2.68,11.26,11.26,0,0,1,2.19.75.42.42,0,0,1,.11.73,1.84,1.84,0,0,0-.48.92c-.42,1.37-.78,2.69-1.2,4.06a26,26,0,0,1,2.71-.19c2.44,0,3.64,1.23,3.64,4.59a23.15,23.15,0,0,1-1.54,9,3.35,3.35,0,0,1-3.19,2.21,7.47,7.47,0,0,1-2.85-.5.46.46,0,0,1-.34-.48,4.87,4.87,0,0,0-.34-1.68,8.18,8.18,0,0,0,3.25.78c.81,0,1.35-.28,1.88-1.45A21.2,21.2,0,0,0,616.08,70c0-2.18-.42-3-1.93-3a19.59,19.59,0,0,0-3,.31,75.32,75.32,0,0,1-5.71,13.24.34.34,0,0,1-.48.15,9.26,9.26,0,0,1-1.12-.76.32.32,0,0,1,0-.45,59.39,59.39,0,0,0,5.37-11.93c-1.14.17-2.29.37-3.69.62a3.87,3.87,0,0,0-1.23.36c-.31.2-.56.2-.73-.14a10.35,10.35,0,0,1-.65-1.9,19.11,19.11,0,0,0,2.92-.14c1.54-.17,2.63-.34,3.94-.53C610.06,64.52,610.37,63.4,610.73,61.83Zm10.14,2.3a.35.35,0,0,1,.42.11,15.93,15.93,0,0,1,4.5,6.78c.06.19.09.33-.08.47a5.88,5.88,0,0,1-1.15.76c-.22.14-.42.11-.48-.17A15.57,15.57,0,0,0,619.61,65,11.78,11.78,0,0,1,620.87,64.13Zm.58-4.31c.12-.09.17-.06.28,0a13.68,13.68,0,0,1,3.17,3.38.21.21,0,0,1-.06.31l-.81.67a.22.22,0,0,1-.36,0,12.3,12.3,0,0,0-3.25-3.59ZM623.78,58c.11-.09.19-.12.3,0a16,16,0,0,1,3.2,3.28c.08.13.05.22-.09.33l-.75.67c-.11.11-.23.11-.34,0a13.27,13.27,0,0,0-3.22-3.5Z"/><path class="cls-3" d="M643.52,59.15c.17.08.28.19.28.33a.61.61,0,0,1-.17.39,2.52,2.52,0,0,0-.36,1.12c-.12.62-.2,1.15-.28,1.8a57,57,0,0,0,7.78-1.21c.2-.06.28,0,.34.2a4.52,4.52,0,0,1,.14,1.06.32.32,0,0,1-.31.34,59.92,59.92,0,0,1-8.21,1.23c-.14,1.48-.25,2.66-.28,4a21.25,21.25,0,0,1,5.1-.78,6.32,6.32,0,0,0,.5-2.35,6.59,6.59,0,0,1,1.57.75c.23.17.34.31.34.45s-.2.36-.31.56-.28.48-.42.76c4,.58,6.24,3.22,6.24,6.44,0,4.39-3.92,6.63-8.12,7.61a.49.49,0,0,1-.67-.31,2.71,2.71,0,0,0-1-1,16.12,16.12,0,0,0,5.46-2.07A5.14,5.14,0,0,0,653.57,74c0-3-2.35-4.56-4.82-4.87a30.58,30.58,0,0,1-5.43,7.68c.17.58.37,1,.59,1.56.08.2.06.28-.14.42a4.89,4.89,0,0,1-1,.56c-.16.06-.28.06-.36-.14a10.32,10.32,0,0,1-.48-1.34c-2.18,1.65-3.94,2.38-5.26,2.38-1.85,0-2.52-1.32-2.52-2.86,0-2.85,2.32-6.27,6.64-8.34,0-1.6.14-3.08.22-4.48-1.6.08-2.69.11-3.44.11a8,8,0,0,1-1.32-.08c-.25,0-.34-.09-.36-.37a11.9,11.9,0,0,1-.12-1.29,42.71,42.71,0,0,0,5.44,0c.11-1,.19-1.7.25-2.43a6.29,6.29,0,0,0-.09-1.88A7.12,7.12,0,0,1,643.52,59.15Zm-7.67,18a1.15,1.15,0,0,0,1.23,1.32c1,0,2.46-.7,4.31-2.19a34.89,34.89,0,0,1-.62-5.6C637.44,72.5,635.85,75.13,635.85,77.12ZM647.07,69a14.81,14.81,0,0,0-4.73.87,29.33,29.33,0,0,0,.51,5.18A28.25,28.25,0,0,0,647.07,69Z"/><path class="cls-3" d="M667.32,69.2a27.07,27.07,0,0,1,7.56-1.6c3.47,0,5.82,2.16,5.82,5.46,0,2.69-1.17,4.42-3.69,5.8a18.31,18.31,0,0,1-5.8,1.87c-.31.06-.42,0-.56-.28a3.73,3.73,0,0,0-1.07-1.17A19.44,19.44,0,0,0,676,77.43,4.65,4.65,0,0,0,678.8,73c0-2.49-1.65-3.72-4.15-3.72-2.07,0-5.09,1-8.26,2.23a6.46,6.46,0,0,0-1.31.71,1.54,1.54,0,0,1-.53.25.75.75,0,0,1-.51-.31,10.8,10.8,0,0,1-1-1.85A25.17,25.17,0,0,0,667.32,69.2Z"/><path class="cls-3" d="M703.58,63.32c-4.2.67-7.84,1.26-11.37,2a5.83,5.83,0,0,0-1.68.47,1.67,1.67,0,0,1-.53.2.48.48,0,0,1-.39-.25,15.56,15.56,0,0,1-.79-2,22.15,22.15,0,0,0,3.47-.34c4.18-.67,9.86-1.51,17.36-2.44.28,0,.42.06.48.23a8.36,8.36,0,0,1,.17,1.4c0,.25-.09.31-.37.33a11.63,11.63,0,0,0-4.08.85c-4.09,1.62-7.23,5.06-7.23,8.81,0,4.65,4.06,6,8.15,6.36.36,0,.45.08.45.31a8.77,8.77,0,0,1-.17,1.34c-.06.31-.14.42-.45.39-4.73-.42-9.83-2.43-9.83-8.09,0-4,2.44-7.19,6.84-9.52Z"/><path class="cls-3" d="M207,108.71a.39.39,0,0,1,.34.36c0,.28-.14.53-.14,1a17.77,17.77,0,0,0,.17,1.79,36.63,36.63,0,0,0,1.09,5.66c1.65-.81,3.33-1.6,5-2.52a4.72,4.72,0,0,0,1.63-1.29,11.07,11.07,0,0,1,1.42,1.57c.23.33.17.72-.33.78a10.26,10.26,0,0,0-2.47.9c-2,1-4.45,2.1-6.35,3.19-2.83,1.65-4.15,3.11-4.15,5.07,0,2.49,2.36,3.1,6.58,3.08a53.74,53.74,0,0,0,7.2-.59c.25,0,.34,0,.39.25a11.43,11.43,0,0,1,.17,1.46c0,.25-.08.36-.39.39a62.81,62.81,0,0,1-7.45.39c-4.84,0-8.34-1.06-8.34-4.9,0-2.69,1.9-4.76,5.46-6.92a49.4,49.4,0,0,1-1.49-7.16,10.8,10.8,0,0,0-.61-2.75A12,12,0,0,1,207,108.71Zm9.35.11c.12-.09.2-.06.31,0a13.68,13.68,0,0,1,3.17,3.38.21.21,0,0,1-.06.31l-.81.67a.23.23,0,0,1-.37,0,12.13,12.13,0,0,0-3.24-3.59Zm2.36-1.82c.11-.09.19-.12.3,0a16.31,16.31,0,0,1,3.2,3.28c.08.13.05.22-.09.33l-.75.67c-.12.11-.23.11-.34,0a13.27,13.27,0,0,0-3.22-3.5Z"/><path class="cls-3" d="M236.1,108c.31.11.45.25.45.45a1.07,1.07,0,0,1-.14.36,2.48,2.48,0,0,0-.23,1.09c-.11,1.29-.16,2.33-.22,3.75a4.9,4.9,0,0,1,1,.65c.17.14.2.31,0,.56-.39.64-.76,1.31-1.18,2.15,0,.37,0,.68,0,1.07a40.45,40.45,0,0,1,3.16-3.28c1.71-1.65,3.33-2.77,5-2.77,1.93,0,3,1.26,3,3.5,0,1.23-.08,3.08-.25,5.21s-.28,3.69-.28,4.62c0,1.76.48,2.18,1.4,2.18a3.31,3.31,0,0,0,2.32-1.06,8,8,0,0,0,1.71-2.66,3.47,3.47,0,0,0,.65,1.43.68.68,0,0,1,0,.89c-1.29,2.08-2.89,3.19-4.82,3.19s-3.08-1.06-3.08-3.66c0-1.26.08-2.86.22-4.79s.23-3.45.23-4.82c0-1.54-.39-2.41-1.29-2.41s-2.18.68-3.72,2.08a60.08,60.08,0,0,0-4.23,4.42c0,2.91.08,6.64.11,10.56,0,.16-.06.25-.28.28s-.9.05-1.34.05c-.14,0-.23-.08-.23-.3,0-4.12,0-7,.06-9.41-1.35,1.9-2.66,3.89-4.12,6.07-.16.25-.25.28-.47.14a5.43,5.43,0,0,1-1-.95c-.17-.14-.08-.31.06-.5,2.26-2.94,3.92-5.24,5.57-7.79.05-1,.05-1.73.08-2.43-1.4.42-2.69.84-3.83,1.31-.31.12-.56.37-.73.37a.54.54,0,0,1-.42-.28,7.25,7.25,0,0,1-.81-1.63,10.27,10.27,0,0,0,2-.28c1-.28,2.21-.61,3.92-1.17,0-1.29.05-2.52.08-3.78a13.16,13.16,0,0,0-.2-2.78A8.41,8.41,0,0,1,236.1,108Z"/><path class="cls-3" d="M272.3,125.76c0,.22-.05.3-.3.33a7.18,7.18,0,0,1-1.21.12c-.16,0-.25-.15-.25-.34,0-1.23,0-2.6,0-4-3.08,1.54-4.59,3-4.59,4.64s1.54,2.33,4.78,2.33a49.39,49.39,0,0,0,6.67-.56.23.23,0,0,1,.31.19,8.35,8.35,0,0,1,.16,1.38c0,.25-.11.36-.22.39a55.74,55.74,0,0,1-6.92.39c-3.92,0-6.46-1-6.46-4,0-2.35,1.54-4.26,6.18-6.53-.05-1.9-.69-2.66-2.35-2.63a8,8,0,0,0-4.59,2.27c-1,1-1.68,1.68-2.66,2.71-.17.2-.28.2-.42.06a9.28,9.28,0,0,1-1-1.09c-.08-.17-.11-.22.06-.39a30.73,30.73,0,0,0,6.49-7.79,50,50,0,0,1-5.2.06c-.23,0-.29-.08-.31-.28s-.14-.95-.17-1.4a56.4,56.4,0,0,0,6.49,0,23.74,23.74,0,0,0,1-2.8,4.32,4.32,0,0,0,.23-1.51,8.84,8.84,0,0,1,2.1.62.34.34,0,0,1,.05.61,2.55,2.55,0,0,0-.5.79c-.34.69-.59,1.28-1,2.12a51.3,51.3,0,0,0,5.9-.92c.23-.06.28-.06.34.11.06.39.14.78.17,1.23,0,.2-.06.28-.36.34-2.22.39-4.6.7-6.84.92a23.88,23.88,0,0,1-2.85,4.18l0,0a6,6,0,0,1,3.5-1.2,3.23,3.23,0,0,1,3.52,3.27c1.37-.61,3-1.34,4.37-2a7.87,7.87,0,0,0,2.13-1.43,7,7,0,0,1,1.37,1.62c.23.42,0,.59-.28.65a7.14,7.14,0,0,0-1.54.45c-2.13.89-3.89,1.54-5.94,2.4Z"/><path class="cls-3" d="M292.63,126.15a4.33,4.33,0,0,0,2.52,2.77,16.77,16.77,0,0,0,5.6.67c3.59,0,7.59-.17,11.73-.56a2.51,2.51,0,0,0-.5,1.18c-.08.56-.08.56-.64.61-3.64.23-7.09.34-9.94.34-3.06,0-5.55-.25-6.89-.9a5.28,5.28,0,0,1-2.69-2.77,34.46,34.46,0,0,1-2.94,2.72,2.24,2.24,0,0,0-.59.59c-.11.16-.22.25-.33.25s-.23-.09-.34-.25a9.86,9.86,0,0,1-.81-1.46,10.29,10.29,0,0,0,1.71-1A19.16,19.16,0,0,0,291,126v-7h-2c-1.43,0-1.79.06-1.9.06s-.23,0-.23-.25v-1.21c0-.19,0-.22.23-.22s.47,0,1.9,0h1.43c1.45,0,1.87,0,2,0s.23,0,.23.22-.06.87-.06,2.63Zm-3.78-18.28c.31-.2.34-.23.51-.09a24.86,24.86,0,0,1,3.19,4c.11.17.08.22-.2.45l-.64.5c-.34.25-.42.28-.56.06a20.24,20.24,0,0,0-3.11-4c-.14-.15-.11-.2.2-.4Zm6.86,5.57c0,.84.06,1.06.25,1.23s.62.22,2.05.22,2-.08,2.21-.31.25-.58.28-1.45a3.24,3.24,0,0,0,1,.56c.39.14.39.17.33.67a2,2,0,0,1-.64,1.35c-.45.36-1.26.47-3.3.47s-2.75-.11-3.11-.42-.62-.64-.62-2V112.4c0-.61-.05-.92-.05-1.09s0-.23.25-.23.67.06,2,.06h3.3v-2h-3.19c-1.71,0-2.21.05-2.38.05s-.23,0-.23-.22v-1c0-.2,0-.22.23-.22s.67,0,2.38,0h2.32c1.57,0,2.07,0,2.21,0s.23,0,.23.22-.06.53-.06,1.62v1c0,1.15.06,1.57.06,1.71s0,.23-.23.23-.64-.06-2.21-.06h-3.08ZM311.36,124c0,.23,0,.26-.22.26s-1.09-.06-3.92-.06h-9.13c-2.83,0-3.78.06-3.92.06s-.22,0-.22-.26V123c0-.19,0-.22.22-.22s1.09,0,3.92,0h.73v-2.52c-2.63,0-3.5.06-3.67.06s-.22,0-.22-.25v-.95c0-.2,0-.23.22-.23s1,.06,3.67.06v-.17a7.83,7.83,0,0,0-.17-2,11.69,11.69,0,0,1,1.63.17c.19,0,.33.11.33.22a.64.64,0,0,1-.14.42,1.66,1.66,0,0,0-.14.93V119h4.2v-.11a7.7,7.7,0,0,0-.17-2c.68.06,1.12.08,1.66.17.22,0,.36.14.36.25s-.06.22-.17.42a1.66,1.66,0,0,0-.14.81V119h.11c2.72,0,3.62-.06,3.78-.06s.23,0,.23.23v.95c0,.22,0,.25-.23.25s-1.06-.06-3.78-.06h-.11v2.52h1.15c2.83,0,3.78,0,3.92,0s.22,0,.22.22Zm-10.86,1.83a8.67,8.67,0,0,0-.81.5,19.4,19.4,0,0,1-3.73,1.93c-.5.2-.53.2-.89-.25a2.13,2.13,0,0,0-.76-.67,20.74,20.74,0,0,0,4.09-1.85,5.09,5.09,0,0,0,1.12-1,7.67,7.67,0,0,1,1.09.73c.17.11.28.25.25.36S300.7,125.73,300.5,125.79Zm4-5.47h-4.2v2.52h4.2Zm.31-6.86c0,.82.06,1,.25,1.21s.62.22,2.3.22c1.37,0,1.9-.08,2.13-.28s.28-.59.3-1.48a4.09,4.09,0,0,0,1,.53c.45.17.45.2.36.7a2,2,0,0,1-.64,1.35c-.45.36-1.32.47-3.53.47-2,0-2.8-.11-3.16-.42s-.59-.64-.59-2V112.4c0-.61-.06-.92-.06-1.09s0-.23.23-.23.67.06,2,.06h3.36v-2h-3.25c-1.73,0-2.21.05-2.35.05s-.25,0-.25-.22v-1c0-.2,0-.22.25-.22s.62,0,2.35,0H308c1.57,0,2.05,0,2.22,0s.22,0,.22.22-.06.53-.06,1.62v1c0,1.15.06,1.57.06,1.71s0,.23-.22.23-.65-.06-2.22-.06h-3.16Zm.08,11.15c.26-.25.31-.23.51-.09a16.76,16.76,0,0,0,5.68,2.72,3.53,3.53,0,0,0-.61.87c-.28.5-.34.5-.84.33a21.11,21.11,0,0,1-5.27-2.94c-.17-.11-.22-.16,0-.42Z"/><path class="cls-3" d="M323.91,121.47a5.7,5.7,0,0,1,3.95-2c2.77,0,3.66,2,3.94,4.84.23,2.38.68,3.75,2.24,3.75a4.44,4.44,0,0,0,3.59-1.93,13.47,13.47,0,0,0,2.35-4.62,3.66,3.66,0,0,0,1,1.49c.22.16.25.39.14.73a12.78,12.78,0,0,1-2.21,3.8A6,6,0,0,1,334,130c-2.69,0-3.64-1.66-4-5.07-.3-2.83-.95-3.92-2.43-3.92-1.24,0-2.47.76-3.87,2.41a31.08,31.08,0,0,0-3.44,6.18c-.11.28-.25.31-.51.2a5.7,5.7,0,0,1-1.23-.73.32.32,0,0,1,0-.47c3.61-7.06,6.58-13,8.51-17.08a12.53,12.53,0,0,0,1.09-3.22,9.63,9.63,0,0,1,2,1.06.49.49,0,0,1,0,.81,3.87,3.87,0,0,0-.84,1.15c-1.93,3.61-3.81,7.2-5.46,10.14Z"/><path class="cls-3" d="M361.43,112.06c.22,0,.31,0,.33.2s.12.81.15,1.15,0,.36-.28.42a48.49,48.49,0,0,1-5.07,1.15,126.64,126.64,0,0,1-5.38,15.09c-.11.25-.22.25-.42.17s-.95-.42-1.31-.62a.27.27,0,0,1-.12-.36,86.94,86.94,0,0,0,5.24-14c-1.82.19-3.75.3-5.66.33-.33,0-.39,0-.45-.28s-.13-1-.22-1.54a15.2,15.2,0,0,0,1.76.06,42.81,42.81,0,0,0,5-.34c.4-1.48.62-2.49.82-3.53a11,11,0,0,0,.22-2.63,11.26,11.26,0,0,1,2.24.64.33.33,0,0,1,.22.31.75.75,0,0,1-.22.45,2.64,2.64,0,0,0-.45,1.09c-.33,1.15-.58,2.3-.89,3.36A32.59,32.59,0,0,0,361.43,112.06ZM360,124.89c.22,0,.28,0,.31.28.19,2.52,1.76,3.36,5.29,3.36a31.15,31.15,0,0,0,4.14-.36c.23,0,.31,0,.34.19a9.46,9.46,0,0,1,.11,1.35c0,.27-.08.33-.31.36a25.41,25.41,0,0,1-3.66.28c-3,0-4.91-.39-6.17-1.54a4.79,4.79,0,0,1-1.37-3.78A8.14,8.14,0,0,1,360,124.89Zm.7-7.2c0-.25.06-.33.36-.42a22.62,22.62,0,0,1,4.9-.58,30.1,30.1,0,0,1,3.47.27c.34.06.4.14.42.31a8.14,8.14,0,0,1,0,1.23c0,.34-.11.42-.36.37a22,22,0,0,0-3.59-.31,24.09,24.09,0,0,0-5.15.62C360.76,118.7,360.73,118,360.73,117.69Zm5.8-8.4a.22.22,0,0,1,.27,0,13.55,13.55,0,0,1,3.17,3.39.2.2,0,0,1-.06.31l-.81.67a.22.22,0,0,1-.36-.06,12.14,12.14,0,0,0-3.25-3.58Zm2.32-1.82c.11-.08.19-.11.31,0a16,16,0,0,1,3.19,3.28c.08.14.06.22-.09.34l-.75.67c-.11.11-.22.11-.34-.06a13.27,13.27,0,0,0-3.22-3.5Z"/><path class="cls-3" d="M382.46,114.31c.33.19.36.44.17.69a3.58,3.58,0,0,0-.42,1.32,51.1,51.1,0,0,0-.82,6.41c2.94-3.33,6.41-5,9.78-5,3.8,0,6,2.19,6,5.35,0,2.83-1.56,4.65-4.19,6a20.57,20.57,0,0,1-6.81,1.85c-.45.06-.59.06-.73-.25a4.51,4.51,0,0,0-1.26-1.37,22.63,22.63,0,0,0,7.62-1.74c2.18-1,3.36-2.57,3.36-4.62s-1.26-3.53-4.23-3.53c-2.66,0-5.71,1.68-8.31,4.37a6.86,6.86,0,0,0-1.24,1.65c-.14.23-.22.23-.44.14a9.46,9.46,0,0,1-1.15-.5c-.17-.08-.23-.14-.23-.39a85,85,0,0,1,.81-8.79,15.71,15.71,0,0,0,.23-2.33A8.86,8.86,0,0,1,382.46,114.31Zm1.34-6.81a.29.29,0,0,1,.39-.08,16.47,16.47,0,0,1,5.13,3.19c.17.14.17.2.05.39a8.61,8.61,0,0,1-.92,1.21c-.14.16-.28.16-.45,0a18.23,18.23,0,0,0-5.18-3.42A8.38,8.38,0,0,1,383.8,107.5Z"/><path class="cls-3" d="M409.34,111.28a.39.39,0,0,1,.25.31,2.28,2.28,0,0,1-.11.5,9.22,9.22,0,0,0-.23,2.58,45.15,45.15,0,0,0,.39,6.35c.42,3.31,1.63,5.72,3,5.72,1.12,0,2.19-1.8,3-4.4a3.64,3.64,0,0,0,.92,1.4.63.63,0,0,1,.23.7c-.79,2.27-2.3,4.4-4.18,4.4-2.35,0-4.11-3.25-4.73-7.65a61.67,61.67,0,0,1-.5-7.81,12.32,12.32,0,0,0-.22-2.69A8.07,8.07,0,0,1,409.34,111.28Zm13.35,2.16c.17-.09.31-.11.42,0a16.93,16.93,0,0,1,5.46,9.68.32.32,0,0,1-.19.37,5.75,5.75,0,0,1-1.29.64.26.26,0,0,1-.37-.22,16.28,16.28,0,0,0-5.26-9.72A11.65,11.65,0,0,1,422.69,113.44Z"/><path class="cls-3" d="M440.19,111.28a.38.38,0,0,1,.26.31,1.88,1.88,0,0,1-.12.5,9.84,9.84,0,0,0-.22,2.58,45.15,45.15,0,0,0,.39,6.35c.42,3.31,1.63,5.72,3,5.72,1.12,0,2.18-1.8,3-4.4a3.64,3.64,0,0,0,.93,1.4.62.62,0,0,1,.22.7c-.78,2.27-2.29,4.4-4.17,4.4-2.35,0-4.11-3.25-4.73-7.65a61.67,61.67,0,0,1-.5-7.81,11.73,11.73,0,0,0-.23-2.69A7.87,7.87,0,0,1,440.19,111.28Zm13.36,2.16c.17-.09.31-.11.42,0a16.93,16.93,0,0,1,5.46,9.68c0,.2-.06.28-.2.37a5.68,5.68,0,0,1-1.28.64.26.26,0,0,1-.37-.22,16.33,16.33,0,0,0-5.26-9.72A11.65,11.65,0,0,1,453.55,113.44Z"/><path class="cls-3" d="M479.76,112.15a31.2,31.2,0,0,1-3.7,12.23c-1.2,2.05-2.46,2.89-4.11,2.89-2.1,0-4.09-2.3-4.09-6.36a10.14,10.14,0,0,1,3.25-7.25,11.93,11.93,0,0,1,8.39-3.11c6.28,0,10,3.67,10,9,0,4.56-2.83,8.23-8.9,9.77a.56.56,0,0,1-.73-.31,3.2,3.2,0,0,0-1.09-1c5.54-1.1,8.73-4.09,8.73-8.77a7,7,0,0,0-7.22-7.08Zm-7.42,2.69a8.66,8.66,0,0,0-2.69,6c0,3.06,1.26,4.37,2.27,4.37s1.79-.61,2.6-2a29.8,29.8,0,0,0,3.28-10.95A9.37,9.37,0,0,0,472.34,114.84Z"/><path class="cls-3" d="M505.8,110.67a9.75,9.75,0,0,0,.25-2.69,11.61,11.61,0,0,1,2.18.75.42.42,0,0,1,.12.73,1.89,1.89,0,0,0-.48.92c-.42,1.38-.78,2.69-1.2,4.06a26,26,0,0,1,2.71-.19c2.44,0,3.64,1.23,3.64,4.51a23.26,23.26,0,0,1-1.54,9,3.35,3.35,0,0,1-3.19,2.21,7.34,7.34,0,0,1-2.86-.5.47.47,0,0,1-.33-.48,5.12,5.12,0,0,0-.34-1.68,8.21,8.21,0,0,0,3.25.79c.81,0,1.34-.28,1.88-1.46a21.16,21.16,0,0,0,1.26-7.87c0-2.18-.42-3-1.94-3a19.59,19.59,0,0,0-3,.31,75.75,75.75,0,0,1-5.71,13.25.35.35,0,0,1-.48.14,8.23,8.23,0,0,1-1.12-.76c-.17-.14-.14-.28-.05-.45a59.39,59.39,0,0,0,5.37-11.93c-1.15.17-2.29.37-3.69.62a4.34,4.34,0,0,0-1.24.36c-.3.2-.56.2-.72-.13a10.76,10.76,0,0,1-.65-1.91,18.91,18.91,0,0,0,2.91-.14c1.54-.17,2.64-.34,3.95-.53C505.13,113.35,505.43,112.23,505.8,110.67ZM516.07,113a.35.35,0,0,1,.42.11,16,16,0,0,1,4.51,6.78c.06.19.09.34-.08.47a5.88,5.88,0,0,1-1.15.76c-.22.14-.42.11-.48-.17a15.56,15.56,0,0,0-4.48-7.08A12.88,12.88,0,0,1,516.07,113Z"/><path class="cls-3" d="M540,112c.25,0,.33,0,.36.17.06.34.11.84.14,1.21s0,.3-.25.33c-1.51.31-3,.56-4.68.81a66.85,66.85,0,0,1-5.63,11.82c-.14.22-.28.19-.44.08a5.93,5.93,0,0,1-1.12-.84c-.17-.14-.17-.25,0-.47a49.28,49.28,0,0,0,5.26-10.42c-1.2.11-2.32.2-3.53.2a14.16,14.16,0,0,1-1.48-.06c-.25,0-.28,0-.34-.34a8.21,8.21,0,0,1-.16-1.4,22,22,0,0,0,2.21.12,36.17,36.17,0,0,0,3.81-.23c.33-1.06.58-2.1.84-3.27a8.53,8.53,0,0,0,.22-2.19,12,12,0,0,1,2.18.56.33.33,0,0,1,.26.31.58.58,0,0,1-.23.42,2.56,2.56,0,0,0-.39.87c-.31,1-.62,2-.9,3A38.09,38.09,0,0,0,540,112Zm1.7,6.78a8.63,8.63,0,0,0-.16-1.79,8.45,8.45,0,0,1,1.9.36c.2.06.31.17.31.34a1.5,1.5,0,0,1-.17.5,4.43,4.43,0,0,0-.11,1.32,48.64,48.64,0,0,0,.33,5.15,23.74,23.74,0,0,1,5.29,2.8c.23.14.2.22.12.45a9.32,9.32,0,0,1-.67,1.23c-.14.19-.28.17-.45,0a16.79,16.79,0,0,0-4.26-2.66c0,2.82-1.4,4.36-5,4.36-2.13,0-4.34-1.09-4.34-3.41,0-2.1,2-3.53,4.76-3.53a13.64,13.64,0,0,1,2.8.34C541.86,122.48,541.72,120.24,541.69,118.73Zm-2.38,6.69c-2.24,0-3.24.87-3.24,1.9,0,1.29,1,1.88,2.88,1.88,2.3,0,3.14-1.2,3.14-2.63a3.55,3.55,0,0,0,0-.67A9.3,9.3,0,0,0,539.31,125.42Zm4.76-12.54c.14-.23.23-.26.48-.17a19.85,19.85,0,0,1,5.49,2.63c.19.17.19.28.05.5a6.4,6.4,0,0,1-.64,1.12c-.14.2-.22.17-.39.06a18.87,18.87,0,0,0-5.71-2.85C543.63,113.69,543.85,113.21,544.07,112.88Z"/><path class="cls-3" d="M557.4,113.3a6.26,6.26,0,0,1,6.61-5.52c3.67,0,6.19,2.13,6.19,5.41,0,2-.84,3.38-3.31,5.54-1.93,1.73-2.29,2.63-2.32,5.35h-1.85v-.7a6.56,6.56,0,0,1,2.41-5.66c2.13-2,2.63-3,2.63-4.53,0-2.11-1.34-3.48-3.72-3.48-2.58,0-4,1.46-4.34,4.17Zm7.76,17h-3v-3h3Z"/><ellipse class="cls-2" cx="557.55" cy="200.6" rx="15.4" ry="12.18"/><ellipse class="cls-2" cx="591.3" cy="210.7" rx="10.53" ry="8.33"/><ellipse class="cls-2" cx="618.71" cy="214.37" rx="5.79" ry="4.99"/></svg>