<svg id="レイヤー_1" data-name="レイヤー 1" xmlns="http://www.w3.org/2000/svg" viewBox="0 0 580 480"><defs><style>.cls-1{fill:none;}.cls-1,.cls-2{stroke:#000;stroke-miterlimit:10;stroke-width:2.83px;}.cls-2{fill:#fff;}.cls-3{fill:#231815;}</style></defs><path class="cls-1" d="M417.42,21.33c-84.48-2.4-192.64-11-258.52,0S57.1,23.37,21,83.57C-11.29,137.43,31.59,192,58.66,203.91c48,21.18,120.39,10.67,186.27,7s127-6.95,179.25.48,139.71-5,149.34-63.34C589.47,51.42,500.22,23.68,417.42,21.33Z"/><path class="cls-1" d="M363.88,322c-54.86-1.73-206.19-7.94-249,0s-70.47,4-81.2,51.63C22.72,422.41,57.28,440,77.58,440c33.64,0,152.53,13.25,195.32,10.63s99.26-3.32,136.08-.56c34.21,2.56,71.52-23.53,71.52-62.75C480.5,331.72,417.67,323.7,363.88,322Z"/><path class="cls-2" d="M106.74,205.57c51.15-12.75,259.61-17,280.57,4.59s29.1,41.65,14,76.53-75.67,34.88-136.21,34.88-134.89,5.27-170.62-7.2C64.18,303.81,56.25,218.16,106.74,205.57Z"/><ellipse class="cls-2" cx="479.36" cy="218.38" rx="21.96" ry="12.18"/><ellipse class="cls-2" cx="519.53" cy="233.63" rx="12.57" ry="8.33"/><ellipse class="cls-2" cx="551.87" cy="237.67" rx="8.82" ry="7.11"/><ellipse class="cls-2" cx="130.41" cy="443.3" rx="16.04" ry="12.18"/><ellipse class="cls-2" cx="97.32" cy="452.25" rx="10.98" ry="8.33"/><ellipse class="cls-2" cx="70.85" cy="463.3" rx="6.45" ry="5.43"/><ellipse class="cls-2" cx="410.53" cy="249.37" rx="15.4" ry="12.18"/><ellipse class="cls-2" cx="444.28" cy="259.47" rx="10.53" ry="8.33"/><ellipse class="cls-2" cx="471.69" cy="263.13" rx="5.79" ry="4.99"/><path class="cls-3" d="M155.17,236.09c0,7.45.06,8.74.06,8.88s0,.19-.23.19h-1.31c-.2,0-.23,0-.23-.19V243.4H139.6V245c0,.16,0,.19-.22.19h-1.32c-.19,0-.22,0-.22-.19s0-1.46,0-8.88v-5.18c0-5.21,0-6.55,0-6.69s0-.23.22-.23,1.15.06,3.92.06h1.65a23.3,23.3,0,0,0,1.12-3,6,6,0,0,0,.2-1.23,15.53,15.53,0,0,1,1.79.34c.23.05.34.19.34.3a.44.44,0,0,1-.17.31,2,2,0,0,0-.42.7c-.31.81-.56,1.51-1.06,2.55h5.65c2.77,0,3.75-.06,3.92-.06s.23,0,.23.23-.06,1.48-.06,6.05Zm-1.71-10.41H139.6v4.17h13.86Zm0,5.71H139.6v4.2h13.86Zm0,5.74H139.6v4.67h13.86Z"/><path class="cls-3" d="M175.19,222.26a1.55,1.55,0,0,0-.5.62,26.22,26.22,0,0,1-8.82,10.44c-.23.17-.34.25-.42.25s-.23-.11-.4-.36a3.42,3.42,0,0,0-1-.93,22.65,22.65,0,0,0,8.74-9.77,6.34,6.34,0,0,0,.45-1.65,11.82,11.82,0,0,1,1.79.67c.25.11.36.25.36.42S175.33,222.15,175.19,222.26Zm5.18,9.13c2.74,0,3.64-.06,3.81-.06s.25.06.25.25c-.06.87-.06,1.8-.11,3a51.38,51.38,0,0,1-.67,7.06c-.34,1.87-1.21,3.19-3.59,3.19a20,20,0,0,1-2.24-.08c-.56,0-.56,0-.67-.65a3.29,3.29,0,0,0-.56-1.31,18,18,0,0,0,3.19.28c1.32,0,1.91-.62,2.16-2.1a51.7,51.7,0,0,0,.61-8h-6.24a13.59,13.59,0,0,1-8.43,12.18,1.43,1.43,0,0,1-.39.14c-.14,0-.22-.12-.42-.42a3.08,3.08,0,0,0-.9-.93c5.16-2,8-5.65,8.38-11h-1.26c-2.72,0-3.62,0-3.76,0s-.22,0-.22-.22v-1.23c0-.2,0-.23.22-.23s1,.06,3.76.06Zm-.34-10.5c.34-.17.37-.14.45.08a24.11,24.11,0,0,0,9.75,10.95,4.19,4.19,0,0,0-1,1.12c-.17.25-.26.39-.34.39s-.2-.08-.39-.22a29.51,29.51,0,0,1-9.58-11.51c-.11-.22,0-.22.25-.36Z"/><path class="cls-3" d="M208.93,225.79A31.21,31.21,0,0,1,205.24,238c-1.21,2-2.47,2.89-4.12,2.89-2.1,0-4.09-2.3-4.09-6.36a10.18,10.18,0,0,1,3.25-7.25,11.94,11.94,0,0,1,8.4-3.11c6.27,0,10,3.67,10,9,0,4.56-2.82,8.23-8.9,9.77a.56.56,0,0,1-.73-.31,3.2,3.2,0,0,0-1.09-1c5.55-1.1,8.74-4.09,8.74-8.77a7,7,0,0,0-7.23-7.08Zm-7.42,2.69a8.64,8.64,0,0,0-2.69,6c0,3.06,1.26,4.37,2.27,4.37s1.79-.61,2.61-2A29.81,29.81,0,0,0,207,225.9,9.43,9.43,0,0,0,201.51,228.48Z"/><path class="cls-3" d="M244.18,235.5a15.57,15.57,0,0,0,7.51,3.39,3.4,3.4,0,0,0-.73,1c-.23.5-.28.48-.79.31a16.11,16.11,0,0,1-7.89-4.71h-7.51a20.29,20.29,0,0,1-7.53,4.85c-.5.19-.53.19-.81-.25a3.19,3.19,0,0,0-.76-.9,19.36,19.36,0,0,0,7.09-3.7H230.1c-2.63,0-3.47.06-3.64.06s-.2,0-.2-.25v-1c0-.19,0-.22.2-.22s1,0,3.64,0h2.41v-9h-1c-2.74,0-3.7,0-3.84,0s-.22,0-.22-.22v-1.09c0-.2,0-.23.22-.23s1.1.06,3.84.06h1v-.11a18.79,18.79,0,0,0-.17-3.31c.67,0,1.2.09,1.79.17.17,0,.31.11.31.23a1.48,1.48,0,0,1-.17.5,11.17,11.17,0,0,0-.14,2.41v.11h8.65v-.11a18.79,18.79,0,0,0-.17-3.31c.65,0,1.21.09,1.8.17.19,0,.3.11.3.23a1.4,1.4,0,0,1-.16.53,9.94,9.94,0,0,0-.14,2.38v.11h1.37c2.74,0,3.67-.06,3.83-.06s.23,0,.23.23v1.09c0,.2,0,.22-.23.22s-1.09,0-3.83,0h-1.37v9h2.66c2.63,0,3.47,0,3.64,0s.22,0,.22.22v1c0,.22,0,.25-.22.25s-1-.06-3.64-.06Zm5.21,8.85c0,.2,0,.23-.22.23s-1.07-.06-3.87-.06H231.86c-2.8,0-3.72.06-3.89.06s-.22,0-.22-.23v-1.12c0-.19,0-.22.22-.22s1.09.05,3.89.05h5.85v-2.54H235.5c-2.63,0-3.47,0-3.61,0s-.22,0-.22-.22v-1.07c0-.19,0-.22.22-.22s1,.06,3.61.06h2.21v-.23a14,14,0,0,0-.16-2.41c.7,0,1.2.09,1.73.14.17,0,.28.12.28.23a1.3,1.3,0,0,1-.11.39,5.77,5.77,0,0,0-.14,1.6v.28h2.32c2.61,0,3.48-.06,3.64-.06s.23,0,.23.22v1.07c0,.19,0,.22-.23.22s-1,0-3.64,0h-2.32v2.54h6c2.8,0,3.7-.05,3.87-.05s.22,0,.22.22Zm-6.61-19.26h-8.65v2h8.65Zm0,3.36h-8.65v2.1h8.65Zm0,3.41h-8.65v2.24h8.65Z"/><path class="cls-3" d="M281.54,240.12c0,.17,0,.2-.23.2s-1-.06-3.69-.06H270V242c0,2.3.06,3.11.06,3.25s0,.2-.23.2h-1.37c-.19,0-.22,0-.22-.2s.05-.95.05-3.25v-1.71H261.1c-2.64,0-3.5.06-3.67.06s-.23,0-.23-.2V239c0-.2,0-.23.23-.23s1,.06,3.67.06h7.16a13.89,13.89,0,0,0-.19-2.44,18.23,18.23,0,0,1,1.87.17c.17,0,.31.08.31.22a1.19,1.19,0,0,1-.14.48,4.85,4.85,0,0,0-.14,1.57h7.65c2.66,0,3.52-.06,3.69-.06s.23,0,.23.23ZM258,225.82c.14-.2.17-.23.36-.14a18.4,18.4,0,0,1,3.61,1.9c.14.11.12.2,0,.42l-.48.7c-.25.36-.25.42-.48.25a16.19,16.19,0,0,0-3.5-2c-.19-.09-.19-.17,0-.45Zm5.34,6.58a39.6,39.6,0,0,1-3.55,3.47,5.72,5.72,0,0,0-.87.89c-.11.2-.19.26-.31.26s-.19-.06-.3-.2c-.28-.39-.62-.9-.9-1.37a10.57,10.57,0,0,0,1.79-1.15,28.6,28.6,0,0,0,4-4,4.89,4.89,0,0,0,.31,1.09C263.73,232,263.7,232,263.33,232.4Zm-3.58-11.54c.14-.2.23-.2.39-.14a17.55,17.55,0,0,1,3.53,2.18c.14.12.17.17,0,.42l-.5.68c-.22.3-.31.33-.5.16a16.91,16.91,0,0,0-3.42-2.21c-.2-.11-.17-.14.06-.45ZM281,235.62c0,.19,0,.22-.22.22s-1.06-.06-3.72-.06H270.2c-2.69,0-3.64.06-3.78.06s-.23,0-.23-.22.06-1.07.06-3.2v-5.88a23,23,0,0,1-1.57,1.74c-.2.17-.28.28-.39.28s-.17-.11-.37-.31a2.61,2.61,0,0,0-.78-.61,20,20,0,0,0,4.4-5.74,8.87,8.87,0,0,0,.64-1.82,10.58,10.58,0,0,1,1.62.42c.2.08.28.16.28.3a.55.55,0,0,1-.28.4,3.41,3.41,0,0,0-.75,1.09,14.6,14.6,0,0,1-.81,1.45h4.5a17.74,17.74,0,0,0,.93-2,9.39,9.39,0,0,0,.42-1.52,14.61,14.61,0,0,1,1.59.42c.17.06.28.17.28.28s-.08.23-.25.34a1.14,1.14,0,0,0-.34.45c-.27.53-.72,1.4-1.09,2h2.55c2.52,0,3.36-.05,3.5-.05s.23,0,.23.22v.93c0,.22,0,.25-.23.25s-1-.06-3.5-.06H274.2v2.19h1.85c2.46,0,3.22-.06,3.39-.06s.22,0,.22.22v.93c0,.19,0,.22-.22.22s-.93-.05-3.39-.05H274.2v2.26H276c2.47,0,3.28-.05,3.39-.05s.23,0,.23.22v.93c0,.19,0,.22-.23.22s-.92-.06-3.39-.06H274.2v2.5h2.86c2.66,0,3.55,0,3.72,0s.22,0,.22.19ZM272.69,225h-4.9v2.19h4.9Zm0,3.45h-4.9v2.26h4.9Zm0,3.52h-4.9v2.5h4.9Z"/><path class="cls-3" d="M292.12,231.84a27.07,27.07,0,0,1,7.56-1.6c3.47,0,5.82,2.16,5.82,5.46,0,2.69-1.17,4.42-3.69,5.8a18.31,18.31,0,0,1-5.8,1.87c-.31.06-.42,0-.56-.28a3.8,3.8,0,0,0-1.06-1.17,19.44,19.44,0,0,0,6.41-1.85,4.65,4.65,0,0,0,2.8-4.48c0-2.49-1.65-3.73-4.14-3.73-2.08,0-5.1,1-8.26,2.24a6.75,6.75,0,0,0-1.32.7,1.42,1.42,0,0,1-.53.26.75.75,0,0,1-.51-.31,11.53,11.53,0,0,1-1-1.85A25.17,25.17,0,0,0,292.12,231.84Z"/><path class="cls-3" d="M328.38,226c-4.2.67-7.84,1.26-11.37,2a6.08,6.08,0,0,0-1.68.48,1.67,1.67,0,0,1-.53.2.47.47,0,0,1-.39-.26,15.38,15.38,0,0,1-.79-2,22.36,22.36,0,0,0,3.48-.34c4.17-.67,9.85-1.51,17.36-2.44.28,0,.41.06.47.23a7.34,7.34,0,0,1,.17,1.4c0,.25-.08.31-.36.33a11.85,11.85,0,0,0-4.09.84c-4.09,1.63-7.23,5.07-7.23,8.82,0,4.65,4.06,6,8.15,6.36.37,0,.45.08.45.31a7.67,7.67,0,0,1-.17,1.34c-.06.31-.14.42-.45.39-4.73-.42-9.82-2.43-9.82-8.09,0-3.95,2.43-7.19,6.83-9.52Z"/><path class="cls-3" d="M191.71,291.29c0,.19,0,.22-.2.22s-1-.05-3.64-.05H171c-2.6,0-3.47.05-3.61.05s-.22,0-.22-.22V290c0-.19,0-.22.22-.22s1,.05,3.61.05h.67v-8.73a18.82,18.82,0,0,0-.22-3.84c.7,0,1.4.09,2,.17.22,0,.36.11.36.25a1.49,1.49,0,0,1-.19.56,9.86,9.86,0,0,0-.17,2.83v8.76H179v-18h-6.75c-2.74,0-3.7.05-3.83.05s-.23,0-.23-.22v-1.32c0-.19,0-.22.23-.22s1.09.06,3.83.06h14.36c2.75,0,3.7-.06,3.84-.06s.22,0,.22.22v1.32c0,.2,0,.22-.22.22s-1.09-.05-3.84-.05h-5.82v7.7h4.84c2.19,0,2.89-.06,3-.06s.22,0,.22.23V281c0,.2,0,.23-.22.23s-.84-.06-3-.06h-4.84v8.65h7.08c2.64,0,3.48-.05,3.64-.05s.2,0,.2.22Z"/><path class="cls-3" d="M208.87,287c0,1.26.06,2.52.06,3.7a2.25,2.25,0,0,1-.67,1.87c-.45.34-1.12.48-2.77.48-.56,0-.56,0-.7-.56a3.36,3.36,0,0,0-.51-1.12,17.32,17.32,0,0,0,2.33.08c.53,0,.86-.28.86-1.06v-5H201a17.62,17.62,0,0,1-1.93,7.34c-.11.22-.2.33-.28.33a.41.41,0,0,1-.31-.19,3.68,3.68,0,0,0-1-.7c1.71-2.86,2.18-5.94,2.18-11v-2.55c0-1.43,0-2.29,0-2.8l-.92,1.07c-.17.16-.25.28-.34.28s-.19-.12-.36-.34a3.19,3.19,0,0,0-.7-.67A19,19,0,0,0,201.4,270a6.6,6.6,0,0,0,.5-1.85,11.76,11.76,0,0,1,1.51.48c.2.08.31.16.31.3a.44.44,0,0,1-.22.37,3.07,3.07,0,0,0-.67,1.23h3a1.32,1.32,0,0,0,.51-.08.49.49,0,0,1,.25-.09c.11,0,.28.09.64.39s.53.54.53.65-.05.22-.25.39a1.83,1.83,0,0,0-.47.67,29.21,29.21,0,0,1-1.52,2.69h.31c2.07,0,2.72-.06,2.89-.06s.22,0,.22.23-.06,1.12-.06,3.3Zm-6.66-15.2a25,25,0,0,1-2.07,3.3c.36,0,1.09,0,2.57,0H204a19.45,19.45,0,0,0,1.7-3.33Zm1.37,9h-2.49v.48c0,1,0,1.9-.06,2.74h2.55Zm0-4.39h-2.49v3.08h2.49Zm3.89,0H205v3.08h2.52Zm0,4.39H205v3.22h2.52ZM218,270c2.35,0,3.14-.06,3.3-.06s.26.06.26.26c-.06.42-.06.84-.09,1.26a17,17,0,0,1-.67,4.7,2.09,2.09,0,0,1-2.16,1.26,13.57,13.57,0,0,1-1.73-.08c-.51-.06-.51-.06-.59-.54a4.36,4.36,0,0,0-.36-1.14,11,11,0,0,0,2.15.22c.76,0,1.15-.17,1.32-.73a18.73,18.73,0,0,0,.42-3.75h-4.15c-.36,3.19-1.68,5-4.53,6.64a1,1,0,0,1-.39.16c-.12,0-.2-.11-.4-.33a3.8,3.8,0,0,0-.89-.79c3-1.4,4.25-2.91,4.59-5.68h-.5c-2.36,0-3.11.06-3.25.06s-.23,0-.23-.23v-1.06c0-.2,0-.23.23-.23s.89.06,3.25.06Zm4.73,17.3c0,.23,0,.26-.19.26s-1-.06-3.53-.06h-1.88v2c0,2.41.06,3.44.06,3.58s0,.23-.23.23h-1.2c-.2,0-.22,0-.22-.23s.05-1.17.05-3.58v-2h-2c-2.55,0-3.39.06-3.53.06s-.23,0-.23-.26v-1.09c0-.19,0-.22.23-.22s1,0,3.53,0h2V282.8h-3.33c-.31.59-.64,1.21-1,1.82-.16.26-.25.37-.36.37a.8.8,0,0,1-.42-.2,3.59,3.59,0,0,0-.92-.36,13.36,13.36,0,0,0,2.15-3.95,7.46,7.46,0,0,0,.37-1.57,10.67,10.67,0,0,1,1.34.42c.22.09.34.17.34.31s-.09.2-.17.28a1.7,1.7,0,0,0-.37.73l-.28.73h2.69v-1.21a9.11,9.11,0,0,0-.17-2c.68,0,1.21.08,1.71.14.17,0,.28.08.28.22a1.16,1.16,0,0,1-.14.42,4.32,4.32,0,0,0-.14,1.26v1.21h1c2.5,0,3.28-.06,3.42-.06s.22,0,.22.22v1.1c0,.19,0,.22-.22.22s-.92-.06-3.42-.06h-1V286H219c2.55,0,3.39,0,3.53,0s.19,0,.19.22Z"/><path class="cls-3" d="M241.13,273.59c.25,0,.34,0,.37.17.05.34.11.84.13,1.2s0,.31-.25.34c-1.51.31-3,.56-4.67.81a67.55,67.55,0,0,1-5.63,11.82c-.14.22-.28.19-.45.08a6.39,6.39,0,0,1-1.12-.84c-.17-.14-.17-.25,0-.47a49.33,49.33,0,0,0,5.27-10.42c-1.21.11-2.33.2-3.53.2a14.16,14.16,0,0,1-1.48-.06c-.26,0-.28-.06-.34-.34a9.23,9.23,0,0,1-.17-1.4c.9.09,1.63.12,2.21.12a36,36,0,0,0,3.81-.23,33.18,33.18,0,0,0,.84-3.27,8.64,8.64,0,0,0,.23-2.19,12,12,0,0,1,2.18.56.32.32,0,0,1,.25.31.56.56,0,0,1-.22.42,2.52,2.52,0,0,0-.4.87c-.3,1-.61,2-.89,3A37.93,37.93,0,0,0,241.13,273.59Zm1.71,6.78a8.65,8.65,0,0,0-.17-1.79,8.43,8.43,0,0,1,1.91.36c.19.06.3.17.3.34a1.29,1.29,0,0,1-.17.5,4.43,4.43,0,0,0-.11,1.32,46.19,46.19,0,0,0,.34,5.15,24.19,24.19,0,0,1,5.29,2.8c.23.14.2.22.11.45a10,10,0,0,1-.67,1.23c-.14.19-.28.17-.45,0A16.91,16.91,0,0,0,245,288.1c0,2.82-1.4,4.36-5,4.36-2.13,0-4.34-1.09-4.34-3.41,0-2.1,2-3.53,4.75-3.53a13.56,13.56,0,0,1,2.8.34C243,284.12,242.87,281.88,242.84,280.37Zm-2.38,6.69c-2.24,0-3.25.87-3.25,1.9,0,1.29,1,1.88,2.88,1.88,2.3,0,3.14-1.2,3.14-2.63a3.49,3.49,0,0,0,0-.67A9.23,9.23,0,0,0,240.46,287.06Zm4.76-12.54c.14-.23.22-.26.48-.17a19.79,19.79,0,0,1,5.48,2.63c.2.17.2.28.06.5a6.44,6.44,0,0,1-.65,1.12c-.13.2-.22.17-.39.06a18.9,18.9,0,0,0-5.71-2.86C244.77,275.33,245,274.85,245.22,274.52Z"/><path class="cls-3" d="M271.12,273.79a31.2,31.2,0,0,1-3.7,12.23c-1.2,2.05-2.46,2.89-4.11,2.89-2.1,0-4.09-2.3-4.09-6.36a10.14,10.14,0,0,1,3.25-7.25,11.94,11.94,0,0,1,8.4-3.11c6.27,0,10,3.67,10,9,0,4.56-2.83,8.23-8.9,9.77a.56.56,0,0,1-.73-.31,3.2,3.2,0,0,0-1.09-1c5.54-1.1,8.73-4.09,8.73-8.77a7,7,0,0,0-7.22-7.08Zm-7.42,2.69a8.64,8.64,0,0,0-2.69,6c0,3.06,1.26,4.37,2.27,4.37s1.79-.61,2.6-2a29.8,29.8,0,0,0,3.28-11A9.37,9.37,0,0,0,263.7,276.48Z"/><path class="cls-3" d="M289.15,274.94a6.26,6.26,0,0,1,6.61-5.52c3.67,0,6.19,2.13,6.19,5.4,0,2-.84,3.39-3.31,5.55-1.93,1.73-2.29,2.63-2.32,5.35h-1.85V285a6.55,6.55,0,0,1,2.41-5.66c2.13-2,2.63-3,2.63-4.54,0-2.1-1.34-3.47-3.72-3.47-2.58,0-4,1.46-4.34,4.17Zm7.76,17h-3.05v-3h3.05Z"/><path class="cls-3" d="M90.47,359.79a6.25,6.25,0,0,0-.08-1.79,6.17,6.17,0,0,1,2.1.78.4.4,0,0,1,.14.56,1.66,1.66,0,0,0-.31.84c-.2,1.26-.53,2.95-.87,4.26a34,34,0,0,1,4.73,2.88c.17.09.17.2.11.37-.19.39-.5,1-.72,1.4-.12.17-.26.11-.37,0a26.43,26.43,0,0,0-4.28-2.89c-1.4,3.64-2.94,5.91-5.88,8-.34.26-.45.28-.7.12a2.92,2.92,0,0,0-1.43-.7,15.09,15.09,0,0,0,6.33-8.12,19.82,19.82,0,0,0-6.89-2,21.76,21.76,0,0,1-3.08,5.35,4.43,4.43,0,0,1-3.44,1.79A2.85,2.85,0,0,1,73,367.46c0-3.1,3.47-5.6,8.15-5.62A80,80,0,0,0,84,354.05c-1.93.2-4,.42-4.93.56a9.67,9.67,0,0,0-1.23.25.69.69,0,0,1-.34.09.37.37,0,0,1-.33-.17,9.45,9.45,0,0,1-.59-2,8,8,0,0,0,2.44.14c1.23,0,2.74-.19,4.28-.39a2.7,2.7,0,0,0,1.29-.39.5.5,0,0,1,.59-.05,4.89,4.89,0,0,1,1.2,1.06c.22.28.22.48,0,.67a3.9,3.9,0,0,0-.67,1.35c-.93,2.57-1.79,4.56-2.72,6.8a23.8,23.8,0,0,1,6.81,1.79A34.28,34.28,0,0,0,90.47,359.79ZM74.62,367.3c0,.92.48,1.56,1.26,1.56a3,3,0,0,0,2.27-1.37,17.44,17.44,0,0,0,2.38-4.09C77.17,363.52,74.62,365.28,74.62,367.3Z"/><path class="cls-3" d="M108.61,365a5.72,5.72,0,0,1,4-2c2.77,0,3.67,2,4,4.84.22,2.38.67,3.75,2.24,3.75a4.47,4.47,0,0,0,3.58-1.93,13.46,13.46,0,0,0,2.36-4.62,3.45,3.45,0,0,0,1,1.48c.23.17.26.4.14.73a12.51,12.51,0,0,1-2.21,3.81,6,6,0,0,1-4.9,2.46c-2.69,0-3.64-1.65-4-5.06-.31-2.83-1-3.92-2.44-3.92-1.23,0-2.46.75-3.86,2.4a32,32,0,0,0-3.45,6.19c-.11.28-.25.31-.5.2a5.47,5.47,0,0,1-1.23-.73.32.32,0,0,1-.06-.47c3.61-7.06,6.58-13,8.51-17.09a12,12,0,0,0,1.1-3.22,10.28,10.28,0,0,1,2,1.07.48.48,0,0,1,.06.81,3.58,3.58,0,0,0-.84,1.15c-1.93,3.61-3.81,7.19-5.46,10.13Z"/><path class="cls-3" d="M144.57,355.48c.25-.06.33,0,.36.17.06.33.11.84.14,1.2s0,.31-.25.34c-1.51.31-3,.56-4.68.81a67.19,67.19,0,0,1-5.63,11.82c-.14.22-.28.19-.44.08a6.39,6.39,0,0,1-1.12-.84c-.17-.14-.17-.25,0-.47a49.28,49.28,0,0,0,5.26-10.42c-1.2.11-2.32.19-3.53.19-.42,0-.84,0-1.48-.05-.25,0-.28-.06-.34-.34a8.21,8.21,0,0,1-.16-1.4,21.55,21.55,0,0,0,2.21.11,36.09,36.09,0,0,0,3.81-.22c.33-1.06.58-2.1.84-3.27a8.62,8.62,0,0,0,.22-2.19,12,12,0,0,1,2.18.56.33.33,0,0,1,.26.31.58.58,0,0,1-.23.42,2.56,2.56,0,0,0-.39.87c-.31,1-.62,2-.9,3A38.09,38.09,0,0,0,144.57,355.48Zm1.7,6.78a8.72,8.72,0,0,0-.16-1.8,9,9,0,0,1,1.9.37c.2.05.31.17.31.33a1.46,1.46,0,0,1-.17.51A4.36,4.36,0,0,0,148,363a49,49,0,0,0,.33,5.16,24,24,0,0,1,5.3,2.8c.22.14.19.22.11.44a9.42,9.42,0,0,1-.67,1.24c-.14.19-.28.16-.45,0A17.08,17.08,0,0,0,148.4,370c0,2.83-1.4,4.37-5,4.37-2.13,0-4.34-1.09-4.34-3.41,0-2.1,2-3.53,4.76-3.53a14.34,14.34,0,0,1,2.8.33C146.44,366,146.3,363.77,146.27,362.26ZM143.89,369c-2.24,0-3.24.87-3.24,1.9,0,1.29,1,1.88,2.88,1.88,2.3,0,3.14-1.21,3.14-2.63a3.68,3.68,0,0,0,0-.68A9.28,9.28,0,0,0,143.89,369Zm4.76-12.55c.14-.22.23-.25.48-.16a19.57,19.57,0,0,1,5.49,2.63c.19.17.19.28,0,.5a6.79,6.79,0,0,1-.64,1.12c-.14.2-.22.17-.39.06a19.13,19.13,0,0,0-5.71-2.86C148.21,357.22,148.43,356.74,148.65,356.4Z"/><path class="cls-3" d="M170,354.36a9.71,9.71,0,0,0,.25-2.69,12,12,0,0,1,2.19.76.42.42,0,0,1,.11.73,1.84,1.84,0,0,0-.48.92c-.42,1.37-.78,2.69-1.2,4.06a26.24,26.24,0,0,1,2.71-.2c2.44,0,3.64,1.24,3.64,4.6a23.15,23.15,0,0,1-1.54,9,3.35,3.35,0,0,1-3.19,2.21,7.27,7.27,0,0,1-2.85-.51.45.45,0,0,1-.34-.47,4.83,4.83,0,0,0-.34-1.68,8.22,8.22,0,0,0,3.25.78c.81,0,1.35-.28,1.88-1.45a21.2,21.2,0,0,0,1.26-7.87c0-2.19-.42-3-1.93-3a19.59,19.59,0,0,0-3,.31,75.65,75.65,0,0,1-5.71,13.24.33.33,0,0,1-.48.14,8.1,8.1,0,0,1-1.12-.75.32.32,0,0,1,0-.45,59.39,59.39,0,0,0,5.37-11.93c-1.14.17-2.29.36-3.69.62a3.87,3.87,0,0,0-1.23.36c-.31.2-.56.2-.73-.14a10.62,10.62,0,0,1-.65-1.9,19.11,19.11,0,0,0,2.92-.14c1.54-.17,2.63-.34,3.94-.54C169.32,357.05,169.63,355.93,170,354.36Zm10.14,2.3a.35.35,0,0,1,.42.11,15.89,15.89,0,0,1,4.5,6.77c.06.2.09.34-.08.48a6.36,6.36,0,0,1-1.15.76c-.22.14-.42.11-.47-.17a15.7,15.7,0,0,0-4.48-7.09A13.34,13.34,0,0,1,180.13,356.66Zm.58-4.32c.12-.08.17,0,.28,0a13.72,13.72,0,0,1,3.17,3.39.21.21,0,0,1-.06.31l-.81.67a.22.22,0,0,1-.36-.06,12.26,12.26,0,0,0-3.25-3.58Zm2.33-1.82c.11-.08.19-.11.31,0a16,16,0,0,1,3.19,3.27c.08.14.05.23-.09.34l-.75.67c-.11.11-.23.11-.34-.06a13.43,13.43,0,0,0-3.22-3.5Z"/><path class="cls-3" d="M202.89,349.4v1.46h-7v22.76h-1.57V349.4Z"/><path class="cls-3" d="M220.75,364.3a14,14,0,0,0,3,4.14,36.33,36.33,0,0,0,4.45-2.68,3.65,3.65,0,0,0,1-1c.58.4,1,.68,1.4,1,.16.14.22.23.22.36s-.17.23-.39.26a2.34,2.34,0,0,0-1,.47c-1.18.73-2.58,1.54-4.51,2.52a22.07,22.07,0,0,0,8.85,4,4.71,4.71,0,0,0-.79,1c-.28.51-.3.53-.86.39-6.19-1.73-10.73-5.23-12.91-10.58h-4.57v7.87c2.13-.53,4.12-1.15,6.56-2a7,7,0,0,0-.11,1c0,.59,0,.61-.51.78-3.56,1.23-6.47,2-9.21,2.69a4.27,4.27,0,0,0-1.18.39.46.46,0,0,1-.28.14.34.34,0,0,1-.31-.22c-.19-.51-.39-1.12-.55-1.65a28.47,28.47,0,0,0,3-.54c.28,0,.59-.11.87-.19v-14.5c0-3-.06-4.37-.06-4.54s0-.23.23-.23,1.37.06,4.09.06H220v-.53a12.91,12.91,0,0,0-.2-2.77c.7,0,1.32.08,1.88.16.22,0,.33.12.33.23a1.26,1.26,0,0,1-.16.53,5,5,0,0,0-.14,1.71v.67h3.1c2.78,0,3.87-.06,4-.06s.22,0,.22.23,0,1,0,3v4.67c0,2,0,2.8,0,2.94s0,.23-.22.23-1.23-.06-4-.06Zm6.5-9.41H214.59v3.05h12.66Zm0,4.54H214.59v3.36h12.66Z"/><path class="cls-3" d="M244.16,354.81c.17.08.25.19.25.31a1.9,1.9,0,0,1-.11.5,9.84,9.84,0,0,0-.22,2.58,45.15,45.15,0,0,0,.39,6.35c.42,3.31,1.62,5.71,3,5.71,1.12,0,2.18-1.79,3-4.39a3.53,3.53,0,0,0,.93,1.4.62.62,0,0,1,.22.7c-.78,2.27-2.29,4.39-4.17,4.39-2.35,0-4.12-3.24-4.73-7.64a61.91,61.91,0,0,1-.51-7.81,11.64,11.64,0,0,0-.22-2.69A7.64,7.64,0,0,1,244.16,354.81ZM257.52,357c.17-.08.31-.11.42,0a17,17,0,0,1,5.46,9.69c0,.2-.06.28-.2.37a5.54,5.54,0,0,1-1.29.64.26.26,0,0,1-.36-.22,16.3,16.3,0,0,0-5.26-9.72A14.35,14.35,0,0,1,257.52,357Z"/><path class="cls-3" d="M270.15,376v-1.45h7V351.78h1.56V376Z"/><path class="cls-3" d="M295.26,351.67a.41.41,0,0,1,.34.37c0,.28-.14.53-.14,1,0,.61.08,1.17.17,1.79a36.5,36.5,0,0,0,1.09,5.65c1.65-.81,3.33-1.59,5-2.52a4.6,4.6,0,0,0,1.63-1.28,11.6,11.6,0,0,1,1.42,1.56c.23.34.17.73-.33.79a10.64,10.64,0,0,0-2.47.89c-2,1-4.45,2.1-6.35,3.2-2.83,1.65-4.15,3.1-4.15,5.06,0,2.5,2.36,3.11,6.58,3.08a53.84,53.84,0,0,0,7.2-.58c.25,0,.34,0,.39.25a11.48,11.48,0,0,1,.17,1.45c0,.26-.08.37-.39.4a62.81,62.81,0,0,1-7.45.39c-4.84,0-8.34-1.06-8.34-4.9,0-2.69,1.9-4.76,5.46-6.92a49.4,49.4,0,0,1-1.49-7.16,10.8,10.8,0,0,0-.61-2.75A12.91,12.91,0,0,1,295.26,351.67Z"/><path class="cls-3" d="M317.41,366.85c.34.14.39.19.31.36a17.79,17.79,0,0,1-3,5.6c-.14.2-.17.17-.48,0l-.78-.5c-.34-.22-.37-.28-.23-.45a14.17,14.17,0,0,0,2.91-5.21c.06-.22.06-.28.45-.11Zm17.22-6.53c0,2.08.06,2.83.06,3s0,.25-.23.25-1.14-.05-4-.05h-9.58c-2.8,0-3.81.05-4,.05s-.23,0-.23-.25.06-.89.06-3v-5.57c0-2.07-.06-2.83-.06-3s0-.23.23-.23,1.17.06,4,.06h9.58c2.83,0,3.83-.06,4-.06s.23,0,.23.23-.06.92-.06,3Zm-9.85-7.3h-6.39v3.78h6.39Zm0,5.15h-6.39v3.89h6.39ZM322,371.11c0,.89.14,1.23.58,1.48a7.67,7.67,0,0,0,3.11.36c2.13,0,3.33-.08,4.12-.61.58-.37,1-1.54,1-3.06a5,5,0,0,0,1.18.59c.48.17.5.17.42.67-.28,1.94-.79,2.78-1.54,3.22-1.09.68-2.63.76-5.24.76a10.4,10.4,0,0,1-4.28-.53,2.37,2.37,0,0,1-1.07-2.35v-3.81a11.87,11.87,0,0,0-.16-2.21,11.78,11.78,0,0,1,1.79.16c.22.06.33.17.33.26a.65.65,0,0,1-.11.39,4,4,0,0,0-.16,1.48Zm3-6.56c.22-.17.28-.17.45,0a21.54,21.54,0,0,1,3.27,3.34c.14.16.11.28-.17.47l-.7.53c-.36.28-.36.31-.5.12a18.1,18.1,0,0,0-3.14-3.53c-.16-.14-.14-.2.14-.42ZM333,353H326.4v3.78H333Zm0,5.15H326.4v3.89H333Zm1.26,8.23c.31-.17.36-.17.47,0a26.67,26.67,0,0,1,3.36,4.9c.09.2.06.28-.25.45l-.78.45c-.37.22-.42.25-.53,0a21.37,21.37,0,0,0-3.22-5c-.12-.17-.09-.19.22-.39Z"/><path class="cls-3" d="M348.49,359a19.55,19.55,0,0,1,6.08-1.35c2.77,0,5.18,1.91,5.18,6.27a10,10,0,0,1-2.3,6.47,16.33,16.33,0,0,1-4.95,3.95c-.57.31-.76.25-1,0a3.49,3.49,0,0,0-1.4-.95,15,15,0,0,0,6-4.57,8.3,8.3,0,0,0,1.59-5.09c0-3.36-1.76-4.31-3.47-4.31a13.2,13.2,0,0,0-4.09,1,22,22,0,0,0-2.52,1.15c-.39.22-.61.41-.89.41s-.4-.22-.53-.44a12.41,12.41,0,0,1-.9-1.8A13,13,0,0,0,348.49,359Zm9.32-6.08c.23,0,.31.14.28.36a7.71,7.71,0,0,1-.33,1.32c-.09.22-.11.34-.31.31a32.77,32.77,0,0,1-7.64-2.1c-.09,0-.11-.14-.09-.39a7.94,7.94,0,0,1,.45-1.54A29.2,29.2,0,0,0,357.81,353Z"/><path class="cls-3" d="M376.07,368.64c0,2.86,1.51,3.84,4.34,3.84,3,0,5.6-1.37,5.6-4.32,0-1.48-.47-2.91-2.58-5a6.63,6.63,0,0,0,1.74-.11.53.53,0,0,1,.48.09,7,7,0,0,1,2.32,5.06c0,3.78-3.19,6.08-7.25,6.08-4.37,0-6.41-1.91-6.41-5.6,0-1,.16-2.3.28-3.47a28.22,28.22,0,0,1-4.46-.87c-.13,0-.22-.11-.25-.37a10.16,10.16,0,0,1,0-1.56,19.84,19.84,0,0,0,4.95,1.06c.25-1.74.48-3.36.65-4.81a22.9,22.9,0,0,1-4.76-.9c-.2-.06-.23-.09-.26-.37s-.05-1-.05-1.56a23,23,0,0,0,5.37,1.09c.23-1.51.31-2.19.42-3.39a8.64,8.64,0,0,0,0-2.38,9.77,9.77,0,0,1,2.18.67c.26.11.43.28.43.45a.67.67,0,0,1-.2.39,2.35,2.35,0,0,0-.5,1.32c-.2,1.09-.34,1.9-.51,3.08a25.72,25.72,0,0,0,3.92-.06c.11,0,.17.06.17.23,0,.42,0,.89,0,1.28,0,.23-.11.28-.28.28a37.37,37.37,0,0,1-4.09,0c-.22,1.37-.47,3.08-.72,4.79a34.06,34.06,0,0,0,4.53-.06c.25,0,.34,0,.34.2s0,.9-.06,1.23-.11.31-.25.31a47.61,47.61,0,0,1-4.79,0C376.24,366.43,376.07,367.77,376.07,368.64Z"/><path class="cls-3" d="M408.83,355.68a31.21,31.21,0,0,1-3.69,12.23c-1.21,2-2.47,2.89-4.12,2.89-2.1,0-4.09-2.3-4.09-6.36a10.16,10.16,0,0,1,3.25-7.25,11.94,11.94,0,0,1,8.4-3.11c6.27,0,10,3.67,10,9,0,4.56-2.83,8.23-8.91,9.77a.56.56,0,0,1-.73-.31,3.21,3.21,0,0,0-1.09-1c5.55-1.09,8.74-4.08,8.74-8.76a7,7,0,0,0-7.23-7.08Zm-7.42,2.68a8.72,8.72,0,0,0-2.69,6.05c0,3,1.26,4.37,2.27,4.37s1.79-.62,2.61-2a29.81,29.81,0,0,0,3.27-10.95A9.48,9.48,0,0,0,401.41,358.36Z"/><path class="cls-3" d="M431.85,352.85a.48.48,0,0,1,.17.76,4.27,4.27,0,0,0-.45,1.39,55.4,55.4,0,0,0-1.35,10.34,37,37,0,0,0,.2,4.84c.59-1.51,1.23-2.91,2-4.56a4.35,4.35,0,0,0,.64,1.14.51.51,0,0,1,0,.62,24.56,24.56,0,0,0-1.68,4.42,5.57,5.57,0,0,0,0,1.27.26.26,0,0,1-.14.36,7,7,0,0,1-1.26.36c-.19.06-.28,0-.36-.22a24.25,24.25,0,0,1-1.06-8.18,62.91,62.91,0,0,1,1.2-10.5,12.08,12.08,0,0,0,.14-2.77A7.11,7.11,0,0,1,431.85,352.85Zm10.72,6.55a51.71,51.71,0,0,1-6.24,0c-.17,0-.28,0-.31-.25a10.93,10.93,0,0,1-.11-1.49,47,47,0,0,0,6.61,0c0-1,0-2.1,0-3.22a10,10,0,0,0-.28-2.49,10,10,0,0,1,2.16.39c.2.09.31.2.31.34a.8.8,0,0,1-.11.39,3.91,3.91,0,0,0-.23,1.34c-.05,1-.05,2-.05,3.11,1.45-.14,3-.36,4.42-.64.22-.06.25,0,.28.2a6.63,6.63,0,0,1,.11,1.11c0,.2-.08.31-.19.34a34.73,34.73,0,0,1-4.62.67c0,3.28.11,5.94.25,8.46a20.06,20.06,0,0,1,4.93,2.88c.14.11.14.17.05.37a5.72,5.72,0,0,1-.75,1.23c-.12.17-.23.14-.34,0a18,18,0,0,0-3.92-2.58c-.11,2.47-1.51,3.78-4.68,3.78-2.63,0-4.36-1.15-4.36-3.19s1.93-3.33,4.31-3.33a15.52,15.52,0,0,1,2.94.3C442.66,364.86,442.57,362.28,442.57,359.4Zm.2,9.49a11.27,11.27,0,0,0-3-.47c-1.57,0-2.61.64-2.61,1.79s1,1.59,2.69,1.59c2,0,3-.89,3-2.38Z"/><path class="cls-3" d="M195.11,403.48c.25-.05.33,0,.36.17.06.33.11.84.14,1.2s0,.31-.25.34c-1.51.31-3,.56-4.68.81a67.19,67.19,0,0,1-5.63,11.82c-.14.22-.28.19-.44.08a6.39,6.39,0,0,1-1.12-.84c-.17-.14-.17-.25,0-.47a49.28,49.28,0,0,0,5.26-10.42c-1.2.11-2.32.19-3.53.19-.42,0-.84,0-1.48-.05-.25,0-.28-.06-.34-.34a8.21,8.21,0,0,1-.16-1.4,22,22,0,0,0,2.21.12,36.17,36.17,0,0,0,3.81-.23c.33-1.06.58-2.1.84-3.27a8.62,8.62,0,0,0,.22-2.19,12,12,0,0,1,2.18.56.33.33,0,0,1,.26.31.58.58,0,0,1-.23.42,2.56,2.56,0,0,0-.39.87c-.31,1-.62,2-.9,3A38.09,38.09,0,0,0,195.11,403.48Zm1.7,6.78a8.58,8.58,0,0,0-.16-1.79,8.45,8.45,0,0,1,1.9.36c.2.06.31.17.31.33a1.46,1.46,0,0,1-.17.51,4.39,4.39,0,0,0-.11,1.31,48.82,48.82,0,0,0,.33,5.16,24,24,0,0,1,5.3,2.8c.22.14.19.22.11.45a10,10,0,0,1-.67,1.23c-.14.19-.28.16-.45,0a16.83,16.83,0,0,0-4.26-2.67c0,2.83-1.4,4.37-5,4.37-2.13,0-4.34-1.09-4.34-3.41,0-2.1,2-3.53,4.76-3.53a14.34,14.34,0,0,1,2.8.33C197,414,196.84,411.77,196.81,410.26ZM194.43,417c-2.24,0-3.24.87-3.24,1.9,0,1.29,1,1.88,2.88,1.88,2.3,0,3.14-1.21,3.14-2.63a3.49,3.49,0,0,0,0-.67A9.3,9.3,0,0,0,194.43,417Zm4.76-12.55c.14-.22.23-.25.48-.16a19.57,19.57,0,0,1,5.49,2.63c.19.17.19.28.05.5a6.4,6.4,0,0,1-.64,1.12c-.14.2-.22.17-.39.06a19.13,19.13,0,0,0-5.71-2.86C198.75,405.22,199,404.74,199.19,404.4Z"/><path class="cls-3" d="M217.9,413a5.7,5.7,0,0,1,3.95-2c2.77,0,3.66,2,3.94,4.84.23,2.38.68,3.75,2.24,3.75a4.48,4.48,0,0,0,3.59-1.93A13.47,13.47,0,0,0,234,413a3.45,3.45,0,0,0,1,1.48c.22.17.25.4.14.73a12.71,12.71,0,0,1-2.21,3.81,6,6,0,0,1-4.9,2.46c-2.69,0-3.64-1.65-4-5.06-.31-2.83-.95-3.92-2.43-3.92-1.24,0-2.47.75-3.87,2.4a31.53,31.53,0,0,0-3.44,6.19c-.11.28-.25.31-.51.2a5.7,5.7,0,0,1-1.23-.73c-.17-.14-.17-.28-.05-.47,3.61-7.06,6.58-13,8.51-17.08a12.45,12.45,0,0,0,1.09-3.23,10.11,10.11,0,0,1,2,1.07.49.49,0,0,1,0,.81,3.87,3.87,0,0,0-.84,1.15c-1.93,3.61-3.81,7.2-5.46,10.13Z"/><path class="cls-3" d="M255.42,403.59c.22,0,.31,0,.33.2a11.27,11.27,0,0,1,.14,1.15c0,.28,0,.36-.28.42a47.77,47.77,0,0,1-5.06,1.15,126.64,126.64,0,0,1-5.38,15.09c-.11.25-.22.25-.42.17s-.95-.42-1.32-.62a.28.28,0,0,1-.11-.37,86.24,86.24,0,0,0,5.24-14c-1.82.2-3.75.31-5.66.34-.33,0-.39,0-.45-.28s-.14-1-.22-1.54a15.2,15.2,0,0,0,1.76.06,45.08,45.08,0,0,0,5-.34c.4-1.48.62-2.49.82-3.53a11,11,0,0,0,.22-2.63,11.45,11.45,0,0,1,2.24.64.33.33,0,0,1,.22.31.75.75,0,0,1-.22.45,2.45,2.45,0,0,0-.45,1.09c-.33,1.15-.59,2.3-.89,3.36A32.59,32.59,0,0,0,255.42,403.59ZM254,416.42c.22,0,.28.05.31.28.19,2.52,1.76,3.36,5.29,3.36a29.62,29.62,0,0,0,4.14-.37c.23,0,.31,0,.34.2a11.18,11.18,0,0,1,.11,1.34c0,.28-.08.34-.31.37a25.44,25.44,0,0,1-3.67.28c-3,0-4.9-.4-6.16-1.54a4.76,4.76,0,0,1-1.37-3.78A8.14,8.14,0,0,1,254,416.42Zm.7-7.2c0-.25.05-.33.36-.42a22.63,22.63,0,0,1,4.9-.59,28,28,0,0,1,3.47.28c.34.06.4.14.42.31a8.14,8.14,0,0,1,0,1.23c0,.34-.11.42-.36.37a22,22,0,0,0-3.59-.31,24.74,24.74,0,0,0-5.15.61C254.75,410.23,254.72,409.56,254.72,409.22Zm5.79-8.4a.23.23,0,0,1,.28,0,13.55,13.55,0,0,1,3.17,3.39.21.21,0,0,1-.06.31l-.81.67a.22.22,0,0,1-.36-.06,12.14,12.14,0,0,0-3.25-3.58Zm2.33-1.82c.11-.08.19-.11.31,0a16,16,0,0,1,3.19,3.28c.08.14.05.22-.09.34l-.75.67c-.11.11-.23.11-.34-.06a13.27,13.27,0,0,0-3.22-3.5Z"/><path class="cls-3" d="M279.3,410.7a12.17,12.17,0,0,1,6.67-2.21c4.11,0,6.6,2.36,6.6,5.8,0,3.81-3,7-10.41,8.26-.42.08-.56.08-.76-.23a3.75,3.75,0,0,0-1.26-1.2c6.75-.95,10.47-3.42,10.47-7.05,0-2.3-1.76-4-4.9-4s-6.55,1.71-9.29,4.06a25.88,25.88,0,0,0-2.27,2.35c-.2.2-.34.26-.56.09a7.29,7.29,0,0,1-1-1c-.14-.14-.17-.25,0-.42,2-1.93,3.75-3.61,6-6,1.66-1.82,4-4.54,6.61-7.65-2.38.42-4.65.82-6.77,1.21a6.69,6.69,0,0,0-1.15.31,1.34,1.34,0,0,1-.56.16c-.14,0-.28-.11-.42-.36a9,9,0,0,1-.73-1.85,17.57,17.57,0,0,0,3.39-.17c1.76-.22,4.06-.56,6.16-1a2,2,0,0,0,.95-.36.5.5,0,0,1,.67,0,5,5,0,0,1,1.29,1.37.57.57,0,0,1-.31.87,3.05,3.05,0,0,0-1,.89c-2.26,2.5-4.34,4.68-7.47,8Z"/><path class="cls-3" d="M304.45,407a19.56,19.56,0,0,1,6.07-1.35c2.77,0,5.18,1.91,5.18,6.28a10,10,0,0,1-2.29,6.46,16.25,16.25,0,0,1-5,3.95c-.56.31-.75.25-.95,0a3.56,3.56,0,0,0-1.4-.95,14.84,14.84,0,0,0,6-4.57,8.24,8.24,0,0,0,1.6-5.09c0-3.36-1.77-4.31-3.47-4.31a13.2,13.2,0,0,0-4.09,1,21.2,21.2,0,0,0-2.52,1.15c-.39.22-.62.42-.9.42s-.39-.23-.53-.45a15.4,15.4,0,0,1-.9-1.79A13.47,13.47,0,0,0,304.45,407Zm9.32-6.08c.23,0,.31.14.28.36a6.87,6.87,0,0,1-.34,1.32c-.08.22-.11.34-.3.31a33,33,0,0,1-7.65-2.1c-.08,0-.11-.14-.08-.39a7.47,7.47,0,0,1,.45-1.54A29,29,0,0,0,313.77,401Z"/><path class="cls-3" d="M325.39,404.82a6.26,6.26,0,0,1,6.61-5.51c3.67,0,6.19,2.13,6.19,5.4,0,2-.84,3.39-3.31,5.55-1.93,1.73-2.29,2.63-2.32,5.35h-1.85v-.71a6.54,6.54,0,0,1,2.41-5.65c2.13-2.05,2.63-3,2.63-4.54,0-2.1-1.34-3.47-3.72-3.47-2.58,0-4,1.46-4.34,4.17Zm7.76,17h-3v-3h3Z"/><path class="cls-3" d="M156.09,63.82c.17.08.2.19.08.36a4.48,4.48,0,0,0-.75,2.18c0,2.3,2.57,3.42,7.17,3.42a35,35,0,0,0,8-.81c.25-.06.34,0,.4.19s.19,1,.25,1.46c0,.22-.09.31-.37.36a40.23,40.23,0,0,1-8.48.73c-5.43,0-8.71-1.65-8.71-5.26a5.84,5.84,0,0,1,1.15-3.31C155.25,63.34,155.7,63.59,156.09,63.82Zm6.55-10.48c2,0,4.26-.08,6.19-.25.25,0,.37.06.39.25a7.67,7.67,0,0,1,.09,1.26c0,.31-.11.4-.4.42a18.65,18.65,0,0,0-7.25,3.2.63.63,0,0,1-.78.05,3.16,3.16,0,0,0-1.15-.56,36.65,36.65,0,0,1,4.82-2.8c-.93.09-2.16.11-3,.11a29.49,29.49,0,0,1-5.68-.5c-.17,0-.25-.11-.25-.39s0-1,0-1.43A33.41,33.41,0,0,0,162.64,53.34Z"/><path class="cls-3" d="M187.28,50.49c.31.11.45.25.45.45a.9.9,0,0,1-.14.36,2.38,2.38,0,0,0-.22,1.09c-.11,1.29-.17,2.33-.23,3.75a4.9,4.9,0,0,1,1,.65c.17.14.2.31,0,.56-.39.64-.76,1.31-1.18,2.15,0,.37,0,.68-.05,1.07a40.5,40.5,0,0,1,3.16-3.28c1.71-1.65,3.33-2.77,5-2.77,1.93,0,3,1.26,3,3.5,0,1.23-.09,3.08-.26,5.21s-.28,3.69-.28,4.62c0,1.76.48,2.18,1.4,2.18A3.33,3.33,0,0,0,201.23,69a8.31,8.31,0,0,0,1.71-2.66,3.36,3.36,0,0,0,.64,1.43.67.67,0,0,1,0,.89c-1.29,2.07-2.88,3.19-4.82,3.19s-3.08-1.06-3.08-3.66c0-1.26.09-2.86.23-4.79s.22-3.45.22-4.82c0-1.54-.39-2.41-1.29-2.41s-2.18.68-3.72,2.08a60.08,60.08,0,0,0-4.23,4.42c0,2.91.08,6.64.11,10.56,0,.16-.05.25-.28.28s-.89,0-1.34,0c-.14,0-.23-.08-.23-.31,0-4.11,0-7,.06-9.4-1.34,1.9-2.66,3.89-4.11,6.07-.17.25-.26.28-.48.14a5.43,5.43,0,0,1-1-1c-.17-.14-.08-.31.06-.5,2.27-2.94,3.92-5.24,5.57-7.79.06-1,.06-1.73.08-2.43-1.4.42-2.68.84-3.83,1.31-.31.11-.56.37-.73.37a.54.54,0,0,1-.42-.28,7.25,7.25,0,0,1-.81-1.63,10.16,10.16,0,0,0,2-.28c1-.28,2.21-.61,3.92-1.17,0-1.29.06-2.52.08-3.78a13.84,13.84,0,0,0-.19-2.78A8.41,8.41,0,0,1,187.28,50.49Z"/><path class="cls-3" d="M217,56.12a16.57,16.57,0,0,0,6.27,6.63,3.09,3.09,0,0,0-.78,1.07c-.12.25-.2.36-.31.36a.68.68,0,0,1-.39-.22,20,20,0,0,1-5.55-6.39,22.32,22.32,0,0,1-4,5.49c.28,0,1,.06,2.57.06h2.8c1.93,0,2.55-.06,2.69-.06s.22,0,.22.2,0,.81,0,2.4v2.16c0,3.53,0,4.09,0,4.23s0,.22-.22.22h-1.2c-.2,0-.23,0-.23-.22v-.62h-5.35V73c0,.19,0,.22-.22.22h-1.2c-.17,0-.2,0-.2-.22s.06-.76.06-4.65V66.25c0-1.79-.06-2.55-.06-2.85a22,22,0,0,1-1.68,1.51c-.17.14-.28.22-.36.22s-.2-.14-.34-.39a2.79,2.79,0,0,0-.7-.95,18.06,18.06,0,0,0,6-6.95,5,5,0,0,0,.54-1.68c.61.09,1.26.2,1.62.28s.37.14.37.28a.28.28,0,0,1-.17.28Zm-2-4.71a3.62,3.62,0,0,0-.59.84,20.84,20.84,0,0,1-3.75,4.57c-.19.14-.3.22-.39.22s-.2-.11-.33-.34a2.85,2.85,0,0,0-.73-.89,15.64,15.64,0,0,0,3.66-4,5.52,5.52,0,0,0,.7-1.71,7.46,7.46,0,0,1,1.43.67c.17.11.25.2.25.34S215.17,51.3,215,51.41Zm3.92,13.19h-5.35V70h5.35Zm-.61-14.36c.28-.17.31-.17.44,0a13.31,13.31,0,0,0,3.95,4.34,4.05,4.05,0,0,0-.84.9c-.14.22-.22.34-.33.34s-.2-.09-.4-.26A15.84,15.84,0,0,1,217.52,51c-.08-.17-.05-.22.23-.42Zm16.07,23.38c-.17.25-.23.39-.34.39s-.19-.09-.36-.25a19.39,19.39,0,0,1-6.05-10.31,14.92,14.92,0,0,1-6,10.59c-.2.14-.31.22-.39.22s-.2-.11-.39-.36a3,3,0,0,0-1-.84c4.93-2.75,6.64-8.4,6.61-13a20.79,20.79,0,0,0-.11-2.94,12.35,12.35,0,0,1,1.74.2c.25.06.33.14.33.25a.93.93,0,0,1-.14.51,4.35,4.35,0,0,0-.22,1.84c1,5.74,3.44,9.94,7.2,12.63A3.62,3.62,0,0,0,234.38,73.62Zm-1.76-19.8a1.34,1.34,0,0,0,.55-.08.82.82,0,0,1,.29-.09c.16,0,.33.09.75.51s.5.56.5.7-.08.22-.19.33a1.23,1.23,0,0,0-.39.7A40.3,40.3,0,0,1,231.89,61c-.11.25-.2.36-.28.36a.8.8,0,0,1-.42-.25,4.19,4.19,0,0,0-1.07-.51,21.5,21.5,0,0,0,2.47-5.32h-7.06a22.34,22.34,0,0,1-2.24,4.26c-.17.25-.25.36-.36.36a.8.8,0,0,1-.42-.25,3,3,0,0,0-1-.53,19.61,19.61,0,0,0,3.75-8.23A13.82,13.82,0,0,0,225.5,49a13.73,13.73,0,0,1,1.68.36c.23.06.34.2.34.31a.55.55,0,0,1-.23.42,2.81,2.81,0,0,0-.44,1.09c-.26.92-.51,1.79-.79,2.66Z"/><path class="cls-3" d="M246.31,51.05c.31.08.45.22.45.42a2.25,2.25,0,0,1-.23.73,16.07,16.07,0,0,0-.33,2.88c-.26,4.23-.42,8.06-.42,11.93,0,3.13.86,4.09,3.3,4.09,3.55,0,7.2-2.16,10.08-5.35a6.84,6.84,0,0,0,.47,1.62,1.38,1.38,0,0,1,.12.39c0,.17-.09.31-.34.54A15.61,15.61,0,0,1,248.74,73c-3.16,0-4.87-1.51-4.87-5.63s.25-8.54.39-12.49a15.13,15.13,0,0,0-.22-4.22A10.63,10.63,0,0,1,246.31,51.05Z"/><path class="cls-3" d="M270.5,53.82a.37.37,0,0,1,.25.31,1.82,1.82,0,0,1-.11.5,9.84,9.84,0,0,0-.22,2.58,43.67,43.67,0,0,0,.39,6.35c.42,3.31,1.62,5.72,3,5.72,1.11,0,2.18-1.8,3-4.4a3.53,3.53,0,0,0,.93,1.4.64.64,0,0,1,.22.7c-.79,2.27-2.3,4.4-4.17,4.4-2.36,0-4.12-3.25-4.73-7.65a60.08,60.08,0,0,1-.51-7.81,12.27,12.27,0,0,0-.22-2.69A8,8,0,0,1,270.5,53.82ZM283.86,56c.16-.09.3-.12.42,0a16.92,16.92,0,0,1,5.45,9.68.32.32,0,0,1-.19.37,5.54,5.54,0,0,1-1.29.64.25.25,0,0,1-.36-.22,16.34,16.34,0,0,0-5.27-9.72A11.56,11.56,0,0,1,283.86,56Z"/><path class="cls-3" d="M310.06,54.69a31.21,31.21,0,0,1-3.69,12.23c-1.21,2-2.47,2.89-4.12,2.89-2.1,0-4.09-2.3-4.09-6.36a10.18,10.18,0,0,1,3.25-7.25,11.94,11.94,0,0,1,8.4-3.11c6.27,0,10,3.67,10,9,0,4.56-2.83,8.23-8.91,9.77a.55.55,0,0,1-.72-.31,3.25,3.25,0,0,0-1.1-1c5.55-1.1,8.74-4.09,8.74-8.77a7,7,0,0,0-7.22-7.08Zm-7.42,2.69a8.67,8.67,0,0,0-2.68,6c0,3.06,1.25,4.37,2.26,4.37s1.8-.61,2.61-2a29.62,29.62,0,0,0,3.27-11A9.43,9.43,0,0,0,302.64,57.38Z"/><path class="cls-3" d="M341.39,54.6c.23-.05.31,0,.34.2s.11.81.14,1.15,0,.36-.28.42a47.37,47.37,0,0,1-5.07,1.15,128.48,128.48,0,0,1-5.37,15.09c-.11.25-.23.25-.42.17s-1-.42-1.32-.62a.27.27,0,0,1-.11-.36,87.63,87.63,0,0,0,5.24-14c-1.83.2-3.76.31-5.66.34-.34,0-.39,0-.45-.28s-.14-1-.22-1.54a15.12,15.12,0,0,0,1.76.06,45.08,45.08,0,0,0,5-.34c.39-1.48.62-2.49.81-3.53a11.56,11.56,0,0,0,.23-2.63,11.45,11.45,0,0,1,2.24.64.33.33,0,0,1,.22.31.75.75,0,0,1-.22.45,2.45,2.45,0,0,0-.45,1.09c-.34,1.15-.59,2.3-.9,3.36A31.86,31.86,0,0,0,341.39,54.6ZM340,67.43c.22,0,.28,0,.3.28.2,2.52,1.77,3.36,5.3,3.36a29.76,29.76,0,0,0,4.14-.37c.22,0,.31,0,.34.2a11.18,11.18,0,0,1,.11,1.34c0,.28-.09.34-.31.37a25.56,25.56,0,0,1-3.67.28c-3,0-4.9-.39-6.16-1.54a4.76,4.76,0,0,1-1.37-3.78A8.14,8.14,0,0,1,340,67.43Zm.7-7.2c0-.25.05-.33.36-.42a22.56,22.56,0,0,1,4.9-.59,28,28,0,0,1,3.47.28c.34.06.39.14.42.31a8.14,8.14,0,0,1,0,1.23c0,.34-.11.42-.36.37a22,22,0,0,0-3.59-.31,24.09,24.09,0,0,0-5.15.62A14.1,14.1,0,0,1,340.7,60.23Zm5.79-8.4a.23.23,0,0,1,.28,0,13.73,13.73,0,0,1,3.17,3.39.21.21,0,0,1-.06.31l-.81.67a.23.23,0,0,1-.37-.06,12.11,12.11,0,0,0-3.24-3.58ZM348.81,50c.12-.08.2-.11.31,0a16,16,0,0,1,3.19,3.28c.09.14.06.22-.08.34l-.76.67c-.11.11-.22.11-.33-.06a13.45,13.45,0,0,0-3.22-3.5Z"/><path class="cls-3" d="M363.26,51.58c.28.17.4.31.4.45a1.22,1.22,0,0,1-.17.45,9,9,0,0,0-.45,1.65A52.09,52.09,0,0,0,362,63.37a20.81,20.81,0,0,0,.64,5.46c.7-1.65,1.26-2.91,2-4.65a4,4,0,0,0,.64,1.26c.11.14.17.22.17.34a1.93,1.93,0,0,1-.25.64,37,37,0,0,0-1.57,4,2.91,2.91,0,0,0-.11.68c0,.19,0,.36,0,.53a.27.27,0,0,1-.16.25,4.41,4.41,0,0,1-1.09.34.37.37,0,0,1-.45-.23,22.1,22.1,0,0,1-1.6-8.15,52.41,52.41,0,0,1,.76-8.56,25.34,25.34,0,0,0,.36-4.43A8.39,8.39,0,0,1,363.26,51.58Zm11.29,6.75c-1.4.11-2.75.19-3.92.19-.7,0-1.43,0-2.3,0-.31,0-.39-.12-.45-.34a14.14,14.14,0,0,1-.14-1.46c1,.09,2.13.12,3.14.12s2.46-.06,3.64-.17c-.06-2.07-.08-3.39-.14-4.29a5.61,5.61,0,0,0-.39-1.93,10,10,0,0,1,2.24.25c.22.09.33.17.33.34a1.59,1.59,0,0,1-.11.39,3,3,0,0,0-.14,1.15c0,1.09,0,2.49,0,3.89a33.9,33.9,0,0,0,4-.7c.23,0,.34,0,.37.17.05.39.08.78.14,1.23,0,.25-.06.34-.25.37a39.57,39.57,0,0,1-4.2.64l.05,4.06A14.87,14.87,0,0,1,375.28,69a10.4,10.4,0,0,1-3.87,4.28.86.86,0,0,1-.53.22c-.14,0-.25,0-.45-.25a3.24,3.24,0,0,0-1.23-.64,8.88,8.88,0,0,0,4.56-4.79,15.54,15.54,0,0,0,.84-6.41Z"/><path class="cls-3" d="M395.35,51.24a.41.41,0,0,1,.34.37c0,.28-.14.53-.14,1,0,.61.08,1.17.17,1.79A36.63,36.63,0,0,0,396.81,60c1.65-.82,3.33-1.6,5-2.52a4.72,4.72,0,0,0,1.63-1.29,11.07,11.07,0,0,1,1.42,1.57c.23.33.17.72-.33.78a10.26,10.26,0,0,0-2.47.9c-2,1-4.45,2.1-6.35,3.19-2.83,1.65-4.15,3.11-4.15,5.07,0,2.49,2.36,3.1,6.58,3.08a53.74,53.74,0,0,0,7.2-.59c.25,0,.34,0,.39.25a11.43,11.43,0,0,1,.17,1.46c0,.25-.08.36-.39.39a62.81,62.81,0,0,1-7.45.39c-4.84,0-8.34-1.06-8.34-4.9,0-2.69,1.9-4.76,5.46-6.92a49.4,49.4,0,0,1-1.49-7.16,10.8,10.8,0,0,0-.61-2.75A12.91,12.91,0,0,1,395.35,51.24Zm9.35.12c.12-.09.2-.06.31,0a13.91,13.91,0,0,1,3.17,3.39.21.21,0,0,1-.06.31l-.81.67a.23.23,0,0,1-.37,0,12,12,0,0,0-3.24-3.59Zm2.36-1.82c.11-.09.19-.12.3,0a16.53,16.53,0,0,1,3.2,3.27c.08.14.05.23-.09.34l-.75.67c-.12.11-.23.11-.34,0a13.27,13.27,0,0,0-3.22-3.5Z"/><path class="cls-3" d="M416.72,68.1a.49.49,0,0,1,.3-.17c.09,0,.17.06.31.17a19.5,19.5,0,0,1,5.38,5,.61.61,0,0,1,.14.34c0,.11,0,.19-.2.33l-1,.84c-.14.11-.22.17-.28.17s-.19,0-.3-.22a20.43,20.43,0,0,0-5.16-5.24c-.14-.08-.19-.14-.19-.2s0-.14.14-.28Z"/><path class="cls-3" d="M108.59,101.82a.37.37,0,0,1,.25.31,1.82,1.82,0,0,1-.11.5,9.84,9.84,0,0,0-.22,2.58,43.67,43.67,0,0,0,.39,6.35c.42,3.31,1.62,5.72,3,5.72,1.11,0,2.18-1.8,3-4.4a3.53,3.53,0,0,0,.93,1.4.64.64,0,0,1,.22.7c-.79,2.27-2.3,4.4-4.17,4.4-2.36,0-4.12-3.25-4.73-7.65a60.08,60.08,0,0,1-.51-7.81,12.27,12.27,0,0,0-.22-2.69A8,8,0,0,1,108.59,101.82ZM122,104c.16-.09.3-.12.42,0a17,17,0,0,1,5.45,9.68.32.32,0,0,1-.19.37,5.54,5.54,0,0,1-1.29.64.25.25,0,0,1-.36-.22,16.34,16.34,0,0,0-5.27-9.72A11.56,11.56,0,0,1,122,104Z"/><path class="cls-3" d="M142.27,109.72a12.11,12.11,0,0,1,6.67-2.22c4.11,0,6.6,2.36,6.6,5.8,0,3.81-3,7-10.41,8.26-.42.08-.56.08-.76-.22a3.67,3.67,0,0,0-1.26-1.21c6.75-.95,10.47-3.41,10.47-7,0-2.3-1.76-4-4.9-4s-6.55,1.71-9.29,4.06a25.88,25.88,0,0,0-2.27,2.35c-.2.2-.33.26-.56.09a7.29,7.29,0,0,1-1-1c-.14-.14-.17-.25,0-.42,2-1.93,3.75-3.61,6-6,1.66-1.82,4-4.54,6.61-7.65-2.38.42-4.65.82-6.77,1.21a6.69,6.69,0,0,0-1.15.31,1.34,1.34,0,0,1-.56.16c-.14,0-.28-.11-.42-.36a9.38,9.38,0,0,1-.73-1.85,17.57,17.57,0,0,0,3.39-.17c1.76-.22,4.06-.56,6.16-1a2,2,0,0,0,1-.36.5.5,0,0,1,.67,0A5,5,0,0,1,151,99.86a.57.57,0,0,1-.31.87,3.05,3.05,0,0,0-1,.89c-2.26,2.5-4.34,4.68-7.47,8Z"/><path class="cls-3" d="M167.7,101.82a.37.37,0,0,1,.25.31,2.28,2.28,0,0,1-.11.5,9.22,9.22,0,0,0-.23,2.58,43.92,43.92,0,0,0,.4,6.35c.42,3.31,1.62,5.72,3,5.72,1.12,0,2.19-1.8,3-4.4a3.64,3.64,0,0,0,.92,1.4.63.63,0,0,1,.23.7c-.79,2.27-2.3,4.4-4.17,4.4-2.36,0-4.12-3.25-4.74-7.65a61.67,61.67,0,0,1-.5-7.81,12.27,12.27,0,0,0-.22-2.69A8,8,0,0,1,167.7,101.82ZM181.05,104c.17-.09.31-.12.42,0a16.93,16.93,0,0,1,5.46,9.68.32.32,0,0,1-.19.37,5.54,5.54,0,0,1-1.29.64.25.25,0,0,1-.36-.22,16.34,16.34,0,0,0-5.27-9.72A11.65,11.65,0,0,1,181.05,104Z"/><path class="cls-3" d="M201.38,109.72A12.08,12.08,0,0,1,208,107.5c4.12,0,6.61,2.36,6.61,5.8,0,3.81-3,7-10.41,8.26-.42.08-.56.08-.76-.22a3.67,3.67,0,0,0-1.26-1.21c6.75-.95,10.47-3.41,10.47-7,0-2.3-1.76-4-4.9-4s-6.55,1.71-9.29,4.06a25.88,25.88,0,0,0-2.27,2.35c-.2.2-.34.26-.56.09a7.29,7.29,0,0,1-1-1c-.14-.14-.17-.25,0-.42,2-1.93,3.75-3.61,6-6,1.65-1.82,4-4.54,6.61-7.65l-6.78,1.21a6.8,6.8,0,0,0-1.14.31,1.38,1.38,0,0,1-.56.16c-.14,0-.28-.11-.42-.36a8.79,8.79,0,0,1-.73-1.85A17.57,17.57,0,0,0,201,99.8c1.76-.22,4.06-.56,6.16-1a2,2,0,0,0,.95-.36.5.5,0,0,1,.67,0,5,5,0,0,1,1.29,1.37.57.57,0,0,1-.31.87,3.05,3.05,0,0,0-1,.89c-2.26,2.5-4.34,4.68-7.47,8Z"/><path class="cls-3" d="M234.67,102.49c.26,0,.34,0,.37.17.05.34.11.84.14,1.2s0,.31-.25.34c-1.52.31-3,.56-4.68.81a67.55,67.55,0,0,1-5.63,11.82c-.14.22-.28.19-.45.08a6.39,6.39,0,0,1-1.12-.84c-.17-.14-.17-.25,0-.47a49.28,49.28,0,0,0,5.26-10.42c-1.2.11-2.33.2-3.53.2a14.16,14.16,0,0,1-1.48-.06c-.25,0-.28-.06-.34-.34a9.23,9.23,0,0,1-.17-1.4c.9.09,1.63.12,2.22.12a36,36,0,0,0,3.8-.23,33.18,33.18,0,0,0,.84-3.27,8.64,8.64,0,0,0,.23-2.19,12,12,0,0,1,2.18.56.32.32,0,0,1,.25.31.56.56,0,0,1-.22.42,2.56,2.56,0,0,0-.39.87c-.31,1-.62,2-.9,3A37.45,37.45,0,0,0,234.67,102.49Zm1.71,6.78a8.65,8.65,0,0,0-.17-1.79,8.43,8.43,0,0,1,1.91.36c.19.06.31.17.31.34a1.5,1.5,0,0,1-.17.5,4.07,4.07,0,0,0-.12,1.32,48.72,48.72,0,0,0,.34,5.15,24,24,0,0,1,5.29,2.8c.23.14.2.22.11.45a7.88,7.88,0,0,1-.67,1.23c-.14.19-.28.17-.44,0a17,17,0,0,0-4.26-2.66c0,2.82-1.4,4.36-5,4.36-2.13,0-4.34-1.09-4.34-3.41,0-2.1,2-3.53,4.76-3.53a13.64,13.64,0,0,1,2.8.34C236.55,113,236.41,110.78,236.38,109.27ZM234,116c-2.24,0-3.25.87-3.25,1.9,0,1.29,1,1.88,2.89,1.88,2.29,0,3.13-1.2,3.13-2.63a5.22,5.22,0,0,0,0-.67A9.3,9.3,0,0,0,234,116Zm4.76-12.54c.14-.23.23-.26.48-.17a19.79,19.79,0,0,1,5.48,2.63c.2.17.2.28.06.5a7.11,7.11,0,0,1-.64,1.12c-.14.2-.23.17-.39.06A19.07,19.07,0,0,0,238,104.7C238.31,104.23,238.54,103.75,238.76,103.42Z"/><path class="cls-3" d="M266.37,102.77a9.51,9.51,0,0,0,.95-3.27,10.39,10.39,0,0,1,2.33,1.2.46.46,0,0,1,0,.78,5.48,5.48,0,0,0-1.21,1.71,44,44,0,0,1-3.55,6.19,32.19,32.19,0,0,1,4.37,3.92.35.35,0,0,1,0,.53,10,10,0,0,1-.95,1.09c-.19.2-.33.17-.5,0a27.37,27.37,0,0,0-4-3.92,38.86,38.86,0,0,1-10,9.32c-.28.17-.56.25-.81,0a4,4,0,0,0-1.57-.87,35,35,0,0,0,10.84-9.66,41.87,41.87,0,0,0-5.66-3.42c.42-.53.81-1.06,1.07-1.34s.25-.11.44,0a55.72,55.72,0,0,1,5.27,3.14A38.08,38.08,0,0,0,266.37,102.77Z"/><path class="cls-3" d="M284.18,111a22.88,22.88,0,0,0-3.78.28c-.25,0-.39-.12-.48-.4a17.53,17.53,0,0,1-.28-2.12,52.11,52.11,0,0,0,6.19.25h8.6c1.93,0,4,0,6.13-.09.33,0,.42,0,.42.34a11.85,11.85,0,0,1,0,1.46c0,.3-.09.36-.42.33-2.1,0-4.17,0-6.05,0Z"/><path class="cls-3" d="M317,104.65c.08-1,.16-1.88.19-3a13.17,13.17,0,0,0-.14-3,9,9,0,0,1,2.24.42c.39.14.48.42.23.87a5.84,5.84,0,0,0-.37,1.84c-.05,1-.14,1.8-.25,2.89h4.76c1.2,0,2.35-.06,3.53-.06.36,0,.42.06.42.34,0,.61,0,1.54-.09,2.57a49.81,49.81,0,0,1-1,8.85c-.56,2.1-1.21,2.91-2.58,3.36a10.13,10.13,0,0,1-2.91.34.41.41,0,0,1-.45-.34,3.13,3.13,0,0,0-1-1.57,9.85,9.85,0,0,0,3.59-.28c.81-.28,1-.56,1.45-2.29a45.32,45.32,0,0,0,1-9.19h-6.89a20.9,20.9,0,0,1-2.52,7.87,17.78,17.78,0,0,1-5.94,5.77c-.25.17-.48.2-.67,0a3.81,3.81,0,0,0-1.51-.92,16,16,0,0,0,6.44-5.63,18.69,18.69,0,0,0,2.29-7h-3.27c-1.26,0-2.5,0-3.87.14-.25,0-.28,0-.33-.36s-.14-1.12-.17-1.68c1.57.11,2.86.14,4.34.14Z"/><path class="cls-3" d="M341.77,111a23,23,0,0,0-3.78.28c-.25,0-.39-.12-.47-.4a15.73,15.73,0,0,1-.28-2.12,52,52,0,0,0,6.19.25H352c1.93,0,4,0,6.13-.09.34,0,.42,0,.42.34a11.85,11.85,0,0,1,0,1.46c0,.3-.08.36-.42.33-2.1,0-4.17,0-6,0Z"/><path class="cls-3" d="M374.34,101.37a9.71,9.71,0,0,0,.25-2.69,11.61,11.61,0,0,1,2.18.76.42.42,0,0,1,.12.73,1.84,1.84,0,0,0-.48.92c-.42,1.37-.78,2.69-1.2,4.06a26,26,0,0,1,2.71-.19c2.44,0,3.64,1.23,3.64,4.59a23.15,23.15,0,0,1-1.54,9,3.35,3.35,0,0,1-3.19,2.21,7.53,7.53,0,0,1-2.86-.5.47.47,0,0,1-.33-.48,5.07,5.07,0,0,0-.34-1.68,8.18,8.18,0,0,0,3.25.78c.81,0,1.34-.28,1.88-1.45a21.2,21.2,0,0,0,1.26-7.87c0-2.18-.42-3-1.94-3a19.59,19.59,0,0,0-3,.31A75.65,75.65,0,0,1,369,120.1a.33.33,0,0,1-.48.14,8.1,8.1,0,0,1-1.12-.75c-.17-.14-.14-.28-.05-.45a59.39,59.39,0,0,0,5.37-11.93c-1.15.17-2.29.37-3.69.62a4,4,0,0,0-1.24.36c-.3.2-.56.2-.72-.14a10.35,10.35,0,0,1-.65-1.9,18.91,18.91,0,0,0,2.91-.14c1.54-.17,2.64-.34,3.95-.53C373.67,104.06,374,102.94,374.34,101.37Zm10.13,2.3a.35.35,0,0,1,.42.11,16,16,0,0,1,4.51,6.78c.06.19.09.33-.08.47a6.36,6.36,0,0,1-1.15.76c-.22.14-.42.11-.48-.17a15.45,15.45,0,0,0-4.48-7.08A12.88,12.88,0,0,1,384.47,103.67Zm.59-4.31c.11-.09.17-.06.28,0a13.91,13.91,0,0,1,3.17,3.39.21.21,0,0,1-.06.31l-.81.67a.23.23,0,0,1-.37,0,12,12,0,0,0-3.24-3.59Zm2.33-1.82c.11-.09.19-.12.3,0a16.53,16.53,0,0,1,3.2,3.27c.08.14.05.23-.09.34l-.75.67c-.12.11-.23.11-.34-.05a13.27,13.27,0,0,0-3.22-3.5Z"/><path class="cls-3" d="M407.13,98.68c.16.09.28.2.28.34a.61.61,0,0,1-.17.39,2.63,2.63,0,0,0-.37,1.12c-.11.62-.19,1.15-.28,1.79a55.25,55.25,0,0,0,7.79-1.2c.19-.06.28,0,.33.2a4.05,4.05,0,0,1,.14,1.06.32.32,0,0,1-.3.34,59.92,59.92,0,0,1-8.21,1.23c-.14,1.48-.25,2.66-.28,4a21.25,21.25,0,0,1,5.1-.78,6.32,6.32,0,0,0,.5-2.35,7,7,0,0,1,1.57.75c.23.17.34.31.34.45s-.2.36-.31.56-.28.48-.42.76c4,.58,6.24,3.22,6.24,6.44,0,4.39-3.92,6.63-8.12,7.61a.49.49,0,0,1-.67-.31,2.8,2.8,0,0,0-1-1,16.33,16.33,0,0,0,5.46-2.07,5.14,5.14,0,0,0,2.41-4.46c0-3-2.35-4.56-4.82-4.87a30.58,30.58,0,0,1-5.43,7.67,14.07,14.07,0,0,0,.59,1.57c.08.2.05.28-.14.42a4.89,4.89,0,0,1-1,.56c-.17.06-.28.06-.36-.14a10.32,10.32,0,0,1-.48-1.34c-2.18,1.65-3.95,2.38-5.26,2.38-1.85,0-2.52-1.32-2.52-2.86,0-2.85,2.32-6.27,6.64-8.34.05-1.6.13-3.08.22-4.48-1.6.08-2.69.11-3.45.11a7.93,7.93,0,0,1-1.31-.08c-.25,0-.34-.09-.36-.37a11.9,11.9,0,0,1-.12-1.29,42.7,42.7,0,0,0,5.44,0c.11-1,.19-1.71.25-2.43a6.62,6.62,0,0,0-.09-1.88A7.56,7.56,0,0,1,407.13,98.68Zm-7.67,18a1.15,1.15,0,0,0,1.23,1.32c1,0,2.46-.7,4.31-2.19a34.89,34.89,0,0,1-.62-5.6C401.05,112,399.46,114.67,399.46,116.66Zm11.22-8.09a14.76,14.76,0,0,0-4.73.87,29.33,29.33,0,0,0,.51,5.18A28.25,28.25,0,0,0,410.68,108.57Z"/><path class="cls-3" d="M430.93,108.74a27.07,27.07,0,0,1,7.56-1.6c3.47,0,5.82,2.16,5.82,5.46,0,2.69-1.18,4.42-3.69,5.8a18.31,18.31,0,0,1-5.8,1.87c-.31.06-.42,0-.56-.28a3.8,3.8,0,0,0-1.06-1.17,19.44,19.44,0,0,0,6.41-1.85,4.65,4.65,0,0,0,2.8-4.48c0-2.49-1.65-3.73-4.15-3.73-2.07,0-5.09,1-8.26,2.24a6.58,6.58,0,0,0-1.31.7,1.49,1.49,0,0,1-.53.26.75.75,0,0,1-.51-.31,10.8,10.8,0,0,1-1-1.85A25.63,25.63,0,0,0,430.93,108.74Z"/><path class="cls-3" d="M467.19,102.86c-4.2.67-7.84,1.26-11.37,2a6,6,0,0,0-1.68.48,1.67,1.67,0,0,1-.53.2.5.5,0,0,1-.4-.26,17.06,17.06,0,0,1-.78-2,22.15,22.15,0,0,0,3.47-.34c4.18-.67,9.86-1.51,17.36-2.44.28,0,.42.06.48.23a8.24,8.24,0,0,1,.17,1.4c0,.25-.09.31-.37.33a11.85,11.85,0,0,0-4.08.84c-4.09,1.63-7.23,5.07-7.23,8.82,0,4.65,4.06,6,8.15,6.36.36,0,.45.08.45.31a8.77,8.77,0,0,1-.17,1.34c-.06.31-.14.42-.45.39-4.73-.42-9.83-2.43-9.83-8.09,0-4,2.44-7.19,6.83-9.52Z"/><path class="cls-3" d="M111.12,147.24a.41.41,0,0,1,.34.37c0,.28-.14.53-.14,1,0,.61.08,1.17.17,1.79a36.63,36.63,0,0,0,1.09,5.66c1.65-.82,3.33-1.6,5-2.52a4.72,4.72,0,0,0,1.63-1.29,11.83,11.83,0,0,1,1.43,1.57c.22.33.16.72-.34.78a10.26,10.26,0,0,0-2.47.9c-2,1-4.45,2.1-6.35,3.19-2.83,1.65-4.15,3.11-4.15,5.07,0,2.49,2.36,3.1,6.58,3.08a53.74,53.74,0,0,0,7.2-.59c.25,0,.34,0,.39.25a11.43,11.43,0,0,1,.17,1.46c0,.25-.08.36-.39.39a62.81,62.81,0,0,1-7.45.39c-4.84,0-8.34-1.06-8.34-4.9,0-2.69,1.9-4.76,5.46-6.92a49.4,49.4,0,0,1-1.49-7.16,10.39,10.39,0,0,0-.61-2.75A12.8,12.8,0,0,1,111.12,147.24Zm9.35.12c.12-.09.2-.06.31,0a13.91,13.91,0,0,1,3.17,3.39.21.21,0,0,1-.06.31l-.81.67a.23.23,0,0,1-.37-.05,12,12,0,0,0-3.24-3.59Zm2.36-1.82c.11-.09.19-.12.3,0a16.53,16.53,0,0,1,3.2,3.27c.08.14,0,.23-.09.34l-.75.67c-.12.11-.23.11-.34,0a13.27,13.27,0,0,0-3.22-3.5Z"/><path class="cls-3" d="M140.27,146.49c.31.11.45.25.45.45a1.07,1.07,0,0,1-.14.36,2.38,2.38,0,0,0-.22,1.09c-.12,1.29-.17,2.33-.23,3.75a4.9,4.9,0,0,1,1,.65c.17.14.2.31,0,.56-.39.64-.76,1.31-1.18,2.15,0,.37,0,.68-.05,1.07a38.87,38.87,0,0,1,3.16-3.28c1.71-1.65,3.33-2.77,5-2.77,1.93,0,3,1.26,3,3.5,0,1.23-.08,3.08-.25,5.21s-.28,3.69-.28,4.62c0,1.76.48,2.18,1.4,2.18a3.3,3.3,0,0,0,2.32-1.06,8,8,0,0,0,1.71-2.66,3.47,3.47,0,0,0,.65,1.43.68.68,0,0,1,0,.89c-1.29,2.07-2.89,3.19-4.82,3.19s-3.08-1.06-3.08-3.66c0-1.26.09-2.86.22-4.79s.23-3.45.23-4.82c0-1.54-.39-2.41-1.29-2.41s-2.18.68-3.72,2.08a60.08,60.08,0,0,0-4.23,4.42c0,2.91.08,6.64.11,10.56,0,.16-.05.25-.28.28s-.9.05-1.34.05c-.14,0-.23-.08-.23-.31,0-4.11,0-7,.06-9.4-1.34,1.9-2.66,3.89-4.12,6.07-.16.25-.25.28-.47.14a5.15,5.15,0,0,1-1-.95c-.17-.14-.08-.31.06-.5,2.26-2.94,3.92-5.24,5.57-7.79.06-1,.06-1.73.08-2.43-1.4.42-2.68.84-3.83,1.31-.31.11-.56.37-.73.37a.54.54,0,0,1-.42-.28,7.25,7.25,0,0,1-.81-1.63,10.27,10.27,0,0,0,2-.28c1-.28,2.21-.61,3.92-1.17,0-1.29,0-2.52.08-3.78a13.84,13.84,0,0,0-.19-2.78A8.51,8.51,0,0,1,140.27,146.49Z"/><path class="cls-3" d="M176.47,164.3c0,.22-.05.3-.3.33a7.24,7.24,0,0,1-1.21.11c-.17,0-.25-.14-.25-.33,0-1.23,0-2.61,0-4-3.08,1.54-4.59,3-4.59,4.64s1.54,2.33,4.79,2.33a49.38,49.38,0,0,0,6.66-.56.23.23,0,0,1,.31.19,8.35,8.35,0,0,1,.16,1.38c0,.25-.11.36-.22.39a55.69,55.69,0,0,1-6.91.39c-3.92,0-6.47-1-6.47-4,0-2.36,1.54-4.26,6.18-6.53-.05-1.9-.69-2.66-2.35-2.63a8,8,0,0,0-4.59,2.27c-1,.95-1.68,1.68-2.66,2.71-.17.2-.28.2-.42.06a8.47,8.47,0,0,1-1-1.09c-.08-.17-.11-.23.06-.39a30.69,30.69,0,0,0,6.49-7.79c-1.73.11-3.44.11-5.2.06-.23,0-.29-.09-.31-.28-.06-.34-.14-.95-.17-1.4a56.58,56.58,0,0,0,6.5,0,25.74,25.74,0,0,0,1-2.8,4.17,4.17,0,0,0,.23-1.51,9.37,9.37,0,0,1,2.1.61.35.35,0,0,1,.05.62,2.59,2.59,0,0,0-.5.78c-.34.7-.59,1.29-1,2.13a51.81,51.81,0,0,0,5.91-.92c.22-.06.27-.06.33.11.06.39.14.78.17,1.23,0,.2-.06.28-.36.34-2.22.39-4.6.7-6.84.92a23.4,23.4,0,0,1-2.85,4.17l0,.06a6,6,0,0,1,3.5-1.2,3.23,3.23,0,0,1,3.52,3.27c1.37-.61,3-1.34,4.37-2a7.87,7.87,0,0,0,2.13-1.43,7,7,0,0,1,1.37,1.62c.23.42,0,.59-.28.65a7.78,7.78,0,0,0-1.54.44c-2.13.9-3.89,1.54-5.94,2.41Z"/><path class="cls-3" d="M196.8,164.69a4.33,4.33,0,0,0,2.52,2.77,16.77,16.77,0,0,0,5.6.67c3.59,0,7.59-.17,11.73-.56a2.51,2.51,0,0,0-.5,1.18c-.08.56-.08.56-.64.61-3.64.23-7.09.34-9.94.34-3.06,0-5.55-.25-6.89-.9A5.28,5.28,0,0,1,196,166a34.46,34.46,0,0,1-2.94,2.72,2.24,2.24,0,0,0-.59.59c-.11.16-.22.25-.33.25s-.23-.09-.34-.25a9.86,9.86,0,0,1-.81-1.46,10.29,10.29,0,0,0,1.71-1,19.16,19.16,0,0,0,2.52-2.26v-7h-2c-1.43,0-1.79.06-1.9.06s-.23,0-.23-.25v-1.21c0-.19,0-.22.23-.22s.47.05,1.9.05h1.43c1.45,0,1.87-.05,2-.05s.23,0,.23.22-.06.87-.06,2.63ZM193,146.4c.31-.19.34-.22.51-.08a24.86,24.86,0,0,1,3.19,4c.11.17.08.22-.2.45l-.64.5c-.34.25-.42.28-.56.06a20.61,20.61,0,0,0-3.11-4c-.14-.14-.11-.19.2-.39Zm6.86,5.58c0,.84.06,1.06.25,1.23s.62.22,2.05.22,2-.08,2.21-.31.25-.58.28-1.45a3.24,3.24,0,0,0,1,.56c.39.14.39.17.33.67a1.92,1.92,0,0,1-.64,1.34c-.45.37-1.26.48-3.3.48s-2.75-.11-3.11-.42-.62-.64-.62-2v-1.37c0-.62-.05-.92-.05-1.09s0-.23.25-.23.67.06,2,.06h3.3v-2h-3.19c-1.71,0-2.21.05-2.38.05s-.22,0-.22-.22v-1c0-.2,0-.23.22-.23s.67.06,2.38.06H203c1.57,0,2.08-.06,2.21-.06s.23,0,.23.23-.06.53-.06,1.62v.95c0,1.15.06,1.57.06,1.71s0,.23-.23.23-.64-.06-2.21-.06h-3.08Zm15.66,10.52c0,.23,0,.26-.23.26s-1.09-.06-3.92-.06h-9.13c-2.82,0-3.78.06-3.92.06s-.22,0-.22-.26v-.95c0-.19,0-.22.22-.22s1.1,0,3.92,0H203v-2.52c-2.63,0-3.5.06-3.67.06s-.22,0-.22-.25v-.95c0-.2,0-.23.22-.23s1,.06,3.67.06v-.17a7.83,7.83,0,0,0-.17-2,11.69,11.69,0,0,1,1.63.17c.19,0,.33.11.33.22a.64.64,0,0,1-.14.42,1.66,1.66,0,0,0-.14.93v.39h4.2v-.11a8.25,8.25,0,0,0-.16-2c.67.06,1.11.08,1.65.17.22,0,.36.14.36.25s-.06.22-.17.42a1.66,1.66,0,0,0-.14.81v.48h.12c2.71,0,3.61-.06,3.77-.06s.23,0,.23.23v.95c0,.22,0,.25-.23.25s-1.06-.06-3.77-.06h-.12v2.52h1.15c2.83,0,3.78,0,3.92,0s.23,0,.23.22Zm-10.87,1.82c-.17.06-.56.37-.81.51a19.4,19.4,0,0,1-3.73,1.93c-.5.2-.53.2-.89-.25a2.13,2.13,0,0,0-.76-.67,20.74,20.74,0,0,0,4.09-1.85,5.09,5.09,0,0,0,1.12-1,7.67,7.67,0,0,1,1.09.73c.17.11.28.25.26.36A.47.47,0,0,1,204.67,164.32Zm4-5.46h-4.2v2.52h4.2ZM209,152c0,.82.06,1,.25,1.21s.62.22,2.3.22c1.37,0,1.9-.08,2.13-.28s.28-.59.3-1.48a4.26,4.26,0,0,0,1,.53c.45.17.45.2.36.7a1.92,1.92,0,0,1-.64,1.34c-.45.37-1.32.48-3.53.48-2,0-2.8-.11-3.16-.42s-.59-.64-.59-2v-1.37c0-.62-.06-.92-.06-1.09s0-.23.23-.23.67.06,2,.06H213v-2h-3.25c-1.73,0-2.21.05-2.35.05s-.25,0-.25-.22v-1c0-.2,0-.23.25-.23s.62.06,2.35.06h2.38c1.57,0,2.05-.06,2.22-.06s.22,0,.22.23-.06.53-.06,1.62v.95c0,1.15.06,1.57.06,1.71s0,.23-.22.23-.65-.06-2.22-.06H209Zm.08,11.15c.26-.25.31-.23.51-.09a16.94,16.94,0,0,0,5.68,2.72,3.53,3.53,0,0,0-.61.87c-.28.5-.34.5-.84.33a21.11,21.11,0,0,1-5.27-2.94c-.17-.11-.22-.16,0-.42Z"/><path class="cls-3" d="M228.08,160a5.7,5.7,0,0,1,3.95-2c2.77,0,3.67,2,3.94,4.84.23,2.38.68,3.75,2.24,3.75a4.48,4.48,0,0,0,3.59-1.93,13.47,13.47,0,0,0,2.35-4.62,3.56,3.56,0,0,0,1,1.49c.22.16.25.39.14.72a12.71,12.71,0,0,1-2.21,3.81,6,6,0,0,1-4.9,2.47c-2.69,0-3.64-1.66-4-5.07-.31-2.83-1-3.92-2.43-3.92-1.23,0-2.47.75-3.87,2.41a31.08,31.08,0,0,0-3.44,6.18c-.11.28-.25.31-.5.2a5.53,5.53,0,0,1-1.24-.73.32.32,0,0,1,0-.47c3.61-7.06,6.58-13,8.51-17.08a12.53,12.53,0,0,0,1.09-3.22,9.63,9.63,0,0,1,2,1.06.49.49,0,0,1,0,.81,3.87,3.87,0,0,0-.84,1.15c-1.93,3.61-3.8,7.2-5.46,10.14Z"/><path class="cls-3" d="M265.6,150.6c.22,0,.31,0,.34.2s.11.81.14,1.15,0,.36-.29.42a47.21,47.21,0,0,1-5.06,1.15,126.64,126.64,0,0,1-5.38,15.09c-.11.25-.22.25-.42.17s-1-.42-1.31-.62a.27.27,0,0,1-.12-.36,86.68,86.68,0,0,0,5.24-14c-1.82.2-3.75.31-5.66.34-.33,0-.39,0-.45-.28s-.13-1-.22-1.54a15.3,15.3,0,0,0,1.77.06,45.07,45.07,0,0,0,5-.34c.4-1.48.62-2.49.82-3.53a11,11,0,0,0,.22-2.63,11.26,11.26,0,0,1,2.24.64.33.33,0,0,1,.22.31.75.75,0,0,1-.22.45,2.45,2.45,0,0,0-.45,1.09c-.33,1.15-.58,2.3-.89,3.36A32.59,32.59,0,0,0,265.6,150.6Zm-1.4,12.83c.22,0,.28,0,.31.28.19,2.52,1.76,3.36,5.29,3.36a29.62,29.62,0,0,0,4.14-.37c.23,0,.31,0,.34.2a9.44,9.44,0,0,1,.11,1.34c0,.28-.08.34-.31.37a25.41,25.41,0,0,1-3.66.28c-3,0-4.9-.39-6.16-1.54a4.76,4.76,0,0,1-1.38-3.78A8.14,8.14,0,0,1,264.2,163.43Zm.7-7.2c0-.25.06-.33.36-.42a22.63,22.63,0,0,1,4.9-.59,28,28,0,0,1,3.47.28c.34.06.4.14.42.31a8.14,8.14,0,0,1,0,1.23c0,.34-.11.42-.36.37a22,22,0,0,0-3.59-.31,24.09,24.09,0,0,0-5.15.62C264.93,157.24,264.9,156.57,264.9,156.23Zm5.8-8.4a.22.22,0,0,1,.27,0,13.37,13.37,0,0,1,3.17,3.39.2.2,0,0,1-.06.31l-.81.67a.22.22,0,0,1-.36-.06,12,12,0,0,0-3.25-3.58ZM273,146c.11-.08.19-.11.31,0a16,16,0,0,1,3.19,3.28c.08.14.06.22-.08.34l-.76.67c-.11.11-.22.11-.34-.06a13.27,13.27,0,0,0-3.22-3.5Z"/><path class="cls-3" d="M286.63,152.84c.33.2.36.45.16.7a3.92,3.92,0,0,0-.42,1.32,52.73,52.73,0,0,0-.81,6.41c2.94-3.33,6.41-5,9.78-5,3.8,0,6,2.19,6,5.35,0,2.83-1.57,4.65-4.2,6a20.57,20.57,0,0,1-6.81,1.85c-.45.06-.59.06-.73-.25a4.51,4.51,0,0,0-1.26-1.37A22.63,22.63,0,0,0,296,166c2.18-1,3.36-2.57,3.36-4.62s-1.26-3.53-4.23-3.53c-2.66,0-5.71,1.68-8.32,4.37a7.06,7.06,0,0,0-1.23,1.65c-.14.23-.22.23-.44.14a9.46,9.46,0,0,1-1.15-.5c-.17-.08-.23-.14-.23-.39a85,85,0,0,1,.81-8.79,15.71,15.71,0,0,0,.23-2.33A9.46,9.46,0,0,1,286.63,152.84ZM288,146a.29.29,0,0,1,.39-.08,16.47,16.47,0,0,1,5.13,3.19c.17.14.17.19.05.39a8,8,0,0,1-.92,1.2c-.14.17-.28.17-.45,0a18.21,18.21,0,0,0-5.18-3.41A8.38,8.38,0,0,1,288,146Z"/><path class="cls-3" d="M313.51,149.82a.37.37,0,0,1,.25.31,2.28,2.28,0,0,1-.11.5,9.65,9.65,0,0,0-.23,2.58,45.15,45.15,0,0,0,.39,6.35c.42,3.31,1.63,5.72,3,5.72,1.12,0,2.19-1.8,3-4.4a3.64,3.64,0,0,0,.92,1.4.63.63,0,0,1,.23.7c-.79,2.27-2.3,4.4-4.17,4.4-2.36,0-4.12-3.25-4.74-7.65a61.67,61.67,0,0,1-.5-7.81,11.68,11.68,0,0,0-.23-2.69A8,8,0,0,1,313.51,149.82ZM326.86,152c.17-.09.31-.12.42,0a16.93,16.93,0,0,1,5.46,9.68.32.32,0,0,1-.19.37,5.75,5.75,0,0,1-1.29.64.26.26,0,0,1-.37-.22,16.28,16.28,0,0,0-5.26-9.72A11.65,11.65,0,0,1,326.86,152Z"/><path class="cls-3" d="M344.36,149.82a.38.38,0,0,1,.26.31,1.88,1.88,0,0,1-.12.5,9.84,9.84,0,0,0-.22,2.58,45.15,45.15,0,0,0,.39,6.35c.42,3.31,1.62,5.72,3,5.72,1.12,0,2.18-1.8,3-4.4a3.64,3.64,0,0,0,.93,1.4.62.62,0,0,1,.22.7c-.78,2.27-2.29,4.4-4.17,4.4-2.35,0-4.11-3.25-4.73-7.65a61.91,61.91,0,0,1-.51-7.81,11.69,11.69,0,0,0-.22-2.69A7.87,7.87,0,0,1,344.36,149.82ZM357.72,152c.17-.09.31-.12.42,0a16.93,16.93,0,0,1,5.46,9.68c0,.2-.06.28-.2.37a5.68,5.68,0,0,1-1.28.64.26.26,0,0,1-.37-.22,16.33,16.33,0,0,0-5.26-9.72A11.65,11.65,0,0,1,357.72,152Z"/><path class="cls-3" d="M383.93,150.69a31.2,31.2,0,0,1-3.7,12.23c-1.2,2.05-2.46,2.89-4.11,2.89-2.1,0-4.09-2.3-4.09-6.36a10.14,10.14,0,0,1,3.25-7.25,11.94,11.94,0,0,1,8.4-3.11c6.27,0,10,3.67,10,9,0,4.56-2.83,8.23-8.9,9.77a.56.56,0,0,1-.73-.31,3.2,3.2,0,0,0-1.09-1c5.54-1.1,8.73-4.09,8.73-8.77a7,7,0,0,0-7.22-7.08Zm-7.42,2.69a8.64,8.64,0,0,0-2.69,6c0,3.06,1.26,4.37,2.27,4.37s1.79-.61,2.6-2A29.8,29.8,0,0,0,382,150.8,9.37,9.37,0,0,0,376.51,153.38Z"/><path class="cls-3" d="M410,149.2a9.68,9.68,0,0,0,.25-2.68,11.61,11.61,0,0,1,2.18.75.42.42,0,0,1,.12.73,1.84,1.84,0,0,0-.48.92c-.42,1.38-.78,2.69-1.2,4.06a26,26,0,0,1,2.71-.19c2.44,0,3.64,1.23,3.64,4.51a23.3,23.3,0,0,1-1.54,9,3.35,3.35,0,0,1-3.19,2.21,7.34,7.34,0,0,1-2.86-.5.47.47,0,0,1-.33-.48,5.12,5.12,0,0,0-.34-1.68,8.21,8.21,0,0,0,3.25.79c.81,0,1.34-.28,1.88-1.46a21.16,21.16,0,0,0,1.26-7.87c0-2.18-.42-3-1.94-3a19.59,19.59,0,0,0-3,.31,75.75,75.75,0,0,1-5.71,13.25.35.35,0,0,1-.48.14,8.23,8.23,0,0,1-1.12-.76c-.17-.14-.14-.28-.05-.45a59.39,59.39,0,0,0,5.37-11.93c-1.15.17-2.29.37-3.69.62a4,4,0,0,0-1.24.36c-.3.2-.56.2-.72-.14a10.35,10.35,0,0,1-.65-1.9,18.91,18.91,0,0,0,2.91-.14c1.54-.17,2.64-.34,3.95-.53C409.3,151.89,409.6,150.77,410,149.2Zm10.27,2.3a.35.35,0,0,1,.42.11,16,16,0,0,1,4.51,6.78c.06.19.09.33-.08.47a5.88,5.88,0,0,1-1.15.76c-.22.14-.42.11-.48-.17a15.56,15.56,0,0,0-4.48-7.08A11.78,11.78,0,0,1,420.24,151.5Z"/><path class="cls-3" d="M444.16,150.49c.25-.05.33,0,.36.17.06.34.11.84.14,1.2s0,.31-.25.34c-1.51.31-3,.56-4.68.81a66.85,66.85,0,0,1-5.63,11.82c-.14.22-.28.19-.44.08a6.39,6.39,0,0,1-1.12-.84c-.17-.14-.17-.25,0-.47a49.28,49.28,0,0,0,5.26-10.42c-1.2.11-2.32.2-3.53.2a14.16,14.16,0,0,1-1.48-.06c-.25,0-.28-.06-.34-.34a8.21,8.21,0,0,1-.16-1.4,22,22,0,0,0,2.21.12,36.17,36.17,0,0,0,3.81-.23c.33-1.06.58-2.1.84-3.27a8.62,8.62,0,0,0,.22-2.19,12,12,0,0,1,2.18.56.33.33,0,0,1,.26.31.58.58,0,0,1-.23.42,2.56,2.56,0,0,0-.39.87c-.31,1-.62,2-.9,3A38.09,38.09,0,0,0,444.16,150.49Zm1.7,6.78a8.58,8.58,0,0,0-.16-1.79,8.45,8.45,0,0,1,1.9.36c.19.06.31.17.31.34a1.5,1.5,0,0,1-.17.5,4.43,4.43,0,0,0-.11,1.32,48.64,48.64,0,0,0,.33,5.15,24,24,0,0,1,5.3,2.8c.22.14.19.22.11.45a10,10,0,0,1-.67,1.23c-.14.19-.28.17-.45,0A16.79,16.79,0,0,0,448,165c0,2.82-1.4,4.36-5,4.36-2.13,0-4.34-1.09-4.34-3.41,0-2.1,2-3.53,4.76-3.53a13.64,13.64,0,0,1,2.8.34C446,161,445.89,158.78,445.86,157.27ZM443.48,164c-2.24,0-3.24.87-3.24,1.9,0,1.29,1,1.88,2.88,1.88,2.3,0,3.14-1.2,3.14-2.63a3.49,3.49,0,0,0,0-.67A9.3,9.3,0,0,0,443.48,164Zm4.76-12.54c.14-.23.23-.26.48-.17a19.85,19.85,0,0,1,5.49,2.63c.19.17.19.28.05.5a6.4,6.4,0,0,1-.64,1.12c-.14.2-.22.17-.39.06a19.13,19.13,0,0,0-5.71-2.86C447.79,152.23,448,151.75,448.24,151.42Z"/><path class="cls-3" d="M461.57,151.84a6.26,6.26,0,0,1,6.61-5.52c3.67,0,6.19,2.13,6.19,5.4,0,2-.84,3.39-3.31,5.55-1.93,1.73-2.29,2.63-2.32,5.35h-1.85v-.7a6.55,6.55,0,0,1,2.41-5.66c2.13-2,2.63-3,2.63-4.54,0-2.1-1.34-3.47-3.72-3.47-2.58,0-4,1.46-4.34,4.17Zm7.76,17h-3.05v-3h3.05Z"/></svg>