<?xml version="1.0" encoding="utf-8"?>
<!-- Generator: Adobe Illustrator 25.4.2, SVG Export Plug-In . SVG Version: 6.00 Build 0)  -->
<svg version="1.1" id="レイヤー_1" xmlns="http://www.w3.org/2000/svg" xmlns:xlink="http://www.w3.org/1999/xlink" x="0px"
	 y="0px" viewBox="0 0 640 461.8" style="enable-background:new 0 0 640 461.8;" xml:space="preserve">
<style type="text/css">
	.st0{fill:none;stroke:#000000;stroke-width:2.8346;stroke-miterlimit:10;}
	.st1{fill:#FFFFFF;stroke:#000000;stroke-width:2.8346;stroke-miterlimit:10;}
	.st2{fill:#231815;}
	.st3{fill:none;stroke:#000000;stroke-width:5.6693;stroke-miterlimit:10;}
	.st4{fill:none;stroke:#FFFFFF;stroke-width:14.1732;stroke-miterlimit:10;}
	.st5{fill:none;stroke:#FFFFFF;stroke-width:18;stroke-linejoin:round;}
	.st6{fill:none;stroke:#FFFFFF;stroke-width:11.3386;stroke-linejoin:round;stroke-miterlimit:10;}
	.st7{fill-rule:evenodd;clip-rule:evenodd;fill:#231815;}
	.st8{fill:none;stroke:#FFFFFF;stroke-width:8.5039;stroke-miterlimit:10;}
	.st9{fill:none;stroke:#FFFFFF;stroke-width:14.1732;stroke-linejoin:round;}
</style>
<g>
	<path d="M233.7,217.7v20.1h6.7v0l-13,14.9l-13-14.9v0h6.7v-20.1H233.7z"/>
</g>
<g>
	<path d="M161.3,155c0,1.4,0,2.7,0.1,4.1c0,0.2,0,0.3-0.2,0.3c-0.4,0-0.9,0-1.3,0c-0.2,0-0.2-0.1-0.2-0.3c0-1.4,0.1-2.7,0.1-4v-6.7
		c-2.4,2.1-4.6,3.7-7.1,5.1c-0.2,0.1-0.4,0.1-0.5-0.1c-0.3-0.3-0.7-0.5-1.1-0.7c2.8-1.5,5.2-3.2,7.1-4.8c1.7-1.5,3.3-3.1,4.4-4.4
		c1-1.2,1.4-1.8,1.6-2.6c0.6,0.3,1.2,0.7,1.6,1c0.2,0.2,0.2,0.5-0.1,0.6c-0.3,0.1-0.7,0.5-1.3,1.2c-1,1.2-1.8,2.1-2.8,3.1V155z"/>
	<path d="M175.2,149.8c0.8-0.8,2-2,3.2-3.3c0.5-0.5,0.9-0.7,1.3-0.7c0.5,0,0.8,0.1,1.4,0.6c2.9,2.5,6.7,5.1,10.4,7.4
		c0.2,0.1,0.2,0.2,0.1,0.4c-0.2,0.5-0.5,0.8-0.7,1.1c-0.1,0.2-0.2,0.2-0.4,0.1c-3.6-2.5-7.1-5.1-10.3-7.7c-0.1-0.1-0.3-0.2-0.5-0.2
		c-0.2,0-0.3,0.1-0.4,0.2c-1,1-2.3,2.3-3.8,4c-0.5,0.6-0.8,0.9-1,1.2c-0.1,0.2-0.3,0.2-0.5,0.1c-0.4-0.3-0.9-0.7-1.3-1.2
		C173.3,151.5,174.2,150.8,175.2,149.8z M185.6,144c0.1-0.1,0.2-0.1,0.3,0c0.9,0.6,1.9,1.7,2.6,2.7c0.1,0.1,0,0.2,0,0.2l-0.7,0.5
		c-0.1,0.1-0.2,0.1-0.3,0c-0.7-1.1-1.6-2.2-2.6-2.9L185.6,144z M187.5,142.5c0.1-0.1,0.2-0.1,0.2,0c0.9,0.7,1.9,1.7,2.6,2.7
		c0.1,0.1,0,0.2-0.1,0.3l-0.6,0.5c-0.1,0.1-0.2,0.1-0.3,0c-0.6-0.9-1.5-2-2.6-2.8L187.5,142.5z"/>
	<path d="M198.1,143.6c0.2-0.2,0.3-0.1,0.4,0c1.3,0.7,2.8,1.8,4.1,3c0.2,0.2,0.2,0.2,0.1,0.4c-0.2,0.3-0.6,0.8-0.8,1
		c-0.1,0.2-0.2,0.2-0.4,0c-1.3-1.3-2.8-2.5-4.3-3.4C197.5,144.2,197.8,143.8,198.1,143.6z M200.1,155.6c2.4-1.3,4.4-2.5,6.6-4.2
		c2.3-1.9,4.2-3.6,6.1-6.1c0.1,0.6,0.2,1.1,0.4,1.5c0.1,0.3,0.1,0.5-0.2,0.8c-1.5,1.8-3.5,3.6-5.5,5.2c-1.9,1.5-4.2,3-6.8,4.4
		c-0.6,0.4-1,0.7-1.2,0.9c-0.2,0.2-0.4,0.2-0.6,0c-0.3-0.4-0.7-0.9-1.1-1.5C198.6,156.3,199.3,156,200.1,155.6z"/>
	<path d="M226.3,147.7c2.6,0.7,5.1,1.8,7.4,3.2c0.2,0.1,0.2,0.2,0.2,0.4c-0.2,0.4-0.4,0.8-0.5,1.1c-0.1,0.2-0.2,0.2-0.4,0.1
		c-2.1-1.4-4.5-2.4-6.6-3v5.3c0,1.4,0,3.2,0.1,4.6c0,0.2,0,0.3-0.3,0.3c-0.3,0-0.8,0-1.2,0c-0.2,0-0.3-0.1-0.3-0.3
		c0.1-1.5,0.1-3.2,0.1-4.6v-10.1c0-1.7-0.1-2.9-0.2-3.6c0.8,0.1,1.5,0.2,1.9,0.3c0.4,0.1,0.3,0.3,0.2,0.7c-0.1,0.4-0.2,1.1-0.2,2.5
		V147.7z"/>
	<path d="M250.9,144.4c0.2,0,0.3,0,0.3,0.1c0,0.3,0.1,0.7,0.1,1c0,0.2,0,0.2-0.2,0.3c-1.2,0.2-2.4,0.5-3.8,0.7
		c-1.3,3.6-2.9,7-4.6,9.6c-0.1,0.2-0.2,0.2-0.4,0.1c-0.3-0.2-0.7-0.5-0.9-0.7c-0.1-0.1-0.1-0.2,0-0.4c1.9-2.8,3.2-5.5,4.3-8.4
		c-1,0.1-1.9,0.2-2.9,0.2c-0.3,0-0.7,0-1.2,0c-0.2,0-0.2,0-0.3-0.3c-0.1-0.3-0.1-0.7-0.1-1.1c0.7,0.1,1.3,0.1,1.8,0.1
		c1,0,2-0.1,3.1-0.2c0.3-0.9,0.5-1.7,0.7-2.7c0.1-0.7,0.2-1.1,0.2-1.8c0.7,0.1,1.3,0.3,1.8,0.5c0.1,0,0.2,0.1,0.2,0.2s0,0.2-0.2,0.3
		c-0.1,0.1-0.2,0.3-0.3,0.7c-0.2,0.8-0.5,1.7-0.7,2.4C248.8,144.9,249.7,144.7,250.9,144.4z M252.3,149.9c0-0.5,0-0.9-0.1-1.5
		c0.6,0.1,1.1,0.1,1.5,0.3c0.2,0,0.2,0.1,0.2,0.3c0,0.1,0,0.2-0.1,0.4c-0.1,0.2-0.1,0.6-0.1,1.1c0,1.4,0.1,2.7,0.3,4.2
		c1.7,0.7,2.9,1.3,4.3,2.3c0.2,0.1,0.2,0.2,0.1,0.4c-0.1,0.3-0.4,0.7-0.5,1c-0.1,0.2-0.2,0.1-0.4,0c-1-0.9-2.2-1.6-3.4-2.2
		c0,2.3-1.1,3.5-4.1,3.5c-1.7,0-3.5-0.9-3.5-2.8c0-1.7,1.6-2.9,3.9-2.9c0.7,0,1.6,0.1,2.3,0.3C252.4,153,252.3,151.1,252.3,149.9z
		 M250.3,155.3c-1.8,0-2.6,0.7-2.6,1.5c0,1,0.8,1.5,2.3,1.5c1.9,0,2.5-1,2.5-2.1c0-0.3,0-0.4,0-0.5
		C251.9,155.5,251.1,155.3,250.3,155.3z M254.2,145.2c0.1-0.2,0.2-0.2,0.4-0.1c1.5,0.5,3.2,1.2,4.4,2.1c0.2,0.1,0.2,0.2,0,0.4
		c-0.1,0.3-0.3,0.7-0.5,0.9c-0.1,0.2-0.2,0.1-0.3,0c-1.3-1-3-1.8-4.6-2.3C253.8,145.8,254,145.4,254.2,145.2z"/>
	<path d="M270.5,141.8c0.2,0,0.3,0.2,0.3,0.3c0,0.2-0.1,0.4-0.1,0.8c0,0.5,0.1,1,0.1,1.5c0.2,1.6,0.5,3.2,0.9,4.6
		c1.3-0.7,2.7-1.3,4-2c0.7-0.4,1-0.6,1.3-1c0.5,0.4,0.9,0.9,1.2,1.3c0.2,0.3,0.1,0.6-0.3,0.6c-0.6,0.1-1.3,0.4-2,0.7
		c-1.7,0.8-3.6,1.7-5.1,2.6c-2.3,1.3-3.4,2.5-3.4,4.1c0,2,1.9,2.5,5.3,2.5c2.1,0,4.1-0.2,5.8-0.5c0.2,0,0.3,0,0.3,0.2
		c0.1,0.4,0.1,0.8,0.1,1.2c0,0.2-0.1,0.3-0.3,0.3c-1.9,0.2-3.5,0.3-6,0.3c-3.9,0-6.8-0.9-6.8-4c0-2.2,1.5-3.9,4.4-5.6
		c-0.5-1.7-1-4-1.2-5.8c-0.1-1-0.2-1.6-0.5-2.2C269.3,141.6,270,141.7,270.5,141.8z M278.1,141.9c0.1-0.1,0.2,0,0.2,0
		c0.9,0.6,1.9,1.7,2.6,2.7c0.1,0.1,0,0.2,0,0.2l-0.7,0.5c-0.1,0.1-0.2,0.1-0.3,0c-0.7-1.1-1.6-2.2-2.6-2.9L278.1,141.9z M280,140.4
		c0.1-0.1,0.2-0.1,0.2,0c0.9,0.7,1.9,1.7,2.6,2.7c0.1,0.1,0,0.2-0.1,0.3l-0.6,0.5c-0.1,0.1-0.2,0.1-0.3,0c-0.6-0.9-1.5-2-2.6-2.8
		L280,140.4z"/>
	<path d="M296.3,144.6c-0.4,3.8-1.6,7.6-3,9.9c-1,1.7-2,2.3-3.3,2.3c-1.7,0-3.3-1.9-3.3-5.1c0-2.1,1-4.3,2.6-5.9
		c1.7-1.6,3.9-2.5,6.8-2.5c5.1,0,8.1,3,8.1,7.3c0,3.7-2.3,6.7-7.2,7.9c-0.3,0.1-0.4,0-0.6-0.2c-0.1-0.2-0.4-0.6-0.9-0.8
		c4.5-0.9,7.1-3.3,7.1-7.1c0-3.4-2.6-5.7-5.8-5.7H296.3z M290.3,146.8c-1.5,1.5-2.2,3.4-2.2,4.9c0,2.5,1,3.5,1.8,3.5
		c0.8,0,1.5-0.5,2.1-1.7c1.2-2,2.4-5.6,2.7-8.9C292.9,144.9,291.4,145.7,290.3,146.8z"/>
	<path d="M208.3,182.6c0-0.9,0-2.2,0-3.2c-0.6,1-1.3,1.9-2.1,2.9c-0.1,0.2-0.2,0.2-0.3,0.2s-0.1-0.1-0.2-0.2
		c-0.2-0.4-0.4-0.7-0.5-0.9c2.1-2.4,3.5-5,4.5-8c0.2-0.6,0.3-1,0.3-1.5c0.5,0.1,0.9,0.3,1.4,0.5c0.2,0.1,0.2,0.2,0.2,0.3
		s-0.1,0.2-0.2,0.3s-0.2,0.3-0.4,0.8c-0.4,1.2-0.9,2.3-1.4,3.4v11.4c0,2.4,0,3.4,0,3.6c0,0.2,0,0.2-0.2,0.2h-1.1
		c-0.2,0-0.2,0-0.2-0.2c0-0.1,0-1.2,0-3.6V182.6z M225.9,190.8c0,0.2,0,0.2-0.2,0.2c-0.1,0-0.8,0-3,0h-8.4v1.1c0,0.2,0,0.2-0.2,0.2
		h-1c-0.2,0-0.2,0-0.2-0.2c0-0.1,0-0.8,0-2.5v-5.3c0-0.6,0-1.2,0-1.8c-0.5,0.6-1,1.3-1.7,2c-0.2,0.1-0.2,0.2-0.3,0.2
		c-0.1,0-0.1-0.1-0.2-0.2c-0.2-0.3-0.4-0.5-0.6-0.6c1.6-1.4,2.8-3.2,3.5-4.5c0.2-0.4,0.5-1.1,0.6-1.6c0.5,0.1,0.9,0.3,1.2,0.4
		c0.2,0.1,0.2,0.2,0.2,0.2c0,0.1-0.1,0.2-0.2,0.3c-0.2,0.2-0.4,0.5-0.7,1.1l-0.3,0.6h4.1c0.3-0.5,0.5-1,0.7-1.4
		c0.2-0.4,0.3-0.7,0.3-1.2c0.5,0.1,1,0.2,1.2,0.3c0.2,0.1,0.2,0.2,0.2,0.2c0,0.1,0,0.2-0.2,0.3c-0.1,0.1-0.3,0.2-0.4,0.5
		c-0.2,0.5-0.4,0.9-0.7,1.3h2.4c2.1,0,2.8,0,2.9,0c0.2,0,0.2,0,0.2,0.2v0.8c0,0.2,0,0.2-0.2,0.2c-0.1,0-0.8,0-2.9,0h-2.5v2.1h1.8
		c2,0,2.7,0,2.8,0c0.2,0,0.2,0,0.2,0.2v0.8c0,0.2,0,0.2-0.2,0.2c-0.1,0-0.8,0-2.8,0h-1.8v2.1h1.8c2,0,2.7,0,2.9,0
		c0.2,0,0.2,0,0.2,0.2v0.8c0,0.2,0,0.2-0.2,0.2c-0.1,0-0.8,0-2.9,0h-1.8v2.2h2.9c2.2,0,2.9,0,3,0c0.2,0,0.2,0,0.2,0.2V190.8z
		 M223.7,174.7c0-0.6,0-1.1-0.1-1.7c0.5,0,1,0.1,1.4,0.1c0.2,0,0.2,0.1,0.2,0.2c0,0.1,0,0.2-0.1,0.3c-0.1,0.2-0.1,0.5-0.1,1v0.8
		c0,1,0,1.4,0,1.5c0,0.2,0,0.2-0.2,0.2c-0.1,0-0.9,0-3.1,0h-5.9c-2.2,0-3,0-3.1,0c-0.2,0-0.2,0-0.2-0.2c0-0.1,0-0.5,0-1.5v-0.8
		c0-0.5,0-0.9-0.1-1.5c0.5,0,1,0.1,1.4,0.1c0.2,0,0.2,0.1,0.2,0.2c0,0.2-0.1,0.3-0.1,0.4c-0.1,0.2-0.1,0.5-0.1,1v1.2h4.2v-1.6
		c0-1.2,0-1.7-0.1-2.3c0.5,0,1.1,0.1,1.4,0.1c0.2,0,0.2,0.1,0.2,0.2c0,0.2-0.1,0.2-0.1,0.4c-0.1,0.2-0.1,0.5-0.1,1.6v1.6h4.4V174.7z
		 M218.6,181.4h-4.3v2.1h4.3V181.4z M218.6,184.5h-4.3v2.1h4.3V184.5z M218.6,187.6h-4.3v2.2h4.3V187.6z"/>
	<path d="M248.8,185.4c0,0.2,0,0.2-0.2,0.2c-0.1,0-0.7,0-2.2,0v1.5c0,1.4,0,1.9,0,2c0,0.2,0,0.2-0.2,0.2h-1c-0.2,0-0.2,0-0.2-0.2
		v-0.7h-5.7c0,0.6,0,1.2,0,1.7c0,1-0.2,1.4-0.6,1.7c-0.5,0.3-1.3,0.4-3.1,0.4c-0.4,0-0.4,0-0.6-0.4c-0.1-0.4-0.3-0.7-0.5-1
		c0.8,0.1,1.2,0.1,2,0.1c1.2,0,1.5-0.2,1.5-1.1v-1.3h-3.9c-2.3,0-3.1,0-3.2,0c-0.2,0-0.2,0-0.2-0.2v-0.8c0-0.2,0-0.2,0.2-0.2
		c0.1,0,0.9,0,3.2,0h3.9v-1.7h-6.2c-2.1,0-2.8,0-2.9,0c-0.2,0-0.2,0-0.2-0.2v-0.8c0-0.2,0-0.2,0.2-0.2c0.1,0,0.8,0,2.9,0h6.2v-1.6
		h-3.9c-2.3,0-3.1,0-3.2,0c-0.2,0-0.2,0-0.2-0.2V182c0-0.2,0-0.2,0.2-0.2c0.1,0,0.9,0,3.2,0h3.9v-1.5h-3c-2.3,0-3.1,0-3.2,0
		c-0.2,0-0.2,0-0.2-0.2c0-0.1,0-0.4,0-1.2v-1c0-0.9,0-1.1,0-1.2c0-0.2,0-0.2,0.2-0.2c0.1,0,0.9,0,3.2,0h3v-1.4H232c-2.1,0-2.9,0-3,0
		c-0.2,0-0.2,0-0.2-0.2v-0.8c0-0.2,0-0.2,0.2-0.2c0.1,0,0.8,0,3,0h6.1c0-1.2,0-1.8-0.2-2.4c0.6,0,1,0,1.5,0.1c0.2,0,0.3,0.1,0.3,0.2
		c0,0.2-0.1,0.3-0.1,0.4c-0.1,0.2-0.1,0.6-0.1,1.6v0h6.1c2.1,0,2.8,0,3,0c0.2,0,0.2,0,0.2,0.2v0.8c0,0.2,0,0.2-0.2,0.2
		c-0.1,0-0.8,0-3,0h-6.1v1.4h3.1c2.3,0,3.1,0,3.2,0c0.2,0,0.2,0,0.2,0.2c0,0.1,0,0.4,0,1.2v1c0,0.9,0,1.1,0,1.2c0,0.2,0,0.2-0.2,0.2
		c-0.1,0-0.9,0-3.2,0h-3.1v1.5h3.7c2.3,0,3.1,0,3.2,0c0.2,0,0.2,0,0.2,0.2c0,0.1,0,0.6,0,2v0.5c1.5,0,2.1,0,2.2,0
		c0.1,0,0.2,0,0.2,0.2V185.4z M238,177.6H233v1.7h5.1V177.6z M244.6,177.6h-5.2v1.7h5.2V177.6z M245.1,182.9h-5.7v1.6h5.7V182.9z
		 M245.1,185.6h-5.7v1.7h5.7V185.6z"/>
</g>
<g>
	<g>
		<path d="M160,288.7h3.9c1.5,0,2.7,0,4.2-0.1c0.2,0,0.3,0,0.3,0.3v1c0,0.2-0.1,0.3-0.3,0.3c-1.3,0-2.7-0.1-4.1-0.1h-9.6
			c-1.1,0-2.7,0.1-3.7,0.1c-0.2,0-0.3,0-0.4-0.3c0-0.3-0.1-0.9-0.1-1.3c1.5,0.1,2.7,0.1,4.1,0.1h4v-8.5h-2.2c-1.4,0-2.4,0-3.4,0.1
			c-0.2,0-0.2-0.1-0.3-0.3c0-0.3-0.1-0.9-0.1-1.3c1.2,0.1,2.2,0.1,3.7,0.1h5.9c1.4,0,2.6,0,4-0.1c0.2,0,0.2,0,0.2,0.2v1.1
			c0,0.2,0,0.3-0.2,0.3c-1.5-0.1-2.6-0.1-3.9-0.1h-2V288.7z"/>
		<path d="M175.4,277.6c0.2-0.2,0.3-0.1,0.4,0c1.3,0.7,2.8,1.8,4.1,3c0.2,0.2,0.2,0.2,0.1,0.4c-0.2,0.3-0.6,0.8-0.8,1
			c-0.1,0.2-0.2,0.2-0.4,0c-1.3-1.3-2.8-2.5-4.3-3.4C174.8,278.2,175.1,277.8,175.4,277.6z M177.4,289.6c2.4-1.3,4.4-2.5,6.6-4.2
			c2.3-1.9,4.2-3.6,6.1-6.1c0.1,0.6,0.2,1.1,0.4,1.5c0.1,0.3,0.1,0.5-0.2,0.8c-1.5,1.8-3.5,3.6-5.5,5.2c-1.9,1.5-4.2,3-6.8,4.4
			c-0.6,0.4-1,0.7-1.2,0.9c-0.2,0.2-0.4,0.2-0.6,0c-0.3-0.4-0.7-0.9-1.1-1.5C175.9,290.3,176.6,290,177.4,289.6z"/>
		<path d="M196.9,281.7c0.1-0.2,0.2-0.2,0.4-0.2c1.5,0.5,2.8,1.2,4,2.1c0.2,0.2,0.2,0.3,0.1,0.5c-0.2,0.3-0.4,0.7-0.6,1
			c-0.1,0.2-0.2,0.2-0.4,0c-1.2-1-2.7-1.7-4.2-2.3C196.5,282.4,196.7,282,196.9,281.7z M200.4,290.4c2.1-1.1,4.1-2.3,6.2-3.9
			c2-1.5,4.4-3.7,6.5-6.3c0.1,0.6,0.2,1,0.4,1.5c0.1,0.2,0.1,0.4-0.1,0.6c-1.9,2.2-3.9,3.9-6,5.6c-2,1.6-4.2,2.9-6.6,4.2
			c-0.5,0.3-0.9,0.5-1.1,0.8c-0.2,0.2-0.4,0.2-0.6-0.1c-0.3-0.3-0.7-1-1.1-1.5C198.8,291.1,199.5,290.9,200.4,290.4z M199.6,276.6
			c0.1-0.2,0.2-0.2,0.4-0.1c1.4,0.6,2.7,1.4,3.9,2.4c0.2,0.2,0.2,0.2,0.1,0.5c-0.2,0.3-0.4,0.7-0.7,1c-0.1,0.2-0.2,0.1-0.4,0
			c-1.1-1-2.6-1.9-4.1-2.6C199.1,277.3,199.3,276.9,199.6,276.6z M209.4,275.6c0.1-0.1,0.2-0.1,0.2,0c0.9,0.6,1.9,1.7,2.6,2.7
			c0.1,0.1,0,0.2,0,0.2l-0.7,0.5c-0.1,0.1-0.2,0.1-0.3,0c-0.7-1.1-1.6-2.2-2.6-2.9L209.4,275.6z M211.3,274.1c0.1-0.1,0.2-0.1,0.2,0
			c0.9,0.7,1.9,1.7,2.6,2.7c0.1,0.1,0,0.2-0.1,0.3l-0.6,0.5c-0.1,0.1-0.2,0.1-0.3,0c-0.6-0.9-1.5-2-2.6-2.8L211.3,274.1z"/>
		<path d="M231,283h-5.1c-1,0-2.5,0.1-3.4,0.1c-0.2,0-0.3,0-0.3-0.3c0-0.3-0.1-0.8-0.1-1.2c1.2,0.1,2.5,0.1,3.8,0.1h3.7
			c0.9,0,1.8,0,2.7,0c0.2,0,0.3,0.1,0.3,0.3c0,1,0,1.9,0,2.8v4.8c0,0.9,0,2.1,0.1,3.2c0,0.2-0.1,0.3-0.3,0.3c-0.2,0-0.6,0-0.9,0
			c-0.2,0-0.3,0-0.3-0.2v-0.8h-5.3c-1,0-2.1,0.1-3.3,0.1c-0.2,0-0.3,0-0.3-0.3c0-0.3-0.1-0.8-0.1-1.2c1.2,0.1,2.6,0.1,3.7,0.1h5.3
			v-3.4h-4.7c-0.9,0-2.2,0-3.2,0.1c-0.2,0-0.3,0-0.4-0.3c0-0.3-0.1-0.7-0.1-1.2c1.3,0.1,2.6,0.1,3.7,0.1h4.7V283z"/>
		<path d="M252,289c0,1.4,0,2.7,0.1,4.1c0,0.2,0,0.3-0.2,0.3c-0.4,0-0.9,0-1.3,0c-0.2,0-0.2-0.1-0.2-0.3c0-1.4,0.1-2.7,0.1-4v-6.7
			c-2.4,2.1-4.6,3.7-7.1,5.1c-0.2,0.1-0.4,0.1-0.5-0.1c-0.3-0.3-0.7-0.5-1.1-0.7c2.8-1.5,5.2-3.2,7.1-4.8c1.7-1.5,3.3-3.1,4.4-4.4
			c1-1.2,1.4-1.8,1.6-2.6c0.6,0.3,1.2,0.7,1.6,1c0.2,0.2,0.2,0.5-0.1,0.6c-0.3,0.1-0.7,0.5-1.3,1.2c-1,1.2-1.8,2.1-2.8,3.1V289z"/>
		<path d="M268.7,279.7c1.1,2.2,2.9,4,5.1,5.4c-0.2,0.2-0.5,0.5-0.6,0.9c-0.1,0.2-0.2,0.3-0.2,0.3s-0.2-0.1-0.3-0.2
			c-1.9-1.5-3.4-3.1-4.5-5.2c-0.8,1.7-1.9,3.1-3.2,4.4c0.2,0,0.8,0,2.1,0h2.3c1.6,0,2.1,0,2.2,0c0.2,0,0.2,0,0.2,0.2s0,0.7,0,2v1.7
			c0,2.9,0,3.3,0,3.4c0,0.2,0,0.2-0.2,0.2h-1c-0.2,0-0.2,0-0.2-0.2v-0.5h-4.3v1.3c0,0.2,0,0.2-0.2,0.2h-1c-0.1,0-0.2,0-0.2-0.2
			c0-0.1,0-0.6,0-3.8V288c0-1.5,0-2.1,0-2.3c-0.4,0.4-0.9,0.8-1.4,1.2c-0.1,0.1-0.2,0.2-0.3,0.2c-0.1,0-0.2-0.1-0.3-0.3
			c-0.2-0.3-0.3-0.6-0.6-0.8c2.2-1.5,3.9-3.6,4.8-5.6c0.3-0.6,0.4-1,0.4-1.4c0.5,0.1,1,0.2,1.3,0.2c0.2,0,0.3,0.1,0.3,0.2
			c0,0.1,0,0.2-0.1,0.2L268.7,279.7z M267.1,275.9c-0.1,0.1-0.3,0.4-0.5,0.7c-0.7,1.2-1.8,2.5-3,3.7c-0.2,0.1-0.2,0.2-0.3,0.2
			c-0.1,0-0.2-0.1-0.3-0.3c-0.2-0.4-0.4-0.5-0.6-0.7c1.4-1.1,2.4-2.3,3-3.3c0.3-0.5,0.5-1,0.6-1.4c0.5,0.2,0.9,0.4,1.2,0.5
			c0.1,0.1,0.2,0.2,0.2,0.3C267.3,275.8,267.2,275.8,267.1,275.9z M270.2,286.6h-4.3v4.3h4.3V286.6z M269.7,275
			c0.2-0.1,0.2-0.1,0.4,0c1,1.6,2,2.7,3.2,3.5c-0.2,0.2-0.5,0.4-0.7,0.7c-0.1,0.2-0.2,0.3-0.3,0.3c-0.1,0-0.2-0.1-0.3-0.2
			c-1.1-1-2.1-2.2-2.9-3.7c-0.1-0.1,0-0.2,0.2-0.3L269.7,275z M282.7,293.9c-0.1,0.2-0.2,0.3-0.3,0.3c-0.1,0-0.2-0.1-0.3-0.2
			c-2.4-2.1-4.1-5.1-4.9-8.3c-0.4,3.1-1.7,6.3-4.9,8.6c-0.2,0.1-0.2,0.2-0.3,0.2c-0.1,0-0.2-0.1-0.3-0.3c-0.2-0.2-0.5-0.5-0.8-0.7
			c4-2.2,5.4-6.8,5.4-10.5c0-1.2,0-1.7-0.1-2.4c0.5,0,0.9,0.1,1.4,0.2c0.2,0,0.3,0.1,0.3,0.2c0,0.2,0,0.3-0.1,0.4
			c-0.1,0.1-0.2,0.3-0.2,1.5c0.8,4.6,2.8,8,5.8,10.2C283.1,293.3,282.9,293.6,282.7,293.9z M281.3,277.9c0.2,0,0.4,0,0.5-0.1
			c0,0,0.2-0.1,0.2-0.1c0.1,0,0.3,0.1,0.6,0.4c0.3,0.3,0.4,0.5,0.4,0.6s-0.1,0.2-0.2,0.3c-0.1,0.1-0.2,0.2-0.3,0.6
			c-0.5,1.4-1.1,2.8-1.8,4.1c-0.1,0.2-0.2,0.3-0.2,0.3c-0.1,0-0.2-0.1-0.3-0.2c-0.2-0.2-0.6-0.3-0.9-0.4c0.9-1.5,1.5-2.7,2-4.3h-5.7
			c-0.5,1.2-1,2.3-1.8,3.4c-0.1,0.2-0.2,0.3-0.3,0.3c-0.1,0-0.2-0.1-0.3-0.2c-0.3-0.2-0.6-0.4-0.8-0.4c1.6-2,2.5-4.4,3-6.7
			c0.1-0.6,0.2-1.1,0.2-1.6c0.5,0.1,1,0.2,1.4,0.3c0.2,0,0.3,0.2,0.3,0.2c0,0.1-0.1,0.2-0.2,0.3c-0.1,0.1-0.2,0.4-0.4,0.9
			c-0.2,0.7-0.4,1.5-0.6,2.2H281.3z"/>
		<path d="M296.2,279.9c0.6,1.9,1.3,3.6,2.3,5.1c1-0.9,2-1.9,2.9-3c0.2-0.3,0.5-0.7,0.6-1c0.5,0.3,0.9,0.5,1.2,0.8
			c0.2,0.1,0.2,0.2,0.2,0.3s-0.1,0.2-0.2,0.3c-0.2,0.1-0.5,0.3-1,0.9c-0.9,1-1.8,1.8-2.9,2.7c1.6,2.1,3.6,3.9,6.3,5.4
			c-0.3,0.2-0.6,0.5-0.8,0.9c-0.1,0.2-0.2,0.3-0.3,0.3c-0.1,0-0.2-0.1-0.3-0.2c-4.1-2.5-6.7-5.9-8.1-10.6c0.1,3.7,0.2,7.2,0.2,10.4
			c0,0.9-0.2,1.4-0.8,1.7c-0.5,0.2-1,0.3-2.7,0.4c-0.4,0-0.4,0-0.5-0.5c-0.1-0.4-0.3-0.8-0.5-1c0.5,0,1.1,0.1,1.6,0.1
			c1.2,0,1.5-0.2,1.5-1.1v-11.9H289c-2.2,0-2.9,0-3,0c-0.2,0-0.2,0-0.2-0.2v-1c0-0.2,0-0.2,0.2-0.2c0.1,0,0.8,0,3,0h5.7v-1.7
			c0-1.2,0-2.1-0.2-2.7c0.5,0,1.1,0.1,1.5,0.1c0.2,0,0.2,0.1,0.2,0.2c0,0.2,0,0.3-0.1,0.5c-0.1,0.3-0.1,0.9-0.1,1.9v1.7h5.8
			c2.2,0,2.9,0,3,0c0.2,0,0.2,0,0.2,0.2v1c0,0.2,0,0.2-0.2,0.2c-0.1,0-0.8,0-3,0H296.2z M293.2,288c-1.9,1.4-3.6,2.3-5.2,3.2
			c-0.4,0.2-0.7,0.4-0.8,0.5s-0.2,0.2-0.3,0.2s-0.2-0.1-0.3-0.2c-0.2-0.3-0.4-0.8-0.6-1.2c0.6-0.2,1.2-0.4,1.7-0.7
			c1.8-0.9,3.8-2,5.7-3.4c0,0.3,0,0.6,0.1,0.9C293.5,287.7,293.5,287.7,293.2,288z M288.7,281.4c0.2-0.2,0.2-0.2,0.3-0.1
			c1,0.8,2.1,2,2.9,3c0.1,0.1,0.1,0.2-0.1,0.3l-0.6,0.6c-0.2,0.2-0.3,0.3-0.4,0.1c-0.8-1.3-1.7-2.3-2.8-3.1
			c-0.2-0.1-0.1-0.2,0.1-0.4L288.7,281.4z M299.4,274.7c0.2-0.1,0.2-0.1,0.3,0c0.9,0.5,2,1.4,2.8,2.2c0.1,0.1,0.1,0.2-0.2,0.4
			l-0.4,0.4c-0.2,0.2-0.3,0.3-0.5,0.1c-0.8-0.9-1.8-1.7-2.7-2.3c-0.2-0.1-0.2-0.2,0.1-0.4L299.4,274.7z"/>
	</g>
</g>
<g>
	<path d="M431.3,217.7v20.1h6.7v0l-13,14.9l-13-14.9v0h6.7v-20.1H431.3z"/>
</g>
<g>
	<path d="M353.6,165.9c0.2-0.1,0.2-0.1,0.3,0.1c0.7,1.3,1.2,2.5,1.7,3.9c0.1,0.2,0,0.2-0.2,0.3l-0.5,0.2c-0.3,0.1-0.3,0.1-0.4-0.1
		c-0.1-0.4-0.2-0.9-0.4-1.3c-0.7,0.1-1.4,0.2-2.1,0.2v6.1c0,2.5,0,3.2,0,3.3c0,0.2,0,0.2-0.2,0.2h-1c-0.2,0-0.2,0-0.2-0.2
		c0-0.1,0-0.8,0-3.3v-6c-0.8,0.1-1.6,0.1-2.4,0.2c-0.5,0-0.7,0.1-0.9,0.2c-0.1,0-0.2,0.1-0.2,0.1c-0.1,0-0.2-0.1-0.2-0.3
		c-0.1-0.3-0.1-0.7-0.2-1.2c0.5,0,0.9,0.1,1.5,0h0.2c0.6-0.8,1.1-1.5,1.7-2.3c-1-1.3-2.1-2.5-3.3-3.6c-0.1-0.1-0.2-0.2,0-0.4
		l0.4-0.5c0.2-0.2,0.2-0.2,0.3-0.1c0.3,0.3,0.6,0.6,0.9,0.9c0.6-0.9,1.1-1.7,1.5-2.6c0.4-0.7,0.5-1.1,0.6-1.5
		c0.4,0.2,0.9,0.3,1.2,0.5c0.2,0.1,0.2,0.2,0.2,0.3c0,0.1-0.1,0.2-0.2,0.3c-0.2,0.1-0.2,0.2-0.4,0.5c-0.8,1.3-1.4,2.3-2.1,3.4
		c0.5,0.5,1,1.1,1.5,1.7c0.6-1,1.2-1.9,1.7-2.9c0.3-0.6,0.5-1,0.7-1.5c0.5,0.2,0.8,0.4,1.2,0.6c0.2,0.1,0.2,0.2,0.2,0.3
		c0,0.1-0.1,0.2-0.2,0.3c-0.2,0.2-0.4,0.4-0.8,1c-1.3,2-2.5,3.9-3.8,5.6c1.2,0,2.5-0.1,3.8-0.2c-0.2-0.6-0.5-1.1-0.8-1.6
		c-0.1-0.1,0-0.2,0.2-0.3L353.6,165.9z M349.3,171.9c-0.1,0.1-0.2,0.4-0.2,0.9c-0.2,1.2-0.5,2.6-1,4.1c-0.1,0.2-0.1,0.3-0.2,0.3
		c-0.1,0-0.2-0.1-0.3-0.2s-0.6-0.3-0.8-0.3c0.7-1.5,1-3,1.1-4.2c0.1-0.6,0.1-1,0.1-1.4c0.5,0.1,0.9,0.2,1.2,0.2
		c0.2,0.1,0.3,0.1,0.3,0.2C349.4,171.7,349.4,171.8,349.3,171.9z M353.8,171.1c0.2-0.1,0.2-0.1,0.3,0.1c0.5,1.3,0.9,2.6,1.1,4
		c0,0.2,0,0.2-0.2,0.3l-0.5,0.2c-0.3,0.1-0.4,0.1-0.4-0.1c-0.2-1.5-0.5-2.8-1-4.1c0-0.2,0-0.2,0.2-0.3L353.8,171.1z M367,163.1
		c0,0.1,0,0.2-0.2,0.2c-0.1,0-0.8,0-3,0h-2.3v3.5h1.6c2,0,2.7,0,2.8,0c0.2,0,0.2,0,0.2,0.2v0.9c0,0.2,0,0.2-0.2,0.2
		c-0.1,0-0.8,0-2.8,0h-4.2c-2,0-2.7,0-2.8,0c-0.2,0-0.2,0-0.2-0.2v-0.9c0-0.2,0-0.2,0.2-0.2c0.1,0,0.8,0,2.8,0h1.3v-3.5h-1.9
		c-2.2,0-2.9,0-3,0c-0.2,0-0.2,0-0.2-0.2v-0.9c0-0.2,0-0.2,0.2-0.2c0.1,0,0.8,0,3,0h1.9v-0.8c0-1.4,0-2-0.1-2.8c0.6,0,1,0.1,1.5,0.1
		c0.2,0,0.3,0.1,0.3,0.2c0,0.1,0,0.2-0.1,0.4c-0.1,0.2-0.1,0.8-0.1,2v0.9h2.3c2.2,0,2.9,0,3,0c0.2,0,0.2,0,0.2,0.2V163.1z
		 M365.6,174.6c0,3.2,0,3.7,0,3.8c0,0.2,0,0.2-0.2,0.2h-1c-0.1,0-0.2,0-0.2-0.2v-1.2h-6.6v1.3c0,0.2,0,0.2-0.2,0.2h-1
		c-0.2,0-0.2,0-0.2-0.2c0-0.1,0-0.6,0-3.8v-1.7c0-1.7,0-2.3,0-2.4c0-0.2,0-0.2,0.2-0.2c0.1,0,0.8,0,2.7,0h3.6c1.9,0,2.6,0,2.7,0
		c0.2,0,0.2,0,0.2,0.2c0,0.1,0,0.7,0,2.2V174.6z M364.3,171.6h-6.6v4.4h6.6V171.6z"/>
	<path d="M374.5,163.2c1.7,0,2.2,0,2.3,0c0.2,0,0.2,0.1,0.2,0.2c-0.1,0.6-0.2,1.2-0.2,1.5c-0.3,2.9-0.8,5.1-1.7,7.1
		c0.8,0.6,1.5,1.2,2.4,2c0.1,0.1,0.1,0.2,0,0.4l-0.4,0.6c-0.2,0.3-0.3,0.3-0.4,0.1c-0.7-0.8-1.4-1.4-2.1-2c-1,1.7-2.2,3.2-4,4.6
		c-0.2,0.1-0.2,0.2-0.3,0.2c-0.1,0-0.1-0.1-0.3-0.3c-0.2-0.2-0.4-0.5-0.7-0.6c1.8-1.3,3.2-2.7,4.2-4.6c-0.7-0.5-1.4-0.9-2.1-1.3
		l-0.3,1c-0.1,0.2-0.1,0.2-0.4,0.2L370,172c-0.2,0-0.3-0.1-0.2-0.3c0.6-1.6,1.4-4.1,2.1-7.3c-1.7,0-2.2,0-2.3,0
		c-0.2,0-0.2,0-0.2-0.2v-0.9c0-0.1,0-0.2,0.2-0.2c0.1,0,0.6,0,2.3,0h0.2c0.2-1,0.3-2,0.5-3.1c0-0.4,0.1-1.1,0.1-1.8
		c0.5,0,1,0.1,1.4,0.2c0.2,0,0.3,0.1,0.3,0.2c0,0.1-0.1,0.2-0.2,0.4c-0.1,0.2-0.2,0.4-0.2,0.9c-0.2,1.1-0.4,2.2-0.5,3.1H374.5z
		 M373.2,164.4c-0.5,2.2-0.9,3.9-1.4,5.4c0.8,0.5,1.5,0.9,2.3,1.4c0.8-1.9,1.3-4.1,1.5-6.8H373.2z M385,164.5c0.2,0.5,0.4,1,0.7,1.5
		c0.7,1.4,1.7,2.1,2.2,2.1c0.6,0,0.9-1,1.1-2.4c0.1,0.2,0.4,0.4,0.6,0.5c0.4,0.3,0.4,0.3,0.3,0.7c-0.4,1.5-0.9,2.4-1.9,2.4
		c-1.2,0-2.4-1-3.3-2.7c-0.4-0.7-0.7-1.4-0.9-2.2l-4,0.2v2.7c1.2-0.3,2.4-0.7,3.7-1.1c-0.1,0.2-0.1,0.5-0.1,0.8
		c0,0.4-0.1,0.5-0.4,0.6c-1,0.4-3,1-4.6,1.4c-0.4,0.1-0.5,0.2-0.6,0.2c-0.1,0.1-0.2,0.1-0.3,0.1c-0.1,0-0.1-0.1-0.2-0.2
		c-0.1-0.3-0.2-0.8-0.3-1.2c0.5,0,1-0.1,1.6-0.2v-5.6c0-1,0-1.6-0.1-2.1c0.5,0.1,1,0.2,1.5,0.4c2-0.2,4.2-0.8,5.8-1.4
		c0.5-0.2,0.9-0.4,1.2-0.6c0.4,0.3,0.7,0.6,1,0.9c0.1,0.1,0.2,0.2,0.2,0.3c0,0.1-0.1,0.2-0.3,0.2c-0.2,0-0.5,0.1-0.9,0.2
		c-0.7,0.2-1.6,0.4-2.5,0.6c0.1,1,0.2,1.9,0.4,2.7l1.5-0.1c2.2-0.1,2.9-0.2,3.1-0.2c0.2,0,0.2,0,0.2,0.2l0,0.8c0,0.2,0,0.2-0.2,0.2
		c-0.2,0-1,0-3.1,0.1L385,164.5z M387.9,174.6c0,3.2,0,3.7,0,3.9c0,0.1,0,0.2-0.2,0.2h-1c-0.2,0-0.2,0-0.2-0.2v-0.8h-6.5v0.9
		c0,0.2,0,0.2-0.2,0.2h-1c-0.2,0-0.2,0-0.2-0.2c0-0.1,0-0.6,0-3.9v-1.8c0-1.8,0-2.4,0-2.5c0-0.2,0-0.2,0.2-0.2c0.1,0,0.8,0,2.7,0
		h3.5c1.9,0,2.5,0,2.6,0c0.2,0,0.2,0,0.2,0.2c0,0.1,0,0.7,0,2.2V174.6z M383.5,163.5c-0.2-0.8-0.3-1.6-0.4-2.4
		c-1.1,0.2-2.2,0.5-3.4,0.6v2L383.5,163.5z M386.6,171.4h-6.5v2h6.5V171.4z M386.6,174.4h-6.5v2.2h6.5V174.4z"/>
	<path d="M404.2,168.6c0,1-0.8,1.9-1.9,1.9c-1,0-1.9-0.9-1.9-1.9c0-1,0.9-1.9,1.9-1.9C403.3,166.7,404.2,167.5,404.2,168.6z"/>
	<path d="M421.8,168c0.2-0.1,0.2-0.1,0.3,0c0.8,1.7,1.7,3,2.7,4.2c0.7-0.8,1.3-1.6,1.8-2.5c0.4-0.7,0.7-1.3,0.9-2
		c0.5,0.2,1,0.4,1.3,0.6c0.2,0.1,0.3,0.2,0.3,0.3c0,0.1-0.1,0.2-0.3,0.4c-0.2,0.2-0.5,0.6-0.8,1.1c-0.7,1.2-1.4,2.2-2.2,3.1
		c2.1,1.9,4.9,3.1,9.1,4c-0.3,0.3-0.5,0.7-0.7,1c-0.1,0.3-0.2,0.4-0.3,0.4c-0.1,0-0.2,0-0.3-0.1c-4-1.1-6.7-2.5-8.7-4.4
		c-1.9,1.8-4.4,3.2-8.4,4.4c-0.2,0-0.3,0.1-0.4,0.1c-0.2,0-0.2-0.1-0.3-0.4c-0.2-0.4-0.4-0.6-0.6-0.8c3.8-1,6.7-2.4,8.7-4.2
		c-1.1-1.3-2.1-2.8-3-4.6c-0.1-0.2-0.1-0.2,0.2-0.3L421.8,168z M434.6,162.6c0,0.2,0,0.2-0.2,0.2c-0.1,0-0.8,0-3,0h-13
		c-2.2,0-2.9,0-3,0c-0.2,0-0.2,0-0.2-0.2v-1c0-0.2,0-0.2,0.2-0.2c0.1,0,0.8,0,3,0h5.6v-0.6c0-1.2,0-1.7-0.2-2.3c0.6,0,1,0,1.5,0.1
		c0.2,0,0.3,0.1,0.3,0.2c0,0.1-0.1,0.2-0.1,0.4c-0.1,0.2-0.1,0.6-0.1,1.6v0.6h5.9c2.2,0,2.9,0,3,0c0.2,0,0.2,0,0.2,0.2V162.6z
		 M421.9,165c-0.2,0.1-0.4,0.4-0.7,0.7c-1.2,1.5-2.3,2.6-4.4,3.9c-0.2,0.1-0.2,0.2-0.3,0.2c-0.1,0-0.2-0.1-0.3-0.3
		c-0.2-0.3-0.5-0.5-0.7-0.7c2.2-1.3,3.5-2.5,4.6-3.9c0.2-0.3,0.5-0.8,0.6-1.2c0.4,0.2,0.9,0.4,1.2,0.6c0.2,0.1,0.2,0.2,0.2,0.3
		C422.1,164.8,422,164.9,421.9,165z M428.4,163.9c0.2-0.1,0.3-0.1,0.4,0c1.5,1.8,3.4,3.4,5.7,4.5c-0.2,0.2-0.6,0.5-0.7,0.8
		c-0.1,0.2-0.2,0.3-0.3,0.3s-0.2,0-0.4-0.1c-2.2-1.2-4-2.9-5.4-4.8c-0.1-0.2-0.1-0.2,0.2-0.4L428.4,163.9z"/>
	<path d="M442.8,159.2c0.3,0,0.5,0,0.6-0.1c0.1,0,0.2,0,0.2,0c0.2,0,0.2,0.1,0.6,0.4c0.3,0.3,0.4,0.5,0.4,0.6c0,0.2-0.1,0.2-0.2,0.3
		c-0.2,0.1-0.3,0.4-0.4,0.7c-0.6,1.5-1.1,2.7-2.1,4.5c1.5,1.9,2.2,3.2,2.2,4.6c0,1.9-0.7,2.9-2.9,3.1c-0.5,0-0.5,0-0.5-0.5
		c-0.1-0.4-0.2-0.7-0.4-0.8c1.9,0,2.5-0.3,2.5-1.8c0-1.3-0.6-2.4-2.2-4.4c1.1-2.2,1.7-3.5,2.3-5.4h-3.1v13.2c0,3.2,0,4.9,0,5
		c0,0.2,0,0.2-0.2,0.2h-1c-0.2,0-0.2,0-0.2-0.2c0-0.1,0-1.5,0-4.7v-9.8c0-3.3,0-4.7,0-4.8c0-0.2,0-0.2,0.2-0.2c0.1,0,0.6,0,1.6,0
		H442.8z M447.7,174.3c-0.2,0.1-0.3,0.2-0.5,0.5c-0.8,1.2-1.6,1.9-2.9,2.9c-0.1,0.1-0.2,0.2-0.3,0.2c-0.1,0-0.2-0.1-0.3-0.3
		c-0.2-0.2-0.5-0.4-0.7-0.5c1.6-1,2.4-1.9,3-2.8c0.2-0.3,0.4-0.5,0.5-0.9c0.4,0.1,0.9,0.3,1.2,0.5c0.1,0.1,0.2,0.2,0.2,0.2
		C447.8,174.2,447.8,174.2,447.7,174.3z M455.6,160.4c0.2,0,0.4,0,0.5,0s0.2-0.1,0.2-0.1c0.1,0,0.2,0.1,0.5,0.4
		c0.3,0.3,0.4,0.5,0.4,0.6c0,0.1-0.1,0.2-0.2,0.3c-0.2,0.2-0.3,0.4-0.5,0.7c-0.6,1-1.3,1.9-2.2,2.9c1,1.4,2.3,2.5,4,3.3
		c-0.2,0.2-0.5,0.5-0.6,0.8c-0.1,0.2-0.2,0.3-0.3,0.3c-0.1,0-0.2-0.1-0.3-0.2c-2.8-1.7-4.9-4.4-6-8.1c-0.1,0.3-0.1,0.5-0.2,0.8
		c-1.2,3.3-3,5.6-5.5,7.4c-0.2,0.1-0.2,0.2-0.3,0.2s-0.2-0.1-0.3-0.3c-0.2-0.3-0.3-0.5-0.5-0.6c1-0.7,1.9-1.4,2.7-2.2
		c-0.5-0.5-1.1-0.9-1.7-1.3c-0.2-0.1-0.2-0.1,0-0.3l0.3-0.2c0.2-0.2,0.2-0.2,0.3-0.1c0.6,0.3,1.2,0.7,1.7,1.2
		c0.3-0.4,0.6-0.8,0.8-1.2c-0.6-0.5-1.1-0.8-1.7-1.2c-0.2-0.1-0.1-0.1,0-0.3l0.3-0.3c0.2-0.2,0.2-0.1,0.4-0.1c0.5,0.3,1,0.5,1.5,1
		c0.3-0.7,0.6-1.4,0.9-2.1h-2.6c-0.8,1.3-1.7,2.4-2.7,3.3c-0.2,0.1-0.2,0.2-0.3,0.2s-0.2-0.1-0.3-0.2c-0.2-0.2-0.5-0.3-0.6-0.4
		c1.6-1.2,3.1-3.1,3.7-4.9c0.1-0.4,0.2-0.8,0.2-1.1c0.5,0.1,0.9,0.2,1.2,0.2c0.2,0.1,0.3,0.1,0.3,0.2c0,0.1,0,0.2-0.1,0.3
		c-0.1,0.1-0.2,0.2-0.4,0.5c-0.1,0.3-0.2,0.5-0.4,0.8h1.9c0.7,0,1,0,1.2,0l-0.2-0.7c0-0.2,0-0.2,0.2-0.3l0.5-0.2
		c0.2-0.1,0.2-0.1,0.3,0.1c0.5,1.8,1.1,3.4,1.9,4.8c0.8-0.9,1.4-1.8,1.9-2.7h-1.3c-1,0-1.2,0-1.4,0c-0.2,0-0.2,0-0.2-0.2v-0.8
		c0-0.2,0-0.2,0.2-0.2c0.1,0,0.4,0,1.5,0H455.6z M457.3,172.1c0,0.2,0,0.2-0.2,0.2c-0.1,0-0.9,0-3.1,0h-2.5v1.8c0,0.8,0,1.8,0,2.6
		c0,0.8-0.2,1.1-0.6,1.5c-0.3,0.2-0.8,0.4-2.5,0.4c-0.5,0-0.5,0-0.6-0.5c-0.1-0.3-0.2-0.6-0.4-0.9c0.8,0.1,1.5,0.1,2,0.1
		c0.5,0,0.8-0.3,0.8-0.8v-4.2h-2.1c-2.2,0-2.9,0-3.1,0c-0.2,0-0.2,0-0.2-0.2v-0.9c0-0.2,0-0.2,0.2-0.2c0.1,0,0.9,0,3.1,0h5.9
		c2.2,0,2.9,0,3.1,0c0.2,0,0.2,0,0.2,0.2V172.1z M454.5,168.9c0,0.2,0,0.2-0.2,0.2c-0.1,0-0.5,0-2.1,0H450c-1.5,0-2,0-2.1,0
		c-0.2,0-0.2,0-0.2-0.2V168c0-0.2,0-0.2,0.2-0.2c0.1,0,0.6,0,2.1,0h2.2c1.6,0,2,0,2.1,0c0.2,0,0.2,0,0.2,0.2V168.9z M454.1,173.4
		c0.2-0.2,0.3-0.1,0.4,0c1,1.2,1.9,2.1,3.4,3.2c-0.2,0.1-0.4,0.4-0.6,0.6c-0.1,0.2-0.2,0.3-0.3,0.3c-0.1,0-0.2-0.1-0.3-0.2
		c-1.2-1-2.2-2-3.2-3.3c-0.1-0.1,0-0.1,0.2-0.3L454.1,173.4z"/>
	<path d="M471.1,162.7c0.2,0,0.3,0,0.3,0.1c0,0.3,0.1,0.7,0.1,1c0,0.2,0,0.2-0.2,0.3c-1.2,0.2-2.4,0.5-3.8,0.7
		c-1.3,3.6-2.9,7-4.6,9.6c-0.1,0.2-0.2,0.2-0.4,0.1c-0.3-0.2-0.7-0.5-0.9-0.7c-0.1-0.1-0.1-0.2,0-0.4c1.9-2.8,3.2-5.5,4.3-8.4
		c-1,0.1-1.9,0.2-2.9,0.2c-0.3,0-0.7,0-1.2,0c-0.2,0-0.2,0-0.3-0.3c-0.1-0.3-0.1-0.7-0.1-1.1c0.7,0.1,1.3,0.1,1.8,0.1
		c1,0,2-0.1,3.1-0.2c0.3-0.9,0.5-1.7,0.7-2.7c0.1-0.7,0.2-1.1,0.2-1.8c0.7,0.1,1.3,0.3,1.8,0.5c0.1,0,0.2,0.1,0.2,0.2s0,0.2-0.2,0.3
		c-0.1,0.1-0.2,0.3-0.3,0.7c-0.2,0.8-0.5,1.7-0.7,2.4C469,163.2,470,163,471.1,162.7z M472.5,168.2c0-0.5,0-0.9-0.1-1.5
		c0.6,0.1,1.1,0.1,1.5,0.3c0.2,0,0.2,0.1,0.2,0.3c0,0.1,0,0.2-0.1,0.4c-0.1,0.2-0.1,0.6-0.1,1.1c0,1.4,0.1,2.7,0.3,4.2
		c1.7,0.7,2.9,1.3,4.3,2.3c0.2,0.1,0.2,0.2,0.1,0.4c-0.1,0.3-0.4,0.7-0.5,1c-0.1,0.2-0.2,0.1-0.4,0c-1-0.9-2.2-1.6-3.4-2.2
		c0,2.3-1.1,3.5-4.1,3.5c-1.7,0-3.5-0.9-3.5-2.8c0-1.7,1.6-2.9,3.9-2.9c0.7,0,1.6,0.1,2.3,0.3C472.6,171.3,472.5,169.4,472.5,168.2z
		 M470.6,173.6c-1.8,0-2.6,0.7-2.6,1.5c0,1,0.8,1.5,2.3,1.5c1.9,0,2.5-1,2.5-2.1c0-0.3,0-0.4,0-0.5
		C472.1,173.8,471.3,173.6,470.6,173.6z M474.4,163.5c0.1-0.2,0.2-0.2,0.4-0.1c1.5,0.5,3.2,1.2,4.4,2.1c0.2,0.1,0.2,0.2,0,0.4
		c-0.1,0.3-0.3,0.7-0.5,0.9c-0.1,0.2-0.2,0.1-0.3,0c-1.3-1-3-1.8-4.6-2.3C474.1,164.1,474.3,163.7,474.4,163.5z"/>
	<path d="M490.8,160.1c0.2,0,0.3,0.2,0.3,0.3c0,0.2-0.1,0.4-0.1,0.8c0,0.5,0.1,1,0.1,1.5c0.2,1.6,0.5,3.2,0.9,4.6
		c1.3-0.7,2.7-1.3,4-2c0.7-0.4,1-0.6,1.3-1c0.5,0.4,0.9,0.9,1.2,1.3c0.2,0.3,0.1,0.6-0.3,0.6c-0.6,0.1-1.3,0.4-2,0.7
		c-1.7,0.8-3.6,1.7-5.1,2.6c-2.3,1.3-3.4,2.5-3.4,4.1c0,2,1.9,2.5,5.3,2.5c2.1,0,4.1-0.2,5.8-0.5c0.2,0,0.3,0,0.3,0.2
		c0.1,0.4,0.1,0.8,0.1,1.2c0,0.2-0.1,0.3-0.3,0.3c-1.9,0.2-3.5,0.3-6,0.3c-3.9,0-6.8-0.9-6.8-4c0-2.2,1.5-3.9,4.4-5.6
		c-0.5-1.7-1-4-1.2-5.8c-0.1-1-0.2-1.6-0.5-2.2C489.6,159.9,490.3,160,490.8,160.1z M498.3,160.2c0.1-0.1,0.2,0,0.2,0
		c0.9,0.6,1.9,1.7,2.6,2.7c0.1,0.1,0,0.2,0,0.2l-0.7,0.5c-0.1,0.1-0.2,0.1-0.3,0c-0.7-1.1-1.6-2.2-2.6-2.9L498.3,160.2z
		 M500.2,158.7c0.1-0.1,0.2-0.1,0.2,0c0.9,0.7,1.9,1.7,2.6,2.7c0.1,0.1,0,0.2-0.1,0.3l-0.6,0.5c-0.1,0.1-0.2,0.1-0.3,0
		c-0.6-0.9-1.5-2-2.6-2.8L500.2,158.7z"/>
</g>
<g>
	<path d="M375.3,275c0.2,1.9,0.6,3.8,1.3,5.5c0.6-0.9,1-1.8,1.3-2.6c0.1-0.4,0.2-0.9,0.3-1.3c0.4,0.1,0.8,0.2,1.1,0.4
		c0.2,0.1,0.2,0.1,0.2,0.2c0,0.1-0.1,0.2-0.2,0.3c-0.1,0.1-0.2,0.2-0.3,0.6c-0.5,1.2-1,2.4-1.9,3.6c0.8,1.3,1.7,2.2,2.3,2.2
		c0.8,0,1-0.9,1.4-2.6c0.2,0.2,0.5,0.4,0.7,0.6c0.4,0.2,0.4,0.3,0.3,0.7c-0.5,1.9-1.1,2.6-2.4,2.6c-1,0-2.2-1-3.2-2.5
		c-0.7,0.8-1.5,1.5-2.5,2.2c-0.2,0.1-0.3,0.2-0.4,0.2c-0.1,0-0.2-0.1-0.4-0.2c-0.2-0.2-0.4-0.3-0.7-0.5c1.4-0.8,2.5-1.8,3.3-2.8
		c-1-2-1.5-4.3-1.8-6.6h-8.8v2c0,1-0.2,3.5-0.5,4.5c-0.4,1.4-0.7,2.6-1.7,3.9c-0.1,0.2-0.2,0.3-0.2,0.3c-0.1,0-0.2-0.1-0.3-0.2
		c-0.3-0.2-0.5-0.4-0.8-0.5c1-1.3,1.4-2.2,1.8-3.6c0.3-1.2,0.5-2.7,0.5-5.1c0-1.6,0-2.3,0-2.4c0-0.2,0-0.2,0.2-0.2
		c0.1,0,0.9,0,3.2,0h6.6l-0.1-0.9c0-0.6-0.1-1.2-0.2-1.7c0.5,0,1,0.1,1.4,0.1c0.2,0,0.2,0.1,0.2,0.2c0,0.1,0,0.3-0.1,0.4
		c-0.1,0.2-0.1,0.6,0,1c0,0.3,0,0.6,0,0.9h2.6c2.3,0,3,0,3.2,0c0.2,0,0.2,0,0.2,0.2v0.9c0,0.2,0,0.2-0.2,0.2c-0.1,0-0.9,0-3.2,0
		H375.3z M365.4,286.4c0.2,0.1,0.3,0.2,0.2,0.3c-0.5,1.5-1.4,2.9-2.4,4c-0.1,0.1-0.1,0.1-0.2,0.1c-0.1,0-0.1,0-0.2-0.1l-0.6-0.4
		c-0.3-0.2-0.3-0.2-0.2-0.4c1-1,1.9-2.4,2.3-3.7c0.1-0.2,0.1-0.2,0.4-0.1L365.4,286.4z M373,277.6c0,0.2,0,0.2-0.2,0.2
		c-0.1,0-0.6,0-2.1,0h-2.3c-1.5,0-2,0-2.1,0c-0.1,0-0.2,0-0.2-0.2v-0.8c0-0.2,0-0.2,0.2-0.2c0.1,0,0.6,0,2.1,0h2.3c1.5,0,2,0,2.1,0
		c0.2,0,0.2,0,0.2,0.2V277.6z M372.5,282.1c0,1,0,1.3,0,1.4c0,0.2,0,0.2-0.2,0.2c-0.1,0-0.6,0-1.9,0h-1.9c-1.4,0-1.8,0-1.9,0
		c-0.2,0-0.2,0-0.2-0.2c0-0.1,0-0.4,0-1.4v-1.3c0-1,0-1.3,0-1.4c0-0.2,0-0.2,0.2-0.2c0.1,0,0.5,0,1.9,0h1.9c1.4,0,1.8,0,1.9,0
		c0.2,0,0.2,0,0.2,0.2c0,0.1,0,0.4,0,1.4V282.1z M368.6,289.2c0,0.5,0.1,0.8,0.6,0.9c0.5,0.1,1.4,0.2,2.4,0.2c1.4,0,2.7,0,3.4-0.4
		c0.5-0.3,0.7-1,0.8-2.1c0.2,0.2,0.6,0.3,0.9,0.5c0.4,0.1,0.4,0.2,0.4,0.6c-0.2,1.4-0.7,1.9-1.2,2.2c-0.9,0.4-2.5,0.4-4.2,0.4
		c-1.5,0-2.6,0-3.3-0.2c-0.6-0.2-1-0.5-1-1.5v-2.2c0-0.7,0-1.3-0.1-1.8c0.5,0,1,0.1,1.4,0.1c0.2,0,0.2,0.1,0.2,0.2
		c0,0.1,0,0.2-0.1,0.3c-0.1,0.2-0.1,0.4-0.1,1V289.2z M371.4,280.3h-3.8v2.4h3.8V280.3z M371.1,285c0.2-0.2,0.3-0.2,0.4,0
		c0.8,0.6,1.7,1.5,2.3,2.3c0.1,0.1,0.1,0.2-0.2,0.3l-0.5,0.4c-0.2,0.2-0.3,0.2-0.4,0c-0.6-0.9-1.5-1.7-2.2-2.3
		c-0.1-0.1-0.1-0.2,0.1-0.3L371.1,285z M377,271.4c0.2-0.1,0.2-0.1,0.3,0c0.7,0.4,1.4,1,2.1,1.6c0.1,0.1,0.1,0.2-0.1,0.3l-0.4,0.3
		c-0.2,0.2-0.3,0.2-0.4,0.1c-0.6-0.7-1.3-1.2-2-1.7c-0.2-0.1-0.1-0.2,0.1-0.3L377,271.4z M378.5,286c0.2-0.1,0.3-0.1,0.4,0
		c1.1,1.1,1.8,2.2,2.6,3.5c0.1,0.2,0.1,0.2-0.2,0.4l-0.7,0.3c-0.2,0.1-0.3,0.1-0.4,0c-0.7-1.3-1.5-2.6-2.4-3.6
		c-0.1-0.1-0.1-0.2,0.2-0.3L378.5,286z"/>
	<path d="M385.9,276.5c0.2,0.1,0.3,0.1,0.2,0.2c-0.1,1.7-0.4,3.3-1,4.6c-0.1,0.2-0.1,0.1-0.3,0l-0.5-0.2c-0.3-0.1-0.3-0.1-0.2-0.4
		c0.5-1.3,0.8-2.7,0.9-4.4c0-0.2,0-0.2,0.3-0.1L385.9,276.5z M387.1,274.5c0-1.6,0-2.2-0.2-3.1c0.6,0,1.1,0.1,1.5,0.1
		c0.2,0,0.3,0.1,0.3,0.2s0,0.2-0.1,0.4c-0.1,0.3-0.2,0.8-0.2,2.3v13.2c0,2.7,0,3.9,0,4c0,0.2,0,0.2-0.2,0.2h-1.1
		c-0.2,0-0.2,0-0.2-0.2c0-0.1,0-1.3,0-4V274.5z M389.7,275.9c0.2,0,0.2,0,0.3,0.1c0.4,1,0.7,2.1,0.9,3.1c0,0.2,0,0.2-0.2,0.3
		l-0.5,0.2c-0.3,0.1-0.4,0.1-0.4-0.1c-0.2-1.1-0.4-2.2-0.8-3.1c-0.1-0.2,0-0.2,0.2-0.3L389.7,275.9z M404.4,279.9
		c0,0.2,0,0.2-0.2,0.2c-0.1,0-0.9,0-3.1,0h-6.9c-2.2,0-3,0-3.1,0c-0.2,0-0.2,0-0.2-0.2v-0.8c0-0.2,0-0.2,0.2-0.2c0.1,0,0.9,0,3.1,0
		h2.3v-1.6H395c-2,0-2.6,0-2.7,0c-0.2,0-0.2,0-0.2-0.2v-0.7c0-0.2,0-0.2,0.2-0.2c0.1,0,0.8,0,2.7,0h1.5v-1.5h-1.9
		c-2.1,0-2.8,0-2.9,0c-0.2,0-0.2,0-0.2-0.2v-0.8c0-0.2,0-0.2,0.2-0.2c0.1,0,0.8,0,2.9,0h1.9c0-1.1,0-1.8-0.2-2.5c0.6,0,1,0,1.5,0.1
		c0.2,0,0.3,0.1,0.3,0.2c0,0.1,0,0.2-0.1,0.5c-0.1,0.3-0.1,0.7-0.1,1.7h2.6c2.1,0,2.8,0,2.9,0c0.2,0,0.2,0,0.2,0.2v0.8
		c0,0.2,0,0.2-0.2,0.2c-0.1,0-0.8,0-2.9,0h-2.6v1.5h2c2,0,2.6,0,2.7,0c0.2,0,0.2,0,0.2,0.2v0.7c0,0.2,0,0.2-0.2,0.2
		c-0.1,0-0.7,0-2.7,0h-2v1.6h3.3c2.2,0,3,0,3.1,0c0.1,0,0.2,0,0.2,0.2V279.9z M399.5,281.4c1.9,0,2.5,0,2.7,0c0.2,0,0.2,0,0.2,0.2
		c0,0.1,0,0.9,0,2.7v2.4c0,1.2,0,2.4,0,3c0,0.7-0.1,1.2-0.5,1.5c-0.4,0.3-1,0.4-2.2,0.4c-0.4,0-0.5,0-0.6-0.5
		c-0.1-0.3-0.2-0.6-0.5-0.9c0.5,0,1,0.1,1.5,0.1c0.9,0,1-0.2,1-0.8v-1.6h-7.4v0.9c0,2.1,0,2.8,0,2.9c0,0.1,0,0.2-0.2,0.2h-1
		c-0.2,0-0.2,0-0.2-0.2c0-0.1,0-0.7,0-2.8v-4.7c0-1.7,0-2.4,0-2.5c0-0.2,0-0.2,0.2-0.2c0.1,0,0.8,0,3.1,0H399.5z M401,282.5h-7.4
		v1.6h7.4V282.5z M401,285.2h-7.4v1.6h7.4V285.2z"/>
	<path d="M414.9,284c0,5.3,0,6.1,0,6.3c0,0.2,0,0.2-0.2,0.2h-1c-0.2,0-0.2,0-0.2-0.2V289h-4.4v1.8c0,0.2,0,0.2-0.2,0.2h-1
		c-0.2,0-0.2,0-0.2-0.2c0-0.1,0-1,0-6.5v-3.9c0-3.9,0-4.8,0-4.9c0-0.2,0-0.2,0.2-0.2c0.1,0,0.6,0,2,0c0.4-1,0.7-2,0.8-2.6
		c0.1-0.5,0.2-0.8,0.2-1.3c0.5,0.1,1.1,0.2,1.5,0.3c0.2,0,0.2,0.1,0.2,0.2s0,0.2-0.2,0.3s-0.2,0.3-0.4,0.7c-0.2,0.6-0.5,1.6-0.9,2.4
		h1.2c1.6,0,2.1,0,2.2,0c0.2,0,0.2,0,0.2,0.2c0,0.1,0,1,0,4.4V284z M413.6,276.5h-4.4v4.9h4.4V276.5z M413.6,282.6h-4.4v5.2h4.4
		V282.6z M423.9,275.5c1.8,0,2.4,0,2.5,0c0.2,0,0.2,0,0.2,0.2c0,0.6,0,1.1,0,1.7c0,4.8-0.2,8.2-0.7,11.1c-0.4,2.2-1,3.4-2.8,3.4
		c-0.6,0-1.4,0-2.2-0.1c-0.4,0-0.4,0-0.5-0.5c-0.1-0.4-0.2-0.7-0.4-1c1.3,0.2,2.1,0.3,2.9,0.3c1,0,1.3-1.1,1.6-2.5
		c0.5-2.8,0.7-6.3,0.7-11.2h-6.6c-0.5,1-1.1,2-1.8,3c-0.1,0.2-0.2,0.3-0.3,0.3s-0.2-0.1-0.3-0.2c-0.2-0.2-0.5-0.4-0.7-0.5
		c1.7-2.2,2.6-4.2,3.2-5.9c0.2-0.7,0.4-1.4,0.4-2c0.5,0.1,1.1,0.3,1.4,0.4c0.2,0.1,0.3,0.2,0.3,0.3c0,0.1,0,0.2-0.2,0.4
		c-0.1,0.1-0.3,0.5-0.5,1.1c-0.2,0.6-0.5,1.3-0.8,1.9H423.9z M418.7,280.2c0.2-0.1,0.2-0.1,0.3,0c1.2,1.2,2.2,2.8,3,4.2
		c0.1,0.2,0.1,0.2-0.2,0.4l-0.7,0.5c-0.2,0.1-0.3,0.2-0.3,0c-0.8-1.7-1.7-3-2.9-4.4c-0.1-0.1-0.1-0.2,0.2-0.3L418.7,280.2z"/>
	<path d="M435.7,277c1.1,2.2,2.9,4,5.1,5.4c-0.2,0.2-0.5,0.5-0.6,0.9c-0.1,0.2-0.2,0.3-0.2,0.3s-0.2-0.1-0.3-0.2
		c-1.9-1.5-3.4-3.1-4.5-5.2c-0.8,1.7-2,3.1-3.2,4.4c0.2,0,0.8,0,2.1,0h2.3c1.6,0,2.1,0,2.2,0c0.2,0,0.2,0,0.2,0.2s0,0.7,0,2v1.7
		c0,2.9,0,3.3,0,3.4c0,0.2,0,0.2-0.2,0.2h-1c-0.2,0-0.2,0-0.2-0.2v-0.5h-4.3v1.3c0,0.2,0,0.2-0.2,0.2h-1c-0.1,0-0.2,0-0.2-0.2
		c0-0.1,0-0.6,0-3.8v-1.7c0-1.5,0-2.1,0-2.3c-0.4,0.4-0.9,0.8-1.4,1.2c-0.1,0.1-0.2,0.2-0.3,0.2c-0.1,0-0.2-0.1-0.3-0.3
		c-0.2-0.3-0.3-0.6-0.6-0.8c2.2-1.5,3.9-3.6,4.8-5.6c0.3-0.6,0.4-1,0.4-1.4c0.5,0.1,1,0.2,1.3,0.2c0.2,0,0.3,0.1,0.3,0.2
		c0,0.1,0,0.2-0.1,0.2L435.7,277z M434,273.2c-0.1,0.1-0.3,0.4-0.5,0.7c-0.7,1.2-1.8,2.5-3,3.7c-0.2,0.1-0.2,0.2-0.3,0.2
		c-0.1,0-0.2-0.1-0.3-0.3c-0.2-0.4-0.4-0.5-0.6-0.7c1.4-1.1,2.4-2.3,3-3.3c0.3-0.5,0.5-1,0.6-1.4c0.5,0.2,0.9,0.4,1.2,0.5
		c0.1,0.1,0.2,0.2,0.2,0.3C434.2,273.1,434.2,273.1,434,273.2z M437.2,283.9h-4.3v4.3h4.3V283.9z M436.7,272.3
		c0.2-0.1,0.2-0.1,0.4,0c1,1.6,2,2.7,3.2,3.5c-0.2,0.2-0.5,0.4-0.7,0.7c-0.1,0.2-0.2,0.3-0.3,0.3c-0.1,0-0.2-0.1-0.3-0.2
		c-1.1-1-2.1-2.2-2.9-3.7c-0.1-0.1,0-0.2,0.2-0.3L436.7,272.3z M449.7,291.2c-0.1,0.2-0.2,0.3-0.3,0.3c-0.1,0-0.2-0.1-0.3-0.2
		c-2.4-2.1-4.1-5.1-4.9-8.3c-0.4,3.1-1.7,6.3-4.9,8.6c-0.2,0.1-0.2,0.2-0.3,0.2c-0.1,0-0.2-0.1-0.3-0.3c-0.2-0.2-0.5-0.5-0.8-0.7
		c4-2.2,5.4-6.8,5.4-10.5c0-1.2,0-1.7-0.1-2.4c0.5,0,0.9,0.1,1.4,0.2c0.2,0,0.3,0.1,0.3,0.2c0,0.2,0,0.3-0.1,0.4
		c-0.1,0.1-0.2,0.3-0.2,1.5c0.8,4.6,2.8,8,5.8,10.2C450.1,290.6,449.9,290.9,449.7,291.2z M448.3,275.2c0.2,0,0.4,0,0.5-0.1
		c0,0,0.2-0.1,0.2-0.1c0.1,0,0.3,0.1,0.6,0.4c0.3,0.3,0.4,0.5,0.4,0.6s-0.1,0.2-0.2,0.3c-0.1,0.1-0.2,0.2-0.3,0.6
		c-0.5,1.4-1.1,2.8-1.8,4.1c-0.1,0.2-0.2,0.3-0.2,0.3c-0.1,0-0.2-0.1-0.3-0.2c-0.2-0.2-0.6-0.3-0.9-0.4c0.9-1.5,1.5-2.7,2-4.3h-5.7
		c-0.5,1.2-1,2.3-1.8,3.4c-0.1,0.2-0.2,0.3-0.3,0.3c-0.1,0-0.2-0.1-0.3-0.2c-0.3-0.2-0.6-0.4-0.8-0.4c1.6-2,2.5-4.4,3-6.7
		c0.1-0.6,0.2-1.1,0.2-1.6c0.5,0.1,1,0.2,1.4,0.3c0.2,0,0.3,0.2,0.3,0.2c0,0.1-0.1,0.2-0.2,0.3c-0.1,0.1-0.2,0.4-0.4,0.9
		c-0.2,0.7-0.4,1.5-0.6,2.2H448.3z"/>
	<path d="M463.2,277.2c0.6,1.9,1.3,3.6,2.3,5.1c1-0.9,2-1.9,2.9-3c0.2-0.3,0.5-0.7,0.6-1c0.5,0.3,0.9,0.5,1.2,0.8
		c0.2,0.1,0.2,0.2,0.2,0.3s-0.1,0.2-0.2,0.3c-0.2,0.1-0.5,0.3-1,0.9c-0.9,1-1.8,1.8-2.9,2.7c1.6,2.1,3.6,3.9,6.3,5.4
		c-0.3,0.2-0.6,0.5-0.8,0.9c-0.1,0.2-0.2,0.3-0.3,0.3c-0.1,0-0.2-0.1-0.3-0.2c-4.1-2.5-6.7-5.9-8.1-10.6c0.1,3.7,0.2,7.2,0.2,10.4
		c0,0.9-0.2,1.4-0.8,1.7c-0.5,0.2-1,0.3-2.7,0.4c-0.4,0-0.4,0-0.5-0.5c-0.1-0.4-0.3-0.8-0.5-1c0.5,0,1.1,0.1,1.6,0.1
		c1.2,0,1.5-0.2,1.5-1.1v-11.9h-5.7c-2.2,0-2.9,0-3,0c-0.2,0-0.2,0-0.2-0.2v-1c0-0.2,0-0.2,0.2-0.2c0.1,0,0.8,0,3,0h5.7v-1.7
		c0-1.2,0-2.1-0.2-2.7c0.5,0,1.1,0.1,1.5,0.1c0.2,0,0.2,0.1,0.2,0.2c0,0.2,0,0.3-0.1,0.5c-0.1,0.3-0.1,0.9-0.1,1.9v1.7h5.8
		c2.2,0,2.9,0,3,0c0.2,0,0.2,0,0.2,0.2v1c0,0.2,0,0.2-0.2,0.2c-0.1,0-0.8,0-3,0H463.2z M460.1,285.2c-1.9,1.4-3.6,2.3-5.2,3.2
		c-0.4,0.2-0.7,0.4-0.8,0.5s-0.2,0.2-0.3,0.2s-0.2-0.1-0.3-0.2c-0.2-0.3-0.4-0.8-0.6-1.2c0.6-0.2,1.2-0.4,1.7-0.7
		c1.8-0.9,3.8-2,5.7-3.4c0,0.3,0,0.6,0.1,0.9C460.5,285,460.5,285,460.1,285.2z M455.6,278.7c0.2-0.2,0.2-0.2,0.3-0.1
		c1,0.8,2.1,2,2.9,3c0.1,0.1,0.1,0.2-0.1,0.3l-0.6,0.6c-0.2,0.2-0.3,0.3-0.4,0.1c-0.8-1.3-1.7-2.3-2.8-3.1c-0.2-0.1-0.1-0.2,0.1-0.4
		L455.6,278.7z M466.4,272c0.2-0.1,0.2-0.1,0.3,0c0.9,0.5,2,1.4,2.8,2.2c0.1,0.1,0.1,0.2-0.2,0.4l-0.4,0.4c-0.2,0.2-0.3,0.3-0.5,0.1
		c-0.8-0.9-1.8-1.7-2.7-2.3c-0.2-0.1-0.2-0.2,0.1-0.4L466.4,272z"/>
</g>
<g>
	<path d="M290.4,28.3H276c-2.3,0-4.1,0.1-5.8,0.2c-0.4,0-0.5-0.1-0.6-0.5c-0.1-0.7-0.1-1.8-0.1-2.6c2.3,0.2,4,0.2,6.4,0.2h10.1
		c2.2,0,4.5-0.1,6.7-0.1c0.5,0,0.7,0.1,0.6,0.6c0,1.9-0.1,3.8-0.1,5.9v8.6c0,2.4,0.1,5.1,0.1,6.7c0,0.4-0.1,0.5-0.5,0.5
		c-0.6,0-1.4,0-1.9,0c-0.5,0-0.6,0-0.6-0.5v-1.7H276c-2.3,0-4.3,0.1-6.2,0.2c-0.3,0-0.4-0.1-0.4-0.5c-0.1-0.7-0.1-1.6-0.1-2.5
		c2,0.2,4.2,0.2,6.7,0.2h14.4V28.3z"/>
	<path d="M319.3,30.9c4.6,1.3,9,3.2,12.9,5.5c0.3,0.2,0.4,0.4,0.3,0.6c-0.3,0.7-0.6,1.4-1,1.9c-0.2,0.3-0.4,0.4-0.8,0.2
		c-3.7-2.4-7.9-4.3-11.5-5.3V43c0,2.4,0.1,5.5,0.1,8.1c0,0.4-0.1,0.5-0.5,0.5c-0.6,0-1.4,0-2,0c-0.4,0-0.6-0.1-0.6-0.6
		c0.1-2.5,0.2-5.6,0.2-8.1V25.4c0-3-0.2-5-0.4-6.3c1.4,0.1,2.6,0.3,3.3,0.5c0.6,0.2,0.5,0.6,0.3,1.2c-0.2,0.7-0.3,1.9-0.3,4.4V30.9z
		"/>
</g>
<path class="st3" d="M278.5,84.1c-87.1,0.8-154.2,19.9-175.4,53.6s-32.3,108-11.5,151.2c35.7,74.2,217.3,73.4,289.5,68.2
	c165.5-12,170.6-76.4,174.1-151.7C558.4,135.2,491.3,82.2,278.5,84.1z"/>
<g>
	<g>
		<path class="st4" d="M459.7,398.5c-3.4-3.4-16.7-17.5-23.3-25.6c-6.9-8.4-13.7-17.6-13.7-30c0-10.5,8.1-18.8,18.1-18.8
			c8.9,0,16.1,5.2,19.1,14.5h0.1c3.1-9.8,10.6-14.5,19.1-14.5c10,0,18.1,8.3,18.1,18.8c0,12.4-6.8,21.6-13.7,30
			c-6.7,8.1-20,22.1-23.4,25.6H459.7z"/>
		<path d="M459.7,398.5c-3.4-3.4-16.7-17.5-23.3-25.6c-6.9-8.4-13.7-17.6-13.7-30c0-10.5,8.1-18.8,18.1-18.8
			c8.9,0,16.1,5.2,19.1,14.5h0.1c3.1-9.8,10.6-14.5,19.1-14.5c10,0,18.1,8.3,18.1,18.8c0,12.4-6.8,21.6-13.7,30
			c-6.7,8.1-20,22.1-23.4,25.6H459.7z"/>
	</g>
</g>
<g>
	<path class="st6" d="M225.9,423.3c1.6-3.8,4.9-7.8,7.4-15.9c1.7-5.4,0.3-16.1-5-21.3c-0.2-0.2-0.5-0.3-0.9-0.5c0.5-0.8,1-2.2,1-5
		c0.1-8.8-7.5-8.7-9.4-7.1c-3.3,0.6-4.5,5.1-3.8,8.6c-0.1,0-0.1,0-0.2,0.1c-0.2-8.6-0.5-18.7-0.4-19.9c0.2-2.1,4.3-6.1,4.9-7.1
		c0.6-1,2.9-3.8,4.2-5.5c1.3-1.7-1.1-2.4-1.9-1c-0.5,0.9-3,3.3-4.1,3.9c0.2-0.5,4.1-7.1,4.7-8.8c0.6-1.6-1.1-2.5-2-1.1
		c-0.3,0.5-2.2,3.7-3.6,5.2c0.7-1.3,1.1-3.3,2.4-5.8c1.3-2.5-1.1-2.8-2.2-1.2c-0.2,0.3-4.5,8.7-4.5,8.7s2.2-5.6,2.9-8.1
		c0.5-2-1.2-1.5-2.4-0.1c-1.1,1.3-3.4,8.1-5.6,10.3c-0.8-0.4-0.8-1-1.2-1.4c-2-1.5-4.3-0.9-3.4,0.2c1.6,1.9,1.6,4,1.7,4.9
		c0.1,0.9,2.3,5.9,2.3,7.6c0,0.6-0.2,4.2-0.5,8.7c-3.5-3.3-7.8-4.8-12-4.6c-0.8-3.4-1.2-6-0.8-6.7c1.5-2.5,2.3-6.2,4.6-7.8
		c2.3-1.5-2.2-2.6-4.1,0.2c-1.3,1.9-3.7,1-4.8-0.9c-0.5-0.8-1.2-2.8-1.5-4c-0.2-1.2-0.7-4.1-1.4-5.1c-1.6-2.2-3-1-2.5,0.9
		c0.5,1.9,2.7,7.4,1,6.4c-1.4-2.1-2.5-4.2-3.4-5.8c0.3-3.1,0.6-5.2,0.6-5.5c0.1-0.7,0.6-3,0.4-4.6c-0.1-0.7,3.3-8.7,3.7-9.3
		c1.2-1.8,1.4-3.2,1.7-5.1c0.4-1.9-1.6-2.1-2.5-1.3c-0.5,0.5-2.3,3.5-2.5,4.2c-0.2,0.7-3.6,6.7-5,7c-0.6,0.1-1.4-0.3-1.5-0.7
		c-0.1-0.4-0.5-5.7-0.5-6.5c0-0.8-0.4-9.3-1.5-12.6c-1-3.1-3.9-1.5-3.6,0.4c0.4,2.5,0,11.3,0.1,11.7c0.1,0.4,0,2.5-0.3,4.7
		c-0.8-0.5-1.3-5.4-1.5-6.6c-0.2-0.9-0.3-5-1.1-7.7c-0.2-0.6-0.1-3.2-0.6-5.6c-0.5-2.4-3.2-1.6-3.7,0c-0.2,0.9-0.1,5.7-0.1,6.2
		c-0.1,2.4,0.7,7.1,0.7,7.9c-0.1,1.4,1.4,7.2,0.1,7.4c-1.1,0.1-2.6-4.7-3.4-5.9c-0.4-0.5-3.2-8-3.7-9.4c-0.9-2.4-3.3-0.8-3.4,0.6
		c-0.2,3.4,1.5,5.5,2.6,11c0.2,0.9,1.9,5.7,2.2,6.6c0.4,0.9,0.7,3.5,1,4.4c0.4,1-0.5,4.2-0.5,4.2c-2.2,1.9-6.2-1.8-6.7-2.3
		c-3.2-3.8-9.7-1.3-7.3,0.2c1.6,1.1,2.9,2.6,4,3.5c1.1,0.9,5.8,6.9,6.3,7.5c0.4,0.6,4.1,5,6.6,8.4c0.6,0.8,0.8,6,0.6,13.2
		c-2-0.6-4.2-0.6-5.4,0.2c-2.1,1.3-4.7,2.4-5.2,4.4c-0.5,2-1,4.4,0,8.8c-0.4-0.8-1.1-1.6-2.5-2.3c-1.8-0.9-3.2-1.2-5.8-0.9
		c-0.9,0.1-1.5,0.2-2,0.3c-0.5-1-1.1-1.9-1.7-2.7c1.1-2.5,1.9-4.3,2.2-5c1.6-3.6,4.1-4.7,5.9-8.3c0.7-1.4,3.2-3.9,4.5-4.8
		c1.3-0.9,1.3-3.4,0-3c-1.3,0.4-5.7,5-5.3,3.2c0.7-3,2.7-6.1,3.2-7.8c0.6-1.7-1-2.5-1.8-1.5c-0.8,0.9-3,5.1-4.1,7.6
		c-0.5-2.2,2.2-6.4,2.7-8.7c0.6-2.3-0.8-3.7-2.2-1.8c-1.3,1.9-4.3,10.9-4.4,8c-0.1-2.4,0.7-4,1-5.6c0.6-2.8-1.8-2.2-2.5,0
		c-1.6,4.4-1.6,5.2-2.1,9.9c-1-1.6-0.3-3-0.8-4c-1.4-2.4-3.4-0.6-2.6,2.1c1.4,4.5-0.7,6.7,0.9,10.5c0.3,0.7-0.2,2.5-1.3,4.8
		c-3.1-0.9-6.6-0.9-10.6,0.1c-0.1,0-0.1,0.1-0.2,0.1c-0.3-3.9-0.7-7.7-1.1-11.6c-0.2-1.8,4-5.2,3.6-7.3c-0.5-2.8-1-8.6-3.5-10.2
		c-0.5-1.9-5.2-19.2-6.1-22c-1.6-5.1-5.2-3.5-4.5,1.9c0.3,2.1,3.4,10.5,3.1,13.3c-1.5-0.4-4.7-2.6-5.7,2.8c-1.2,0.4-3.9,0.7-3,4.7
		c-1.9-0.1-6.6,1.2-0.2,10.7c1,1.5,1.7,6.1,5.5,7.3c-0.1,5.2-0.3,12.6-0.5,20.5c-1.1-0.9-2.4-1.5-3.8-1.7c1.2-1.8,1.6-5.6-0.1-4.7
		c0.2-3.3,2.1-5.2,0.3-7.2c-1.2-1.2,0-1.8-3.6-3.8c-3.1-1.8-5.7-1.3-7-0.5c-2.1,1.3-2.1,0.3-4.2,2.6c-1.3,1.5-0.6,5.5-0.5,8
		c-0.3-0.3-0.5-0.3-0.7-0.3c-2.2-6-3.6-10.8-2.8-12c1.3-1.9,0.6-3.5,2.8-5.2c2.2-1.7-0.4-2.4-1.9-1.9c-1.5,0.5-2.1,2.2-2.8,1.2
		c-0.6-1-1.3-7.7-2.2-9.8c-0.9-2.1-2.6-1.4-2.3,0c0.3,1.4,0.5,4,0.5,4.9c0,0.9-3-3.9-4.3-4.9c-1.3-1-2.6-0.8-1.3,1.3
		c1.3,2.1,2.1,3.7,2.1,4.6c-1.5-1.4-2.1-2.6-3-3.6c-0.9-1-2.5-1.3-1.7,0.8c0.9,2.3,2.5,3.3,2.5,4.3c0,1-3-0.2-4.4-0.3
		c-1.4-0.1-0.9,1.4,0,1.7c0.9,0.3,3.9,1.7,4.2,2.5c2,4.9,1.7,6.6,3.1,8c1.3,1.2,2.8,5.9,4.3,11.7c-0.2-0.1-0.3-0.1-0.4-0.2
		c-0.4-0.6-0.6-0.4-0.8-0.7c-0.3-0.3-0.3,0.2-0.8-0.1c-0.4-0.3-1.7-0.4-3.6,0c-6.7,1.4-5.9,7.3-5.9,8.2c0,0.9,0.6,1.6,0.8,2.7
		c0,3,1,5.2,2.3,4.5c0,0.2,0.1,0.5,0.3,1c-4.6,1.4-7.7,2.9-8.6,4.2c-6,9.8,1.4,6.2,5.2,23.7h148H225.9z M235.6,377.2 M180.4,375.4
		c-0.5-8.4-0.7-15-0.5-17.5c0-0.2,0.1-0.5,0.1-0.7c0.9,1.5,2.7,4.5,3.9,6.7c0.4,0.7,1,3.1,1.6,6.2
		C183.6,371.4,181.9,373.2,180.4,375.4z M215,387.3c0-1.1,0-2.3-0.1-3.5c0.3,1.3,1,2.7,1.5,2.5C215.8,386.4,215.4,386.8,215,387.3z"
		/>
	<path class="st7" d="M225.9,423.3c1.6-3.8,4.9-7.8,7.4-15.9c1.7-5.4,0.3-16.1-5-21.3c-0.2-0.2-0.5-0.3-0.9-0.5c0.5-0.8,1-2.2,1-5
		c0.1-8.8-7.5-8.7-9.4-7.1c-3.3,0.6-4.5,5.1-3.8,8.6c-0.1,0-0.1,0-0.2,0.1c-0.2-8.6-0.5-18.7-0.4-19.9c0.2-2.1,4.3-6.1,4.9-7.1
		c0.6-1,2.9-3.8,4.2-5.5c1.3-1.7-1.1-2.4-1.9-1c-0.5,0.9-3,3.3-4.1,3.9c0.2-0.5,4.1-7.1,4.7-8.8c0.6-1.6-1.1-2.5-2-1.1
		c-0.3,0.5-2.2,3.7-3.6,5.2c0.7-1.3,1.1-3.3,2.4-5.8c1.3-2.5-1.1-2.8-2.2-1.2c-0.2,0.3-4.5,8.7-4.5,8.7s2.2-5.6,2.9-8.1
		c0.5-2-1.2-1.5-2.4-0.1c-1.1,1.3-3.4,8.1-5.6,10.3c-0.8-0.4-0.8-1-1.2-1.4c-2-1.5-4.3-0.9-3.4,0.2c1.6,1.9,1.6,4,1.7,4.9
		c0.1,0.9,2.3,5.9,2.3,7.6c0,0.6-0.2,4.2-0.5,8.7c-3.5-3.3-7.8-4.8-12-4.6c-0.8-3.4-1.2-6-0.8-6.7c1.5-2.5,2.3-6.2,4.6-7.8
		c2.3-1.5-2.2-2.6-4.1,0.2c-1.3,1.9-3.7,1-4.8-0.9c-0.5-0.8-1.2-2.8-1.5-4c-0.2-1.2-0.7-4.1-1.4-5.1c-1.6-2.2-3-1-2.5,0.9
		c0.5,1.9,2.7,7.4,1,6.4c-1.4-2.1-2.5-4.2-3.4-5.8c0.3-3.1,0.6-5.2,0.6-5.5c0.1-0.7,0.6-3,0.4-4.6c-0.1-0.7,3.3-8.7,3.7-9.3
		c1.2-1.8,1.4-3.2,1.7-5.1c0.4-1.9-1.6-2.1-2.5-1.3c-0.5,0.5-2.3,3.5-2.5,4.2c-0.2,0.7-3.6,6.7-5,7c-0.6,0.1-1.4-0.3-1.5-0.7
		c-0.1-0.4-0.5-5.7-0.5-6.5c0-0.8-0.4-9.3-1.5-12.6c-1-3.1-3.9-1.5-3.6,0.4c0.4,2.5,0,11.3,0.1,11.7c0.1,0.4,0,2.5-0.3,4.7
		c-0.8-0.5-1.3-5.4-1.5-6.6c-0.2-0.9-0.3-5-1.1-7.7c-0.2-0.6-0.1-3.2-0.6-5.6c-0.5-2.4-3.2-1.6-3.7,0c-0.2,0.9-0.1,5.7-0.1,6.2
		c-0.1,2.4,0.7,7.1,0.7,7.9c-0.1,1.4,1.4,7.2,0.1,7.4c-1.1,0.1-2.6-4.7-3.4-5.9c-0.4-0.5-3.2-8-3.7-9.4c-0.9-2.4-3.3-0.8-3.4,0.6
		c-0.2,3.4,1.5,5.5,2.6,11c0.2,0.9,1.9,5.7,2.2,6.6c0.4,0.9,0.7,3.5,1,4.4c0.4,1-0.5,4.2-0.5,4.2c-2.2,1.9-6.2-1.8-6.7-2.3
		c-3.2-3.8-9.7-1.3-7.3,0.2c1.6,1.1,2.9,2.6,4,3.5c1.1,0.9,5.8,6.9,6.3,7.5c0.4,0.6,4.1,5,6.6,8.4c0.6,0.8,0.8,6,0.6,13.2
		c-2-0.6-4.2-0.6-5.4,0.2c-2.1,1.3-4.7,2.4-5.2,4.4c-0.5,2-1,4.4,0,8.8c-0.4-0.8-1.1-1.6-2.5-2.3c-1.8-0.9-3.2-1.2-5.8-0.9
		c-0.9,0.1-1.5,0.2-2,0.3c-0.5-1-1.1-1.9-1.7-2.7c1.1-2.5,1.9-4.3,2.2-5c1.6-3.6,4.1-4.7,5.9-8.3c0.7-1.4,3.2-3.9,4.5-4.8
		c1.3-0.9,1.3-3.4,0-3c-1.3,0.4-5.7,5-5.3,3.2c0.7-3,2.7-6.1,3.2-7.8c0.6-1.7-1-2.5-1.8-1.5c-0.8,0.9-3,5.1-4.1,7.6
		c-0.5-2.2,2.2-6.4,2.7-8.7c0.6-2.3-0.8-3.7-2.2-1.8c-1.3,1.9-4.3,10.9-4.4,8c-0.1-2.4,0.7-4,1-5.6c0.6-2.8-1.8-2.2-2.5,0
		c-1.6,4.4-1.6,5.2-2.1,9.9c-1-1.6-0.3-3-0.8-4c-1.4-2.4-3.4-0.6-2.6,2.1c1.4,4.5-0.7,6.7,0.9,10.5c0.3,0.7-0.2,2.5-1.3,4.8
		c-3.1-0.9-6.6-0.9-10.6,0.1c-0.1,0-0.1,0.1-0.2,0.1c-0.3-3.9-0.7-7.7-1.1-11.6c-0.2-1.8,4-5.2,3.6-7.3c-0.5-2.8-1-8.6-3.5-10.2
		c-0.5-1.9-5.2-19.2-6.1-22c-1.6-5.1-5.2-3.5-4.5,1.9c0.3,2.1,3.4,10.5,3.1,13.3c-1.5-0.4-4.7-2.6-5.7,2.8c-1.2,0.4-3.9,0.7-3,4.7
		c-1.9-0.1-6.6,1.2-0.2,10.7c1,1.5,1.7,6.1,5.5,7.3c-0.1,5.2-0.3,12.6-0.5,20.5c-1.1-0.9-2.4-1.5-3.8-1.7c1.2-1.8,1.6-5.6-0.1-4.7
		c0.2-3.3,2.1-5.2,0.3-7.2c-1.2-1.2,0-1.8-3.6-3.8c-3.1-1.8-5.7-1.3-7-0.5c-2.1,1.3-2.1,0.3-4.2,2.6c-1.3,1.5-0.6,5.5-0.5,8
		c-0.3-0.3-0.5-0.3-0.7-0.3c-2.2-6-3.6-10.8-2.8-12c1.3-1.9,0.6-3.5,2.8-5.2c2.2-1.7-0.4-2.4-1.9-1.9c-1.5,0.5-2.1,2.2-2.8,1.2
		c-0.6-1-1.3-7.7-2.2-9.8c-0.9-2.1-2.6-1.4-2.3,0c0.3,1.4,0.5,4,0.5,4.9c0,0.9-3-3.9-4.3-4.9c-1.3-1-2.6-0.8-1.3,1.3
		c1.3,2.1,2.1,3.7,2.1,4.6c-1.5-1.4-2.1-2.6-3-3.6c-0.9-1-2.5-1.3-1.7,0.8c0.9,2.3,2.5,3.3,2.5,4.3c0,1-3-0.2-4.4-0.3
		c-1.4-0.1-0.9,1.4,0,1.7c0.9,0.3,3.9,1.7,4.2,2.5c2,4.9,1.7,6.6,3.1,8c1.3,1.2,2.8,5.9,4.3,11.7c-0.2-0.1-0.3-0.1-0.4-0.2
		c-0.4-0.6-0.6-0.4-0.8-0.7c-0.3-0.3-0.3,0.2-0.8-0.1c-0.4-0.3-1.7-0.4-3.6,0c-6.7,1.4-5.9,7.3-5.9,8.2c0,0.9,0.6,1.6,0.8,2.7
		c0,3,1,5.2,2.3,4.5c0,0.2,0.1,0.5,0.3,1c-4.6,1.4-7.7,2.9-8.6,4.2c-6,9.8,1.4,6.2,5.2,23.7h148H225.9z M235.6,377.2 M180.4,375.4
		c-0.5-8.4-0.7-15-0.5-17.5c0-0.2,0.1-0.5,0.1-0.7c0.9,1.5,2.7,4.5,3.9,6.7c0.4,0.7,1,3.1,1.6,6.2
		C183.6,371.4,181.9,373.2,180.4,375.4z M215,387.3c0-1.1,0-2.3-0.1-3.5c0.3,1.3,1,2.7,1.5,2.5C215.8,386.4,215.4,386.8,215,387.3z"
		/>
</g>
<g>
	<g>
		<path class="st8" d="M521.3,404.9c-2.3-2.3-11-11.6-15.4-16.9c-4.6-5.6-9-11.6-9-19.8c0-6.9,5.3-12.4,11.9-12.4
			c5.9,0,10.6,3.4,12.6,9.6h0.1c2-6.5,7-9.6,12.6-9.6c6.6,0,11.9,5.5,11.9,12.4c0,8.2-4.5,14.2-9,19.8c-4.4,5.3-13.2,14.6-15.5,16.9
			H521.3z"/>
		<path d="M521.3,404.9c-2.3-2.3-11-11.6-15.4-16.9c-4.6-5.6-9-11.6-9-19.8c0-6.9,5.3-12.4,11.9-12.4c5.9,0,10.6,3.4,12.6,9.6h0.1
			c2-6.5,7-9.6,12.6-9.6c6.6,0,11.9,5.5,11.9,12.4c0,8.2-4.5,14.2-9,19.8c-4.4,5.3-13.2,14.6-15.5,16.9H521.3z"/>
	</g>
</g>
</svg>
