<?xml version="1.0" encoding="utf-8"?>
<!-- Generator: Adobe Illustrator 25.4.2, SVG Export Plug-In . SVG Version: 6.00 Build 0)  -->
<svg version="1.1" id="レイヤー_1" xmlns="http://www.w3.org/2000/svg" xmlns:xlink="http://www.w3.org/1999/xlink" x="0px"
	 y="0px" viewBox="0 0 348 300.8" style="enable-background:new 0 0 348 300.8;" xml:space="preserve">
<style type="text/css">
	.st0{fill:none;stroke:#000000;stroke-width:2.8346;stroke-miterlimit:10;}
	.st1{fill:#FFFFFF;stroke:#000000;stroke-width:2.8346;stroke-miterlimit:10;}
	.st2{fill:#231815;}
	.st3{fill:none;stroke:#000000;stroke-width:5.6693;stroke-miterlimit:10;}
	.st4{fill:none;stroke:#FFFFFF;stroke-width:14.1732;stroke-miterlimit:10;}
	.st5{fill:none;stroke:#FFFFFF;stroke-width:18;stroke-linejoin:round;}
	.st6{fill:none;stroke:#FFFFFF;stroke-width:11.3386;stroke-linejoin:round;stroke-miterlimit:10;}
	.st7{fill-rule:evenodd;clip-rule:evenodd;fill:#231815;}
	.st8{fill:none;stroke:#FFFFFF;stroke-width:8.5039;stroke-miterlimit:10;}
	.st9{fill:none;stroke:#FFFFFF;stroke-width:14.1732;stroke-linejoin:round;}
</style>
<g>
	<path class="st2" d="M330.2,178.5c0-2-21.7-3.7-48.7-3.7c-0.3-0.2-0.7-0.4-1.1-0.4c-0.4,0-0.8,0.1-1.1,0.4c-27,0-48.7,1.7-48.7,3.7
		c0,0,0,0,0,0h0c0,11.4,22.3,20.6,49.8,20.6C307.9,199.1,330.2,189.9,330.2,178.5L330.2,178.5C330.2,178.5,330.2,178.5,330.2,178.5z
		"/>
	<path class="st2" d="M282.2,111.2c0-1-0.8-1.8-1.8-1.8c-1,0-1.8,0.8-1.8,1.8c0,1,0.8,1.8,1.8,1.8
		C281.4,113,282.2,112.2,282.2,111.2z"/>
	<path class="st2" d="M282.2,118.5c0-1-0.8-1.8-1.8-1.8c1,0,1.8-0.8,1.8-1.8c0-1-0.8-1.8-1.8-1.8c-1,0-1.8,0.8-1.8,1.8
		c0,1,0.8,1.8,1.8,1.8c-1,0-1.8,0.8-1.8,1.8c0,1,0.8,1.8,1.8,1.8C281.4,120.3,282.2,119.4,282.2,118.5z"/>
	<path class="st2" d="M282.2,122.1c0-1-0.8-1.8-1.8-1.8c-1,0-1.8,0.8-1.8,1.8s0.8,1.8,1.8,1.8C281.4,123.9,282.2,123.1,282.2,122.1z
		"/>
	<path class="st2" d="M282.2,125.7c0-1-0.8-1.8-1.8-1.8c-1,0-1.8,0.8-1.8,1.8c0,1,0.8,1.8,1.8,1.8
		C281.4,127.5,282.2,126.7,282.2,125.7z"/>
	<path class="st2" d="M282.2,107.6c0-1-0.8-1.8-1.8-1.8c-1,0-1.8,0.8-1.8,1.8c0,1,0.8,1.8,1.8,1.8
		C281.4,109.4,282.2,108.6,282.2,107.6z"/>
	<path class="st2" d="M281.8,105.1c0.4,0.1,0.8,0.1,1.2-0.1c-0.6,0.6-0.8,1.6-0.3,2.3c0.5,0.8,1.4,1,2.2,0.7
		c-0.6,0.6-0.8,1.6-0.3,2.3c0.5,0.8,1.4,1,2.2,0.7c-0.6,0.6-0.8,1.6-0.3,2.3c0.5,0.8,1.4,1,2.2,0.7c-0.6,0.6-0.8,1.6-0.3,2.3
		c0.5,0.8,1.4,1,2.2,0.7c-0.6,0.6-0.8,1.6-0.3,2.3c0.5,0.8,1.4,1,2.2,0.7c-0.6,0.6-0.8,1.6-0.3,2.3c0.5,0.8,1.4,1,2.2,0.7
		c-0.6,0.6-0.8,1.6-0.3,2.3c0.5,0.8,1.4,1,2.2,0.7c-0.6,0.6-0.8,1.6-0.3,2.3c0.5,0.8,1.4,1,2.2,0.7c-0.6,0.6-0.8,1.6-0.3,2.3
		c0.5,0.8,1.4,1,2.2,0.7c-0.6,0.6-0.8,1.6-0.3,2.3c0.5,0.8,1.4,1,2.2,0.7c-0.6,0.6-0.8,1.6-0.3,2.3c0.5,0.8,1.4,1,2.2,0.7
		c-0.6,0.6-0.8,1.6-0.3,2.3c0.5,0.8,1.4,1,2.2,0.7c-0.6,0.6-0.8,1.6-0.3,2.3c0.5,0.8,1.4,1,2.2,0.7c-0.6,0.6-0.8,1.6-0.3,2.3
		c0.5,0.8,1.4,1,2.2,0.7c-0.6,0.6-0.8,1.6-0.3,2.3c0.5,0.8,1.4,1,2.2,0.7c-0.6,0.6-0.8,1.6-0.3,2.3c0.5,0.8,1.4,1,2.2,0.7
		c-0.6,0.6-0.8,1.6-0.3,2.3c0.5,0.8,1.4,1,2.2,0.7c-0.6,0.6-0.8,1.6-0.3,2.3c0.5,0.8,1.4,1,2.2,0.7c-0.6,0.6-0.8,1.6-0.3,2.3
		c0.5,0.8,1.4,1,2.2,0.7c-0.6,0.6-0.8,1.6-0.3,2.3c0.5,0.8,1.4,1,2.2,0.7c-0.6,0.6-0.8,1.6-0.3,2.3c0.5,0.8,1.4,1,2.2,0.7
		c-0.6,0.6-0.8,1.6-0.3,2.3c0.5,0.8,1.4,1,2.2,0.7c-0.6,0.6-0.8,1.6-0.3,2.3c0.5,0.8,1.4,1,2.2,0.7c-0.6,0.6-0.8,1.6-0.3,2.3
		c0.3,0.5,0.9,0.8,1.5,0.8c0.3,0,0.7-0.1,1-0.3c0.8-0.5,1.1-1.7,0.5-2.5c-0.5-0.8-1.4-1-2.2-0.7c0.6-0.6,0.8-1.6,0.3-2.3
		c-0.5-0.8-1.4-1-2.2-0.7c0.6-0.6,0.8-1.6,0.3-2.3c-0.5-0.8-1.4-1-2.2-0.7c0.6-0.6,0.8-1.6,0.3-2.3c-0.5-0.8-1.4-1-2.2-0.7
		c0.6-0.6,0.8-1.6,0.3-2.3c-0.5-0.8-1.4-1-2.2-0.7c0.6-0.6,0.8-1.6,0.3-2.3c-0.5-0.8-1.4-1-2.2-0.7c0.6-0.6,0.8-1.6,0.3-2.3
		c-0.5-0.8-1.4-1-2.2-0.7c0.6-0.6,0.8-1.6,0.3-2.3c-0.5-0.8-1.4-1-2.2-0.7c0.6-0.6,0.8-1.6,0.3-2.3c-0.5-0.8-1.4-1-2.2-0.7
		c0.6-0.6,0.8-1.6,0.3-2.3c-0.5-0.8-1.4-1-2.2-0.7c0.6-0.6,0.8-1.6,0.3-2.3c-0.5-0.8-1.4-1-2.2-0.7c0.6-0.6,0.8-1.6,0.3-2.3
		c-0.5-0.8-1.4-1-2.2-0.7c0.6-0.6,0.8-1.6,0.3-2.3c-0.5-0.8-1.4-1-2.2-0.7c0.6-0.6,0.8-1.6,0.3-2.3c-0.5-0.8-1.4-1-2.2-0.7
		c0.6-0.6,0.8-1.6,0.3-2.3c-0.5-0.8-1.4-1-2.2-0.7c0.6-0.6,0.8-1.6,0.3-2.3c-0.5-0.8-1.4-1-2.2-0.7c0.6-0.6,0.8-1.6,0.3-2.3
		c-0.5-0.8-1.4-1-2.2-0.7c0.6-0.6,0.8-1.6,0.3-2.3c-0.5-0.8-1.4-1-2.2-0.7c0.6-0.6,0.8-1.6,0.3-2.3c-0.5-0.8-1.4-1-2.2-0.7
		c0.6-0.6,0.8-1.6,0.3-2.3c-0.5-0.8-1.4-1-2.2-0.7c0.6-0.6,0.8-1.6,0.3-2.3c-0.5-0.8-1.4-1-2.2-0.7c0.6-0.6,0.8-1.6,0.3-2.3
		c-0.5-0.8-1.4-1-2.2-0.7c0.6-0.6,0.8-1.6,0.3-2.3c-0.5-0.8-1.4-1-2.2-0.7c0.6-0.6,0.8-1.6,0.3-2.3c-0.5-0.8-1.4-1-2.2-0.7
		c0.6-0.6,0.8-1.6,0.3-2.3c-0.5-0.8-1.5-1-2.3-0.7c0.4-0.3,0.6-0.8,0.6-1.4c0-0.6-0.3-1.1-0.7-1.4v-5.7c10.7-4.6,4.4-19.8-7-14.1
		c-0.1,0-0.3,0.1-0.4,0.1l-0.1,0.1c8.7-1.5,8.8,11-4.3,8c-33-7.6-44.3-6.7-47.4,1.5c-12.2-1.9-23.5-3.1-42.8,1.2c0-0.4,0-0.8,0-1.1
		c0-4.6-1.1-7.3-3.6-8h0c0-0.9-0.2-2.8,2.3-4.6c-2.4-0.9-2.5-3.7-2-5.5c1.2-3.9,7.3-5.7,9.1-0.4c1.8-6.4-3.9-8.9-6.9-7.6
		c3.1-1.9,2.8-6.3,0.3-9.5c-1.5-1.9-3.3-4.4-4.5-8c-1.2,3.6-3,6.1-4.5,8c-2.6,3.2-2.8,7.6,0.3,9.5c-3-1.2-8.7,1.2-6.9,7.6
		c1.8-5.4,7.9-3.5,9.1,0.4c0.6,1.8,0.5,4.6-2,5.5c2.5,1.9,2.3,3.8,2.3,4.6h0c-2.5,0.8-3.6,3.4-3.6,8c0,1.2,0,2.4,0,3.8
		c-21,5.9-30.8,12.8-41,20.8c-6.7-5.7-17-0.9-42.1,21.9c-9.9,9-15.9-2-7.6-4.9l-0.2-0.1c-0.1,0-0.3,0-0.4,0.1
		c-12,0.6-11,15.1-1.1,15.7v5.5c-0.4,0.3-0.7,0.8-0.7,1.4c0,0.6,0.3,1,0.7,1.4c-0.8-0.4-1.8-0.1-2.3,0.7c-0.5,0.8-0.3,1.7,0.3,2.3
		c-0.8-0.3-1.7-0.1-2.2,0.7c-0.5,0.8-0.3,1.7,0.3,2.3c-0.8-0.3-1.7-0.1-2.2,0.7c-0.5,0.8-0.3,1.7,0.3,2.3c-0.8-0.3-1.7-0.1-2.2,0.7
		c-0.5,0.8-0.3,1.7,0.3,2.3c-0.8-0.3-1.7-0.1-2.2,0.7c-0.5,0.8-0.3,1.7,0.3,2.3c-0.8-0.3-1.7-0.1-2.2,0.7c-0.5,0.8-0.3,1.7,0.3,2.3
		c-0.8-0.3-1.7-0.1-2.2,0.7c-0.5,0.8-0.3,1.7,0.3,2.3c-0.8-0.3-1.7-0.1-2.2,0.7c-0.5,0.8-0.3,1.7,0.3,2.3c-0.8-0.3-1.7-0.1-2.2,0.7
		c-0.5,0.8-0.3,1.7,0.3,2.3c-0.8-0.3-1.7-0.1-2.2,0.7c-0.5,0.8-0.3,1.7,0.3,2.3c-0.8-0.3-1.7-0.1-2.2,0.7c-0.5,0.8-0.3,1.7,0.3,2.3
		c-0.8-0.3-1.7-0.1-2.2,0.7c-0.5,0.8-0.3,1.7,0.3,2.3c-0.8-0.3-1.7-0.1-2.2,0.7c-0.5,0.8-0.3,1.7,0.3,2.3c-0.8-0.3-1.7-0.1-2.2,0.7
		c-0.5,0.8-0.3,1.7,0.3,2.3c-0.8-0.3-1.7-0.1-2.2,0.7c-0.5,0.8-0.3,1.7,0.3,2.3c-0.8-0.3-1.7-0.1-2.2,0.7c-0.5,0.8-0.3,1.7,0.3,2.3
		c-0.8-0.3-1.7-0.1-2.2,0.7c-0.5,0.8-0.3,1.7,0.3,2.3c-0.8-0.3-1.7-0.1-2.2,0.7c-0.5,0.8-0.3,1.7,0.3,2.3c-0.8-0.3-1.7-0.1-2.2,0.7
		c-0.5,0.8-0.3,1.7,0.3,2.3c-0.8-0.3-1.7-0.1-2.2,0.7c-0.5,0.8-0.3,1.7,0.3,2.3c-0.8-0.3-1.7-0.1-2.2,0.7c-0.5,0.8-0.3,1.7,0.3,2.3
		c-0.8-0.3-1.7-0.1-2.2,0.7c-0.5,0.8-0.3,1.7,0.3,2.3c-0.8-0.3-1.8-0.1-2.2,0.7c-0.5,0.8-0.3,1.7,0.3,2.3c-0.8-0.3-1.7-0.1-2.2,0.7
		c-0.5,0.8-0.3,1.7,0.3,2.3c-0.8-0.3-1.7-0.1-2.2,0.7c-0.5,0.8-0.3,2,0.6,2.5c0.3,0.2,0.6,0.3,1,0.3c0.6,0,1.2-0.3,1.5-0.8
		c0.5-0.8,0.3-1.7-0.3-2.3c0.8,0.3,1.8,0.1,2.2-0.7c0.5-0.8,0.3-1.7-0.3-2.3c0.8,0.3,1.7,0.1,2.2-0.7c0.5-0.8,0.3-1.7-0.3-2.3
		c0.8,0.3,1.7,0.1,2.2-0.7c0.5-0.8,0.3-1.7-0.3-2.3c0.8,0.3,1.7,0.1,2.2-0.7c0.5-0.8,0.3-1.7-0.3-2.3c0.8,0.3,1.7,0.1,2.2-0.7
		c0.5-0.8,0.3-1.7-0.3-2.3c0.8,0.3,1.7,0.1,2.2-0.7c0.5-0.8,0.3-1.7-0.3-2.3c0.8,0.3,1.7,0.1,2.2-0.7c0.5-0.8,0.3-1.7-0.3-2.3
		c0.8,0.3,1.7,0.1,2.2-0.7c0.5-0.8,0.3-1.7-0.3-2.3c0.8,0.3,1.7,0.1,2.2-0.7c0.5-0.8,0.3-1.7-0.3-2.3c0.8,0.3,1.7,0.1,2.2-0.7
		c0.5-0.8,0.3-1.7-0.3-2.3c0.8,0.3,1.7,0.1,2.2-0.7c0.5-0.8,0.3-1.7-0.3-2.3c0.8,0.3,1.7,0.1,2.2-0.7c0.5-0.8,0.3-1.7-0.3-2.3
		c0.8,0.3,1.7,0.1,2.2-0.7c0.5-0.8,0.3-1.7-0.3-2.3c0.8,0.3,1.7,0.1,2.2-0.7c0.5-0.8,0.3-1.7-0.3-2.3c0.8,0.3,1.7,0.1,2.2-0.7
		c0.5-0.8,0.3-1.7-0.3-2.3c0.8,0.3,1.7,0.1,2.2-0.7c0.5-0.8,0.3-1.7-0.3-2.3c0.8,0.3,1.7,0.1,2.2-0.7c0.5-0.8,0.3-1.7-0.3-2.3
		c0.8,0.3,1.7,0.1,2.2-0.7c0.5-0.8,0.3-1.7-0.3-2.3c0.8,0.3,1.7,0.1,2.2-0.7c0.5-0.8,0.3-1.7-0.3-2.3c0.8,0.3,1.8,0.1,2.2-0.7
		c0.5-0.8,0.3-1.7-0.3-2.3c0.8,0.3,1.8,0.1,2.2-0.7c0.5-0.8,0.3-1.7-0.3-2.3c0.8,0.3,1.7,0.1,2.2-0.7c0.5-0.8,0.3-1.7-0.3-2.3
		c0.8,0.3,1.7,0.1,2.2-0.7c0.5-0.8,0.3-1.7-0.3-2.3c0.4,0.2,0.8,0.2,1.2,0.1c0.3,0.4,0.8,0.7,1.4,0.7c0.6,0,1.1-0.3,1.4-0.7
		c0.4,0.1,0.8,0.1,1.2-0.1c-0.6,0.6-0.8,1.6-0.3,2.3c0.5,0.8,1.4,1,2.2,0.7c-0.6,0.6-0.8,1.6-0.3,2.3c0.5,0.8,1.4,1,2.2,0.7
		c-0.6,0.6-0.8,1.6-0.3,2.3c0.5,0.8,1.4,1,2.2,0.7c-0.6,0.6-0.8,1.6-0.3,2.3c0.5,0.8,1.4,1,2.2,0.7c-0.6,0.6-0.8,1.6-0.3,2.3
		c0.5,0.8,1.4,1,2.2,0.7c-0.6,0.6-0.8,1.6-0.3,2.3c0.5,0.8,1.4,1,2.2,0.7c-0.6,0.6-0.8,1.6-0.3,2.3c0.5,0.8,1.4,1,2.2,0.7
		c-0.6,0.6-0.8,1.6-0.3,2.3c0.5,0.8,1.4,1,2.2,0.7c-0.6,0.6-0.8,1.6-0.3,2.3c0.5,0.8,1.4,1,2.2,0.7c-0.6,0.6-0.8,1.6-0.3,2.3
		c0.5,0.8,1.4,1,2.2,0.7c-0.6,0.6-0.8,1.6-0.3,2.3c0.5,0.8,1.4,1,2.2,0.7c-0.6,0.6-0.8,1.6-0.3,2.3c0.5,0.8,1.4,1,2.2,0.7
		c-0.6,0.6-0.8,1.6-0.3,2.3c0.5,0.8,1.4,1,2.2,0.7c-0.6,0.6-0.8,1.6-0.3,2.3c0.5,0.8,1.4,1,2.2,0.7c-0.6,0.6-0.8,1.6-0.3,2.3
		c0.5,0.8,1.4,1,2.2,0.7c-0.6,0.6-0.8,1.6-0.3,2.3c0.5,0.8,1.4,1,2.2,0.7c-0.6,0.6-0.8,1.6-0.3,2.3c0.5,0.8,1.4,1,2.2,0.7
		c-0.6,0.6-0.8,1.6-0.3,2.3c0.5,0.8,1.4,1,2.2,0.7c-0.6,0.6-0.8,1.6-0.3,2.3c0.5,0.8,1.4,1,2.2,0.7c-0.6,0.6-0.8,1.6-0.3,2.3
		c0.5,0.8,1.4,1,2.2,0.7c-0.6,0.6-0.8,1.6-0.3,2.3c0.5,0.8,1.4,1,2.2,0.7c-0.6,0.6-0.8,1.6-0.3,2.3c0.5,0.8,1.4,1,2.2,0.7
		c-0.6,0.6-0.8,1.6-0.3,2.3c0.5,0.8,1.4,1,2.2,0.7c-0.6,0.6-0.8,1.6-0.3,2.3c0.3,0.5,0.9,0.8,1.5,0.8c0.3,0,0.7-0.1,1-0.3
		c0.8-0.5,1.1-1.7,0.6-2.5c-0.5-0.8-1.4-1-2.2-0.7c0.6-0.6,0.8-1.6,0.3-2.3c-0.5-0.8-1.4-1-2.2-0.7c0.6-0.6,0.8-1.6,0.3-2.3
		c-0.5-0.8-1.4-1-2.2-0.7c0.6-0.6,0.8-1.6,0.3-2.3c-0.5-0.8-1.4-1-2.2-0.7c0.6-0.6,0.8-1.6,0.3-2.3c-0.5-0.8-1.4-1-2.2-0.7
		c0.6-0.6,0.8-1.6,0.3-2.3c-0.5-0.8-1.4-1-2.2-0.7c0.6-0.6,0.8-1.6,0.3-2.3c-0.5-0.8-1.4-1-2.2-0.7c0.6-0.6,0.8-1.6,0.3-2.3
		c-0.5-0.8-1.4-1-2.2-0.7c0.6-0.6,0.8-1.6,0.3-2.3c-0.5-0.8-1.4-1-2.2-0.7c0.6-0.6,0.8-1.6,0.3-2.3c-0.5-0.8-1.4-1-2.2-0.7
		c0.6-0.6,0.8-1.6,0.3-2.3c-0.5-0.8-1.4-1-2.2-0.7c0.6-0.6,0.8-1.6,0.3-2.3c-0.5-0.8-1.4-1-2.2-0.7c0.6-0.6,0.8-1.6,0.3-2.3
		c-0.5-0.8-1.4-1-2.2-0.7c0.6-0.6,0.8-1.6,0.3-2.3c-0.5-0.8-1.4-1-2.2-0.7c0.6-0.6,0.8-1.6,0.3-2.3c-0.5-0.8-1.4-1-2.2-0.7
		c0.6-0.6,0.8-1.6,0.3-2.3c-0.5-0.8-1.4-1-2.2-0.7c0.6-0.6,0.8-1.6,0.3-2.3c-0.5-0.8-1.4-1-2.2-0.7c0.6-0.6,0.8-1.6,0.3-2.3
		c-0.5-0.8-1.4-1-2.2-0.7c0.6-0.6,0.8-1.6,0.3-2.3c-0.5-0.8-1.4-1-2.2-0.7c0.6-0.6,0.8-1.6,0.3-2.3c-0.5-0.8-1.4-1-2.2-0.7
		c0.6-0.6,0.8-1.6,0.3-2.3c-0.5-0.8-1.4-1-2.2-0.7c0.6-0.6,0.8-1.6,0.3-2.3c-0.5-0.8-1.4-1-2.2-0.7c0.6-0.6,0.8-1.6,0.3-2.3
		c-0.5-0.8-1.4-1-2.2-0.7c0.6-0.6,0.8-1.6,0.3-2.3c-0.5-0.8-1.4-1-2.2-0.7c0.6-0.6,0.8-1.6,0.3-2.3c-0.5-0.8-1.5-1-2.3-0.7
		c0.4-0.3,0.7-0.8,0.7-1.4c0-0.6-0.3-1.1-0.7-1.4v-5.6c2.5-0.3,5.4-1.4,8.7-3.7c22-14.9,34.6-21.8,42.1-15
		c6.7-7.5,19.6-15.4,39.3-21.5c0,0,0,0,0,0c0,3.3,1.5,5,2.6,5.6c-1,0.5-2.3,2-2.6,4.7h0c-0.5,0-0.9,0.4-0.9,0.9s0.4,0.9,0.9,0.9h0.4
		c0.8,2.8-0.9,8.3-6.2,11.9c2,2,6.1,8.4,6.8,11.9v69.6c0,3.1-2.1,5.5-6.8,5.9c-1.6,5.7-2.6,10.7-6.6,10.7c-3.7,0-4.6,2.1-4.7,3.5
		h-4.7c-0.9,0-1.6,0.7-1.6,1.6c0,0.9,0.7,1.6,1.6,1.6c-0.4,8-3.6,25.8-10.6,31.1h-4c-0.9,0-1.6,0.7-1.6,1.6c0,0.8,0.6,1.4,1.3,1.6
		h-3.5v6.3h7.7H212h7.7v-6.3h-3.5c0.7-0.1,1.3-0.8,1.3-1.6c0-0.9-0.7-1.6-1.6-1.6h-4c-7-5.2-10.2-23-10.6-31.1
		c0.9,0,1.6-0.7,1.6-1.6c0-0.9-0.7-1.6-1.6-1.6h-4.7c-0.1-1.5-1-3.5-4.7-3.5c-4,0-4.9-5.1-6.6-10.7c-4.7-0.4-6.8-2.7-6.8-5.9v-69.6
		c0.7-3.5,4.8-9.9,6.8-11.9c-5.3-3.6-7-9.1-6.2-11.9h0.4c0.5,0,0.9-0.4,0.9-0.9s-0.4-0.9-0.9-0.9h0c-0.2-2.7-1.6-4.2-2.6-4.7
		c1.1-0.6,2.6-2.3,2.6-5.6c0-0.7,0-1.7,0-2.9c21.9-5.3,38.2-4.8,48.3-1.3c3.2-9.6,17.6-9.7,44.1-7.5c3,0.3,5.5,0.1,7.5-0.4V99
		c-0.4,0.3-0.7,0.8-0.7,1.4c0,0.6,0.3,1,0.6,1.4c-0.8-0.4-1.8-0.1-2.3,0.7c-0.5,0.8-0.3,1.7,0.3,2.3c-0.8-0.3-1.7-0.1-2.2,0.7
		c-0.5,0.8-0.3,1.7,0.3,2.3c-0.8-0.3-1.7-0.1-2.2,0.7c-0.5,0.8-0.3,1.7,0.3,2.3c-0.8-0.3-1.7-0.1-2.2,0.7c-0.5,0.8-0.3,1.7,0.3,2.3
		c-0.8-0.3-1.7-0.1-2.2,0.7c-0.5,0.8-0.3,1.7,0.3,2.3c-0.8-0.3-1.7-0.1-2.2,0.7c-0.5,0.8-0.3,1.7,0.3,2.3c-0.8-0.3-1.7-0.1-2.2,0.7
		c-0.5,0.8-0.3,1.7,0.3,2.3c-0.8-0.3-1.7-0.1-2.2,0.7c-0.5,0.8-0.3,1.7,0.3,2.3c-0.8-0.3-1.7-0.1-2.2,0.7c-0.5,0.8-0.3,1.7,0.3,2.3
		c-0.8-0.3-1.7-0.1-2.2,0.7c-0.5,0.8-0.3,1.7,0.3,2.3c-0.8-0.3-1.8-0.1-2.2,0.7c-0.5,0.8-0.3,1.7,0.3,2.3c-0.8-0.3-1.7-0.1-2.2,0.7
		c-0.5,0.8-0.3,1.7,0.3,2.3c-0.8-0.3-1.7-0.1-2.2,0.7c-0.5,0.8-0.3,1.7,0.3,2.3c-0.8-0.3-1.7-0.1-2.2,0.7c-0.5,0.8-0.3,1.7,0.3,2.3
		c-0.8-0.3-1.7-0.1-2.2,0.7c-0.5,0.8-0.3,1.7,0.3,2.3c-0.8-0.3-1.7-0.1-2.2,0.7c-0.5,0.8-0.3,1.7,0.3,2.3c-0.8-0.3-1.7-0.1-2.2,0.7
		c-0.5,0.8-0.3,1.7,0.3,2.3c-0.8-0.3-1.7-0.1-2.2,0.7c-0.5,0.8-0.3,1.7,0.3,2.3c-0.8-0.3-1.7-0.1-2.2,0.7c-0.5,0.8-0.3,1.7,0.3,2.3
		c-0.8-0.3-1.7-0.1-2.2,0.7c-0.5,0.8-0.3,1.7,0.3,2.3c-0.8-0.3-1.7-0.1-2.2,0.7c-0.5,0.8-0.3,1.7,0.3,2.3c-0.8-0.3-1.7-0.1-2.2,0.7
		c-0.5,0.8-0.3,1.7,0.3,2.3c-0.8-0.3-1.7-0.1-2.2,0.7c-0.5,0.8-0.3,1.7,0.3,2.3c-0.8-0.3-1.7-0.1-2.2,0.7c-0.5,0.8-0.3,1.7,0.3,2.3
		c-0.8-0.3-1.7-0.1-2.2,0.7c-0.5,0.8-0.3,2,0.5,2.5c0.3,0.2,0.6,0.3,1,0.3c0.6,0,1.2-0.3,1.5-0.8c0.5-0.8,0.3-1.7-0.3-2.3
		c0.8,0.3,1.7,0.1,2.2-0.7c0.5-0.8,0.3-1.7-0.3-2.3c0.8,0.3,1.7,0.1,2.2-0.7c0.5-0.8,0.3-1.7-0.3-2.3c0.8,0.3,1.7,0.1,2.2-0.7
		c0.5-0.8,0.3-1.7-0.3-2.3c0.8,0.3,1.7,0.1,2.2-0.7c0.5-0.8,0.3-1.7-0.3-2.3c0.8,0.3,1.8,0.1,2.2-0.7c0.5-0.8,0.3-1.7-0.3-2.3
		c0.8,0.3,1.8,0.1,2.2-0.7c0.5-0.8,0.3-1.7-0.3-2.3c0.8,0.3,1.7,0.1,2.2-0.7c0.5-0.8,0.3-1.7-0.3-2.3c0.8,0.3,1.8,0.1,2.2-0.7
		c0.5-0.8,0.3-1.7-0.3-2.3c0.8,0.3,1.7,0.1,2.2-0.7c0.5-0.8,0.3-1.7-0.3-2.3c0.8,0.3,1.7,0.1,2.2-0.7c0.5-0.8,0.3-1.7-0.3-2.3
		c0.8,0.3,1.7,0.1,2.2-0.7c0.5-0.8,0.3-1.7-0.3-2.3c0.8,0.3,1.7,0.1,2.2-0.7c0.5-0.8,0.3-1.7-0.3-2.3c0.8,0.3,1.7,0.1,2.2-0.7
		c0.5-0.8,0.3-1.7-0.3-2.3c0.8,0.3,1.7,0.1,2.2-0.7c0.5-0.8,0.3-1.7-0.3-2.3c0.8,0.3,1.7,0.1,2.2-0.7c0.5-0.8,0.3-1.7-0.3-2.3
		c0.8,0.3,1.7,0.1,2.2-0.7c0.5-0.8,0.3-1.7-0.3-2.3c0.8,0.3,1.7,0.1,2.2-0.7c0.5-0.8,0.3-1.7-0.3-2.3c0.8,0.3,1.7,0.1,2.2-0.7
		c0.5-0.8,0.3-1.7-0.3-2.3c0.8,0.3,1.7,0.1,2.2-0.7c0.5-0.8,0.3-1.7-0.3-2.3c0.8,0.3,1.7,0.1,2.2-0.7c0.5-0.8,0.3-1.7-0.3-2.3
		c0.8,0.3,1.7,0.1,2.2-0.7c0.5-0.8,0.3-1.7-0.3-2.3c0.8,0.3,1.7,0.1,2.2-0.7c0.5-0.8,0.3-1.7-0.3-2.3c0.8,0.3,1.7,0.1,2.2-0.7
		c0.5-0.8,0.3-1.7-0.3-2.3c0.4,0.2,0.8,0.2,1.2,0.1c0.3,0.4,0.8,0.7,1.4,0.7C281,105.8,281.5,105.6,281.8,105.1z M78.2,155.2
		c-0.2,0-0.3-0.1-0.5-0.1c-0.2,0-0.3,0-0.5,0.1c-0.1-0.1-0.2-0.2-0.2-0.3c0.2,0.1,0.5,0.2,0.8,0.2c0.3,0,0.5-0.1,0.8-0.2
		C78.3,155,78.2,155.1,78.2,155.2z M280.4,102.2c0.3,0,0.5-0.1,0.7-0.2c-0.1,0.1-0.2,0.2-0.2,0.2
		C280.7,102.2,280.6,102.2,280.4,102.2c-0.2,0-0.3,0-0.5,0.1c-0.1-0.1-0.1-0.2-0.2-0.2C279.9,102.2,280.1,102.2,280.4,102.2z"/>
	<path class="st2" d="M282.2,169c0-1-0.8-1.8-1.8-1.8c-1,0-1.8,0.8-1.8,1.8c0,1,0.8,1.8,1.8,1.8C281.4,170.8,282.2,170,282.2,169z"
		/>
	<path class="st2" d="M282.2,154.5c0-1-0.8-1.8-1.8-1.8c1,0,1.8-0.8,1.8-1.8c0-1-0.8-1.8-1.8-1.8c-1,0-1.8,0.8-1.8,1.8
		c0,1,0.8,1.8,1.8,1.8c-1,0-1.8,0.8-1.8,1.8c0,1,0.8,1.8,1.8,1.8C281.4,156.3,282.2,155.5,282.2,154.5z"/>
	<path class="st2" d="M282.2,158.1c0-1-0.8-1.8-1.8-1.8c-1,0-1.8,0.8-1.8,1.8c0,1,0.8,1.8,1.8,1.8
		C281.4,160,282.2,159.1,282.2,158.1z"/>
	<path class="st2" d="M282.2,161.8c0-1-0.8-1.8-1.8-1.8c-1,0-1.8,0.8-1.8,1.8c0,1,0.8,1.8,1.8,1.8
		C281.4,163.6,282.2,162.8,282.2,161.8z"/>
	<path class="st2" d="M282.2,172.6c0-1-0.8-1.8-1.8-1.8c-1,0-1.8,0.8-1.8,1.8c0,1,0.8,1.8,1.8,1.8
		C281.4,174.4,282.2,173.6,282.2,172.6z"/>
	<path class="st2" d="M282.2,129.3c0-1-0.8-1.8-1.8-1.8c-1,0-1.8,0.8-1.8,1.8c0,1,0.8,1.8,1.8,1.8
		C281.4,131.1,282.2,130.3,282.2,129.3z"/>
	<path class="st2" d="M282.2,165.4c0-1-0.8-1.8-1.8-1.8c-1,0-1.8,0.8-1.8,1.8c0,1,0.8,1.8,1.8,1.8
		C281.4,167.2,282.2,166.4,282.2,165.4z"/>
	<path class="st2" d="M282.2,140.1c0-1-0.8-1.8-1.8-1.8c-1,0-1.8,0.8-1.8,1.8c0,1,0.8,1.8,1.8,1.8
		C281.4,141.9,282.2,141.1,282.2,140.1z"/>
	<path class="st2" d="M282.2,147.3c0-1-0.8-1.8-1.8-1.8c-1,0-1.8,0.8-1.8,1.8c0,1,0.8,1.8,1.8,1.8
		C281.4,149.1,282.2,148.3,282.2,147.3z"/>
	<path class="st2" d="M282.2,136.5c0-1-0.8-1.8-1.8-1.8c1,0,1.8-0.8,1.8-1.8c0-1-0.8-1.8-1.8-1.8c-1,0-1.8,0.8-1.8,1.8
		c0,1,0.8,1.8,1.8,1.8c-1,0-1.8,0.8-1.8,1.8c0,1,0.8,1.8,1.8,1.8C281.4,138.3,282.2,137.5,282.2,136.5z"/>
	<path class="st2" d="M282.2,143.7c0-1-0.8-1.8-1.8-1.8c-1,0-1.8,0.8-1.8,1.8c0,1,0.8,1.8,1.8,1.8
		C281.4,145.5,282.2,144.7,282.2,143.7z"/>
	<path class="st2" d="M27.9,231.4C27.9,231.4,27.9,231.4,27.9,231.4L27.9,231.4c0,11.4,22.3,20.6,49.8,20.6
		c27.5,0,49.8-9.2,49.8-20.6h0c0,0,0,0,0,0c0-2-21.7-3.7-48.7-3.7c-0.3-0.2-0.7-0.4-1.1-0.4s-0.8,0.1-1.1,0.4
		C49.6,227.7,27.9,229.4,27.9,231.4z"/>
	<path class="st2" d="M75.9,207.4c0,1,0.8,1.8,1.8,1.8c1,0,1.8-0.8,1.8-1.8c0-1-0.8-1.8-1.8-1.8C76.7,205.6,75.9,206.4,75.9,207.4z"
		/>
	<path class="st2" d="M75.9,196.6c0,1,0.8,1.8,1.8,1.8c1,0,1.8-0.8,1.8-1.8c0-1-0.8-1.8-1.8-1.8C76.7,194.8,75.9,195.6,75.9,196.6z"
		/>
	<path class="st2" d="M75.9,203.8c0,1,0.8,1.8,1.8,1.8c1,0,1.8-0.8,1.8-1.8c0-1-0.8-1.8-1.8-1.8C76.7,202,75.9,202.8,75.9,203.8z"/>
	<path class="st2" d="M75.9,211.1c0,1,0.8,1.8,1.8,1.8c1,0,1.8-0.8,1.8-1.8c0-1-0.8-1.8-1.8-1.8C76.7,209.2,75.9,210.1,75.9,211.1z"
		/>
	<path class="st2" d="M75.9,200.2c0,1,0.8,1.8,1.8,1.8c1,0,1.8-0.8,1.8-1.8c0-1-0.8-1.8-1.8-1.8C76.7,198.4,75.9,199.2,75.9,200.2z"
		/>
	<path class="st2" d="M75.9,214.7c0,1,0.8,1.8,1.8,1.8c1,0,1.8-0.8,1.8-1.8c0-1-0.8-1.8-1.8-1.8C76.7,212.9,75.9,213.7,75.9,214.7z"
		/>
	<path class="st2" d="M75.9,225.5c0,1,0.8,1.8,1.8,1.8c1,0,1.8-0.8,1.8-1.8c0-1-0.8-1.8-1.8-1.8C76.7,223.7,75.9,224.5,75.9,225.5z"
		/>
	<path class="st2" d="M75.9,221.9c0,1,0.8,1.8,1.8,1.8c1,0,1.8-0.8,1.8-1.8c0-1-0.8-1.8-1.8-1.8C76.7,220.1,75.9,220.9,75.9,221.9z"
		/>
	<path class="st2" d="M75.9,218.3c0,1,0.8,1.8,1.8,1.8c1,0,1.8-0.8,1.8-1.8c0-1-0.8-1.8-1.8-1.8C76.7,216.5,75.9,217.3,75.9,218.3z"
		/>
	<path class="st2" d="M75.9,171.4c0,1,0.8,1.8,1.8,1.8c1,0,1.8-0.8,1.8-1.8c0-1-0.8-1.8-1.8-1.8C76.7,169.5,75.9,170.4,75.9,171.4z"
		/>
	<path class="st2" d="M75.9,193c0,1,0.8,1.8,1.8,1.8c1,0,1.8-0.8,1.8-1.8c0-1-0.8-1.8-1.8-1.8C76.7,191.2,75.9,192,75.9,193z"/>
	<path class="st2" d="M75.9,167.7c0,1,0.8,1.8,1.8,1.8c1,0,1.8-0.8,1.8-1.8c0-1-0.8-1.8-1.8-1.8C76.7,165.9,75.9,166.8,75.9,167.7z"
		/>
	<path class="st2" d="M75.9,160.5c0,1,0.8,1.8,1.8,1.8c1,0,1.8-0.8,1.8-1.8c0-1-0.8-1.8-1.8-1.8C76.7,158.7,75.9,159.5,75.9,160.5z"
		/>
	<path class="st2" d="M75.9,164.1c0,1,0.8,1.8,1.8,1.8c1,0,1.8-0.8,1.8-1.8c0-1-0.8-1.8-1.8-1.8C76.7,162.3,75.9,163.1,75.9,164.1z"
		/>
	<path class="st2" d="M75.9,175c0,1,0.8,1.8,1.8,1.8c1,0,1.8-0.8,1.8-1.8c0-1-0.8-1.8-1.8-1.8C76.7,173.2,75.9,174,75.9,175z"/>
	<path class="st2" d="M75.9,178.6c0,1,0.8,1.8,1.8,1.8c1,0,1.8-0.8,1.8-1.8c0-1-0.8-1.8-1.8-1.8C76.7,176.8,75.9,177.6,75.9,178.6z"
		/>
	<path class="st2" d="M75.9,189.4c0,1,0.8,1.8,1.8,1.8c1,0,1.8-0.8,1.8-1.8c0-1-0.8-1.8-1.8-1.8C76.7,187.6,75.9,188.4,75.9,189.4z"
		/>
	<path class="st2" d="M75.9,185.8c0,1,0.8,1.8,1.8,1.8c1,0,1.8-0.8,1.8-1.8c0-1-0.8-1.8-1.8-1.8C76.7,184,75.9,184.8,75.9,185.8z"/>
	<path class="st2" d="M75.9,182.2c0,1,0.8,1.8,1.8,1.8c1,0,1.8-0.8,1.8-1.8c0-1-0.8-1.8-1.8-1.8C76.7,180.4,75.9,181.2,75.9,182.2z"
		/>
</g>
</svg>
