<svg id="レイヤー_1" data-name="レイヤー 1" xmlns="http://www.w3.org/2000/svg" viewBox="0 0 1129.63 422.34"><defs><style>.cls-1,.cls-2,.cls-3,.cls-4,.cls-6{fill:none;}.cls-1{stroke:#000;stroke-width:5.67px;}.cls-1,.cls-3,.cls-6{stroke-miterlimit:10;}.cls-2,.cls-3,.cls-4,.cls-6{stroke:#fff;}.cls-2,.cls-4{stroke-linejoin:round;}.cls-2,.cls-3{stroke-width:14.17px;}.cls-4{stroke-width:11.34px;}.cls-5{fill:#231815;fill-rule:evenodd;}.cls-6{stroke-width:8.5px;}</style></defs><path d="M184.9,142.23c0-1,0-2.4.06-3.69a31.88,31.88,0,0,1-2.66,3.58c-.14.17-.22.26-.31.26s-.17-.09-.28-.29a4.1,4.1,0,0,0-.81-1.09,27.87,27.87,0,0,0,5.85-10,9.61,9.61,0,0,0,.45-1.91,11.56,11.56,0,0,1,1.71.65c.19.11.31.2.31.36a.43.43,0,0,1-.23.37c-.19.11-.33.42-.59,1.06-.53,1.4-1.12,2.77-1.79,4.12v14c0,3,.06,4.28.06,4.42s0,.22-.23.22h-1.37c-.19,0-.22,0-.22-.22s.05-1.43.05-4.42ZM206.35,133c0,.23,0,.25-.22.25l-2.38-.05v12.71c0,3,.05,4.26.05,5.24,0,1.14-.19,1.73-.75,2.12s-1.37.54-3.89.54c-.56,0-.56,0-.7-.56a4,4,0,0,0-.51-1.21,24.21,24.21,0,0,0,2.63.11c1.15,0,1.46-.16,1.46-1.12V133.22h-8.51c-2.8,0-3.75.05-3.89.05s-.23,0-.23-.25v-1.2c0-.2,0-.23.23-.23s1.09.06,3.89.06h8.71c2.8,0,3.75-.06,3.89-.06s.22,0,.22.23Zm-7.95,9.72c0,3.78.06,4.39.06,4.53s0,.23-.23.23h-1.17c-.2,0-.23,0-.23-.23V146H192v2.07c0,.19,0,.22-.22.22h-1.18c-.2,0-.22,0-.22-.22s0-.81,0-4.82v-2.32c0-2.27,0-2.94,0-3.11s0-.22.22-.22.73,0,2.55,0h2.57c1.85,0,2.38,0,2.55,0s.23,0,.23.22-.06.81-.06,2.52Zm-1.57-3.61H192v5.37h4.87Z"/><path d="M218.59,133.11a9.71,9.71,0,0,0,.25-2.69,11.61,11.61,0,0,1,2.18.75.42.42,0,0,1,.12.73,1.88,1.88,0,0,0-.48.93c-.42,1.37-.78,2.68-1.2,4.06a23.71,23.71,0,0,1,2.71-.2c2.44,0,3.64,1.23,3.64,4.51a23.22,23.22,0,0,1-1.54,9,3.35,3.35,0,0,1-3.19,2.21,7.34,7.34,0,0,1-2.86-.5.45.45,0,0,1-.33-.48,5.12,5.12,0,0,0-.34-1.68,8,8,0,0,0,3.25.79c.81,0,1.34-.28,1.88-1.46a21.12,21.12,0,0,0,1.26-7.87c0-2.18-.42-3-1.94-3a20.84,20.84,0,0,0-3,.3,75.43,75.43,0,0,1-5.71,13.25.35.35,0,0,1-.48.14,8.23,8.23,0,0,1-1.12-.76c-.17-.14-.14-.28,0-.45A59.31,59.31,0,0,0,217,138.85c-1.15.16-2.29.36-3.69.61a4.29,4.29,0,0,0-1.24.37c-.3.19-.56.19-.72-.14a10.48,10.48,0,0,1-.65-1.91,18.91,18.91,0,0,0,2.91-.14c1.54-.16,2.64-.33,4-.53C217.92,135.79,218.22,134.67,218.59,133.11Zm10.27,2.29a.38.38,0,0,1,.42.11,16,16,0,0,1,4.51,6.78c.06.2.09.34-.08.48a6.32,6.32,0,0,1-1.15.75c-.22.14-.42.11-.48-.17a15.56,15.56,0,0,0-4.48-7.08A12.88,12.88,0,0,1,228.86,135.4Z"/><path d="M252.27,148.2c0,.22-.05.31-.31.33a7.16,7.16,0,0,1-1.2.12c-.17,0-.25-.14-.25-.34,0-1.23,0-2.6,0-4-3.08,1.54-4.6,3-4.6,4.65s1.54,2.32,4.79,2.32a49.39,49.39,0,0,0,6.67-.56c.14,0,.25,0,.3.2a7.43,7.43,0,0,1,.17,1.37c0,.25-.11.36-.22.39a55.86,55.86,0,0,1-6.92.39c-3.92,0-6.47-1-6.47-4,0-2.35,1.54-4.26,6.19-6.53,0-1.9-.7-2.66-2.35-2.63a8,8,0,0,0-4.59,2.27c-1,.95-1.68,1.68-2.66,2.72-.17.19-.28.19-.42,0a8.47,8.47,0,0,1-1-1.09c-.09-.17-.11-.22.05-.39a30.56,30.56,0,0,0,6.5-7.79,50.21,50.21,0,0,1-5.21.06c-.22,0-.28-.08-.31-.28s-.14-1-.16-1.4a56.41,56.41,0,0,0,6.49,0,23.74,23.74,0,0,0,1-2.8,4.11,4.11,0,0,0,.22-1.51,8.56,8.56,0,0,1,2.1.62.34.34,0,0,1,.06.61,2.55,2.55,0,0,0-.5.79c-.34.7-.59,1.28-1,2.12a51.47,51.47,0,0,0,5.91-.92c.23-.06.28-.06.34.11,0,.4.14.79.17,1.23,0,.2-.06.28-.37.34-2.21.39-4.59.7-6.83.92a23.35,23.35,0,0,1-2.86,4.18l0,.05a6.08,6.08,0,0,1,3.5-1.2,3.24,3.24,0,0,1,3.53,3.27c1.37-.61,3-1.34,4.37-2a7.65,7.65,0,0,0,2.13-1.43A7,7,0,0,1,260,140c.22.43,0,.59-.28.65a7.14,7.14,0,0,0-1.54.45c-2.13.89-3.89,1.54-5.94,2.4Z"/><path d="M274.64,151.28a3.17,3.17,0,0,0-.86.36,27.35,27.35,0,0,1-6.75,2.49c-.53.12-.53.09-.79-.42a3.38,3.38,0,0,0-.78-1,22.8,22.8,0,0,0,7-2.15,3.22,3.22,0,0,0,.95-.76,8.25,8.25,0,0,1,1.23.79c.2.16.28.22.28.36A.36.36,0,0,1,274.64,151.28Zm14.23-17.22c0,1.34.05,1.71.05,1.85s0,.22-.22.22-1.15-.06-3.92-.06H270.84c-2.78,0-3.73.06-3.9.06s-.22,0-.22-.22.06-.51.06-1.85v-1.57c0-1.34-.06-1.74-.06-1.88s0-.22.22-.22,1.12.06,3.9.06h13.94c2.77,0,3.75-.06,3.92-.06s.22,0,.22.22-.05.54-.05,1.88Zm-15.32-2.3h-5.12v3h5.12Zm12.77,14.65c0,2,.06,2.8.06,3s0,.19-.23.19-1.15-.06-3.95-.06h-8.76c-2.77,0-3.75.06-3.92.06s-.22,0-.22-.19.05-.93.05-3v-5.49c0-2-.05-2.77-.05-2.94s0-.23.22-.23,1.15.06,3.92.06h8.76c2.8,0,3.78-.06,3.95-.06s.23,0,.23.23-.06.9-.06,2.94Zm-1.68-7.23H271v2.07h13.64Zm0,3.36H271v2.1h13.64Zm0,3.39H271v2.21h13.64Zm-4.4-14.17h-5.12v3h5.12ZM281.45,150c.25-.2.31-.14.45-.06a19.69,19.69,0,0,0,7.81,2.83,3.83,3.83,0,0,0-.67,1c-.23.53-.26.56-.79.45a25,25,0,0,1-7.61-3.28c-.17-.11-.14-.17.16-.42Zm5.77-18.23h-5.41v3h5.41Z"/><path d="M301.13,138a19.5,19.5,0,0,1,6.08-1.34c2.77,0,5.18,1.9,5.18,6.27a10,10,0,0,1-2.3,6.47,16.29,16.29,0,0,1-4.95,3.94c-.56.31-.76.26-1,0a3.59,3.59,0,0,0-1.4-.95,15,15,0,0,0,6-4.56,8.29,8.29,0,0,0,1.59-5.1c0-3.36-1.76-4.31-3.47-4.31a13.56,13.56,0,0,0-4.09,1,22.88,22.88,0,0,0-2.52,1.15c-.39.22-.61.42-.89.42s-.39-.23-.53-.45a12.76,12.76,0,0,1-.9-1.79A13.4,13.4,0,0,0,301.13,138Zm9.33-6.07c.22,0,.3.13.28.36a8.92,8.92,0,0,1-.34,1.31c-.08.23-.11.34-.31.31a32.28,32.28,0,0,1-7.64-2.1c-.09,0-.11-.14-.09-.39a9,9,0,0,1,.45-1.54A29.19,29.19,0,0,0,310.46,131.88Z"/><path d="M329.41,142.38c0,7,.06,8.14.06,8.28s0,.23-.23.23H328.1c-.2,0-.23,0-.23-.23v-1.4h-3.64v2.33c0,.19,0,.22-.22.22h-1.18c-.19,0-.22,0-.22-.22s.05-1.4.05-8.63v-5.51c0-5.13-.05-6.42-.05-6.55s0-.23.22-.23.65.06,2.24.06H327c1.6,0,2.08-.06,2.24-.06s.23,0,.23.23-.06,1.34-.06,5.65Zm-1.54-10.17h-3.64v6.86h3.64Zm0,8.32h-3.64v7.25h3.64Zm18.57-1.29c0,.2,0,.22-.23.22s-1.09-.05-3.86-.05h-8c-2.75,0-3.67.05-3.84.05s-.22,0-.22-.22v-1.15c0-.19,0-.22.22-.22s1.09,0,3.84,0H337V134.2h-1.74c-2.57,0-3.44.05-3.58.05s-.25,0-.25-.22v-1.12c0-.22,0-.25.25-.25s1,.05,3.58.05H337a18.73,18.73,0,0,0-.2-3.58,17.37,17.37,0,0,1,1.82.14c.2,0,.34.11.34.25a2.2,2.2,0,0,1-.14.51,10.16,10.16,0,0,0-.17,2.68h2.55c2.58,0,3.42-.05,3.58-.05s.23,0,.23.25V134c0,.2,0,.22-.23.22s-1-.05-3.58-.05h-2.55v3.72h3.7c2.77,0,3.69,0,3.86,0s.23,0,.23.22Zm-.34,5c0,.2,0,.23-.22.23s-1-.06-3.36-.06v3.81c0,1.26,0,2.46,0,3.58a2,2,0,0,1-.78,1.88c-.48.33-1.23.47-3.25.47-.53,0-.56,0-.7-.53a3.85,3.85,0,0,0-.56-1.26,24.77,24.77,0,0,0,2.63.11c.59,0,1-.25,1-1v-7h-6.32c-2.75,0-3.67.06-3.81.06s-.23,0-.23-.23v-1.15c0-.19,0-.19.23-.19s1.06,0,3.81,0h6.32v-.06a14.45,14.45,0,0,0-.19-3,12.27,12.27,0,0,1,1.79.2c.22,0,.36.14.36.22a1,1,0,0,1-.16.48,6,6,0,0,0-.14,2v.14c2.32,0,3.22,0,3.36,0s.22,0,.22.19ZM333.75,146c.23-.13.28-.16.45,0a16,16,0,0,1,2.77,3.39c.11.16.09.25-.14.41l-.75.51c-.28.19-.37.25-.48,0a16.45,16.45,0,0,0-2.69-3.5c-.17-.16-.11-.25.17-.41Z"/><path d="M270.16,188.32v20.06h6.7v0l-13.05,14.93-13.05-14.93v0h6.7V188.32Z"/><path d="M205,267.44c0,.2,0,.23-.23.23s-.72-.06-2.68-.06H202v5.74c.95-.47,1.93-1,3-1.65a4.71,4.71,0,0,0,0,1.12c.08.56.06.56-.45.84-.84.45-1.68.9-2.57,1.34v5.1c0,3.33,0,4.82,0,5s0,.19-.22.19H200.5c-.2,0-.22,0-.22-.19s.05-1.63.05-4.93v-4.34c-.81.36-1.62.75-2.49,1.12a3.17,3.17,0,0,0-1,.56.71.71,0,0,1-.39.22.32.32,0,0,1-.31-.22,12.15,12.15,0,0,1-.7-1.6,19.55,19.55,0,0,0,2.49-.78c.78-.31,1.57-.62,2.35-.95v-6.53H197.9a24.06,24.06,0,0,1-.82,3.61c-.08.31-.11.42-.22.42a1.15,1.15,0,0,1-.45-.16,5.44,5.44,0,0,0-1-.28,24,24,0,0,0,1.4-7.26,7.34,7.34,0,0,0,0-1.56c.47.05,1.09.14,1.51.22.25.06.33.17.33.25a.65.65,0,0,1-.11.37,2.45,2.45,0,0,0-.17.75l-.22,2.16h2.21v-2.27a23.5,23.5,0,0,0-.19-3.84,17.64,17.64,0,0,1,1.79.14c.19,0,.31.12.31.26a2,2,0,0,1-.12.5,12.25,12.25,0,0,0-.16,2.88v2.33h.14c2,0,2.54-.06,2.68-.06s.23,0,.23.2Zm11-1.84c2.35,0,3.11-.06,3.25-.06s.28.08.28.28c0,.64-.06,1.29-.06,1.9a82.77,82.77,0,0,1-.89,12.94c-.45,2.77-1.35,4.26-3.59,4.26-.64,0-1.59-.06-2.49-.14-.53-.06-.53-.06-.64-.65a5,5,0,0,0-.42-1.26,18.2,18.2,0,0,0,3.3.34c1.43,0,2-1.26,2.24-3.08a84.13,84.13,0,0,0,.9-13.08h-1.46c-1.85,7.84-4.7,12.74-10,16.63a1.1,1.1,0,0,1-.42.23c-.12,0-.23-.11-.4-.34a3.2,3.2,0,0,0-1-.84c5.46-3.69,8.54-8.45,10.17-15.68h-2.72c-1.46,4.93-3.36,7.67-6.41,10.22-.2.17-.31.25-.39.25s-.23-.11-.4-.3a2.84,2.84,0,0,0-.95-.76,16.45,16.45,0,0,0,6.53-9.41h-2.58a23.34,23.34,0,0,1-2.32,3.25c-.2.22-.28.34-.4.34s-.19-.09-.39-.28a2.62,2.62,0,0,0-.89-.62,18.78,18.78,0,0,0,4.39-7.39,10.52,10.52,0,0,0,.51-2.35c.64.11,1.09.22,1.62.36.2.06.31.14.31.28a.7.7,0,0,1-.23.45,5.06,5.06,0,0,0-.56,1.31,25.11,25.11,0,0,1-1.28,3.2Z"/><path d="M228.78,277.41a34.66,34.66,0,0,0,3.5-1.76,5.93,5.93,0,0,0-.08,1.06c0,.59,0,.59-.45.87a52.2,52.2,0,0,1-6.25,2.91,6.36,6.36,0,0,0-1,.45.7.7,0,0,1-.37.17c-.08,0-.19-.06-.28-.25a11.63,11.63,0,0,1-.5-1.6,13.41,13.41,0,0,0,2.57-.7l1.21-.45v-7h-.45c-1.82,0-2.35.06-2.49.06s-.23,0-.23-.23v-1.17c0-.2,0-.23.23-.23s.67.06,2.49.06h.45v-6h-.65c-2,0-2.54.05-2.71.05s-.2,0-.2-.22v-1.2c0-.2,0-.23.2-.23s.75.06,2.71.06h2.86c2,0,2.55-.06,2.69-.06s.22,0,.22.23v1.2c0,.2,0,.22-.22.22s-.7-.05-2.69-.05h-.56v6h.31c1.82,0,2.35-.06,2.52-.06s.19,0,.19.23v1.17c0,.2,0,.23-.19.23s-.7-.06-2.52-.06h-.31Zm20,6.11c0,.19,0,.22-.19.22s-1.12-.06-4-.06H234.32c-2.85,0-3.83.06-4,.06s-.23,0-.23-.22v-1.24c0-.19,0-.22.23-.22s1.12.06,4,.06h4.79v-3.64H237c-2.64,0-3.5,0-3.67,0s-.23,0-.23-.22V277.1c0-.19,0-.22.23-.22s1,.06,3.67.06h2.15v-3.2H237c-2.61,0-3.53.06-3.67.06s-.25,0-.25-.2.05-1,.05-3.08v-5.65c0-2.1-.05-2.86-.05-3s0-.22.25-.22,1.06.06,3.67.06h6.21c2.61,0,3.5-.06,3.67-.06s.22,0,.22.22-.05.93-.05,3v5.65c0,2.13.05,2.92.05,3.08s0,.2-.22.2-1.06-.06-3.67-.06h-2.43v3.2h2.6c2.63,0,3.5-.06,3.67-.06s.22,0,.22.22v1.21c0,.19,0,.22-.22.22s-1,0-3.67,0h-2.6v3.64h3.83c2.86,0,3.84-.06,4-.06s.19,0,.19.22Zm-9.63-20.39h-4.42v3.81h4.42Zm0,5.21h-4.42v4h4.42Zm6.27-5.21h-4.64v3.81h4.64Zm0,5.21h-4.64v4h4.64Z"/><path d="M261.18,275.56c0,6.53.05,7.59.05,7.76s0,.22-.22.22H259.8c-.19,0-.22,0-.22-.22v-1.6H254.2v2.22c0,.19,0,.22-.22.22h-1.2c-.2,0-.23,0-.23-.22s.06-1.29.06-8v-4.79c0-4.79-.06-5.93-.06-6.1s0-.23.23-.23.75.06,2.46.06a29.61,29.61,0,0,0,1-3.25,6.25,6.25,0,0,0,.19-1.62,10.79,10.79,0,0,1,1.82.42c.2.05.31.17.31.31s-.06.22-.2.36a1.85,1.85,0,0,0-.44.81c-.26.73-.68,1.93-1.1,3h1.43c2,0,2.58-.06,2.72-.06s.22,0,.22.23-.05,1.26-.05,5.4Zm-1.6-9.26H254.2v6h5.38Zm0,7.53H254.2v6.41h5.38ZM272.24,265c2.21,0,2.91-.06,3.05-.06s.25.06.25.25c-.06.7-.06,1.4-.06,2.1a82.91,82.91,0,0,1-.89,13.67c-.45,2.71-1.29,4.2-3.47,4.23-.79,0-1.77-.06-2.66-.14-.51-.06-.51-.06-.62-.65a4.52,4.52,0,0,0-.48-1.29,18,18,0,0,0,3.64.37c1.18,0,1.66-1.35,2-3.14a87.22,87.22,0,0,0,.82-13.8h-8.21a29.55,29.55,0,0,1-2.24,3.75c-.17.22-.25.34-.36.34s-.23-.09-.42-.28a3.92,3.92,0,0,0-.93-.68,23.81,23.81,0,0,0,3.95-7.25,10.2,10.2,0,0,0,.53-2.49,13.47,13.47,0,0,1,1.74.5c.22.09.42.23.42.37s-.06.28-.31.5a4.57,4.57,0,0,0-.64,1.32c-.31.78-.65,1.57-1,2.38Zm-6.36,5.82c.22-.17.28-.17.39,0A21.75,21.75,0,0,1,270,276c.11.23.08.28-.23.48l-.81.59c-.28.16-.33.19-.42,0A21.43,21.43,0,0,0,265,271.7c-.14-.17-.11-.2.2-.42Z"/><path d="M286.8,266.94a16.66,16.66,0,0,0,6.27,6.64,3.19,3.19,0,0,0-.79,1.06c-.11.25-.19.36-.3.36s-.23-.08-.4-.22A20,20,0,0,1,286,268.4a22.76,22.76,0,0,1-4,5.48c.28,0,1,.06,2.58.06h2.8c1.93,0,2.55-.06,2.69-.06s.22,0,.22.2-.05.81-.05,2.41v2.15c0,3.53.05,4.09.05,4.23s0,.23-.22.23h-1.21c-.19,0-.22,0-.22-.23v-.61h-5.35v1.59c0,.2,0,.23-.22.23h-1.21c-.16,0-.19,0-.19-.23s0-.75,0-4.65v-2.12c0-1.8,0-2.55,0-2.86a20.09,20.09,0,0,1-1.68,1.51c-.17.14-.28.23-.37.23s-.19-.14-.33-.4a3,3,0,0,0-.7-.95,18,18,0,0,0,6-6.94,4.76,4.76,0,0,0,.53-1.68c.62.08,1.26.19,1.63.28s.36.14.36.28a.3.3,0,0,1-.17.28Zm-2-4.7a3.41,3.41,0,0,0-.59.84,21,21,0,0,1-3.75,4.56c-.2.14-.31.22-.39.22s-.2-.11-.34-.33a2.77,2.77,0,0,0-.73-.9,15.37,15.37,0,0,0,3.67-4,5.42,5.42,0,0,0,.7-1.71,8.12,8.12,0,0,1,1.43.67c.17.12.25.2.25.34S285,262.12,284.78,262.24Zm3.92,13.18h-5.35v5.35h5.35Zm-.62-14.36c.28-.17.31-.17.45,0a13.41,13.41,0,0,0,4,4.34,3.59,3.59,0,0,0-.84.89c-.14.23-.22.34-.34.34s-.19-.08-.39-.25a15.89,15.89,0,0,1-3.61-4.57c-.08-.16-.06-.22.22-.42Zm16.08,23.38c-.17.25-.23.39-.34.39s-.2-.08-.36-.25a19.36,19.36,0,0,1-6-10.3,14.92,14.92,0,0,1-6,10.58c-.2.14-.31.22-.39.22s-.2-.11-.4-.36a3,3,0,0,0-1-.84c4.93-2.74,6.64-8.4,6.61-13a20.79,20.79,0,0,0-.11-2.94,12.21,12.21,0,0,1,1.73.19c.26.06.34.14.34.26a1,1,0,0,1-.14.5,4.22,4.22,0,0,0-.22,1.85c1,5.74,3.44,9.94,7.19,12.63A3.43,3.43,0,0,0,304.16,284.44Zm-1.77-19.8a1.24,1.24,0,0,0,.56-.08.83.83,0,0,1,.28-.08c.17,0,.34.08.76.5s.5.56.5.7-.08.22-.19.34a1.22,1.22,0,0,0-.4.7,38.08,38.08,0,0,1-2.24,5.12c-.11.25-.19.36-.28.36A.88.88,0,0,1,301,272a4,4,0,0,0-1.06-.5,21.28,21.28,0,0,0,2.46-5.32h-7.05a22.57,22.57,0,0,1-2.24,4.25c-.17.26-.25.37-.37.37a1,1,0,0,1-.42-.25,3,3,0,0,0-1-.54,19.73,19.73,0,0,0,3.75-8.23,13.61,13.61,0,0,0,.28-1.93,14.16,14.16,0,0,1,1.68.36c.22.06.34.2.34.31a.58.58,0,0,1-.23.42,2.84,2.84,0,0,0-.45,1.09c-.25.93-.5,1.8-.78,2.66Z"/><path d="M320.82,267.16a26.16,26.16,0,0,0,2.8,6.33,25.06,25.06,0,0,0,3.61-3.72,4.82,4.82,0,0,0,.75-1.29,6.78,6.78,0,0,1,1.43,1c.2.17.23.25.23.39s-.14.25-.31.36a4.7,4.7,0,0,0-1.29,1.15,31.59,31.59,0,0,1-3.58,3.39,22.51,22.51,0,0,0,7.78,6.61,3.73,3.73,0,0,0-1,1.09c-.17.25-.22.36-.36.36s-.2-.08-.4-.19a22.29,22.29,0,0,1-10.05-13c.09,4.56.2,8.88.2,12.8a2.14,2.14,0,0,1-1,2.12c-.56.28-1.23.42-3.39.45-.53,0-.53,0-.67-.56a3.56,3.56,0,0,0-.65-1.29c.68.06,1.4.12,2,.12,1.46,0,1.9-.2,1.9-1.35V267.16h-7.05c-2.66,0-3.56.06-3.7.06s-.22,0-.22-.22v-1.24c0-.19,0-.22.22-.22s1,.06,3.7.06h7.05v-2.13a17.3,17.3,0,0,0-.19-3.36,16.84,16.84,0,0,1,1.87.17c.2,0,.31.11.31.22a1.35,1.35,0,0,1-.14.59,10.43,10.43,0,0,0-.14,2.35v2.16h7.2c2.69,0,3.55-.06,3.72-.06s.23,0,.23.22V267c0,.19,0,.22-.23.22s-1-.06-3.72-.06ZM317,277.08A58.16,58.16,0,0,1,310.6,281a4.38,4.38,0,0,0-1,.62.59.59,0,0,1-.37.22c-.11,0-.22-.11-.33-.28a13.23,13.23,0,0,1-.76-1.51,12.6,12.6,0,0,0,2-.84,51.61,51.61,0,0,0,7.06-4.2,6,6,0,0,0,.11,1.15C317.48,276.74,317.48,276.74,317,277.08Zm-5.58-8.1c.23-.19.28-.19.42-.11a18.15,18.15,0,0,1,3.53,3.73c.11.14.14.19-.08.42l-.73.7c-.31.28-.36.33-.48.14a15.08,15.08,0,0,0-3.41-3.84c-.2-.17-.17-.2.14-.45Zm13.3-8.23c.2-.17.23-.17.42-.05a18.3,18.3,0,0,1,3.5,2.71c.12.11.12.23-.19.48l-.53.47c-.31.28-.4.34-.56.14a14.9,14.9,0,0,0-3.31-2.8c-.19-.14-.19-.19.09-.44Z"/><path d="M242.82,29h8.29c2.82,0,5.76,0,8.18-.16.35,0,.43.12.43.48a13.82,13.82,0,0,1,0,1.82c0,.44-.12.48-.55.48-2.58-.08-5.4-.12-8.06-.12h-8.29v7.3c0,1.51.55,2.11,1.35,2.46a10.49,10.49,0,0,0,4.2.56c2.38,0,5-.28,7.35-.48.31,0,.35.08.39.4s.08,1.15.08,1.83c0,.43-.12.51-.51.55-2.19.2-4.81.32-7.62.32a14.4,14.4,0,0,1-5.48-.79C241,43,240,41.79,240,39.29V31.47h-3.18c-3,0-5.59.08-7.93.2-.48,0-.56-.12-.64-.6s-.16-1.54-.2-2.26c2.74.16,5.56.2,8.81.2H240V21.23c-3.22,0-5.28,0-7.34.16-.44,0-.56-.12-.6-.56,0-.75-.12-1.58-.12-2.3q3.57.24,7.86.24h7.5c2.74,0,5,0,7.34-.12.44,0,.52.12.52.52s0,1.11,0,1.58-.12.56-.6.56c-2.46,0-4.84-.08-7.3-.08h-4.52Z"/><path d="M293.38,18.49a.66.66,0,0,1,.15,1,10.36,10.36,0,0,0-1.78,2.93,65,65,0,0,1-6.91,11.75A49,49,0,0,1,272.9,45.36a.74.74,0,0,1-1,0,8.09,8.09,0,0,0-2.34-1.11,46.8,46.8,0,0,0,12.82-11.59,51.66,51.66,0,0,0,6.35-11A17.15,17.15,0,0,0,290,16.83,18,18,0,0,1,293.38,18.49Z"/><path class="cls-1" d="M235,69.1C147.3,69.88,68,86.6,46.74,120.81S10.64,225.38,31.59,269.3c36,75.43,234,82.57,306.71,77.25,166.6-12.2,194.37-85.43,175.28-154.17S449.23,67.18,235,69.1Z"/><path class="cls-2" d="M41.72,384.43a1.61,1.61,0,0,0,1.61,1.6H77.2V337.61H41.72Z"/><path class="cls-2" d="M86.45,386h33.88a1.6,1.6,0,0,0,1.6-1.6V337.61H86.45Z"/><path class="cls-2" d="M66.89,289.34l8-4.63,9.61,16.65,34.81-20.1a1.6,1.6,0,0,0,.59-2.19l-10.4-18a1.61,1.61,0,0,0-2.2-.58l-23,13.28c4.34-4.39,9-10.54,9.34-16.91.55-10.55-5.32-15.91-11-17.4-7.57-2-15.73,1.91-19.41,9.28-3.45,6.91-1.45,13.65.31,19.61,1,3.35,1.88,6.36,1.65,8.85-2.27-1-4.43-3.32-6.84-5.86-4.28-4.5-9.12-9.6-16.83-10.06-8.22-.5-15.69,4.61-17.74,12.16-1.55,5.66.16,13.42,9.58,18.22a19.56,19.56,0,0,0,8.88,1.86A41.88,41.88,0,0,0,52.69,292l-23,13.29a1.61,1.61,0,0,0-.59,2.19l10.41,18a1.6,1.6,0,0,0,2.19.59L76.5,306Zm2.51-37.56a10.58,10.58,0,0,1,9.37-6,8.26,8.26,0,0,1,2.14.27c4,1.06,6.17,4.85,5.88,10.41-.2,3.75-3.28,8.62-8.68,13.71a59.76,59.76,0,0,1-6,5,42.21,42.21,0,0,0-1.93-8.79C68.61,261.17,67.16,256.27,69.4,251.78ZM36.5,285.51c-5-2.53-7.17-6.28-6.07-10.29a10.3,10.3,0,0,1,10-7.14l.71,0c5,.31,8.52,4,12.26,7.94A41.23,41.23,0,0,0,60,282.11a58.63,58.63,0,0,1-7.32,2.74C45.6,287,39.85,287.22,36.5,285.51Z"/><polygon class="cls-2" points="141.77 314.83 134.13 319.04 127.31 313.59 128.95 322.16 121.67 326.96 130.32 328.05 132.63 336.46 136.34 328.57 145.06 328.96 138.69 323 141.77 314.83"/><polygon class="cls-2" points="150.94 281.75 140.6 282.94 135.54 273.84 133.47 284.04 123.26 286.04 132.32 291.16 131.06 301.5 138.74 294.46 148.18 298.85 143.85 289.38 150.94 281.75"/><polygon class="cls-2" points="89.44 326.79 93.93 330.74 93.08 324.82 98.22 321.77 92.33 320.74 91.02 314.91 88.22 320.2 82.27 319.65 86.44 323.94 84.07 329.43 89.44 326.79"/><polygon class="cls-2" points="114.42 306.37 113.82 299.46 109.78 305.1 103.02 303.53 107.14 309.12 103.56 315.06 110.14 312.87 114.69 318.12 114.64 311.18 121.03 308.47 114.42 306.37"/><path d="M41.72,384.43a1.61,1.61,0,0,0,1.61,1.6H77.2V337.61H41.72Z"/><path d="M86.45,386h33.88a1.6,1.6,0,0,0,1.6-1.6V337.61H86.45Z"/><path d="M66.89,289.34l8-4.63,9.61,16.65,34.81-20.1a1.6,1.6,0,0,0,.59-2.19l-10.4-18a1.61,1.61,0,0,0-2.2-.58l-23,13.28c4.34-4.39,9-10.54,9.34-16.91.55-10.55-5.32-15.91-11-17.4-7.57-2-15.73,1.91-19.41,9.28-3.45,6.91-1.45,13.65.31,19.61,1,3.35,1.88,6.36,1.65,8.85-2.27-1-4.43-3.32-6.84-5.86-4.28-4.5-9.12-9.6-16.83-10.06-8.22-.5-15.69,4.61-17.74,12.16-1.55,5.66.16,13.42,9.58,18.22a19.56,19.56,0,0,0,8.88,1.86A41.88,41.88,0,0,0,52.69,292l-23,13.29a1.61,1.61,0,0,0-.59,2.19l10.41,18a1.6,1.6,0,0,0,2.19.59L76.5,306Zm2.51-37.56a10.58,10.58,0,0,1,9.37-6,8.26,8.26,0,0,1,2.14.27c4,1.06,6.17,4.85,5.88,10.41-.2,3.75-3.28,8.62-8.68,13.71a59.76,59.76,0,0,1-6,5,42.21,42.21,0,0,0-1.93-8.79C68.61,261.17,67.16,256.27,69.4,251.78ZM36.5,285.51c-5-2.53-7.17-6.28-6.07-10.29a10.3,10.3,0,0,1,10-7.14l.71,0c5,.31,8.52,4,12.26,7.94A41.23,41.23,0,0,0,60,282.11a58.63,58.63,0,0,1-7.32,2.74C45.6,287,39.85,287.22,36.5,285.51Z"/><polygon points="141.77 314.83 134.13 319.04 127.31 313.59 128.95 322.16 121.67 326.96 130.32 328.05 132.63 336.46 136.34 328.57 145.06 328.96 138.69 323 141.77 314.83"/><polygon points="150.94 281.75 140.6 282.94 135.54 273.84 133.47 284.04 123.26 286.04 132.32 291.16 131.06 301.5 138.74 294.46 148.18 298.85 143.85 289.38 150.94 281.75"/><polygon points="89.44 326.79 93.93 330.74 93.08 324.82 98.22 321.77 92.33 320.74 91.02 314.91 88.22 320.2 82.27 319.65 86.44 323.94 84.07 329.43 89.44 326.79"/><polygon points="114.42 306.37 113.82 299.46 109.78 305.1 103.02 303.53 107.14 309.12 103.56 315.06 110.14 312.87 114.69 318.12 114.64 311.18 121.03 308.47 114.42 306.37"/><path d="M771.56,206.15v20.06h6.7v0l-13,14.92-13.05-14.92v0h6.7V206.15Z"/><path d="M671.91,143.53c0,1.68,0,3.27.08,5.07,0,.25,0,.33-.28.33a14.59,14.59,0,0,1-1.62,0c-.23,0-.28-.08-.28-.33.05-1.68.11-3.36.11-5v-8.29a52.94,52.94,0,0,1-8.79,6.33.49.49,0,0,1-.65-.11,5.11,5.11,0,0,0-1.4-.9,51.38,51.38,0,0,0,8.71-5.9,46.15,46.15,0,0,0,5.43-5.41,8.91,8.91,0,0,0,1.94-3.16,8.59,8.59,0,0,1,1.93,1.26.45.45,0,0,1-.11.78,6.61,6.61,0,0,0-1.57,1.49c-1.18,1.42-2.19,2.54-3.5,3.86Z"/><path d="M689,137.14c1-1,2.46-2.49,4-4,.68-.67,1.07-.89,1.66-.89a2.42,2.42,0,0,1,1.7.75,107.09,107.09,0,0,0,12.86,9.19.34.34,0,0,1,.16.53,9,9,0,0,1-.86,1.4.31.31,0,0,1-.51.08c-4.45-3-8.73-6.24-12.68-9.52a1,1,0,0,0-.56-.31.7.7,0,0,0-.53.26c-1.26,1.26-2.8,2.88-4.71,4.92a10.07,10.07,0,0,0-1.2,1.52.39.39,0,0,1-.65.11,15.61,15.61,0,0,1-1.62-1.49A20.06,20.06,0,0,0,689,137.14ZM701.81,130a.23.23,0,0,1,.34,0,13.34,13.34,0,0,1,3.16,3.39.19.19,0,0,1,0,.3l-.82.68a.22.22,0,0,1-.36-.06,12,12,0,0,0-3.25-3.58Zm2.38-1.85c.11-.08.2-.11.31,0a16,16,0,0,1,3.19,3.28c.09.14.06.22-.08.33l-.76.68c-.11.11-.22.11-.33-.06a13.45,13.45,0,0,0-3.22-3.5Z"/><path d="M717.27,129.39a.33.33,0,0,1,.5-.06,25.78,25.78,0,0,1,5,3.73c.2.19.23.3.09.53a11.45,11.45,0,0,1-1,1.2c-.16.2-.25.23-.44,0a29.41,29.41,0,0,0-5.32-4.14C716.54,130.23,717,129.72,717.27,129.39Zm2.52,14.84a47.77,47.77,0,0,0,8.09-5.21,43.76,43.76,0,0,0,7.56-7.53,8.23,8.23,0,0,0,.48,1.85c.16.36.14.58-.2,1a52.43,52.43,0,0,1-6.8,6.44,59,59,0,0,1-8.4,5.46,9.21,9.21,0,0,0-1.54,1.09.46.46,0,0,1-.76,0,10.79,10.79,0,0,1-1.37-1.9A16.16,16.16,0,0,0,719.79,144.23Z"/><path d="M752.1,134.51a39.85,39.85,0,0,1,9.13,3.89c.22.12.28.26.19.45a7.61,7.61,0,0,1-.67,1.37c-.17.23-.28.28-.53.12a31,31,0,0,0-8.15-3.76v6.5c0,1.71.06,3.89.09,5.71,0,.28-.06.37-.37.37s-1,0-1.43,0-.39-.09-.39-.4c.09-1.79.11-4,.11-5.68V130.62a24.37,24.37,0,0,0-.3-4.48,11.8,11.8,0,0,1,2.32.36c.45.12.34.42.2.84a11.58,11.58,0,0,0-.2,3.11Z"/><path d="M782.48,130.45c.25,0,.34,0,.36.17a11.58,11.58,0,0,1,.14,1.2c0,.26,0,.31-.25.34-1.51.31-3,.56-4.67.81a67.55,67.55,0,0,1-5.63,11.82c-.14.22-.28.19-.45.08a6.39,6.39,0,0,1-1.12-.84c-.17-.14-.17-.25,0-.47a49.33,49.33,0,0,0,5.27-10.42c-1.21.11-2.33.2-3.53.2a14.43,14.43,0,0,1-1.49-.06c-.25,0-.28-.06-.33-.34a8.11,8.11,0,0,1-.17-1.4,22.11,22.11,0,0,0,2.21.12,36,36,0,0,0,3.81-.23,33.18,33.18,0,0,0,.84-3.27,8.19,8.19,0,0,0,.22-2.19,12,12,0,0,1,2.19.56.32.32,0,0,1,.25.31.6.6,0,0,1-.22.42,2.52,2.52,0,0,0-.4.87c-.3,1-.61,2-.89,3A37.93,37.93,0,0,0,782.48,130.45Zm1.71,6.78a8.65,8.65,0,0,0-.17-1.79,8.23,8.23,0,0,1,1.9.36c.2.06.31.17.31.34a1.29,1.29,0,0,1-.17.5A4.43,4.43,0,0,0,786,138a46.19,46.19,0,0,0,.34,5.15,24.19,24.19,0,0,1,5.29,2.8c.22.14.2.22.11.45a10,10,0,0,1-.67,1.23c-.14.19-.28.17-.45,0a16.91,16.91,0,0,0-4.25-2.66c0,2.82-1.4,4.36-5,4.36-2.12,0-4.34-1.09-4.34-3.41,0-2.1,2-3.53,4.76-3.53a13.56,13.56,0,0,1,2.8.34C784.36,141,784.22,138.74,784.19,137.23Zm-2.38,6.69c-2.24,0-3.25.87-3.25,1.9,0,1.29,1,1.88,2.88,1.88,2.3,0,3.14-1.2,3.14-2.63a3.49,3.49,0,0,0,0-.67A9.29,9.29,0,0,0,781.81,143.92Zm4.76-12.54c.14-.23.22-.26.47-.17a19.71,19.71,0,0,1,5.49,2.63c.2.17.2.28.06.5a6.44,6.44,0,0,1-.65,1.12c-.14.2-.22.17-.39.06a18.9,18.9,0,0,0-5.71-2.86C786.12,132.19,786.34,131.71,786.57,131.38Z"/><path d="M806.73,127.2a.41.41,0,0,1,.33.37c0,.28-.14.53-.14,1,0,.61.09,1.17.17,1.79a37.86,37.86,0,0,0,1.09,5.66c1.66-.82,3.34-1.6,5-2.52a4.67,4.67,0,0,0,1.62-1.29,11.18,11.18,0,0,1,1.43,1.57c.22.33.17.72-.34.78a10.2,10.2,0,0,0-2.46.9c-2,.95-4.45,2.1-6.36,3.19-2.82,1.65-4.14,3.11-4.14,5.07,0,2.49,2.35,3.1,6.58,3.08a54,54,0,0,0,7.2-.59c.25,0,.33,0,.39.25a13.56,13.56,0,0,1,.17,1.46c0,.25-.09.36-.4.39a62.63,62.63,0,0,1-7.44.39c-4.85,0-8.35-1.06-8.35-4.9,0-2.69,1.91-4.76,5.46-6.92a50.76,50.76,0,0,1-1.48-7.16,10.34,10.34,0,0,0-.62-2.75A13,13,0,0,1,806.73,127.2Zm9.35.12c.11-.09.2-.06.31,0a13.69,13.69,0,0,1,3.16,3.39.2.2,0,0,1,0,.31l-.82.67a.22.22,0,0,1-.36-.05,12,12,0,0,0-3.25-3.59Zm2.35-1.82c.11-.09.2-.12.31,0a16.21,16.21,0,0,1,3.19,3.27c.09.14.06.23-.08.34l-.76.67c-.11.11-.22.11-.33-.05a13.45,13.45,0,0,0-3.22-3.5Z"/><path d="M838.54,130.65a31.37,31.37,0,0,1-3.7,12.23c-1.2,2.05-2.46,2.89-4.12,2.89-2.1,0-4.08-2.3-4.08-6.36a10.17,10.17,0,0,1,3.24-7.25,12,12,0,0,1,8.4-3.11c6.28,0,10,3.67,10,9,0,4.56-2.83,8.23-8.9,9.77a.55.55,0,0,1-.73-.31,3.2,3.2,0,0,0-1.09-1c5.54-1.1,8.73-4.09,8.73-8.77a7,7,0,0,0-7.22-7.08Zm-7.42,2.69a8.64,8.64,0,0,0-2.69,6c0,3.06,1.26,4.37,2.27,4.37s1.79-.61,2.6-2a29.8,29.8,0,0,0,3.28-11A9.37,9.37,0,0,0,831.12,133.34Z"/><path d="M729.9,175.75c0-1.07,0-2.66.05-4a29.06,29.06,0,0,1-2.6,3.53c-.17.2-.25.31-.34.31s-.14-.11-.22-.28a3.71,3.71,0,0,0-.67-1.12,28,28,0,0,0,5.57-9.91,9.36,9.36,0,0,0,.42-1.88,11.1,11.1,0,0,1,1.68.59c.19.08.28.19.28.33s-.11.26-.25.4a3.24,3.24,0,0,0-.54,1c-.53,1.46-1.12,2.83-1.76,4.17V183c0,3,.06,4.25.06,4.39s0,.23-.2.23h-1.32c-.19,0-.22,0-.22-.23s.06-1.43.06-4.39Zm21.72,10.19c0,.19,0,.22-.22.22s-1,0-3.7,0H737.37v1.34c0,.2,0,.22-.22.22H736c-.19,0-.22,0-.22-.22s0-.95,0-3.11v-6.52c0-.73,0-1.46,0-2.21a21.57,21.57,0,0,1-2.15,2.43c-.2.17-.31.25-.42.25s-.17-.08-.28-.25a3,3,0,0,0-.76-.78,19.83,19.83,0,0,0,4.37-5.57,7.39,7.39,0,0,0,.75-2,10.21,10.21,0,0,1,1.52.53c.19.08.28.2.28.31s-.14.25-.28.36a5.19,5.19,0,0,0-.9,1.32l-.42.75h5.07a13.34,13.34,0,0,0,.87-1.73,7.59,7.59,0,0,0,.42-1.46,15.59,15.59,0,0,1,1.51.42c.19.09.31.2.31.28a.43.43,0,0,1-.2.37,1.24,1.24,0,0,0-.45.56,15.93,15.93,0,0,1-.81,1.56h3c2.57,0,3.44-.05,3.58-.05s.22,0,.22.22v1c0,.2,0,.23-.22.23s-1-.06-3.58-.06h-3.08v2.58h2.21c2.52,0,3.36,0,3.5,0s.22,0,.22.19v1c0,.19,0,.22-.22.22s-1-.06-3.5-.06h-2.21v2.58h2.21c2.52,0,3.39-.06,3.53-.06s.22,0,.22.23v.95c0,.2,0,.22-.22.22s-1,0-3.53,0h-2.21v2.74h3.52c2.66,0,3.59,0,3.7,0s.22,0,.22.22Zm-2.77-19.85a8.36,8.36,0,0,0-.17-2.08,15.9,15.9,0,0,1,1.77.17c.19,0,.31.11.31.25a.64.64,0,0,1-.12.37,2.88,2.88,0,0,0-.16,1.26v1c0,1.2,0,1.71,0,1.85s0,.22-.22.22-1.12-.06-3.84-.06h-7.33c-2.75,0-3.7.06-3.87.06s-.22,0-.22-.22.05-.65.05-1.85v-1a12,12,0,0,0-.11-1.9,14.52,14.52,0,0,1,1.68.16c.2,0,.31.14.31.23a1,1,0,0,1-.17.5,3.7,3.7,0,0,0-.11,1.18v1.48h5.15v-2a12.29,12.29,0,0,0-.17-2.86c.68,0,1.32.08,1.74.14.2,0,.31.11.31.22a1.28,1.28,0,0,1-.17.51,8,8,0,0,0-.11,2v2h5.4Zm-6.21,8.2h-5.27v2.58h5.27Zm0,3.86h-5.27v2.58h5.27Zm0,3.87h-5.27v2.74h5.27Z"/><path d="M779.88,179.27c0,.2,0,.23-.2.23s-.87,0-2.74-.06v1.79c0,1.77,0,2.38,0,2.52s0,.23-.22.23h-1.23c-.2,0-.23,0-.23-.23v-.86h-7c0,.78,0,1.48,0,2,0,1.23-.19,1.74-.78,2.13s-1.62.5-3.78.5c-.53,0-.53,0-.7-.53a5,5,0,0,0-.67-1.26,14.62,14.62,0,0,0,2.46.11c1.51,0,1.79-.22,1.79-1.34v-1.65h-4.81c-2.86,0-3.78.05-3.95.05s-.22,0-.22-.22v-1c0-.2,0-.23.22-.23s1.09.06,3.95.06h4.81v-2.13h-7.7c-2.6,0-3.47.06-3.61.06s-.22,0-.22-.23v-1c0-.19,0-.22.22-.22s1,.06,3.61.06h7.7v-2h-4.81c-2.83,0-3.78.05-3.95.05s-.22,0-.22-.19v-1c0-.2,0-.23.22-.23s1.12.06,3.95.06h4.81V173h-3.69c-2.8,0-3.81.05-3.95.05s-.22,0-.22-.25,0-.45,0-1.54V170c0-1.06,0-1.37,0-1.54s0-.22.22-.22,1.15.06,3.95.06h3.69v-1.74h-7.5c-2.63,0-3.53.06-3.67.06s-.22,0-.22-.23v-1c0-.2,0-.23.22-.23s1,.06,3.67.06h7.5a12.5,12.5,0,0,0-.19-2.91,11.31,11.31,0,0,1,1.82.14c.19,0,.33.11.33.22a1.21,1.21,0,0,1-.16.53,6,6,0,0,0-.14,2v.06h7.5c2.63,0,3.5-.06,3.67-.06s.22,0,.22.23v1c0,.2,0,.23-.22.23s-1-.06-3.67-.06h-7.5v1.74h3.8c2.83,0,3.81-.06,4-.06s.22,0,.22.22,0,.48,0,1.54v1.18c0,1.09,0,1.4,0,1.54s0,.25-.22.25-1.15-.05-4-.05h-3.8v1.9h4.5c2.86,0,3.87-.06,4-.06s.22,0,.22.23,0,.73,0,2.49v.62c1.87,0,2.6-.06,2.74-.06s.2,0,.2.22Zm-13.28-9.71h-6.27v2.15h6.27Zm8.07,0h-6.41v2.15h6.41Zm.64,6.61h-7v2h7Zm0,3.27h-7v2.13h7Z"/><path d="M682,276.1h4.88c1.79,0,3.33-.06,5.15-.11.28,0,.39.05.39.33v1.29c0,.28-.08.36-.39.36-1.57,0-3.39-.08-5.13-.08H675.05c-1.37,0-3.3.08-4.54.14-.31,0-.39-.06-.44-.42a12.12,12.12,0,0,1-.15-1.65c1.83.14,3.39.14,5.13.14H680V265.57H677.2c-1.67,0-2.94.06-4.25.14-.25,0-.28-.08-.34-.42a14.82,14.82,0,0,1-.11-1.65c1.51.11,2.75.14,4.62.14h7.25c1.74,0,3.17,0,4.9-.09.25,0,.28.06.28.28v1.35c0,.28,0,.36-.3.36-1.8-.08-3.2-.11-4.85-.11H682Z"/><path d="M701,262.38a.34.34,0,0,1,.51-.06,26.08,26.08,0,0,1,5,3.73c.2.19.22.3.08.53a9.48,9.48,0,0,1-1,1.2c-.17.2-.25.23-.45,0a29.07,29.07,0,0,0-5.32-4.14C700.28,263.22,700.7,262.71,701,262.38Zm2.53,14.84a48.17,48.17,0,0,0,8.09-5.21,43.76,43.76,0,0,0,7.56-7.53,8.85,8.85,0,0,0,.47,1.85c.17.36.14.59-.19,1a51.89,51.89,0,0,1-6.81,6.44,59,59,0,0,1-8.4,5.46,9.68,9.68,0,0,0-1.54,1.09.45.45,0,0,1-.75,0,10.78,10.78,0,0,1-1.38-1.9A16,16,0,0,0,703.53,277.22Z"/><path d="M727.55,267.53a.38.38,0,0,1,.48-.2,22.89,22.89,0,0,1,4.92,2.55.39.39,0,0,1,.14.59,7.94,7.94,0,0,1-.72,1.2c-.17.23-.31.26-.54.06a19.7,19.7,0,0,0-5.15-2.83C727,268.37,727.35,267.81,727.55,267.53Zm4.34,10.72a50.46,50.46,0,0,0,7.7-4.81,48.64,48.64,0,0,0,8-7.76,6.39,6.39,0,0,0,.53,1.82.62.62,0,0,1-.14.76,47.19,47.19,0,0,1-7.39,6.86,65.76,65.76,0,0,1-8.18,5.23,5.34,5.34,0,0,0-1.34,1c-.25.25-.53.19-.79-.09a18.33,18.33,0,0,1-1.31-1.87A12.16,12.16,0,0,0,731.89,278.25Zm-1-17.1c.17-.26.25-.26.51-.14a22.35,22.35,0,0,1,4.87,2.91c.25.19.22.31.08.56a8.4,8.4,0,0,1-.81,1.2c-.17.2-.28.14-.5-.05a18.8,18.8,0,0,0-5-3.17C730.26,262.07,730.57,261.54,730.85,261.15ZM743,259.94a.23.23,0,0,1,.31,0,13.69,13.69,0,0,1,3.16,3.39.2.2,0,0,1,0,.31l-.81.67a.23.23,0,0,1-.37-.06,12.09,12.09,0,0,0-3.24-3.58Zm2.35-1.85c.12-.08.2-.11.31,0a16,16,0,0,1,3.19,3.27c.09.14.06.23-.08.34l-.76.67c-.11.11-.22.11-.33-.06a13.61,13.61,0,0,0-3.22-3.5Z"/><path d="M769.63,269.13h-6.3c-1.2,0-3.05.11-4.17.16-.28,0-.39-.05-.42-.41s-.08-1-.11-1.52c1.54.11,3.13.14,4.67.14h4.51c1.1,0,2.27,0,3.31-.05.3,0,.33.08.33.36,0,1.18-.05,2.35-.05,3.47v5.94c0,1.06,0,2.55.08,3.95,0,.3-.08.42-.39.42s-.79,0-1.12,0-.34-.05-.34-.3v-1h-6.55c-1.17,0-2.63.08-4,.17-.28,0-.37-.06-.39-.4a11.22,11.22,0,0,1-.12-1.54c1.54.09,3.22.14,4.6.14h6.49v-4.2h-5.82c-1.09,0-2.77,0-4,.14-.3,0-.42-.05-.44-.42a9.93,9.93,0,0,1-.09-1.45c1.6.08,3.19.11,4.51.11h5.85Z"/><path d="M795.64,276.52c0,1.68,0,3.27.09,5.07,0,.25-.06.33-.28.33a14.59,14.59,0,0,1-1.62,0c-.23,0-.29-.08-.29-.33.06-1.68.12-3.36.12-5v-8.29a53.35,53.35,0,0,1-8.79,6.33.48.48,0,0,1-.65-.11,5.27,5.27,0,0,0-1.4-.9,52.2,52.2,0,0,0,8.71-5.9,46.93,46.93,0,0,0,5.43-5.41,8.7,8.7,0,0,0,1.93-3.16,8.46,8.46,0,0,1,1.94,1.26.45.45,0,0,1-.12.78,7,7,0,0,0-1.57,1.49,50.79,50.79,0,0,1-3.5,3.86Z"/><path d="M816.2,265.07a16.57,16.57,0,0,0,6.27,6.63,3.35,3.35,0,0,0-.79,1.07c-.11.25-.19.36-.3.36s-.23-.08-.39-.22a20,20,0,0,1-5.55-6.39,22.36,22.36,0,0,1-4,5.49c.29,0,1,.06,2.58.06h2.8c1.93,0,2.55-.06,2.69-.06s.22,0,.22.2,0,.81,0,2.4v2.16c0,3.53,0,4.09,0,4.23s0,.22-.22.22h-1.2c-.2,0-.23,0-.23-.22v-.62h-5.35V282c0,.19,0,.22-.22.22h-1.2c-.17,0-.2,0-.2-.22s0-.76,0-4.65V275.2c0-1.79,0-2.55,0-2.85a22,22,0,0,1-1.68,1.51c-.17.14-.28.22-.37.22s-.19-.14-.33-.39a2.79,2.79,0,0,0-.7-.95,18.14,18.14,0,0,0,6-6.95,4.7,4.7,0,0,0,.53-1.68c.62.09,1.26.2,1.63.28s.36.15.36.28a.31.31,0,0,1-.16.29Zm-2-4.71a3.62,3.62,0,0,0-.59.84,20.84,20.84,0,0,1-3.75,4.57c-.2.14-.31.22-.39.22s-.2-.11-.34-.34a2.72,2.72,0,0,0-.73-.89,15.52,15.52,0,0,0,3.67-4,5.52,5.52,0,0,0,.7-1.71,7.46,7.46,0,0,1,1.43.67c.17.11.25.2.25.34S814.35,260.25,814.18,260.36Zm3.92,13.19h-5.35v5.35h5.35Zm-.61-14.36c.27-.17.3-.17.44,0a13.31,13.31,0,0,0,4,4.34,3.83,3.83,0,0,0-.84.9c-.14.22-.22.34-.34.34s-.19-.09-.39-.25A15.89,15.89,0,0,1,816.7,260c-.08-.17-.06-.22.22-.42Zm16.07,23.38c-.17.25-.23.39-.34.39s-.2-.08-.36-.25a19.39,19.39,0,0,1-6.05-10.31,14.92,14.92,0,0,1-6,10.59c-.2.14-.31.22-.39.22s-.2-.11-.4-.36a2.9,2.9,0,0,0-1-.84c4.93-2.75,6.64-8.4,6.61-13a20.79,20.79,0,0,0-.11-2.94,12.52,12.52,0,0,1,1.74.2c.25.06.33.14.33.25a1,1,0,0,1-.14.51,4.38,4.38,0,0,0-.22,1.85c1,5.73,3.44,9.93,7.19,12.62A3.58,3.58,0,0,0,833.56,282.57Zm-1.77-19.8a1.4,1.4,0,0,0,.56-.08.84.84,0,0,1,.28-.09c.17,0,.34.09.76.51s.5.56.5.7-.08.22-.19.33a1.28,1.28,0,0,0-.4.7,37.65,37.65,0,0,1-2.24,5.13c-.11.25-.19.36-.27.36a.8.8,0,0,1-.42-.25,4.19,4.19,0,0,0-1.07-.51,21.12,21.12,0,0,0,2.46-5.32h-7a22.34,22.34,0,0,1-2.24,4.26c-.17.25-.25.37-.37.37s-.22-.09-.42-.26a2.9,2.9,0,0,0-1-.53,19.61,19.61,0,0,0,3.75-8.23,13.82,13.82,0,0,0,.28-1.93,14.16,14.16,0,0,1,1.68.36c.22.06.34.2.34.31a.58.58,0,0,1-.23.42,2.73,2.73,0,0,0-.44,1.09c-.26.93-.51,1.79-.79,2.66Z"/><path d="M850.22,265.29a26.51,26.51,0,0,0,2.8,6.33,25.64,25.64,0,0,0,3.61-3.73,4.62,4.62,0,0,0,.75-1.28,6.78,6.78,0,0,1,1.43,1c.2.17.23.26.23.4s-.14.25-.31.36a4.7,4.7,0,0,0-1.29,1.15,32.5,32.5,0,0,1-3.58,3.39,22.38,22.38,0,0,0,7.78,6.6,3.78,3.78,0,0,0-1,1.1c-.17.25-.22.36-.36.36s-.2-.08-.39-.2a22.21,22.21,0,0,1-10.06-13c.09,4.56.2,8.87.2,12.79a2.15,2.15,0,0,1-1,2.13c-.56.28-1.23.42-3.39.45-.53,0-.53,0-.67-.56a3.63,3.63,0,0,0-.64-1.29c.67.06,1.39.11,2,.11,1.46,0,1.91-.19,1.91-1.34V265.29h-7.06c-2.66,0-3.56.06-3.7.06s-.22,0-.22-.23v-1.23c0-.2,0-.22.22-.22s1,.05,3.7.05h7.06v-2.13a17.19,17.19,0,0,0-.2-3.36c.67,0,1.32.09,1.87.17.2,0,.31.11.31.23a1.27,1.27,0,0,1-.14.58,10.54,10.54,0,0,0-.14,2.36v2.15h7.2c2.69,0,3.56-.05,3.72-.05s.23,0,.23.22v1.23c0,.2,0,.23-.23.23s-1-.06-3.72-.06Zm-3.78,9.91a58.36,58.36,0,0,1-6.44,3.95,4.38,4.38,0,0,0-1,.62.59.59,0,0,1-.37.22c-.11,0-.22-.11-.33-.28a15.1,15.1,0,0,1-.76-1.51,13.57,13.57,0,0,0,2-.84,52.65,52.65,0,0,0,7.06-4.2,6,6,0,0,0,.11,1.15C846.88,274.87,846.88,274.87,846.44,275.2Zm-5.57-8.09c.22-.19.27-.19.42-.11a18.59,18.59,0,0,1,3.52,3.72c.11.14.14.2-.08.42l-.73.7c-.31.28-.36.34-.47.14a15.25,15.25,0,0,0-3.42-3.83c-.2-.17-.17-.2.14-.45Zm13.29-8.23c.2-.17.23-.17.42-.06a18.36,18.36,0,0,1,3.5,2.72c.12.11.12.22-.19.47l-.53.48c-.31.28-.4.34-.56.14a14.38,14.38,0,0,0-3.31-2.8c-.19-.14-.19-.2.09-.45Z"/><path d="M969.12,206.15v20.06h6.7v0l-13.05,14.92-13-14.92v0h6.7V206.15Z"/><path d="M902.68,138c.25-.12.28-.12.39.08a26,26,0,0,1,2.08,4.79c.08.25.05.28-.31.42l-.62.25c-.39.17-.42.14-.5-.11-.17-.53-.31-1.07-.51-1.57-.87.11-1.71.2-2.57.28v7.5c0,3.05.05,4,.05,4.09s0,.2-.22.2h-1.26c-.2,0-.22,0-.22-.2s0-1,0-4.09v-7.36c-1,.08-2,.17-2.91.22a2.49,2.49,0,0,0-1.09.26.83.83,0,0,1-.31.11c-.14,0-.25-.11-.31-.37-.08-.42-.14-.86-.22-1.51A12,12,0,0,0,896,141h.31c.72-.95,1.4-1.91,2-2.86a38.8,38.8,0,0,0-4.06-4.39c-.17-.17-.2-.2.05-.51l.48-.59c.2-.25.25-.28.42-.11.37.37.76.7,1.09,1.07a36.23,36.23,0,0,0,1.91-3.25,8,8,0,0,0,.7-1.79,10.43,10.43,0,0,1,1.51.67c.19.11.28.22.28.33a.37.37,0,0,1-.23.34,1.4,1.4,0,0,0-.5.59,48.19,48.19,0,0,1-2.63,4.14c.64.67,1.26,1.37,1.9,2.13.73-1.18,1.43-2.35,2.13-3.56a9.43,9.43,0,0,0,.84-1.84,9.43,9.43,0,0,1,1.49.7c.19.11.25.19.25.33s-.09.25-.25.37a4.57,4.57,0,0,0-1,1.26c-1.56,2.49-3.13,4.81-4.73,6.88,1.51,0,3.05-.16,4.7-.3a18.7,18.7,0,0,0-1-2c-.08-.17,0-.2.28-.36Zm-5.29,7.3a3.67,3.67,0,0,0-.28,1.07,27.1,27.1,0,0,1-1.2,5.12c-.09.25-.15.39-.26.39s-.19-.08-.42-.22a4.46,4.46,0,0,0-1-.42,17.43,17.43,0,0,0,1.38-5.15,9.76,9.76,0,0,0,.08-1.74c.59.11,1.15.23,1.43.31s.39.17.39.28A.6.6,0,0,1,897.39,145.26Zm5.52-.95c.27-.08.3-.08.39.11a21,21,0,0,1,1.37,5c.06.25.06.28-.28.39l-.67.22c-.39.14-.45.14-.48-.11a23.06,23.06,0,0,0-1.23-5.07c-.06-.19,0-.22.31-.33Zm16.32-9.85c0,.16,0,.19-.23.19s-1-.05-3.72-.05H912.4v4.28h2c2.46,0,3.27-.06,3.44-.06s.22,0,.22.23v1.12c0,.19,0,.22-.22.22s-1,0-3.44,0h-5.24c-2.47,0-3.31,0-3.45,0s-.22,0-.22-.22v-1.12c0-.2,0-.23.22-.23s1,.06,3.45.06h1.6V134.6h-2.3c-2.69,0-3.56.05-3.72.05s-.23,0-.23-.19v-1.15c0-.2,0-.23.23-.23s1,.06,3.72.06h2.3v-1a20.93,20.93,0,0,0-.17-3.41,14.32,14.32,0,0,1,1.79.16c.2,0,.33.09.33.26a1.27,1.27,0,0,1-.13.44,10,10,0,0,0-.17,2.5v1.06h2.88c2.69,0,3.58-.06,3.72-.06s.23,0,.23.23Zm-1.71,14.22c0,3.92.06,4.56.06,4.7s0,.23-.23.23h-1.28c-.17,0-.2,0-.2-.23v-1.51h-8.15v1.6c0,.19,0,.22-.22.22h-1.24c-.19,0-.22,0-.22-.22s.06-.79.06-4.74v-2.15c0-2.13-.06-2.83-.06-3s0-.22.22-.22,1,.06,3.31.06H914c2.38,0,3.16-.06,3.33-.06s.23,0,.23.22-.06.87-.06,2.66Zm-1.65-3.78h-8.15v5.49h8.15Z"/><path d="M928.41,134.62c2.08,0,2.69-.05,2.83-.05s.28.08.28.25c-.11.76-.19,1.43-.22,1.85a29.68,29.68,0,0,1-2.07,8.76,38.29,38.29,0,0,1,3,2.47c.17.16.17.28,0,.53l-.5.7c-.22.33-.33.36-.5.17a29.23,29.23,0,0,0-2.64-2.47,19.41,19.41,0,0,1-4.92,5.71c-.2.14-.31.23-.4.23s-.16-.12-.36-.37a3,3,0,0,0-.81-.78,16.32,16.32,0,0,0,5.23-5.74,25.77,25.77,0,0,0-2.6-1.65l-.39,1.17c-.09.23-.14.28-.48.2l-.84-.22c-.28-.06-.33-.12-.25-.34a62,62,0,0,0,2.61-9c-2,0-2.66.06-2.81.06s-.22,0-.22-.23v-1.12c0-.16,0-.19.22-.19s.76.05,2.81.05h.27c.23-1.2.42-2.46.62-3.8a12.13,12.13,0,0,0,.08-2.19,9.78,9.78,0,0,1,1.74.23c.2,0,.34.14.34.28a1.13,1.13,0,0,1-.23.47,2.88,2.88,0,0,0-.3,1.15c-.23,1.4-.45,2.66-.68,3.86Zm-1.57,1.43c-.56,2.69-1.14,4.87-1.7,6.72,1,.56,1.9,1.12,2.8,1.74a27,27,0,0,0,1.87-8.46Zm14.62.17a11.54,11.54,0,0,0,.84,1.9c.93,1.77,2,2.61,2.69,2.61s1.15-1.26,1.37-2.91a3.44,3.44,0,0,0,.76.64c.47.34.47.34.36.87-.45,1.79-1.09,2.94-2.35,2.94-1.54,0-3-1.26-4.09-3.31a14.06,14.06,0,0,1-1.09-2.68l-4.9.25v3.39c1.43-.37,3-.84,4.51-1.4a3.52,3.52,0,0,0-.14,1c0,.44-.11.56-.53.7-1.29.44-3.67,1.17-5.63,1.7a2.46,2.46,0,0,0-.73.31c-.14.11-.2.17-.37.17s-.16-.11-.25-.31a9.86,9.86,0,0,1-.42-1.51,16.25,16.25,0,0,0,2-.28v-6.86a13.06,13.06,0,0,0-.17-2.63,7.94,7.94,0,0,1,1.79.5,38.14,38.14,0,0,0,7.2-1.71,4.14,4.14,0,0,0,1.43-.72A8.76,8.76,0,0,1,945,130a.53.53,0,0,1,.2.36c0,.14-.17.25-.4.25a4.49,4.49,0,0,0-1.06.2c-.89.25-1.93.5-3.05.78a25.49,25.49,0,0,0,.45,3.31l1.79-.09c2.66-.11,3.61-.19,3.81-.19s.22,0,.22.22l0,1c0,.2,0,.22-.2.22s-1.2,0-3.83.12ZM945,148.68c0,4,.05,4.62.05,4.79s0,.19-.22.19h-1.2c-.2,0-.23,0-.23-.19v-.95h-8v1.09c0,.19,0,.22-.22.22H934c-.19,0-.22,0-.22-.22s.05-.79.05-4.82v-2.21c0-2.24-.05-2.94-.05-3.11s0-.22.22-.22,1,.05,3.28.05h4.31c2.35,0,3.14-.05,3.25-.05s.22,0,.22.22-.05.87-.05,2.72Zm-5.38-13.75a26.77,26.77,0,0,1-.45-3,38.61,38.61,0,0,1-4.14.75v2.47Zm3.78,9.75h-8v2.46h8Zm0,3.75h-8v2.71h8Z"/><path d="M965.09,141.2a2.34,2.34,0,0,1-2.32,2.33,2.33,2.33,0,1,1,0-4.65A2.32,2.32,0,0,1,965.09,141.2Z"/><path d="M986.91,140.5c.22-.11.27-.11.36.06a20.65,20.65,0,0,0,3.39,5.21,19.71,19.71,0,0,0,2.24-3.14,11.56,11.56,0,0,0,1.09-2.41c.67.26,1.26.54,1.65.73.2.11.34.25.34.39s-.12.31-.34.48a7.29,7.29,0,0,0-1,1.32,27.32,27.32,0,0,1-2.74,3.83c2.6,2.3,6.08,3.84,11.2,5a3.94,3.94,0,0,0-.81,1.26c-.14.36-.23.47-.42.47a1.49,1.49,0,0,1-.39-.08c-4.93-1.35-8.27-3.05-10.79-5.41-2.37,2.24-5.48,4-10.35,5.41a2,2,0,0,1-.45.08c-.2,0-.25-.11-.42-.45a3.16,3.16,0,0,0-.79-1c4.74-1.18,8.24-2.91,10.78-5.24a26.08,26.08,0,0,1-3.67-5.63c-.08-.19-.08-.25.26-.42Zm15.82-6.63c0,.19,0,.22-.23.22s-1-.05-3.69-.05h-16c-2.69,0-3.56.05-3.7.05s-.22,0-.22-.22v-1.26c0-.2,0-.23.22-.23s1,.06,3.7.06h6.94v-.78a12.28,12.28,0,0,0-.19-2.83,16.64,16.64,0,0,1,1.87.14c.2,0,.34.11.34.22a1.46,1.46,0,0,1-.17.51,7.88,7.88,0,0,0-.11,2v.78h7.34c2.66,0,3.55-.06,3.69-.06s.23,0,.23.23ZM987,136.75a4.13,4.13,0,0,0-.84.87,22.73,22.73,0,0,1-5.43,4.87c-.2.11-.31.2-.42.2s-.2-.11-.37-.34a3.1,3.1,0,0,0-.92-.89,19.07,19.07,0,0,0,5.68-4.82,5.45,5.45,0,0,0,.79-1.43A8.8,8.8,0,0,1,987,136c.25.16.31.25.31.42S987.16,136.64,987,136.75Zm8.06-1.31c.28-.17.37-.17.51,0a19.19,19.19,0,0,0,7,5.51,4.08,4.08,0,0,0-.89,1c-.17.28-.25.39-.36.39a1,1,0,0,1-.45-.17,21.71,21.71,0,0,1-6.7-5.91c-.13-.19-.11-.25.2-.44Z"/><path d="M1012.86,129.64a2.17,2.17,0,0,0,.73-.08.56.56,0,0,1,.28-.06c.2,0,.31.08.73.53s.47.62.47.73a.43.43,0,0,1-.22.39,2.36,2.36,0,0,0-.53.9,57.19,57.19,0,0,1-2.58,5.51c1.91,2.3,2.66,4,2.66,5.66,0,2.32-.92,3.64-3.56,3.81-.56,0-.56.05-.67-.56a2.65,2.65,0,0,0-.47-1c2.4,0,3.13-.36,3.13-2.24,0-1.57-.75-3-2.77-5.4a53.26,53.26,0,0,0,2.88-6.64h-3.8v16.33c0,3.94.05,6,.05,6.16s0,.22-.22.22h-1.26c-.2,0-.22,0-.22-.22s0-1.8,0-5.83V135.72c0-4.06,0-5.77,0-5.91s0-.23.22-.23.7.06,2,.06Zm6,18.65a2,2,0,0,0-.61.59,15.13,15.13,0,0,1-3.59,3.61c-.16.14-.28.22-.36.22s-.2-.11-.42-.33a3.51,3.51,0,0,0-.87-.65,13.11,13.11,0,0,0,3.75-3.47,3.67,3.67,0,0,0,.59-1.15,9.39,9.39,0,0,1,1.46.59.33.33,0,0,1,.22.31A.32.32,0,0,1,1018.85,148.29Zm9.72-17.22a1.51,1.51,0,0,0,.61-.06.75.75,0,0,1,.31-.08c.17,0,.31.11.65.45s.5.58.5.7a.49.49,0,0,1-.2.36,5.19,5.19,0,0,0-.58.84,25.22,25.22,0,0,1-2.75,3.64A13.94,13.94,0,0,0,1032,141a3.22,3.22,0,0,0-.76,1c-.13.28-.22.39-.33.39a1,1,0,0,1-.42-.22,17.43,17.43,0,0,1-7.45-10c-.08.33-.17.64-.28,1a18.72,18.72,0,0,1-6.83,9.18c-.2.14-.31.22-.42.22s-.2-.11-.34-.33a2.19,2.19,0,0,0-.67-.76,19,19,0,0,0,3.28-2.69,9.18,9.18,0,0,0-2.13-1.56c-.2-.12-.2-.17.06-.42l.33-.31c.23-.23.23-.23.42-.11a11.34,11.34,0,0,1,2.16,1.45,16,16,0,0,0,1-1.48,13.23,13.23,0,0,0-2.07-1.46c-.19-.11-.14-.17.06-.42l.34-.39c.19-.25.27-.17.44-.08a13.76,13.76,0,0,1,1.88,1.17,21.21,21.21,0,0,0,1.12-2.63h-3.22a17.21,17.21,0,0,1-3.33,4.09c-.2.17-.28.28-.39.28s-.2-.11-.42-.31a3,3,0,0,0-.79-.5,15.06,15.06,0,0,0,4.62-6.05,7.9,7.9,0,0,0,.31-1.37,8.7,8.7,0,0,1,1.43.3c.25.09.33.17.33.28a.4.4,0,0,1-.16.34,1.35,1.35,0,0,0-.45.67,8.33,8.33,0,0,1-.45,1h2.38c.84,0,1.29,0,1.51,0l-.2-.84c-.05-.2,0-.28.31-.37l.67-.19c.28-.09.31-.12.37.08a20.59,20.59,0,0,0,2.35,5.94,18.62,18.62,0,0,0,2.35-3.36h-1.57c-1.17,0-1.53,0-1.7,0s-.23,0-.23-.22v-.95c0-.2,0-.23.23-.23s.53.06,1.85.06Zm2.1,14.47c0,.2,0,.23-.23.23s-1.06-.06-3.78-.06h-3.13v2.21c0,1,.05,2.24.05,3.25a2,2,0,0,1-.72,1.82c-.42.31-1,.53-3.11.51-.56,0-.56,0-.7-.59a3.41,3.41,0,0,0-.53-1.1c1,.09,1.79.12,2.43.12a.92.92,0,0,0,1-1v-5.18h-2.57c-2.72,0-3.61.06-3.78.06s-.23,0-.23-.23v-1.06c0-.2,0-.22.23-.22s1.06.05,3.78.05h7.3c2.72,0,3.62-.05,3.78-.05s.23,0,.23.22Zm-3.47-3.94c0,.19,0,.22-.23.22s-.67-.06-2.63-.06h-2.66c-1.9,0-2.46.06-2.6.06s-.23,0-.23-.22v-1.07c0-.19,0-.22.23-.22s.7.05,2.6.05h2.66c2,0,2.49-.05,2.63-.05s.23,0,.23.22Zm-.39,5.57c.3-.2.33-.17.44,0a18.19,18.19,0,0,0,4.17,3.89,3.18,3.18,0,0,0-.72.78c-.17.28-.28.39-.39.39a.8.8,0,0,1-.42-.25,23.57,23.57,0,0,1-3.9-4.08c-.11-.17,0-.17.28-.37Z"/><path d="M949.78,172.35c.25-.06.33,0,.36.17.06.33.11.84.14,1.2s0,.31-.25.34c-1.51.31-3,.56-4.68.81a67.91,67.91,0,0,1-5.62,11.82.27.27,0,0,1-.45.08,6.39,6.39,0,0,1-1.12-.84c-.17-.14-.17-.25,0-.48A49.21,49.21,0,0,0,943.39,175c-1.2.11-2.32.19-3.53.19-.42,0-.84,0-1.48,0-.25,0-.28-.06-.33-.34a8.24,8.24,0,0,1-.17-1.4,21.55,21.55,0,0,0,2.21.11,36.09,36.09,0,0,0,3.81-.22c.33-1.06.59-2.1.84-3.28a8.08,8.08,0,0,0,.22-2.18,12.4,12.4,0,0,1,2.19.56.33.33,0,0,1,.25.31.58.58,0,0,1-.23.42,2.56,2.56,0,0,0-.39.87c-.31,1-.62,2-.89,3A37.93,37.93,0,0,0,949.78,172.35Zm1.71,6.78a8.8,8.8,0,0,0-.17-1.8,9,9,0,0,1,1.9.37c.2.05.31.17.31.33a1.46,1.46,0,0,1-.17.51,4.36,4.36,0,0,0-.11,1.31,49,49,0,0,0,.33,5.16,24,24,0,0,1,5.3,2.8c.22.14.19.22.11.44a9.42,9.42,0,0,1-.67,1.24c-.14.19-.28.16-.45,0a16.79,16.79,0,0,0-4.26-2.66c0,2.83-1.4,4.37-5,4.37-2.13,0-4.34-1.09-4.34-3.41,0-2.1,2-3.53,4.76-3.53a14.34,14.34,0,0,1,2.8.33C951.65,182.88,951.51,180.64,951.49,179.13Zm-2.39,6.69c-2.24,0-3.24.87-3.24,1.9,0,1.29,1,1.88,2.88,1.88,2.3,0,3.14-1.21,3.14-2.63a3.61,3.61,0,0,0,0-.68A9.28,9.28,0,0,0,949.1,185.82Zm4.76-12.55c.14-.22.23-.25.48-.17a19.88,19.88,0,0,1,5.49,2.64c.19.17.19.28.06.5a7.27,7.27,0,0,1-.65,1.12c-.14.2-.22.17-.39.06a19,19,0,0,0-5.71-2.86C953.42,174.09,953.64,173.61,953.86,173.27Z"/><path d="M974,169.1a.41.41,0,0,1,.34.37c0,.28-.14.53-.14,1,0,.61.09,1.17.17,1.79a37.72,37.72,0,0,0,1.09,5.65c1.65-.81,3.33-1.59,5-2.52a4.55,4.55,0,0,0,1.62-1.28,12.45,12.45,0,0,1,1.43,1.56c.22.34.16.73-.34.79a10.57,10.57,0,0,0-2.46.89c-2.05,1-4.46,2.1-6.36,3.2-2.83,1.65-4.14,3.1-4.14,5.06,0,2.5,2.35,3.11,6.58,3.08a53.82,53.82,0,0,0,7.19-.58c.26,0,.34,0,.4.25a13.68,13.68,0,0,1,.16,1.45c0,.26-.08.37-.39.4a62.81,62.81,0,0,1-7.45.39c-4.84,0-8.34-1.07-8.34-4.9,0-2.69,1.9-4.76,5.46-6.92a49.26,49.26,0,0,1-1.49-7.17,9.92,9.92,0,0,0-.61-2.74A12.8,12.8,0,0,1,974,169.1Zm9.36.11c.11-.08.19-.05.3,0a13.54,13.54,0,0,1,3.17,3.39.2.2,0,0,1-.06.31l-.81.67a.22.22,0,0,1-.36-.06,12.13,12.13,0,0,0-3.25-3.58Zm2.35-1.82c.11-.08.19-.11.31,0a16,16,0,0,1,3.19,3.27c.08.14,0,.23-.08.34l-.76.67c-.11.11-.23.11-.34-.06a13.43,13.43,0,0,0-3.22-3.5Z"/><path d="M903.3,259.91a25.76,25.76,0,0,0,1.65,6.78,15,15,0,0,0,1.6-3.25,8.16,8.16,0,0,0,.39-1.65,7.88,7.88,0,0,1,1.4.5c.2.08.28.17.28.28s-.08.22-.19.36a3,3,0,0,0-.4.76,21.67,21.67,0,0,1-2.32,4.42c1,1.6,2.16,2.69,2.88,2.69,1,0,1.29-1.06,1.71-3.16a3.44,3.44,0,0,0,.84.7c.48.28.51.33.37.84-.59,2.32-1.35,3.25-2.92,3.25-1.26,0-2.71-1.29-3.89-3.06a17.35,17.35,0,0,1-3.13,2.78c-.23.14-.34.22-.45.22s-.25-.08-.45-.28a2.92,2.92,0,0,0-.81-.56,16.85,16.85,0,0,0,4.09-3.44,25,25,0,0,1-2.22-8.18H890.87v2.49a33.69,33.69,0,0,1-.56,5.55,13,13,0,0,1-2.1,4.81c-.14.23-.22.34-.31.34s-.19-.09-.42-.28a3,3,0,0,0-1-.59,10.75,10.75,0,0,0,2.19-4.4,25.9,25.9,0,0,0,.61-6.24c0-2,0-2.8,0-2.94s0-.22.22-.22,1.15.05,3.95.05h8.2l-.08-1.12a12.89,12.89,0,0,0-.28-2,16.66,16.66,0,0,1,1.76.17c.2,0,.31.11.31.25a1.2,1.2,0,0,1-.11.47,4.06,4.06,0,0,0-.06,1.18c0,.36,0,.73,0,1.09h3.22c2.8,0,3.75-.05,3.89-.05s.23,0,.23.22v1.09c0,.2,0,.23-.23.23s-1.09-.06-3.89-.06Zm-12.15,14c.31.14.34.2.28.39a15.8,15.8,0,0,1-3,5c-.09.08-.14.14-.2.14a.78.78,0,0,1-.31-.14l-.7-.51c-.33-.25-.36-.3-.19-.47a12.59,12.59,0,0,0,2.88-4.57c.08-.22.17-.25.53-.11Zm9.35-10.81c0,.2,0,.23-.22.23s-.76-.06-2.61-.06h-2.82c-1.88,0-2.47.06-2.64.06s-.19,0-.19-.23v-1c0-.23,0-.25.19-.25s.76,0,2.64,0h2.82c1.85,0,2.47,0,2.61,0s.22,0,.22.25Zm-.64,5.55c0,1.23,0,1.62,0,1.76s0,.23-.22.23-.7-.06-2.38-.06H895c-1.7,0-2.24.06-2.38.06s-.22,0-.22-.23.06-.53.06-1.76V267c0-1.24-.06-1.63-.06-1.77s0-.22.22-.22.68,0,2.38,0h2.3c1.68,0,2.21,0,2.38,0s.22,0,.22.22,0,.53,0,1.77Zm-4.76,8.71c0,.64.14,1,.7,1.09a16.59,16.59,0,0,0,3,.19,11.82,11.82,0,0,0,4.26-.44c.67-.37.89-1.24,1-2.58a4.67,4.67,0,0,0,1.09.56c.5.17.53.25.45.73-.25,1.73-.84,2.38-1.54,2.69-1.15.53-3.14.53-5.21.53a20.12,20.12,0,0,1-4.12-.25,1.6,1.6,0,0,1-1.26-1.82v-2.72a14.24,14.24,0,0,0-.11-2.27,14.15,14.15,0,0,1,1.68.17c.23,0,.31.14.31.25a1,1,0,0,1-.11.37,3,3,0,0,0-.14,1.23Zm3.39-11h-4.65v2.91h4.65Zm-.4,5.8c.28-.2.34-.2.54,0a17,17,0,0,1,2.85,2.83c.11.16.09.22-.19.42l-.65.44c-.31.23-.39.26-.53,0a16.62,16.62,0,0,0-2.72-2.88c-.16-.14-.14-.23.14-.42Zm7.28-16.75c.2-.14.26-.14.4,0a12.92,12.92,0,0,1,2.57,2c.17.17.11.23-.11.42l-.5.42c-.28.25-.37.31-.54.11a12.18,12.18,0,0,0-2.49-2.07c-.19-.14-.17-.22.09-.42Zm1.94,18c.28-.17.33-.14.5,0a19,19,0,0,1,3.16,4.36c.12.2.09.31-.19.45l-.81.42c-.31.17-.4.17-.51,0a20.37,20.37,0,0,0-3-4.45c-.14-.17-.14-.19.19-.39Z"/><path d="M916.41,261.67c.3.09.33.12.3.31a19.89,19.89,0,0,1-1.17,5.74c-.09.2-.14.17-.42.06l-.67-.28c-.4-.17-.42-.14-.31-.45a16.93,16.93,0,0,0,1.12-5.43c0-.2,0-.2.42-.11Zm1.45-2.46a19.94,19.94,0,0,0-.22-3.84,17,17,0,0,1,1.85.17c.19,0,.33.09.33.23a2.08,2.08,0,0,1-.11.5,11.11,11.11,0,0,0-.2,2.88v16.27c0,3.33.06,4.79.06,4.93s0,.22-.22.22H918c-.2,0-.22,0-.22-.22s.05-1.6.05-4.9Zm3.25,1.74c.22-.06.31-.06.36.08a24.82,24.82,0,0,1,1.12,3.84c0,.19,0,.25-.28.36l-.67.22c-.36.12-.45.12-.47-.08a17.07,17.07,0,0,0-1-3.86c-.09-.23,0-.26.31-.37Zm18.17,5c0,.2,0,.2-.19.2s-1.07-.06-3.81-.06h-8.54c-2.75,0-3.67.06-3.81.06s-.22,0-.22-.2v-1c0-.19,0-.22.22-.22s1.06.05,3.81.05h2.85v-2h-1.9c-2.41,0-3.19.05-3.36.05s-.22,0-.22-.22v-.93c0-.19,0-.22.22-.22s.95.06,3.36.06h1.9v-1.88h-2.35c-2.57,0-3.44.06-3.58.06s-.23,0-.23-.23v-1c0-.19,0-.22.23-.22s1,.05,3.58.05h2.35a17.93,17.93,0,0,0-.19-3.08,17,17,0,0,1,1.79.14c.2,0,.34.14.34.26a1.47,1.47,0,0,1-.17.56,6.17,6.17,0,0,0-.17,2.12h3.22c2.58,0,3.44-.05,3.61-.05s.23,0,.23.22v1c0,.2,0,.23-.23.23s-1-.06-3.61-.06h-3.22v1.88h2.44c2.43,0,3.19-.06,3.33-.06s.25,0,.25.22v.93c0,.19,0,.22-.25.22s-.9-.05-3.33-.05h-2.44v2h4.09c2.74,0,3.67-.05,3.81-.05s.19,0,.19.22Zm-6.07,1.85c2.35,0,3.13-.06,3.27-.06s.23,0,.23.23-.06,1.12-.06,3.27v3c0,1.48,0,2.94,0,3.75s-.11,1.48-.59,1.85a4.37,4.37,0,0,1-2.77.5c-.53,0-.56,0-.73-.56a3.48,3.48,0,0,0-.59-1.09c.65.06,1.26.08,1.91.08,1.06,0,1.17-.3,1.17-1v-2h-9.15v1.06c0,2.55.05,3.42.05,3.56s0,.2-.22.2h-1.23c-.2,0-.23,0-.23-.2s.06-.9.06-3.5v-5.77c0-2.15-.06-3-.06-3.13s0-.23.23-.23,1,.06,3.86.06Zm1.87,1.34h-9.15v2h9.15Zm0,3.31h-9.15v2h9.15Z"/><path d="M952.22,271c0,6.52,0,7.59,0,7.76s0,.22-.22.22h-1.2c-.2,0-.23,0-.23-.22v-1.6h-5.37v2.21c0,.2,0,.23-.23.23h-1.2c-.2,0-.23,0-.23-.23s.06-1.29.06-8v-4.79c0-4.79-.06-5.94-.06-6.11s0-.22.23-.22.75.06,2.46.06a29.61,29.61,0,0,0,1-3.25,6.32,6.32,0,0,0,.19-1.63,13.15,13.15,0,0,1,1.82.42c.2.06.31.17.31.31a.48.48,0,0,1-.19.37,1.84,1.84,0,0,0-.45.81c-.25.73-.67,1.93-1.09,3h1.42c2,0,2.58-.06,2.72-.06s.22,0,.22.22,0,1.26,0,5.41Zm-1.6-9.27h-5.37v6.05h5.37Zm0,7.53h-5.37v6.42h5.37Zm12.66-8.82c2.21,0,2.91-.05,3.05-.05s.25.05.25.25c-.05.7-.05,1.4-.05,2.1a82.52,82.52,0,0,1-.9,13.66c-.45,2.72-1.29,4.2-3.47,4.23-.79,0-1.77-.05-2.66-.14-.51,0-.51,0-.62-.64a4.71,4.71,0,0,0-.47-1.29,17.69,17.69,0,0,0,3.64.36c1.17,0,1.65-1.34,2-3.13a87.58,87.58,0,0,0,.81-13.81h-8.21a27.85,27.85,0,0,1-2.24,3.76c-.16.22-.25.33-.36.33s-.22-.08-.42-.28a3.83,3.83,0,0,0-.92-.67,23.86,23.86,0,0,0,3.94-7.25,10.72,10.72,0,0,0,.54-2.49,13.74,13.74,0,0,1,1.73.5c.23.08.42.22.42.36s0,.28-.31.51a4.75,4.75,0,0,0-.64,1.31c-.31.79-.64,1.57-1,2.38Zm-6.36,5.83c.23-.17.28-.17.39,0a21,21,0,0,1,3.7,5.21c.11.22.08.28-.22.47l-.82.59c-.28.17-.33.2-.42,0a21.52,21.52,0,0,0-3.52-5.37c-.14-.17-.12-.2.19-.42Z"/><path d="M977.84,262.35a16.57,16.57,0,0,0,6.27,6.63,3.09,3.09,0,0,0-.78,1.07c-.12.25-.2.36-.31.36a.68.68,0,0,1-.39-.22,20,20,0,0,1-5.55-6.39,22.58,22.58,0,0,1-4,5.49c.28,0,.95.06,2.57.06h2.8c1.93,0,2.55-.06,2.69-.06s.22,0,.22.2,0,.81,0,2.4v2.16c0,3.53,0,4.09,0,4.23s0,.22-.22.22H980c-.2,0-.23,0-.23-.22v-.62h-5.35v1.6c0,.19,0,.22-.22.22H973c-.17,0-.2,0-.2-.22s.06-.76.06-4.65v-2.13c0-1.79-.06-2.55-.06-2.85a22,22,0,0,1-1.68,1.51c-.17.14-.28.22-.36.22s-.2-.14-.34-.39a2.79,2.79,0,0,0-.7-1,18.06,18.06,0,0,0,6-6.95,5,5,0,0,0,.54-1.68c.61.09,1.26.2,1.62.28s.36.14.36.28a.27.27,0,0,1-.16.28Zm-2-4.71a3.62,3.62,0,0,0-.59.84,20.84,20.84,0,0,1-3.75,4.57c-.19.14-.31.22-.39.22s-.2-.11-.34-.34A2.71,2.71,0,0,0,970,262a15.64,15.64,0,0,0,3.66-4,5.52,5.52,0,0,0,.7-1.71,7.46,7.46,0,0,1,1.43.67c.17.11.25.2.25.34S976,257.53,975.82,257.64Zm3.92,13.19h-5.35v5.35h5.35Zm-.61-14.36c.28-.17.3-.17.44,0a13.31,13.31,0,0,0,3.95,4.34,3.83,3.83,0,0,0-.84.9c-.14.22-.22.34-.33.34s-.2-.09-.4-.26a15.84,15.84,0,0,1-3.61-4.56c-.08-.17-.05-.22.23-.42Zm16.07,23.38c-.17.25-.23.39-.34.39s-.2-.09-.36-.25a19.39,19.39,0,0,1-6-10.31,14.92,14.92,0,0,1-6,10.59c-.2.14-.31.22-.39.22s-.2-.11-.39-.36a3,3,0,0,0-1-.84c4.93-2.75,6.64-8.4,6.61-13a20.79,20.79,0,0,0-.11-2.94,12.35,12.35,0,0,1,1.74.2c.25.06.33.14.33.25a.93.93,0,0,1-.14.51,4.35,4.35,0,0,0-.22,1.84c1,5.74,3.44,9.94,7.19,12.63A3.58,3.58,0,0,0,995.2,279.85Zm-1.77-19.8A1.37,1.37,0,0,0,994,260a.84.84,0,0,1,.28-.09c.17,0,.34.09.76.51s.5.56.5.7-.08.22-.19.33a1.23,1.23,0,0,0-.39.7,40.3,40.3,0,0,1-2.24,5.13c-.12.25-.2.36-.28.36a.8.8,0,0,1-.42-.25,4.19,4.19,0,0,0-1.07-.51,21.5,21.5,0,0,0,2.47-5.32h-7.06a22.34,22.34,0,0,1-2.24,4.26c-.17.25-.25.36-.36.36a.8.8,0,0,1-.42-.25,3,3,0,0,0-1-.53,19.61,19.61,0,0,0,3.75-8.23,13.82,13.82,0,0,0,.28-1.93,13.73,13.73,0,0,1,1.68.36c.23.06.34.2.34.31a.58.58,0,0,1-.23.42,2.66,2.66,0,0,0-.44,1.09c-.26.92-.51,1.79-.79,2.66Z"/><path d="M1011.86,262.57a26.51,26.51,0,0,0,2.8,6.33,25.64,25.64,0,0,0,3.61-3.73,4.92,4.92,0,0,0,.76-1.28,7,7,0,0,1,1.42,1c.2.17.23.26.23.4s-.14.25-.31.36a4.85,4.85,0,0,0-1.29,1.15,32.5,32.5,0,0,1-3.58,3.39,22.38,22.38,0,0,0,7.78,6.6,3.78,3.78,0,0,0-1,1.1c-.17.25-.22.36-.36.36s-.2-.08-.39-.2a22.25,22.25,0,0,1-10.06-13c.09,4.56.2,8.87.2,12.79a2.15,2.15,0,0,1-1,2.13c-.56.28-1.23.42-3.39.45-.53,0-.53,0-.67-.56a3.47,3.47,0,0,0-.64-1.29c.67.06,1.4.11,2,.11,1.46,0,1.91-.19,1.91-1.34V262.57h-7.06c-2.66,0-3.56.06-3.7.06s-.22,0-.22-.23v-1.23c0-.2,0-.22.22-.22s1,.05,3.7.05h7.06v-2.13a17.19,17.19,0,0,0-.2-3.36c.67,0,1.32.09,1.88.17.19,0,.3.11.3.23a1.27,1.27,0,0,1-.14.58,10.54,10.54,0,0,0-.14,2.36V261h7.2c2.69,0,3.56-.05,3.72-.05s.23,0,.23.22v1.23c0,.2,0,.23-.23.23s-1-.06-3.72-.06Zm-3.78,9.91a58.36,58.36,0,0,1-6.44,3.95,4.65,4.65,0,0,0-1,.62c-.14.14-.25.22-.37.22s-.22-.11-.33-.28a15.1,15.1,0,0,1-.76-1.51,14.15,14.15,0,0,0,2-.84,53.21,53.21,0,0,0,7-4.2,6.09,6.09,0,0,0,.11,1.15C1008.53,272.15,1008.53,272.15,1008.08,272.48Zm-5.57-8.09c.22-.2.28-.2.42-.11a18.59,18.59,0,0,1,3.52,3.72c.12.14.14.2-.08.42l-.73.7c-.31.28-.36.34-.47.14a15.25,15.25,0,0,0-3.42-3.83c-.2-.17-.17-.2.14-.45Zm13.3-8.23c.19-.17.22-.17.42-.06a18.58,18.58,0,0,1,3.5,2.72c.11.11.11.22-.2.47l-.53.48c-.31.28-.39.34-.56.14a14.18,14.18,0,0,0-3.31-2.8c-.19-.14-.19-.2.09-.45Z"/><path d="M828.24,16.67H813.83c-2.34,0-4.09.08-5.75.2-.4,0-.52-.12-.56-.52-.08-.67-.12-1.82-.12-2.58,2.34.2,4.05.24,6.39.24h10.08c2.18,0,4.49-.08,6.67-.12.51,0,.67.12.63.6,0,1.86-.08,3.85-.08,5.87V29c0,2.38.08,5.08.12,6.71,0,.4-.08.48-.47.48a15.86,15.86,0,0,1-2,0c-.47,0-.55,0-.55-.52V33.9H813.83c-2.26,0-4.33.07-6.19.15-.32,0-.4-.08-.44-.47a23.66,23.66,0,0,1-.12-2.54c2,.16,4.21.2,6.75.2h14.41Z"/><path d="M857.09,19.29A55.49,55.49,0,0,1,870,24.81c.32.16.4.35.28.63a12.68,12.68,0,0,1-.95,1.95c-.24.31-.4.39-.75.15a44,44,0,0,0-11.55-5.31v9.2c0,2.42.08,5.52.11,8.1.05.4-.07.52-.51.52a17,17,0,0,1-2,0c-.44,0-.56-.12-.56-.56.12-2.54.16-5.64.16-8.06V13.77a33.37,33.37,0,0,0-.44-6.35,16.39,16.39,0,0,1,3.3.52c.63.16.47.59.27,1.19a17,17,0,0,0-.27,4.4Z"/><path class="cls-1" d="M809.89,72.5c-94.93.77-168.14,19.91-191.2,53.56s-35.19,108-12.51,151.25c39,74.21,236.92,73.39,315.6,68.15,180.41-12,186-76.42,189.8-151.67C1115.1,123.63,1041.9,70.61,809.89,72.5Z"/><path class="cls-3" d="M997.5,386.88c-3.43-3.43-16.68-17.5-23.35-25.56-6.94-8.43-13.71-17.6-13.71-30,0-10.47,8.06-18.81,18.07-18.81,8.89,0,16.11,5.19,19.08,14.55h.09c3.06-9.82,10.56-14.55,19.08-14.55,10,0,18.06,8.34,18.06,18.81,0,12.41-6.76,21.58-13.71,30-6.67,8.06-20,22.13-23.43,25.56Z"/><path d="M997.5,386.88c-3.43-3.43-16.68-17.5-23.35-25.56-6.94-8.43-13.71-17.6-13.71-30,0-10.47,8.06-18.81,18.07-18.81,8.89,0,16.11,5.19,19.08,14.55h.09c3.06-9.82,10.56-14.55,19.08-14.55,10,0,18.06,8.34,18.06,18.81,0,12.41-6.76,21.58-13.71,30-6.67,8.06-20,22.13-23.43,25.56Z"/><path class="cls-4" d="M763.69,411.69c1.56-3.82,4.93-7.79,7.4-15.89,1.65-5.43.27-16.07-5-21.35a3,3,0,0,0-.92-.5c.48-.76,1-2.23,1-5.05.14-8.82-7.54-8.74-9.41-7.09-3.25.58-4.53,5.11-3.83,8.59-.1,0-.15,0-.21.07-.18-8.58-.46-18.68-.37-19.91.16-2.08,4.28-6.1,4.87-7.13s2.86-3.76,4.19-5.47-1.13-2.43-1.88-1a15.61,15.61,0,0,1-4.09,3.87c.24-.54,4.12-7.14,4.73-8.78s-1.09-2.52-2-1.08a34.05,34.05,0,0,1-3.63,5.23c.73-1.26,1.12-3.31,2.39-5.85s-1.08-2.81-2.24-1.18c-.24.33-4.47,8.69-4.47,8.69s2.21-5.59,2.91-8.12c.54-2-1.22-1.49-2.42-.11s-3.36,8.06-5.57,10.35c-.79-.36-.75-1-1.23-1.39-2-1.5-4.35-.86-3.41.23a7.62,7.62,0,0,1,1.69,4.9c.06.92,2.29,5.94,2.34,7.59,0,.57-.2,4.16-.49,8.7a16,16,0,0,0-12-4.59c-.77-3.43-1.15-6-.75-6.66,1.51-2.52,2.34-6.24,4.61-7.77s-2.16-2.6-4.1.19c-1.32,1.89-3.67,1.05-4.77-.92a17.88,17.88,0,0,1-1.49-4c-.24-1.2-.71-4.14-1.39-5.07-1.6-2.19-3-1-2.53.94s2.75,7.44,1,6.43c-1.43-2.09-2.45-4.19-3.37-5.83.33-3.05.56-5.18.61-5.51a20.53,20.53,0,0,0,.38-4.56c-.08-.72,3.28-8.69,3.68-9.31a12.37,12.37,0,0,0,1.74-5.08c.38-1.91-1.63-2.12-2.47-1.25a23.25,23.25,0,0,0-2.5,4.24c-.21.69-3.58,6.71-5,7a1.49,1.49,0,0,1-1.46-.7c-.1-.38-.49-5.7-.49-6.46s-.37-9.3-1.46-12.55-3.89-1.53-3.61.41c.35,2.48,0,11.34.1,11.72a27.48,27.48,0,0,1-.28,4.73c-.76-.49-1.29-5.4-1.49-6.61a47.61,47.61,0,0,0-1.15-7.72c-.17-.56-.1-3.2-.62-5.59s-3.24-1.64-3.65,0c-.22.86-.11,5.66-.14,6.15-.14,2.36.69,7.13.66,7.86-.07,1.42,1.42,7.23.1,7.37-1.11.11-2.57-4.7-3.44-5.91-.36-.5-3.17-8-3.72-9.42-.92-2.36-3.34-.79-3.44.62-.25,3.44,1.46,5.46,2.61,11,.2.95,1.87,5.68,2.23,6.6s.68,3.49,1,4.45-.53,4.16-.53,4.16c-2.23,1.93-6.24-1.82-6.65-2.31-3.18-3.82-9.68-1.33-7.29.23a37.76,37.76,0,0,1,4,3.55c1.07.9,5.84,6.91,6.26,7.49s4.14,5,6.6,8.43c.61.85.76,6,.65,13.24-2-.58-4.24-.58-5.42.16-2.07,1.31-4.68,2.39-5.22,4.38a15.81,15.81,0,0,0,0,8.84,5.68,5.68,0,0,0-2.46-2.33,9.22,9.22,0,0,0-5.84-.93,10.27,10.27,0,0,0-2,.35,15.33,15.33,0,0,0-1.73-2.69c1.08-2.49,1.87-4.31,2.19-5,1.64-3.64,4.11-4.7,5.92-8.25a19.54,19.54,0,0,1,4.52-4.8c1.33-.95,1.33-3.42,0-3s-5.73,5-5.31,3.23c.71-3,2.66-6.08,3.23-7.79s-1-2.47-1.8-1.52a57.5,57.5,0,0,0-4.13,7.6c-.52-2.15,2.17-6.37,2.74-8.65s-.85-3.71-2.18-1.81-4.27,10.87-4.36,8c-.07-2.36.73-4,1-5.56.58-2.8-1.77-2.16-2.55,0-1.6,4.43-1.55,5.21-2,9.9-1-1.62-.26-3-.81-4-1.4-2.41-3.42-.57-2.59,2.06,1.4,4.48-.69,6.7.92,10.49.31.71-.21,2.46-1.25,4.83a20.84,20.84,0,0,0-10.58.09.87.87,0,0,0-.17.07c-.34-3.86-.69-7.73-1.06-11.56-.17-1.84,4-5.23,3.59-7.32-.5-2.82-1-8.59-3.47-10.22-.5-1.94-5.24-19.21-6.11-22-1.6-5.11-5.16-3.47-4.48,1.95.27,2.14,3.39,10.47,3.1,13.34-1.55-.36-4.67-2.56-5.71,2.76-1.22.41-3.91.69-3,4.65-1.85-.11-6.64,1.16-.18,10.66,1,1.5,1.68,6.14,5.51,7.35-.1,5.19-.29,12.57-.49,20.48a8.53,8.53,0,0,0-3.83-1.74c1.21-1.79,1.56-5.65-.08-4.74.18-3.34,2.11-5.22.3-7.15-1.17-1.25,0-1.76-3.58-3.81-3.05-1.75-5.74-1.34-7-.53-2.06,1.35-2.12.29-4.17,2.64-1.28,1.46-.58,5.51-.53,8a.75.75,0,0,0-.67-.31c-2.23-6-3.65-10.79-2.81-12,1.34-1.93.62-3.54,2.81-5.21s-.38-2.44-1.87-1.93-2.13,2.2-2.77,1.16-1.29-7.74-2.2-9.8-2.58-1.42-2.32,0a39.5,39.5,0,0,1,.52,4.9c0,.9-3-3.87-4.26-4.9s-2.58-.78-1.29,1.29,2.06,3.74,2.06,4.64a29,29,0,0,1-3-3.61c-.91-1-2.5-1.33-1.68.77.9,2.33,2.45,3.33,2.45,4.31s-3-.18-4.39-.31-.9,1.42,0,1.68,3.87,1.66,4.23,2.51c2,4.86,1.69,6.59,3.14,8,1.26,1.21,2.81,5.91,4.34,11.69a3.43,3.43,0,0,0-.45-.16c-.39-.57-.58-.4-.84-.67s-.32.22-.77-.09-1.69-.39-3.6,0c-6.68,1.38-5.93,7.3-5.88,8.24s.58,1.65.75,2.71c0,3,1,5.17,2.28,4.55,0,.17.14.54.28,1-4.61,1.42-7.7,2.86-8.55,4.24-6,9.75,1.42,6.15,5.19,23.72H763.69Zm9.69-46.12-55.19-1.78c-.48-8.41-.72-15-.46-17.49,0-.24.06-.48.08-.73.94,1.47,2.66,4.48,3.93,6.66a31.51,31.51,0,0,1,1.65,6.19A20.37,20.37,0,0,0,718.19,363.79Zm34.59,11.93q0-1.67-.06-3.54c.35,1.27,1,2.72,1.5,2.51A2.51,2.51,0,0,0,752.78,375.72Z"/><path class="cls-5" d="M763.69,411.69c1.56-3.82,4.93-7.79,7.4-15.89,1.65-5.43.27-16.07-5-21.35a3,3,0,0,0-.92-.5c.48-.76,1-2.23,1-5.05.14-8.82-7.54-8.74-9.41-7.09-3.25.58-4.53,5.11-3.83,8.59-.1,0-.15,0-.21.07-.18-8.58-.46-18.68-.37-19.91.16-2.08,4.28-6.1,4.87-7.13s2.86-3.76,4.19-5.47-1.13-2.43-1.88-1a15.61,15.61,0,0,1-4.09,3.87c.24-.54,4.12-7.14,4.73-8.78s-1.09-2.52-2-1.08a34.05,34.05,0,0,1-3.63,5.23c.73-1.26,1.12-3.31,2.39-5.85s-1.08-2.81-2.24-1.18c-.24.33-4.47,8.69-4.47,8.69s2.21-5.59,2.91-8.12c.54-2-1.22-1.49-2.42-.11s-3.36,8.06-5.57,10.35c-.79-.36-.75-1-1.23-1.39-2-1.5-4.35-.86-3.41.23a7.62,7.62,0,0,1,1.69,4.9c.06.92,2.29,5.94,2.34,7.59,0,.57-.2,4.16-.49,8.7a16,16,0,0,0-12-4.59c-.77-3.43-1.15-6-.75-6.66,1.51-2.52,2.34-6.24,4.61-7.77s-2.16-2.6-4.1.19c-1.32,1.89-3.67,1.05-4.77-.92a17.88,17.88,0,0,1-1.49-4c-.24-1.2-.71-4.14-1.39-5.07-1.6-2.19-3-1-2.53.94s2.75,7.44,1,6.43c-1.43-2.09-2.45-4.19-3.37-5.83.33-3.05.56-5.18.61-5.51a20.53,20.53,0,0,0,.38-4.56c-.08-.72,3.28-8.69,3.68-9.31a12.37,12.37,0,0,0,1.74-5.08c.38-1.91-1.63-2.12-2.47-1.25a23.25,23.25,0,0,0-2.5,4.24c-.21.69-3.58,6.71-5,7a1.49,1.49,0,0,1-1.46-.7c-.1-.38-.49-5.7-.49-6.46s-.37-9.3-1.46-12.55-3.89-1.53-3.61.41c.35,2.48,0,11.34.1,11.72a27.48,27.48,0,0,1-.28,4.73c-.76-.49-1.29-5.4-1.49-6.61a47.61,47.61,0,0,0-1.15-7.72c-.17-.56-.1-3.2-.62-5.59s-3.24-1.64-3.65,0c-.22.86-.11,5.66-.14,6.15-.14,2.36.69,7.13.66,7.86-.07,1.42,1.42,7.23.1,7.37-1.11.11-2.57-4.7-3.44-5.91-.36-.5-3.17-8-3.72-9.42-.92-2.36-3.34-.79-3.44.62-.25,3.44,1.46,5.46,2.61,11,.2.95,1.87,5.68,2.23,6.6s.68,3.49,1,4.45-.53,4.16-.53,4.16c-2.23,1.93-6.24-1.82-6.65-2.31-3.18-3.82-9.68-1.33-7.29.23a37.76,37.76,0,0,1,4,3.55c1.07.9,5.84,6.91,6.26,7.49s4.14,5,6.6,8.43c.61.85.76,6,.65,13.24-2-.58-4.24-.58-5.42.16-2.07,1.31-4.68,2.39-5.22,4.38a15.81,15.81,0,0,0,0,8.84,5.68,5.68,0,0,0-2.46-2.33,9.22,9.22,0,0,0-5.84-.93,10.27,10.27,0,0,0-2,.35,15.33,15.33,0,0,0-1.73-2.69c1.08-2.49,1.87-4.31,2.19-5,1.64-3.64,4.11-4.7,5.92-8.25a19.54,19.54,0,0,1,4.52-4.8c1.33-.95,1.33-3.42,0-3s-5.73,5-5.31,3.23c.71-3,2.66-6.08,3.23-7.79s-1-2.47-1.8-1.52a57.5,57.5,0,0,0-4.13,7.6c-.52-2.15,2.17-6.37,2.74-8.65s-.85-3.71-2.18-1.81-4.27,10.87-4.36,8c-.07-2.36.73-4,1-5.56.58-2.8-1.77-2.16-2.55,0-1.6,4.43-1.55,5.21-2,9.9-1-1.62-.26-3-.81-4-1.4-2.41-3.42-.57-2.59,2.06,1.4,4.48-.69,6.7.92,10.49.31.71-.21,2.46-1.25,4.83a20.84,20.84,0,0,0-10.58.09.87.87,0,0,0-.17.07c-.34-3.86-.69-7.73-1.06-11.56-.17-1.84,4-5.23,3.59-7.32-.5-2.82-1-8.59-3.47-10.22-.5-1.94-5.24-19.21-6.11-22-1.6-5.11-5.16-3.47-4.48,1.95.27,2.14,3.39,10.47,3.1,13.34-1.55-.36-4.67-2.56-5.71,2.76-1.22.41-3.91.69-3,4.65-1.85-.11-6.64,1.16-.18,10.66,1,1.5,1.68,6.14,5.51,7.35-.1,5.19-.29,12.57-.49,20.48a8.53,8.53,0,0,0-3.83-1.74c1.21-1.79,1.56-5.65-.08-4.74.18-3.34,2.11-5.22.3-7.15-1.17-1.25,0-1.76-3.58-3.81-3.05-1.75-5.74-1.34-7-.53-2.06,1.35-2.12.29-4.17,2.64-1.28,1.46-.58,5.51-.53,8a.75.75,0,0,0-.67-.31c-2.23-6-3.65-10.79-2.81-12,1.34-1.93.62-3.54,2.81-5.21s-.38-2.44-1.87-1.93-2.13,2.2-2.77,1.16-1.29-7.74-2.2-9.8-2.58-1.42-2.32,0a39.5,39.5,0,0,1,.52,4.9c0,.9-3-3.87-4.26-4.9s-2.58-.78-1.29,1.29,2.06,3.74,2.06,4.64a29,29,0,0,1-3-3.61c-.91-1-2.5-1.33-1.68.77.9,2.33,2.45,3.33,2.45,4.31s-3-.18-4.39-.31-.9,1.42,0,1.68,3.87,1.66,4.23,2.51c2,4.86,1.69,6.59,3.14,8,1.26,1.21,2.81,5.91,4.34,11.69a3.43,3.43,0,0,0-.45-.16c-.39-.57-.58-.4-.84-.67s-.32.22-.77-.09-1.69-.39-3.6,0c-6.68,1.38-5.93,7.3-5.88,8.24s.58,1.65.75,2.71c0,3,1,5.17,2.28,4.55,0,.17.14.54.28,1-4.61,1.42-7.7,2.86-8.55,4.24-6,9.75,1.42,6.15,5.19,23.72H763.69Zm9.69-46.12-55.19-1.78c-.48-8.41-.72-15-.46-17.49,0-.24.06-.48.08-.73.94,1.47,2.66,4.48,3.93,6.66a31.51,31.51,0,0,1,1.65,6.19A20.37,20.37,0,0,0,718.19,363.79Zm34.59,11.93q0-1.67-.06-3.54c.35,1.27,1,2.72,1.5,2.51A2.51,2.51,0,0,0,752.78,375.72Z"/><path class="cls-6" d="M1059.09,393.31c-2.26-2.26-11-11.55-15.41-16.87-4.59-5.57-9-11.62-9-19.81a12.13,12.13,0,0,1,11.92-12.42c5.87,0,10.64,3.43,12.6,9.6h.06c2-6.48,7-9.6,12.6-9.6a12.13,12.13,0,0,1,11.92,12.42c0,8.19-4.46,14.24-9,19.81-4.4,5.32-13.21,14.61-15.47,16.87Z"/><path d="M1059.09,393.31c-2.26-2.26-11-11.55-15.41-16.87-4.59-5.57-9-11.62-9-19.81a12.13,12.13,0,0,1,11.92-12.42c5.87,0,10.64,3.43,12.6,9.6h.06c2-6.48,7-9.6,12.6-9.6a12.13,12.13,0,0,1,11.92,12.42c0,8.19-4.46,14.24-9,19.81-4.4,5.32-13.21,14.61-15.47,16.87Z"/></svg>