<svg id="レイヤー_1" data-name="レイヤー 1" xmlns="http://www.w3.org/2000/svg" viewBox="0 0 540 399.25"><defs><style>.cls-1,.cls-2{fill:none;}.cls-1{stroke:#000;stroke-miterlimit:10;stroke-width:5.67px;}.cls-2{stroke:#fff;stroke-linejoin:round;stroke-width:14.17px;}</style></defs><path d="M184.77,140.48c0-1,0-2.41,0-3.7a32,32,0,0,1-2.66,3.59c-.14.16-.22.25-.31.25s-.16-.09-.27-.28a4.15,4.15,0,0,0-.82-1.09,28,28,0,0,0,5.86-10,9.44,9.44,0,0,0,.44-1.9,10.21,10.21,0,0,1,1.71.64c.2.11.31.2.31.37a.42.42,0,0,1-.23.36c-.19.11-.33.42-.58,1.06a41.76,41.76,0,0,1-1.8,4.12v14c0,3,.06,4.28.06,4.42s0,.23-.22.23h-1.38c-.19,0-.22,0-.22-.23s.06-1.42.06-4.42Zm21.44-9.21c0,.22,0,.25-.22.25s-.76,0-2.38-.06v12.71c0,3,.06,4.26.06,5.24,0,1.15-.2,1.74-.76,2.13s-1.37.53-3.89.53c-.56,0-.56,0-.7-.56a3.63,3.63,0,0,0-.51-1.2c.9.08,1.6.11,2.64.11s1.45-.17,1.45-1.12V131.46h-8.51c-2.8,0-3.75.06-3.89.06s-.23,0-.23-.25v-1.21c0-.19,0-.22.23-.22s1.09,0,3.89,0h8.71c2.8,0,3.75,0,3.89,0s.22,0,.22.22Zm-8,9.71c0,3.78.06,4.4.06,4.54s0,.22-.23.22h-1.17c-.2,0-.23,0-.23-.22v-1.29h-4.87v2.07c0,.2,0,.23-.22.23h-1.18c-.19,0-.22,0-.22-.23s.05-.81.05-4.81v-2.33c0-2.27-.05-2.94-.05-3.11s0-.22.22-.22.73.06,2.55.06h2.58c1.84,0,2.38-.06,2.54-.06s.23,0,.23.22-.06.82-.06,2.52Zm-1.57-3.61h-4.87v5.38h4.87Z"/><path d="M218.45,131.35a9.71,9.71,0,0,0,.25-2.69,12,12,0,0,1,2.19.76.41.41,0,0,1,.11.73,1.8,1.8,0,0,0-.48.92c-.42,1.37-.78,2.69-1.2,4.06a26.24,26.24,0,0,1,2.71-.2c2.44,0,3.64,1.24,3.64,4.51a23.32,23.32,0,0,1-1.54,9.05,3.35,3.35,0,0,1-3.19,2.21,7.27,7.27,0,0,1-2.85-.51.45.45,0,0,1-.34-.47,4.78,4.78,0,0,0-.34-1.68,8.22,8.22,0,0,0,3.25.78c.81,0,1.35-.28,1.88-1.45a21.2,21.2,0,0,0,1.26-7.87c0-2.19-.42-3-1.93-3a19.59,19.59,0,0,0-3,.31,75.65,75.65,0,0,1-5.71,13.24.32.32,0,0,1-.47.14,7,7,0,0,1-1.13-.76c-.16-.13-.14-.27-.05-.44a59.64,59.64,0,0,0,5.37-11.93c-1.14.17-2.29.36-3.69.61a4.21,4.21,0,0,0-1.23.37c-.31.2-.56.2-.73-.14a10.62,10.62,0,0,1-.65-1.9,20.41,20.41,0,0,0,2.92-.14c1.54-.17,2.63-.34,3.94-.54C217.78,134,218.09,132.92,218.45,131.35Zm10.28,2.3a.35.35,0,0,1,.42.11,16,16,0,0,1,4.51,6.77c.05.2.08.34-.09.48a6.36,6.36,0,0,1-1.15.76c-.22.14-.42.11-.47-.17a15.7,15.7,0,0,0-4.48-7.09A11.68,11.68,0,0,1,228.73,133.65Z"/><path d="M252.13,146.44c0,.23,0,.31-.3.34a8.48,8.48,0,0,1-1.21.11c-.17,0-.25-.14-.25-.34,0-1.23,0-2.6,0-4-3.08,1.54-4.59,3-4.59,4.65s1.54,2.32,4.78,2.32a49.39,49.39,0,0,0,6.67-.56.24.24,0,0,1,.31.2,8.36,8.36,0,0,1,.16,1.37c0,.25-.11.37-.22.39a53.87,53.87,0,0,1-6.92.39c-3.92,0-6.46-1-6.46-4,0-2.35,1.54-4.25,6.18-6.52-.05-1.91-.69-2.66-2.35-2.64a8,8,0,0,0-4.59,2.27c-1,1-1.68,1.68-2.66,2.72-.17.2-.28.2-.42.06a9.28,9.28,0,0,1-1-1.1c-.08-.16-.11-.22.06-.39a30.86,30.86,0,0,0,6.49-7.78c-1.73.11-3.44.11-5.2,0-.23,0-.29-.08-.31-.28s-.14-.95-.17-1.4a54.16,54.16,0,0,0,6.49,0,24.41,24.41,0,0,0,1-2.8,4.42,4.42,0,0,0,.23-1.52,9.33,9.33,0,0,1,2.1.62.35.35,0,0,1,.05.62,2.46,2.46,0,0,0-.5.78c-.34.7-.59,1.29-.95,2.13a53.61,53.61,0,0,0,5.9-.93c.23-.05.28-.05.34.12.06.39.14.78.17,1.23,0,.19-.06.28-.36.33-2.22.4-4.6.7-6.84.93a24.15,24.15,0,0,1-2.85,4.17l0,.06a6.09,6.09,0,0,1,3.5-1.21,3.23,3.23,0,0,1,3.53,3.28c1.37-.62,3-1.35,4.37-2a7.65,7.65,0,0,0,2.13-1.43,6.78,6.78,0,0,1,1.37,1.63c.23.42,0,.59-.28.64a8.53,8.53,0,0,0-1.54.45c-2.13.9-3.89,1.54-5.94,2.41Z"/><path d="M274.51,149.52a4,4,0,0,0-.87.36,27.57,27.57,0,0,1-6.75,2.5c-.53.11-.53.08-.78-.42a3.31,3.31,0,0,0-.79-1,22.61,22.61,0,0,0,7-2.16,3.36,3.36,0,0,0,.95-.75,8.05,8.05,0,0,1,1.23.78c.2.17.28.22.28.36A.35.35,0,0,1,274.51,149.52Zm14.22-17.22c0,1.35.06,1.71.06,1.85s0,.22-.23.22-1.15-.05-3.92-.05H270.7c-2.77,0-3.73.05-3.89.05s-.23,0-.23-.22.06-.5.06-1.85v-1.57c0-1.34-.06-1.73-.06-1.87s0-.23.23-.23,1.12.06,3.89.06h13.94c2.77,0,3.75-.06,3.92-.06s.23,0,.23.23-.06.53-.06,1.87ZM273.41,130h-5.12v3h5.12Zm12.77,14.64c0,2,.06,2.8.06,3s0,.19-.23.19-1.14-.05-3.94-.05H273.3c-2.77,0-3.75.05-3.92.05s-.22,0-.22-.19,0-.93,0-3v-5.49c0-2,0-2.77,0-2.94s0-.22.22-.22,1.15.05,3.92.05h8.77c2.8,0,3.78-.05,3.94-.05s.23,0,.23.22-.06.9-.06,2.94Zm-1.68-7.22H270.87v2.07H284.5Zm0,3.35H270.87v2.11H284.5Zm0,3.39H270.87v2.21H284.5ZM280.11,130H275v3h5.13Zm1.2,18.22c.25-.19.31-.14.45,0a19.69,19.69,0,0,0,7.81,2.83,3.64,3.64,0,0,0-.67,1c-.23.53-.25.56-.78.45a24.61,24.61,0,0,1-7.62-3.28c-.17-.11-.14-.17.17-.42ZM287.08,130h-5.41v3h5.41Z"/><path d="M301,136.19a19.62,19.62,0,0,1,6.08-1.34c2.77,0,5.18,1.9,5.18,6.27a9.93,9.93,0,0,1-2.3,6.47,16.09,16.09,0,0,1-4.95,3.95c-.56.31-.76.25-.95,0a3.56,3.56,0,0,0-1.4-.95,14.93,14.93,0,0,0,6-4.57,8.26,8.26,0,0,0,1.6-5.09c0-3.36-1.77-4.32-3.48-4.32a13.45,13.45,0,0,0-4.08,1,21.2,21.2,0,0,0-2.52,1.15c-.39.22-.62.42-.9.42s-.39-.22-.53-.45a12.22,12.22,0,0,1-.9-1.79A12.83,12.83,0,0,0,301,136.19Zm9.33-6.07c.22,0,.31.14.28.36a8.74,8.74,0,0,1-.34,1.32c-.08.22-.11.33-.31.31a33.54,33.54,0,0,1-7.64-2.1c-.08,0-.11-.14-.08-.4a8.32,8.32,0,0,1,.44-1.54A29.19,29.19,0,0,0,310.32,130.12Z"/><path d="M329.27,140.62c0,7,.06,8.15.06,8.29s0,.22-.22.22H328c-.2,0-.22,0-.22-.22v-1.4h-3.65v2.32c0,.2,0,.22-.22.22H322.7c-.2,0-.23,0-.23-.22s.06-1.4.06-8.63v-5.51c0-5.12-.06-6.41-.06-6.55s0-.23.23-.23.64.06,2.23.06h1.94c1.59,0,2.07-.06,2.24-.06s.22,0,.22.23-.06,1.34-.06,5.65Zm-1.53-10.17h-3.65v6.86h3.65Zm0,8.32h-3.65V146h3.65Zm18.56-1.29c0,.2,0,.22-.22.22s-1.1,0-3.87,0h-7.95c-2.75,0-3.67,0-3.84,0s-.22,0-.22-.22v-1.15c0-.19,0-.22.22-.22s1.09.06,3.84.06h2.6v-3.73h-1.73c-2.58,0-3.45.06-3.59.06s-.25,0-.25-.23v-1.12c0-.22,0-.25.25-.25s1,.06,3.59.06h1.73a19.9,19.9,0,0,0-.19-3.59,17.82,17.82,0,0,1,1.82.14c.19,0,.33.11.33.26a2.14,2.14,0,0,1-.14.5,10.27,10.27,0,0,0-.17,2.69h2.55c2.58,0,3.42-.06,3.59-.06s.22,0,.22.25v1.12c0,.2,0,.23-.22.23s-1-.06-3.59-.06h-2.55v3.73h3.7c2.77,0,3.7-.06,3.87-.06s.22,0,.22.22Zm-.34,5c0,.2,0,.23-.22.23s-1-.06-3.36-.06v3.81c0,1.26,0,2.47,0,3.59a2,2,0,0,1-.79,1.87c-.47.34-1.23.48-3.25.48-.53,0-.56,0-.7-.53a3.66,3.66,0,0,0-.55-1.26c.83.08,1.7.11,2.63.11.58,0,1-.25,1-1v-7H334.4c-2.74,0-3.67.06-3.81.06s-.22,0-.22-.23v-1.14c0-.2,0-.2.22-.2s1.07,0,3.81,0h6.33v-.06a14.31,14.31,0,0,0-.2-3,13.63,13.63,0,0,1,1.79.2c.23,0,.37.14.37.22a1,1,0,0,1-.17.48,6.35,6.35,0,0,0-.14,2v.14c2.32,0,3.22,0,3.36,0s.22,0,.22.2Zm-12.34,1.8c.22-.14.27-.17.44,0a16,16,0,0,1,2.77,3.39c.12.16.09.25-.14.42l-.75.5c-.28.2-.36.25-.48.06a16.45,16.45,0,0,0-2.69-3.5c-.16-.17-.11-.25.17-.42Z"/><path d="M270,186.57v20.05h6.7v0l-13.05,14.92-13.05-14.92v0h6.7V186.57Z"/><path d="M204.87,265.69c0,.19,0,.22-.22.22s-.73-.06-2.69-.06h-.14v5.74c1-.47,1.93-1,3-1.65a6.06,6.06,0,0,0,0,1.12c.09.56.06.56-.45.84-.84.45-1.68.9-2.57,1.35v5.09c0,3.33.05,4.82.05,5s0,.19-.22.19h-1.29c-.19,0-.22,0-.22-.19s.06-1.63.06-4.93V274c-.82.36-1.63.76-2.5,1.12a3.17,3.17,0,0,0-.95.56.71.71,0,0,1-.39.22.33.33,0,0,1-.31-.22,13.64,13.64,0,0,1-.7-1.6,18.06,18.06,0,0,0,2.49-.78c.79-.31,1.57-.62,2.36-.95v-6.53h-2.44a25.18,25.18,0,0,1-.81,3.62c-.09.3-.12.42-.23.42a1.22,1.22,0,0,1-.45-.17,6.23,6.23,0,0,0-1-.28,24.65,24.65,0,0,0,1.4-7.25,7.41,7.41,0,0,0,0-1.57c.48.05,1.09.14,1.51.22.25.06.34.17.34.25a.67.67,0,0,1-.12.37,2.49,2.49,0,0,0-.16.75l-.23,2.16h2.22V262.1a22,22,0,0,0-.2-3.83,13.29,13.29,0,0,1,1.79.14c.2,0,.31.11.31.25a2.28,2.28,0,0,1-.11.5,11.43,11.43,0,0,0-.17,2.89v2.32H202c2,0,2.55-.06,2.69-.06s.22,0,.22.2Zm11-1.85c2.35,0,3.11-.06,3.25-.06s.28.09.28.28c0,.65-.06,1.29-.06,1.91a81.51,81.51,0,0,1-.89,12.93c-.45,2.77-1.35,4.26-3.59,4.26-.64,0-1.59-.06-2.49-.14-.53-.06-.53-.06-.64-.65a4.65,4.65,0,0,0-.42-1.26,18.29,18.29,0,0,0,3.3.34c1.43,0,2-1.26,2.24-3.08a84,84,0,0,0,.9-13.08h-1.46c-1.85,7.84-4.7,12.74-10,16.64a1,1,0,0,1-.42.22c-.11,0-.22-.11-.39-.34a3.35,3.35,0,0,0-1-.84c5.46-3.69,8.55-8.45,10.17-15.68H212c-1.45,4.93-3.36,7.68-6.41,10.22-.2.17-.31.26-.39.26s-.23-.12-.39-.31a2.87,2.87,0,0,0-1-.76,16.4,16.4,0,0,0,6.53-9.41h-2.58a22.77,22.77,0,0,1-2.32,3.25c-.2.23-.28.34-.39.34s-.2-.09-.4-.28a2.44,2.44,0,0,0-.89-.62,18.66,18.66,0,0,0,4.39-7.39,10.52,10.52,0,0,0,.51-2.35c.64.11,1.09.22,1.62.36.2.06.31.14.31.28a.68.68,0,0,1-.22.45,4.41,4.41,0,0,0-.56,1.32,27.32,27.32,0,0,1-1.29,3.19Z"/><path d="M228.64,275.65a34.66,34.66,0,0,0,3.5-1.76,7,7,0,0,0-.08,1.06c0,.59,0,.59-.45.87a52.78,52.78,0,0,1-6.24,2.91,6.2,6.2,0,0,0-1,.45.6.6,0,0,1-.37.17c-.08,0-.19-.06-.28-.25a11.63,11.63,0,0,1-.5-1.6,12.78,12.78,0,0,0,2.58-.7l1.2-.45v-7h-.45c-1.82,0-2.35.06-2.49.06s-.22,0-.22-.22V268c0-.2,0-.22.22-.22s.67,0,2.49,0H227v-6h-.64c-2,0-2.55.06-2.72.06s-.2,0-.2-.23v-1.2c0-.2,0-.23.2-.23s.76.06,2.72.06h2.85c2,0,2.55-.06,2.69-.06s.23,0,.23.23v1.2c0,.2,0,.23-.23.23s-.7-.06-2.69-.06h-.56v6H229c1.82,0,2.35,0,2.52,0s.2,0,.2.22v1.18c0,.19,0,.22-.2.22s-.7-.06-2.52-.06h-.31Zm20,6.11c0,.19,0,.22-.2.22s-1.12-.05-4-.05H234.19c-2.86,0-3.84.05-4,.05s-.22,0-.22-.22v-1.23c0-.2,0-.23.22-.23s1.12.06,4,.06H239v-3.64h-2.15c-2.63,0-3.5,0-3.67,0s-.22,0-.22-.22v-1.2c0-.2,0-.23.22-.23s1,.06,3.67.06H239V272h-2.15c-2.61,0-3.53.05-3.67.05s-.25,0-.25-.19,0-1,0-3.08v-5.66c0-2.1,0-2.86,0-3s0-.23.25-.23,1.06.06,3.67.06H243c2.61,0,3.5-.06,3.67-.06s.23,0,.23.23-.06.92-.06,3v5.66c0,2.12.06,2.91.06,3.08s0,.19-.23.19S245.64,272,243,272H240.6v3.19h2.6c2.63,0,3.5-.06,3.67-.06s.22,0,.22.23v1.2c0,.2,0,.22-.22.22s-1,0-3.67,0h-2.6v3.64h3.83c2.86,0,3.84-.06,4-.06s.2,0,.2.23ZM239,261.37h-4.42v3.81H239Zm0,5.21h-4.42v3.95H239Zm6.28-5.21H240.6v3.81h4.65Zm0,5.21H240.6v3.95h4.65Z"/><path d="M261,273.81c0,6.52,0,7.58,0,7.75s0,.23-.22.23h-1.2c-.2,0-.23,0-.23-.23V280h-5.37v2.21c0,.19,0,.22-.23.22h-1.2c-.2,0-.23,0-.23-.22s.06-1.29.06-8v-4.79c0-4.78-.06-5.93-.06-6.1s0-.22.23-.22.75.05,2.46.05a28.94,28.94,0,0,0,1-3.25,6.25,6.25,0,0,0,.19-1.62,11.14,11.14,0,0,1,1.83.42c.19.06.3.17.3.31a.46.46,0,0,1-.19.36,1.91,1.91,0,0,0-.45.81c-.25.73-.67,1.94-1.09,3h1.43c2,0,2.57-.05,2.71-.05s.22,0,.22.22,0,1.26,0,5.4Zm-1.6-9.27h-5.37v6h5.37Zm0,7.53h-5.37v6.41h5.37Zm12.66-8.82c2.21,0,2.91-.06,3-.06s.25.06.25.26c0,.7,0,1.4,0,2.1a82.68,82.68,0,0,1-.9,13.66c-.45,2.72-1.29,4.2-3.47,4.23-.79,0-1.77-.06-2.66-.14-.51-.06-.51-.06-.62-.65a4.76,4.76,0,0,0-.47-1.28,17.69,17.69,0,0,0,3.64.36c1.17,0,1.65-1.34,2-3.14a87.35,87.35,0,0,0,.81-13.8h-8.21a28.08,28.08,0,0,1-2.23,3.75c-.17.23-.26.34-.37.34s-.22-.09-.42-.28a3.83,3.83,0,0,0-.92-.67,23.78,23.78,0,0,0,3.94-7.26,10.62,10.62,0,0,0,.54-2.49,13.54,13.54,0,0,1,1.73.51c.23.08.42.22.42.36s-.05.28-.31.5a4.87,4.87,0,0,0-.64,1.32c-.31.78-.64,1.57-1,2.38Zm-6.36,5.82c.23-.16.28-.16.39,0a21,21,0,0,1,3.7,5.2c.11.23.08.28-.22.48l-.82.59c-.28.17-.33.19-.42,0a21.58,21.58,0,0,0-3.52-5.38c-.14-.17-.12-.19.19-.42Z"/><path d="M286.66,265.18a16.53,16.53,0,0,0,6.27,6.64,3,3,0,0,0-.78,1.06c-.12.25-.2.37-.31.37s-.22-.09-.39-.23a19.92,19.92,0,0,1-5.55-6.38,23,23,0,0,1-4,5.49c.28,0,.95.05,2.57.05h2.8c1.93,0,2.55-.05,2.69-.05s.22,0,.22.19,0,.81,0,2.41v2.16c0,3.52,0,4.08,0,4.22s0,.23-.22.23h-1.2c-.2,0-.23,0-.23-.23v-.61h-5.35v1.59c0,.2,0,.23-.22.23h-1.2c-.17,0-.2,0-.2-.23s.06-.75.06-4.64v-2.13c0-1.79-.06-2.55-.06-2.86a20.09,20.09,0,0,1-1.68,1.51c-.17.14-.28.23-.36.23s-.2-.14-.34-.39a3,3,0,0,0-.7-1,18,18,0,0,0,6-6.94,5,5,0,0,0,.54-1.68c.61.08,1.26.2,1.62.28s.36.14.36.28a.28.28,0,0,1-.16.28Zm-2-4.7a3.41,3.41,0,0,0-.59.84,21,21,0,0,1-3.75,4.56c-.19.14-.31.23-.39.23s-.2-.12-.33-.34a2.9,2.9,0,0,0-.73-.9,15.48,15.48,0,0,0,3.66-4,5.42,5.42,0,0,0,.7-1.71,7.41,7.41,0,0,1,1.43.68c.17.11.25.19.25.33S284.81,260.37,284.64,260.48Zm3.92,13.19h-5.35V279h5.35ZM288,259.3c.28-.17.3-.17.44,0a13.31,13.31,0,0,0,3.95,4.34,3.48,3.48,0,0,0-.84.9c-.14.22-.22.33-.33.33s-.2-.08-.4-.25a15.84,15.84,0,0,1-3.61-4.56c-.08-.17-.05-.23.23-.42ZM304,282.68c-.17.25-.23.39-.34.39s-.19-.08-.36-.25a19.33,19.33,0,0,1-6.05-10.3,14.9,14.9,0,0,1-6,10.58c-.2.14-.31.23-.39.23s-.2-.12-.39-.37a3.18,3.18,0,0,0-1-.84c4.93-2.74,6.64-8.4,6.61-13a20.79,20.79,0,0,0-.11-2.94,11,11,0,0,1,1.74.2c.25.05.33.14.33.25a.92.92,0,0,1-.14.5,4.43,4.43,0,0,0-.22,1.85c1,5.74,3.44,9.94,7.19,12.63A3.43,3.43,0,0,0,304,282.68Zm-1.77-19.79a1.18,1.18,0,0,0,.56-.09.83.83,0,0,1,.28-.08c.17,0,.34.08.76.5s.5.56.5.7a.48.48,0,0,1-.19.34,1.23,1.23,0,0,0-.39.7,40.81,40.81,0,0,1-2.24,5.12c-.12.25-.2.37-.28.37s-.23-.09-.42-.26a4.16,4.16,0,0,0-1.07-.5,21.67,21.67,0,0,0,2.47-5.32h-7.06a22.34,22.34,0,0,1-2.24,4.26c-.17.25-.25.36-.36.36a.8.8,0,0,1-.42-.25,3,3,0,0,0-1-.53,19.7,19.7,0,0,0,3.75-8.24,12.3,12.3,0,0,0,.28-1.93,13.56,13.56,0,0,1,1.68.37c.23,0,.34.19.34.3a.55.55,0,0,1-.23.42,2.88,2.88,0,0,0-.44,1.1c-.26.92-.51,1.79-.79,2.66Z"/><path d="M320.68,265.41a26.26,26.26,0,0,0,2.8,6.32,25.06,25.06,0,0,0,3.61-3.72,5,5,0,0,0,.76-1.29,7,7,0,0,1,1.42,1c.2.17.23.25.23.39s-.14.25-.31.37a4.74,4.74,0,0,0-1.29,1.14,31.59,31.59,0,0,1-3.58,3.39,22.4,22.4,0,0,0,7.78,6.61,3.87,3.87,0,0,0-1,1.09c-.17.25-.22.37-.36.37s-.2-.09-.39-.2a22.3,22.3,0,0,1-10.06-13.05c.09,4.57.2,8.88.2,12.8a2.16,2.16,0,0,1-1,2.13c-.56.28-1.23.42-3.39.44-.53,0-.53,0-.67-.56a3.42,3.42,0,0,0-.64-1.28c.67.05,1.4.11,2,.11,1.46,0,1.91-.2,1.91-1.35V265.41h-7.06c-2.66,0-3.56,0-3.7,0s-.22,0-.22-.22V264c0-.2,0-.23.22-.23s1,.06,3.7.06h7.06v-2.13a17.13,17.13,0,0,0-.2-3.36,17,17,0,0,1,1.88.17c.19,0,.3.11.3.22a1.31,1.31,0,0,1-.14.59,10.49,10.49,0,0,0-.14,2.35v2.16h7.2c2.69,0,3.56-.06,3.72-.06s.23,0,.23.23v1.23c0,.19,0,.22-.23.22s-1,0-3.72,0Zm-3.78,9.91a59.94,59.94,0,0,1-6.44,3.95,4.76,4.76,0,0,0-1,.61c-.14.14-.25.23-.36.23s-.23-.12-.34-.28a15.34,15.34,0,0,1-.76-1.52,13.11,13.11,0,0,0,2.05-.84,52.15,52.15,0,0,0,7.05-4.2,6,6,0,0,0,.11,1.15C317.35,275,317.35,275,316.9,275.32Zm-5.57-8.09c.22-.2.28-.2.42-.12a18.64,18.64,0,0,1,3.52,3.73c.12.14.14.19-.08.42l-.73.7c-.3.28-.36.33-.47.14a15.3,15.3,0,0,0-3.42-3.84c-.2-.17-.17-.19.14-.45Zm13.3-8.24c.19-.16.22-.16.42-.05a18.94,18.94,0,0,1,3.5,2.71c.11.12.11.23-.2.48l-.53.48c-.31.28-.39.33-.56.14A14.18,14.18,0,0,0,324,260c-.19-.14-.19-.2.09-.45Z"/><path d="M242.68,27.21H251c2.82,0,5.76,0,8.18-.16.36,0,.44.12.44.48a14,14,0,0,1,0,1.83c0,.43-.12.47-.56.47-2.58-.08-5.4-.12-8.06-.12h-8.29V37A2.29,2.29,0,0,0,244,39.48a10.72,10.72,0,0,0,4.2.55c2.39,0,5.05-.28,7.35-.47.31,0,.35.08.39.39s.08,1.15.08,1.83c0,.43-.12.51-.51.55-2.19.2-4.8.32-7.62.32a14.4,14.4,0,0,1-5.48-.79c-1.55-.6-2.54-1.83-2.54-4.33V29.71h-3.17c-3,0-5.6.08-7.94.2-.48,0-.56-.12-.64-.59s-.16-1.55-.2-2.27c2.74.16,5.56.2,8.81.2h3.14V19.47c-3.21,0-5.28,0-7.34.16-.44,0-.56-.12-.6-.55,0-.76-.12-1.59-.12-2.3,2.38.15,5,.23,7.86.23h7.5c2.74,0,5,0,7.35-.12.43,0,.51.12.51.52s0,1.11,0,1.59-.12.55-.59.55c-2.46,0-4.85-.08-7.31-.08h-4.52Z"/><path d="M293.24,16.74a.65.65,0,0,1,.16,1,10.08,10.08,0,0,0-1.79,2.93,64.08,64.08,0,0,1-6.9,11.75A48.78,48.78,0,0,1,272.76,43.6a.73.73,0,0,1-1,0,8.35,8.35,0,0,0-2.34-1.11,46.91,46.91,0,0,0,12.81-11.59,51.24,51.24,0,0,0,6.35-11,16.81,16.81,0,0,0,1.27-4.76A17.45,17.45,0,0,1,293.24,16.74Z"/><path class="cls-1" d="M234.83,67.34c-87.66.79-166.93,17.5-188.23,51.71S10.5,223.62,31.45,267.54c36,75.43,234.05,82.57,306.71,77.25,166.6-12.2,194.37-85.43,175.28-154.16S449.09,65.42,234.83,67.34Z"/><path class="cls-2" d="M41.59,382.67a1.61,1.61,0,0,0,1.6,1.61H77.07V335.85H41.59Z"/><path class="cls-2" d="M86.31,384.28h33.88a1.61,1.61,0,0,0,1.6-1.61V335.85H86.31Z"/><path class="cls-2" d="M66.76,287.58l8-4.62,9.6,16.64,34.82-20.1a1.6,1.6,0,0,0,.58-2.19l-10.4-18a1.6,1.6,0,0,0-2.19-.59L84.17,272c4.34-4.39,9-10.53,9.34-16.9.55-10.56-5.32-15.92-11-17.41-7.57-2-15.73,1.91-19.41,9.29-3.44,6.9-1.45,13.65.31,19.6,1,3.36,1.88,6.37,1.65,8.85-2.27-1-4.43-3.32-6.84-5.86C54,265.06,49.11,260,41.41,259.49c-8.23-.5-15.69,4.61-17.75,12.16-1.54,5.66.16,13.42,9.58,18.22a19.44,19.44,0,0,0,8.88,1.87,42.21,42.21,0,0,0,10.43-1.5l-23,13.28a1.6,1.6,0,0,0-.58,2.19l10.4,18a1.61,1.61,0,0,0,2.19.58l34.82-20.1ZM69.26,250a10.57,10.57,0,0,1,9.38-6,8.69,8.69,0,0,1,2.13.26c4,1.06,6.17,4.86,5.88,10.41-.2,3.75-3.28,8.62-8.68,13.71a58.42,58.42,0,0,1-6,5A41.58,41.58,0,0,0,70,264.61C68.47,259.42,67,254.51,69.26,250Zm-32.9,33.73c-4.95-2.52-7.17-6.28-6.07-10.29a10.3,10.3,0,0,1,10-7.13c.24,0,.47,0,.71,0,5,.3,8.53,4,12.26,7.94a42.17,42.17,0,0,0,6.64,6.07,59.14,59.14,0,0,1-7.31,2.73C45.47,285.22,39.71,285.46,36.36,283.75Z"/><polygon class="cls-2" points="141.63 313.08 133.99 317.28 127.17 311.84 128.81 320.4 121.53 325.2 130.18 326.29 132.49 334.7 136.21 326.81 144.92 327.21 138.56 321.24 141.63 313.08"/><polygon class="cls-2" points="150.81 280 140.46 281.18 135.4 272.08 133.33 282.28 123.12 284.29 132.18 289.41 130.93 299.74 138.6 292.7 148.04 297.09 143.72 287.62 150.81 280"/><polygon class="cls-2" points="89.3 325.04 93.79 328.98 92.95 323.06 98.09 320.01 92.19 318.99 90.88 313.15 88.09 318.44 82.13 317.89 86.3 322.18 83.93 327.67 89.3 325.04"/><polygon class="cls-2" points="114.28 304.62 113.68 297.7 109.64 303.34 102.88 301.78 107 307.36 103.42 313.31 110 311.12 114.55 316.36 114.5 309.42 120.89 306.71 114.28 304.62"/><path d="M41.59,382.67a1.61,1.61,0,0,0,1.6,1.61H77.07V335.85H41.59Z"/><path d="M86.31,384.28h33.88a1.61,1.61,0,0,0,1.6-1.61V335.85H86.31Z"/><path d="M66.76,287.58l8-4.62,9.6,16.64,34.82-20.1a1.6,1.6,0,0,0,.58-2.19l-10.4-18a1.6,1.6,0,0,0-2.19-.59L84.17,272c4.34-4.39,9-10.53,9.34-16.9.55-10.56-5.32-15.92-11-17.41-7.57-2-15.73,1.91-19.41,9.29-3.44,6.9-1.45,13.65.31,19.6,1,3.36,1.88,6.37,1.65,8.85-2.27-1-4.43-3.32-6.84-5.86C54,265.06,49.11,260,41.41,259.49c-8.23-.5-15.69,4.61-17.75,12.16-1.54,5.66.16,13.42,9.58,18.22a19.44,19.44,0,0,0,8.88,1.87,42.21,42.21,0,0,0,10.43-1.5l-23,13.28a1.6,1.6,0,0,0-.58,2.19l10.4,18a1.61,1.61,0,0,0,2.19.58l34.82-20.1ZM69.26,250a10.57,10.57,0,0,1,9.38-6,8.69,8.69,0,0,1,2.13.26c4,1.06,6.17,4.86,5.88,10.41-.2,3.75-3.28,8.62-8.68,13.71a58.42,58.42,0,0,1-6,5A41.58,41.58,0,0,0,70,264.61C68.47,259.42,67,254.51,69.26,250Zm-32.9,33.73c-4.95-2.52-7.17-6.28-6.07-10.29a10.3,10.3,0,0,1,10-7.13c.24,0,.47,0,.71,0,5,.3,8.53,4,12.26,7.94a42.17,42.17,0,0,0,6.64,6.07,59.14,59.14,0,0,1-7.31,2.73C45.47,285.22,39.71,285.46,36.36,283.75Z"/><polygon points="141.63 313.08 133.99 317.28 127.17 311.84 128.81 320.4 121.53 325.2 130.18 326.29 132.49 334.7 136.21 326.81 144.92 327.21 138.56 321.24 141.63 313.08"/><polygon points="150.81 280 140.46 281.18 135.4 272.08 133.33 282.28 123.12 284.29 132.18 289.41 130.93 299.74 138.6 292.7 148.04 297.09 143.72 287.62 150.81 280"/><polygon points="89.3 325.04 93.79 328.98 92.95 323.06 98.09 320.01 92.19 318.99 90.88 313.15 88.09 318.44 82.13 317.89 86.3 322.18 83.93 327.67 89.3 325.04"/><polygon points="114.28 304.62 113.68 297.7 109.64 303.34 102.88 301.78 107 307.36 103.42 313.31 110 311.12 114.55 316.36 114.5 309.42 120.89 306.71 114.28 304.62"/></svg>