<svg id="レイヤー_1" data-name="レイヤー 1" xmlns="http://www.w3.org/2000/svg" viewBox="0 0 540 420"><defs><style>.cls-1,.cls-2,.cls-3,.cls-5{fill:none;}.cls-1{stroke:#000;stroke-width:5.67px;}.cls-1,.cls-2,.cls-5{stroke-miterlimit:10;}.cls-2,.cls-3,.cls-5{stroke:#fff;}.cls-2{stroke-width:14.17px;}.cls-3{stroke-linejoin:round;stroke-width:11.34px;}.cls-4{fill:#231815;fill-rule:evenodd;}.cls-5{stroke-width:8.5px;}</style></defs><path d="M188.66,207.62v20h6.7v0l-13.05,14.92-13.05-14.92v0H176v-20Z"/><path d="M89,145c0,1.68,0,3.28.09,5.07,0,.25-.06.33-.28.33a14.77,14.77,0,0,1-1.63,0c-.22,0-.28-.08-.28-.33.06-1.68.11-3.36.11-5v-8.28a53.45,53.45,0,0,1-8.79,6.32.47.47,0,0,1-.64-.11,5.16,5.16,0,0,0-1.4-.89,52.21,52.21,0,0,0,8.71-5.91,47.75,47.75,0,0,0,5.43-5.41,8.68,8.68,0,0,0,1.93-3.16,8.37,8.37,0,0,1,1.93,1.26.45.45,0,0,1-.11.78,6.84,6.84,0,0,0-1.57,1.49A47.24,47.24,0,0,1,89,135Z"/><path d="M106.09,138.61c1-1,2.47-2.5,4-4,.67-.67,1.06-.89,1.65-.89a2.49,2.49,0,0,1,1.71.75,106.15,106.15,0,0,0,12.85,9.19.35.35,0,0,1,.17.53,8.55,8.55,0,0,1-.87,1.4c-.14.19-.28.25-.5.08-4.46-3-8.74-6.24-12.69-9.52a.91.91,0,0,0-.56-.3.69.69,0,0,0-.53.25c-1.26,1.26-2.8,2.88-4.7,4.92a10.68,10.68,0,0,0-1.21,1.52.38.38,0,0,1-.64.11,15.49,15.49,0,0,1-1.63-1.48A20.18,20.18,0,0,0,106.09,138.61Zm12.83-7.2a.22.22,0,0,1,.33,0,13.56,13.56,0,0,1,3.17,3.39.21.21,0,0,1-.06.31l-.81.67a.23.23,0,0,1-.37-.06,12,12,0,0,0-3.24-3.58Zm2.38-1.85c.11-.08.19-.11.3,0a16.31,16.31,0,0,1,3.2,3.28c.08.14,0,.22-.09.33l-.75.68c-.12.11-.23.11-.34-.06a13.27,13.27,0,0,0-3.22-3.5Z"/><path d="M134.37,130.85a.34.34,0,0,1,.51-.06,26.39,26.39,0,0,1,5,3.73c.19.19.22.3.08.53a10.47,10.47,0,0,1-.95,1.2c-.17.2-.25.23-.45,0a29.07,29.07,0,0,0-5.32-4.14C133.64,131.69,134.06,131.19,134.37,130.85Zm2.52,14.84a47.37,47.37,0,0,0,8.09-5.21,43.06,43.06,0,0,0,7.56-7.53,8.64,8.64,0,0,0,.48,1.85c.17.36.14.59-.2,1a51.79,51.79,0,0,1-6.8,6.44,59,59,0,0,1-8.4,5.46,10.59,10.59,0,0,0-1.54,1.09.46.46,0,0,1-.76,0,10.79,10.79,0,0,1-1.37-1.9A16.16,16.16,0,0,0,136.89,145.69Z"/><path d="M169.2,136a39.44,39.44,0,0,1,9.13,3.9c.23.11.28.25.2.44a9.89,9.89,0,0,1-.67,1.38c-.17.22-.28.28-.54.11a30.75,30.75,0,0,0-8.14-3.75v6.49c0,1.71,0,3.89.08,5.71,0,.28-.06.37-.36.37s-1,0-1.43,0-.39-.09-.39-.4c.08-1.79.11-4,.11-5.68V132.08a23.29,23.29,0,0,0-.31-4.48,11.67,11.67,0,0,1,2.32.37c.45.11.34.42.2.84a11.43,11.43,0,0,0-.2,3.1Z"/><path d="M199.58,131.91c.26,0,.34,0,.37.17.05.34.11.84.14,1.21s0,.3-.25.33c-1.52.31-3,.56-4.68.81a66.85,66.85,0,0,1-5.63,11.82c-.14.22-.28.2-.45.08a6.79,6.79,0,0,1-1.12-.84c-.16-.14-.16-.25,0-.47a49.28,49.28,0,0,0,5.26-10.42c-1.2.11-2.32.2-3.53.2a14.16,14.16,0,0,1-1.48-.06c-.25,0-.28-.05-.34-.34a9.25,9.25,0,0,1-.17-1.39c.9.08,1.63.11,2.22.11a36,36,0,0,0,3.8-.23,33.18,33.18,0,0,0,.84-3.27,8.12,8.12,0,0,0,.23-2.19A12,12,0,0,1,197,128a.32.32,0,0,1,.25.31.56.56,0,0,1-.22.42,2.67,2.67,0,0,0-.39.87c-.31,1-.62,2-.9,3A35,35,0,0,0,199.58,131.91Zm1.71,6.78a8.71,8.71,0,0,0-.17-1.79,8.43,8.43,0,0,1,1.91.36c.19.06.31.17.31.34a1.5,1.5,0,0,1-.17.5,4.43,4.43,0,0,0-.11,1.32,48.64,48.64,0,0,0,.33,5.15,24,24,0,0,1,5.29,2.8c.23.14.2.22.12.45a8.37,8.37,0,0,1-.68,1.23c-.14.19-.28.17-.44,0a17,17,0,0,0-4.26-2.66c0,2.82-1.4,4.37-5,4.37-2.13,0-4.34-1.1-4.34-3.42,0-2.1,2-3.53,4.76-3.53a13.64,13.64,0,0,1,2.8.34C201.46,142.44,201.32,140.2,201.29,138.69Zm-2.38,6.69c-2.24,0-3.25.87-3.25,1.91,0,1.28,1,1.87,2.89,1.87,2.29,0,3.13-1.2,3.13-2.63a5.22,5.22,0,0,0,0-.67A9.3,9.3,0,0,0,198.91,145.38Zm4.76-12.54c.14-.23.23-.25.48-.17a20,20,0,0,1,5.49,2.63c.19.17.19.28.05.51a8.14,8.14,0,0,1-.64,1.12c-.14.19-.23.16-.39,0a18.81,18.81,0,0,0-5.72-2.85C203.22,133.65,203.45,133.17,203.67,132.84Z"/><path d="M223.83,128.67a.39.39,0,0,1,.34.36c0,.28-.14.53-.14,1a17.77,17.77,0,0,0,.17,1.79,36.63,36.63,0,0,0,1.09,5.66c1.65-.82,3.33-1.6,5-2.52a4.72,4.72,0,0,0,1.63-1.29,11.07,11.07,0,0,1,1.42,1.57c.23.33.17.73-.33.78a10.7,10.7,0,0,0-2.47.9c-2,.95-4.45,2.1-6.35,3.19-2.83,1.65-4.15,3.11-4.15,5.07,0,2.49,2.36,3.11,6.58,3.08a53.74,53.74,0,0,0,7.2-.59c.25,0,.34,0,.39.25a11.43,11.43,0,0,1,.17,1.46c0,.25-.08.36-.39.39a62.81,62.81,0,0,1-7.45.39c-4.84,0-8.34-1.06-8.34-4.9,0-2.69,1.9-4.76,5.46-6.92a49.4,49.4,0,0,1-1.49-7.16,10.8,10.8,0,0,0-.61-2.75A12.83,12.83,0,0,1,223.83,128.67Zm9.35.11c.12-.09.2-.06.31,0a13.68,13.68,0,0,1,3.17,3.38.21.21,0,0,1-.06.31l-.81.67a.23.23,0,0,1-.37,0,12.13,12.13,0,0,0-3.24-3.59Zm2.36-1.82c.11-.09.19-.11.3,0a16.31,16.31,0,0,1,3.2,3.28c.08.14.05.22-.09.33l-.75.67c-.12.11-.23.11-.34-.05a13.27,13.27,0,0,0-3.22-3.5Z"/><path d="M255.64,132.11a31.14,31.14,0,0,1-3.7,12.24c-1.2,2-2.46,2.88-4.11,2.88-2.1,0-4.09-2.3-4.09-6.36a10.18,10.18,0,0,1,3.25-7.25,11.94,11.94,0,0,1,8.4-3.11c6.27,0,10,3.67,10,9,0,4.56-2.82,8.23-8.9,9.77a.55.55,0,0,1-.73-.31,3.2,3.2,0,0,0-1.09-1c5.54-1.09,8.74-4.09,8.74-8.77a7,7,0,0,0-7.23-7.08Zm-7.42,2.69a8.65,8.65,0,0,0-2.69,6c0,3.05,1.26,4.36,2.27,4.36s1.79-.61,2.6-2a29.62,29.62,0,0,0,3.28-10.95A9.4,9.4,0,0,0,248.22,134.8Z"/><path d="M147,177.21c0-1.07,0-2.66.06-4a30.26,30.26,0,0,1-2.61,3.53c-.17.2-.25.31-.33.31s-.14-.11-.23-.28a3.52,3.52,0,0,0-.67-1.12,27.72,27.72,0,0,0,5.57-9.91,8.16,8.16,0,0,0,.42-1.88,11.1,11.1,0,0,1,1.68.59c.2.08.28.2.28.34s-.11.25-.25.39a3.09,3.09,0,0,0-.53,1,44.8,44.8,0,0,1-1.77,4.18v14.11c0,3,.06,4.25.06,4.39s0,.23-.2.23h-1.31c-.2,0-.23,0-.23-.23s.06-1.42.06-4.39Zm21.73,10.19c0,.2,0,.22-.23.22s-1-.05-3.69-.05H154.48v1.34c0,.2,0,.23-.23.23h-1.17c-.2,0-.23,0-.23-.23s.06-.95.06-3.11v-6.52c0-.73,0-1.46,0-2.21a20.77,20.77,0,0,1-2.16,2.43c-.2.17-.31.26-.42.26s-.17-.09-.28-.26a2.83,2.83,0,0,0-.76-.78,19.65,19.65,0,0,0,4.37-5.57,7.28,7.28,0,0,0,.76-2,10.06,10.06,0,0,1,1.51.53c.2.09.28.2.28.31s-.14.25-.28.36a5.77,5.77,0,0,0-.9,1.32l-.42.76h5.07a11.75,11.75,0,0,0,.87-1.74,6.11,6.11,0,0,0,.42-1.46,14.8,14.8,0,0,1,1.51.42c.2.09.31.2.31.28a.42.42,0,0,1-.2.37,1.36,1.36,0,0,0-.44.56,17.35,17.35,0,0,1-.82,1.57h3c2.58,0,3.44-.06,3.58-.06s.23,0,.23.22v1c0,.2,0,.23-.23.23s-1-.06-3.58-.06h-3.08v2.58h2.21c2.52,0,3.36,0,3.5,0s.23,0,.23.19v1c0,.19,0,.22-.23.22s-1,0-3.5,0h-2.21v2.57h2.21c2.52,0,3.39-.05,3.53-.05s.22,0,.22.22v.95c0,.2,0,.23-.22.23s-1-.06-3.53-.06h-2.21v2.74h3.53c2.66,0,3.58-.05,3.69-.05s.23,0,.23.22ZM166,167.55a8.4,8.4,0,0,0-.17-2.08,15.7,15.7,0,0,1,1.76.17c.2,0,.31.12.31.25a.71.71,0,0,1-.11.37,2.86,2.86,0,0,0-.17,1.26v1c0,1.2.06,1.71.06,1.85s0,.22-.23.22-1.12,0-3.83,0h-7.34c-2.74,0-3.7,0-3.86,0s-.23,0-.23-.22.06-.65.06-1.85v-1a12,12,0,0,0-.11-1.9,14.69,14.69,0,0,1,1.68.17c.19,0,.3.13.3.22a1.09,1.09,0,0,1-.16.5,3.34,3.34,0,0,0-.12,1.18v1.48H159v-2a12.29,12.29,0,0,0-.17-2.86c.67,0,1.31.09,1.73.14.2,0,.31.11.31.23a1.15,1.15,0,0,1-.17.5,8,8,0,0,0-.11,2v2H166Zm-6.22,8.2h-5.26v2.58h5.26Zm0,3.87h-5.26v2.57h5.26Zm0,3.86h-5.26v2.74h5.26Z"/><path d="M197,180.73c0,.2,0,.23-.2.23s-.86,0-2.74-.06v1.8c0,1.76.06,2.37.06,2.52s0,.22-.23.22h-1.23c-.2,0-.22,0-.22-.22v-.87h-7.06c0,.78,0,1.48,0,2,0,1.23-.2,1.74-.79,2.13s-1.62.5-3.78.5c-.53,0-.53,0-.7-.53a4.66,4.66,0,0,0-.67-1.26,14.69,14.69,0,0,0,2.47.11c1.51,0,1.79-.22,1.79-1.34v-1.65h-4.82c-2.85,0-3.78.05-3.95.05s-.22,0-.22-.22v-1c0-.2,0-.23.22-.23s1.1.06,3.95.06h4.82V180.9H176c-2.61,0-3.47.06-3.61.06s-.23,0-.23-.23v-1c0-.2,0-.23.23-.23s1,.06,3.61.06h7.7v-2h-4.82c-2.83,0-3.78.05-3.95.05s-.22,0-.22-.19v-1c0-.2,0-.22.22-.22s1.12.05,3.95.05h4.82v-1.9H180c-2.8,0-3.81.05-3.95.05s-.22,0-.22-.25.06-.45.06-1.54v-1.18c0-1.06-.06-1.37-.06-1.53s0-.23.22-.23,1.15.06,3.95.06h3.7v-1.74H176.2c-2.63,0-3.52.06-3.66.06s-.23,0-.23-.23v-1c0-.2,0-.23.23-.23s1,.06,3.66.06h7.51a12.36,12.36,0,0,0-.2-2.91,11.31,11.31,0,0,1,1.82.14c.2,0,.34.11.34.22a1.18,1.18,0,0,1-.17.53,6.36,6.36,0,0,0-.14,2v.06h7.5c2.64,0,3.5-.06,3.67-.06s.23,0,.23.23v1c0,.2,0,.23-.23.23s-1-.06-3.67-.06h-7.5v1.74h3.81c2.83,0,3.81-.06,4-.06s.23,0,.23.23-.06.47-.06,1.53v1.18c0,1.09.06,1.4.06,1.54s0,.25-.23.25-1.14-.05-4-.05h-3.81v1.9h4.51c2.85,0,3.86-.05,4-.05s.23,0,.23.22-.06.73-.06,2.49v.62c1.88,0,2.6-.06,2.74-.06s.2,0,.2.23ZM183.71,171h-6.27v2.16h6.27Zm8.06,0h-6.41v2.16h6.41Zm.65,6.61h-7.06v2h7.06Zm0,3.27h-7.06V183h7.06Z"/><path d="M99.1,277.56H104c1.79,0,3.33-.06,5.15-.11.28,0,.39.05.39.33v1.29c0,.28-.08.37-.39.37-1.57,0-3.39-.09-5.12-.09H92.15c-1.37,0-3.3.09-4.53.14-.31,0-.4-.05-.45-.42a12.27,12.27,0,0,1-.14-1.65c1.82.14,3.39.14,5.12.14h4.9V267H94.31c-1.68,0-2.94.06-4.26.14-.25,0-.28-.08-.33-.42a12.58,12.58,0,0,1-.12-1.65c1.52.11,2.75.14,4.62.14h7.26c1.73,0,3.16,0,4.9-.08.25,0,.28,0,.28.28v1.34c0,.28,0,.36-.31.36-1.79-.08-3.19-.11-4.84-.11H99.1Z"/><path d="M118.11,263.84a.33.33,0,0,1,.5-.06,25.78,25.78,0,0,1,5,3.73c.2.19.23.31.09.53a10.49,10.49,0,0,1-1,1.2c-.16.2-.25.23-.44,0a29.41,29.41,0,0,0-5.32-4.14C117.38,264.68,117.8,264.18,118.11,263.84Zm2.52,14.84a47.77,47.77,0,0,0,8.09-5.21,43.4,43.4,0,0,0,7.56-7.53,8.09,8.09,0,0,0,.48,1.85c.17.36.14.59-.2,1a52.43,52.43,0,0,1-6.8,6.44,59,59,0,0,1-8.4,5.46,10.59,10.59,0,0,0-1.54,1.09.46.46,0,0,1-.76,0,10.79,10.79,0,0,1-1.37-1.9A16.16,16.16,0,0,0,120.63,278.68Z"/><path d="M144.65,269a.37.37,0,0,1,.48-.19,22.27,22.27,0,0,1,4.93,2.54.39.39,0,0,1,.14.59,9.71,9.71,0,0,1-.73,1.21c-.17.22-.31.25-.53.05a19.76,19.76,0,0,0-5.16-2.83C144.15,269.83,144.46,269.27,144.65,269ZM149,279.72a50.86,50.86,0,0,0,7.7-4.82,48.64,48.64,0,0,0,8-7.76,6.73,6.73,0,0,0,.53,1.82.6.6,0,0,1-.14.76,46.76,46.76,0,0,1-7.39,6.86,66.85,66.85,0,0,1-8.17,5.24,5,5,0,0,0-1.35.95c-.25.25-.53.19-.78-.09a18.26,18.26,0,0,1-1.32-1.87A12.1,12.1,0,0,0,149,279.72Zm-1-17.11c.16-.25.25-.25.5-.14a22.51,22.51,0,0,1,4.87,2.91c.25.2.23.31.09.56a8.46,8.46,0,0,1-.82,1.2c-.16.2-.28.14-.5-.05a18.49,18.49,0,0,0-5-3.17C147.37,263.53,147.68,263,148,262.61Zm12.18-1.21a.22.22,0,0,1,.3,0,13.72,13.72,0,0,1,3.17,3.39.21.21,0,0,1-.06.31l-.81.67a.22.22,0,0,1-.36,0,12.18,12.18,0,0,0-3.25-3.59Zm2.35-1.84c.11-.09.19-.12.31,0A16.21,16.21,0,0,1,166,262.8c.08.14,0,.23-.09.34l-.75.67c-.11.11-.22.11-.34-.05a13.27,13.27,0,0,0-3.22-3.5Z"/><path d="M186.74,270.59h-6.3c-1.21,0-3.05.11-4.18.17-.28,0-.39-.06-.41-.42s-.09-1-.12-1.52c1.54.12,3.14.14,4.68.14h4.51c1.09,0,2.26,0,3.3,0,.31,0,.34.08.34.36,0,1.18-.06,2.35-.06,3.47v5.94c0,1.06,0,2.55.08,3.95,0,.31-.08.42-.39.42s-.78,0-1.12,0-.33-.06-.33-.31v-1h-6.56c-1.17,0-2.63.08-4,.17-.28,0-.36-.06-.39-.4a11.22,11.22,0,0,1-.11-1.54c1.54.09,3.22.14,4.59.14h6.5V276h-5.83c-1.09,0-2.77,0-4,.14-.31,0-.42-.05-.45-.42a10.09,10.09,0,0,1-.08-1.45c1.59.08,3.19.11,4.51.11h5.85Z"/><path d="M212.75,278c0,1.68,0,3.28.08,5.07,0,.25-.05.33-.28.33a14.59,14.59,0,0,1-1.62,0c-.23,0-.28-.08-.28-.33,0-1.68.11-3.36.11-5v-8.28A53.45,53.45,0,0,1,202,276.1a.49.49,0,0,1-.65-.11,5,5,0,0,0-1.39-.89,51.68,51.68,0,0,0,8.7-5.91,46.15,46.15,0,0,0,5.43-5.41,8.74,8.74,0,0,0,1.94-3.16,8.59,8.59,0,0,1,1.93,1.26.45.45,0,0,1-.11.78,6.84,6.84,0,0,0-1.57,1.49,51.19,51.19,0,0,1-3.5,3.86Z"/><path d="M233.3,266.53a16.64,16.64,0,0,0,6.27,6.63,3.19,3.19,0,0,0-.78,1.07c-.11.25-.2.36-.31.36s-.22-.08-.39-.22a19.7,19.7,0,0,1-5.54-6.39,22.62,22.62,0,0,1-4,5.49c.28,0,1,.06,2.57.06h2.8c1.94,0,2.55-.06,2.69-.06s.23,0,.23.2-.06.81-.06,2.41v2.15c0,3.53.06,4.09.06,4.23s0,.22-.23.22h-1.2c-.2,0-.23,0-.23-.22v-.62h-5.34v1.6c0,.2,0,.22-.23.22h-1.2c-.17,0-.2,0-.2-.22s.06-.76.06-4.65v-2.13c0-1.79-.06-2.54-.06-2.85a22,22,0,0,1-1.68,1.51c-.16.14-.28.22-.36.22s-.2-.14-.34-.39a2.79,2.79,0,0,0-.7-.95,18.15,18.15,0,0,0,6-6.94,5.21,5.21,0,0,0,.53-1.68c.61.08,1.26.19,1.62.28s.37.14.37.28a.3.3,0,0,1-.17.28Zm-2-4.71a3.89,3.89,0,0,0-.58.84,20.91,20.91,0,0,1-3.76,4.57c-.19.14-.3.22-.39.22s-.19-.11-.33-.33a2.67,2.67,0,0,0-.73-.9,15.71,15.71,0,0,0,3.67-4,6.06,6.06,0,0,0,.7-1.71,7.63,7.63,0,0,1,1.42.67c.17.11.26.2.26.34S231.45,261.71,231.28,261.82ZM235.2,275h-5.34v5.35h5.34Zm-.61-14.36c.28-.17.31-.17.45,0A13.38,13.38,0,0,0,239,265a4,4,0,0,0-.84.89c-.13.23-.22.34-.33.34s-.2-.09-.39-.25a15.91,15.91,0,0,1-3.62-4.57c-.08-.17-.05-.22.23-.42ZM250.66,284c-.17.25-.22.39-.34.39s-.19-.08-.36-.25a19.45,19.45,0,0,1-6.05-10.31,14.92,14.92,0,0,1-6,10.59c-.19.14-.31.22-.39.22s-.2-.11-.39-.36a3,3,0,0,0-1-.84c4.92-2.75,6.63-8.4,6.6-13a20.71,20.71,0,0,0-.11-2.94,11,11,0,0,1,1.74.19c.25.06.33.14.33.25a.93.93,0,0,1-.14.51,4.43,4.43,0,0,0-.22,1.85c1,5.74,3.44,9.94,7.2,12.62A3.62,3.62,0,0,0,250.66,284Zm-1.76-19.8a1.43,1.43,0,0,0,.56-.08.71.71,0,0,1,.28-.09c.16,0,.33.09.75.51s.51.56.51.7-.09.22-.2.33a1.31,1.31,0,0,0-.39.7,40.3,40.3,0,0,1-2.24,5.13c-.11.25-.2.36-.28.36a.8.8,0,0,1-.42-.25,4.16,4.16,0,0,0-1.07-.5,21.48,21.48,0,0,0,2.47-5.32h-7.06a22.57,22.57,0,0,1-2.24,4.25c-.17.25-.25.37-.36.37s-.23-.09-.42-.26a3.21,3.21,0,0,0-1-.53,19.75,19.75,0,0,0,3.76-8.23,13.5,13.5,0,0,0,.27-1.93,13.93,13.93,0,0,1,1.69.36c.22.06.33.2.33.31a.57.57,0,0,1-.22.42,2.84,2.84,0,0,0-.45,1.09c-.25.93-.51,1.79-.78,2.66Z"/><path d="M267.32,266.75a26.16,26.16,0,0,0,2.8,6.33,25.56,25.56,0,0,0,3.61-3.72,5.14,5.14,0,0,0,.76-1.29,7,7,0,0,1,1.43,1c.19.16.22.25.22.39s-.14.25-.31.36a4.85,4.85,0,0,0-1.29,1.15,32.5,32.5,0,0,1-3.58,3.39,22.51,22.51,0,0,0,7.78,6.61,3.73,3.73,0,0,0-1,1.09c-.16.25-.22.36-.36.36a1.17,1.17,0,0,1-.39-.19A22.29,22.29,0,0,1,267,269.19c.08,4.56.19,8.87.19,12.79a2.15,2.15,0,0,1-1,2.13c-.56.28-1.23.42-3.39.45-.53,0-.53,0-.67-.56a3.55,3.55,0,0,0-.64-1.29c.67.06,1.4.11,2,.11,1.46,0,1.91-.19,1.91-1.34V266.75h-7.06c-2.66,0-3.55.06-3.69.06s-.23,0-.23-.23v-1.23c0-.19,0-.22.23-.22s1,.05,3.69.05h7.06v-2.12a17.13,17.13,0,0,0-.2-3.36,17.15,17.15,0,0,1,1.88.16c.19,0,.31.12.31.23a1.5,1.5,0,0,1-.14.59,9.84,9.84,0,0,0-.14,2.35v2.15h7.19c2.69,0,3.56-.05,3.73-.05s.22,0,.22.22v1.23c0,.2,0,.23-.22.23s-1-.06-3.73-.06Zm-3.78,9.91a58.36,58.36,0,0,1-6.44,3.95,4.65,4.65,0,0,0-1,.62c-.14.14-.25.22-.36.22s-.23-.11-.34-.28c-.22-.39-.53-1-.76-1.51a13.11,13.11,0,0,0,2-.84,51.54,51.54,0,0,0,7.05-4.2,5.29,5.29,0,0,0,.12,1.15C264,276.33,264,276.33,263.54,276.66ZM258,268.57c.22-.19.28-.19.42-.11a18.92,18.92,0,0,1,3.53,3.72c.11.14.14.2-.09.42l-.73.7c-.3.28-.36.34-.47.14a15.43,15.43,0,0,0-3.42-3.83c-.19-.17-.16-.2.14-.45Zm13.3-8.23c.2-.17.22-.17.42-.06a18.68,18.68,0,0,1,3.5,2.72c.11.11.11.22-.2.48l-.53.47c-.31.28-.39.34-.56.14a14.34,14.34,0,0,0-3.3-2.8c-.2-.14-.2-.19.08-.45Z"/><path d="M386.23,207.62v20h6.69v0l-13.05,14.92-13-14.92v0h6.69v-20Z"/><path d="M319.79,139.42c.25-.12.28-.12.39.08a26,26,0,0,1,2.07,4.79c.08.25.05.28-.31.42l-.61.25c-.4.17-.42.14-.51-.11-.17-.53-.31-1.07-.5-1.57-.87.11-1.71.2-2.58.28v7.5c0,3.06.06,3.95.06,4.09s0,.2-.23.2h-1.26c-.19,0-.22,0-.22-.2s.05-1,.05-4.09V143.7c-1,.08-2,.17-2.91.22a2.58,2.58,0,0,0-1.09.26.72.72,0,0,1-.31.11c-.14,0-.25-.11-.3-.37-.09-.42-.14-.86-.23-1.51a12.08,12.08,0,0,0,1.82.06h.31c.73-.95,1.4-1.91,2-2.86a37.9,37.9,0,0,0-4.06-4.39c-.16-.17-.19-.2.06-.51l.48-.59c.19-.25.25-.28.42-.11.36.37.75.7,1.09,1.07a36.1,36.1,0,0,0,1.9-3.25,7.05,7.05,0,0,0,.7-1.79,10,10,0,0,1,1.51.67c.2.11.28.22.28.33a.36.36,0,0,1-.22.34,1.27,1.27,0,0,0-.5.59,48.17,48.17,0,0,1-2.64,4.14c.65.67,1.26,1.37,1.91,2.13.73-1.18,1.43-2.35,2.13-3.56a10.06,10.06,0,0,0,.84-1.84,9.74,9.74,0,0,1,1.48.7c.2.11.25.19.25.33s-.08.25-.25.37a4.6,4.6,0,0,0-1,1.26c-1.57,2.49-3.14,4.81-4.73,6.88,1.51,0,3.05-.16,4.7-.3-.28-.7-.62-1.38-.95-2-.09-.17-.06-.2.28-.36Zm-5.3,7.3a4,4,0,0,0-.28,1.07,26.34,26.34,0,0,1-1.2,5.12c-.08.25-.14.39-.25.39s-.2-.08-.42-.22a4.67,4.67,0,0,0-1-.42,17.38,17.38,0,0,0,1.37-5.15,9.76,9.76,0,0,0,.08-1.74c.59.11,1.15.23,1.43.31s.39.17.39.28A.54.54,0,0,1,314.49,146.72Zm5.52-.95c.28-.08.31-.08.39.11a21,21,0,0,1,1.37,5c.06.25.06.28-.28.39l-.67.22c-.39.14-.45.14-.47-.11a23.07,23.07,0,0,0-1.24-5.07c-.05-.19,0-.22.31-.33Zm16.32-9.85c0,.16,0,.19-.22.19s-1-.05-3.72-.05H329.5v4.28h2c2.46,0,3.27-.06,3.44-.06s.23,0,.23.23v1.12c0,.19,0,.22-.23.22s-1,0-3.44,0h-5.24c-2.46,0-3.3,0-3.44,0s-.22,0-.22-.22v-1.12c0-.2,0-.23.22-.23s1,.06,3.44.06h1.6v-4.28h-2.3c-2.68,0-3.55.05-3.72.05s-.22,0-.22-.19v-1.15c0-.2,0-.23.22-.23s1,.06,3.72.06h2.3v-1a20.93,20.93,0,0,0-.17-3.41,14.32,14.32,0,0,1,1.79.16c.2,0,.34.09.34.26a1.34,1.34,0,0,1-.14.44,10.57,10.57,0,0,0-.17,2.5v1.06h2.89c2.68,0,3.58-.06,3.72-.06s.22,0,.22.23Zm-1.7,14.22c0,3.92.05,4.56.05,4.7s0,.23-.22.23h-1.29c-.17,0-.2,0-.2-.23v-1.51h-8.14v1.6c0,.19,0,.22-.23.22h-1.23c-.2,0-.23,0-.23-.22s.06-.79.06-4.73V148c0-2.13-.06-2.83-.06-3s0-.22.23-.22.95.06,3.3.06h4.46c2.38,0,3.16-.06,3.33-.06s.22,0,.22.22-.05.87-.05,2.66ZM333,146.36h-8.14v5.49H333Z"/><path d="M345.52,136.08c2.07,0,2.69-.05,2.83-.05s.28.08.28.25c-.12.76-.2,1.43-.23,1.85a29.68,29.68,0,0,1-2.07,8.76c.95.7,1.9,1.51,3,2.47.17.16.17.28,0,.53l-.51.7c-.22.33-.33.36-.5.17a27.92,27.92,0,0,0-2.63-2.47A19.45,19.45,0,0,1,340.7,154c-.19.14-.31.23-.39.23s-.17-.11-.36-.37a3.37,3.37,0,0,0-.82-.78,16.35,16.35,0,0,0,5.24-5.74,27.08,27.08,0,0,0-2.61-1.65l-.39,1.17c-.08.23-.14.28-.47.2l-.84-.22c-.28-.06-.34-.12-.26-.34a62,62,0,0,0,2.61-9c-2,0-2.66.06-2.8.06s-.22,0-.22-.23v-1.12c0-.16,0-.19.22-.19s.76.05,2.8.05h.28c.22-1.2.42-2.46.61-3.8a12,12,0,0,0,.09-2.19,10,10,0,0,1,1.74.23c.19,0,.33.14.33.28a1.08,1.08,0,0,1-.22.47,2.85,2.85,0,0,0-.31,1.15c-.22,1.4-.45,2.66-.67,3.86ZM344,137.51c-.56,2.69-1.15,4.87-1.71,6.72,1,.56,1.9,1.12,2.8,1.74a27,27,0,0,0,1.88-8.46Zm14.62.17a10.76,10.76,0,0,0,.84,1.9c.92,1.77,2,2.61,2.68,2.61.79,0,1.15-1.26,1.38-2.91a3.38,3.38,0,0,0,.75.64c.48.34.48.34.37.87-.45,1.79-1.1,2.94-2.36,2.94-1.54,0-3-1.26-4.09-3.31a14.75,14.75,0,0,1-1.09-2.68l-4.9.25v3.39c1.43-.37,3-.84,4.51-1.4a3.93,3.93,0,0,0-.14,1c0,.44-.11.56-.53.7-1.29.44-3.67,1.17-5.63,1.7a2.78,2.78,0,0,0-.73.31c-.14.11-.19.17-.36.17s-.17-.11-.25-.31a9.86,9.86,0,0,1-.42-1.51,16.8,16.8,0,0,0,2-.28v-6.86a13.06,13.06,0,0,0-.17-2.63,8.24,8.24,0,0,1,1.79.5,38.14,38.14,0,0,0,7.2-1.71,4.08,4.08,0,0,0,1.42-.72,8.23,8.23,0,0,1,1.23,1.09.49.49,0,0,1,.2.36c0,.14-.17.25-.39.25a4.47,4.47,0,0,0-1.07.2c-.89.25-1.93.5-3.05.78a29.49,29.49,0,0,0,.45,3.31l1.79-.09c2.66-.11,3.61-.19,3.81-.19s.23,0,.23.22l0,1c0,.2,0,.22-.19.22s-1.21,0-3.84.12Zm3.55,12.46c0,4,.06,4.62.06,4.79s0,.19-.23.19h-1.2c-.2,0-.22,0-.22-.19v-1h-8v1.09c0,.19,0,.22-.23.22h-1.2c-.2,0-.23,0-.23-.22s.06-.79.06-4.82V148c0-2.24-.06-2.94-.06-3.11s0-.22.23-.22.95,0,3.27,0h4.32c2.35,0,3.13,0,3.24,0s.23,0,.23.22-.06.87-.06,2.72Zm-5.37-13.75a24.67,24.67,0,0,1-.45-3,38.79,38.79,0,0,1-4.15.75v2.47Zm3.78,9.75h-8v2.46h8Zm0,3.75h-8v2.71h8Z"/><path d="M382.2,142.66a2.33,2.33,0,1,1-2.33-2.32A2.35,2.35,0,0,1,382.2,142.66Z"/><path d="M404,142c.22-.11.28-.11.36.06a20.93,20.93,0,0,0,3.39,5.21,18.52,18.52,0,0,0,2.24-3.14,11.56,11.56,0,0,0,1.09-2.41c.67.26,1.26.54,1.66.73.19.11.33.25.33.39s-.11.31-.33.48a6.47,6.47,0,0,0-1,1.32,27.36,27.36,0,0,1-2.75,3.83c2.61,2.3,6.08,3.84,11.2,5a4.12,4.12,0,0,0-.81,1.26c-.14.36-.22.47-.42.47a1.66,1.66,0,0,1-.39-.08c-4.93-1.35-8.26-3-10.78-5.41-2.38,2.24-5.49,4-10.36,5.41a2,2,0,0,1-.45.08c-.19,0-.25-.11-.42-.45a3,3,0,0,0-.78-1c4.73-1.18,8.23-2.91,10.78-5.24a25.71,25.71,0,0,1-3.67-5.63c-.09-.19-.09-.25.25-.42Zm15.82-6.63c0,.19,0,.22-.23.22s-1-.05-3.69-.05h-16c-2.68,0-3.55.05-3.69.05s-.23,0-.23-.22v-1.26c0-.2,0-.23.23-.23s1,.06,3.69.06h6.95v-.78a11.6,11.6,0,0,0-.2-2.83,16.83,16.83,0,0,1,1.88.14c.19,0,.33.11.33.22a1.28,1.28,0,0,1-.17.51,7.88,7.88,0,0,0-.11,2v.78h7.34c2.66,0,3.56-.06,3.69-.06s.23,0,.23.23Zm-15.74,2.88a4.4,4.4,0,0,0-.84.87,22.35,22.35,0,0,1-5.43,4.87,1.08,1.08,0,0,1-.42.2c-.11,0-.19-.11-.36-.34a3,3,0,0,0-.93-.89,19,19,0,0,0,5.69-4.82,5.43,5.43,0,0,0,.78-1.43,9.33,9.33,0,0,1,1.49.79c.25.16.3.25.3.42S404.26,138.1,404.09,138.21Zm8.07-1.31c.28-.17.36-.17.5,0a19.15,19.15,0,0,0,7,5.51,3.93,3.93,0,0,0-.9,1c-.16.28-.25.39-.36.39a1.06,1.06,0,0,1-.45-.17,21.56,21.56,0,0,1-6.69-5.91c-.14-.19-.11-.25.2-.44Z"/><path d="M430,131.1a2.14,2.14,0,0,0,.72-.08A.58.58,0,0,1,431,131c.2,0,.31.08.73.53s.48.62.48.73a.44.44,0,0,1-.23.39,2.5,2.5,0,0,0-.53.9,56.9,56.9,0,0,1-2.57,5.51c1.9,2.3,2.66,4,2.66,5.66,0,2.32-.93,3.64-3.56,3.81-.56,0-.56,0-.67-.56a2.65,2.65,0,0,0-.48-1c2.41,0,3.14-.36,3.14-2.24,0-1.57-.76-3-2.77-5.4a53.26,53.26,0,0,0,2.88-6.64h-3.81v16.33c0,3.94.06,6,.06,6.16s0,.22-.23.22h-1.26c-.19,0-.22,0-.22-.22s.06-1.8.06-5.83V137.18c0-4.06-.06-5.77-.06-5.91s0-.23.22-.23.7.06,2,.06Zm6,18.65a2,2,0,0,0-.62.59,15.26,15.26,0,0,1-3.58,3.61c-.17.14-.28.22-.37.22s-.19-.11-.42-.33a3.48,3.48,0,0,0-.86-.65,13.11,13.11,0,0,0,3.75-3.47,3.9,3.9,0,0,0,.59-1.15,8.87,8.87,0,0,1,1.45.59.34.34,0,0,1,.23.31A.32.32,0,0,1,436,149.75Zm9.71-17.22a1.57,1.57,0,0,0,.62-.06.71.71,0,0,1,.31-.08c.16,0,.31.11.64.45s.51.58.51.7a.53.53,0,0,1-.2.36,4.61,4.61,0,0,0-.59.84,24.4,24.4,0,0,1-2.74,3.64,13.9,13.9,0,0,0,4.92,4.09,3.36,3.36,0,0,0-.75.95c-.14.28-.22.39-.34.39a1,1,0,0,1-.42-.22,17.48,17.48,0,0,1-7.45-10.05c-.08.33-.16.64-.27,1a18.74,18.74,0,0,1-6.84,9.18c-.19.14-.31.22-.42.22s-.19-.11-.33-.33a2.21,2.21,0,0,0-.68-.76,18.58,18.58,0,0,0,3.28-2.69,8.78,8.78,0,0,0-2.13-1.56c-.19-.12-.19-.17.06-.42l.33-.31c.23-.23.23-.23.43-.11a11.61,11.61,0,0,1,2.15,1.45,16.11,16.11,0,0,0,1-1.48,13.71,13.71,0,0,0-2.07-1.46c-.2-.11-.14-.17.05-.42l.34-.39c.2-.25.28-.17.45-.08a13.68,13.68,0,0,1,1.87,1.17,19.8,19.8,0,0,0,1.12-2.63h-3.22A17.21,17.21,0,0,1,432,138c-.19.17-.28.28-.39.28s-.2-.11-.42-.31a2.81,2.81,0,0,0-.78-.5,15.06,15.06,0,0,0,4.62-6.05,7.79,7.79,0,0,0,.3-1.37,8.48,8.48,0,0,1,1.43.3c.25.09.34.17.34.28a.41.41,0,0,1-.17.34,1.5,1.5,0,0,0-.45.67,8.33,8.33,0,0,1-.45,1h2.38c.84,0,1.29,0,1.52,0l-.2-.84c-.06-.2,0-.28.31-.37l.67-.19c.28-.09.31-.12.36.08a20.6,20.6,0,0,0,2.36,5.94,19.14,19.14,0,0,0,2.35-3.36h-1.57c-1.18,0-1.54.05-1.71.05s-.22,0-.22-.22v-1c0-.2,0-.23.22-.23s.53.06,1.85.06Zm2.1,14.47c0,.2,0,.23-.22.23s-1.06-.06-3.78-.06h-3.14v2.21c0,1,.06,2.24.06,3.25a2,2,0,0,1-.73,1.82c-.42.31-1,.53-3.11.51-.56,0-.56,0-.7-.59a3.08,3.08,0,0,0-.53-1.09c1,.08,1.79.11,2.44.11a.92.92,0,0,0,1-1v-5.18h-2.58c-2.71,0-3.61.06-3.78.06s-.22,0-.22-.23v-1.06c0-.2,0-.22.22-.22s1.07.05,3.78.05h7.31c2.72,0,3.61-.05,3.78-.05s.22,0,.22.22Zm-3.47-3.94c0,.19,0,.22-.22.22s-.67-.06-2.63-.06h-2.66c-1.91,0-2.47.06-2.61.06s-.22,0-.22-.22V142c0-.19,0-.22.22-.22s.7,0,2.61,0h2.66c2,0,2.49,0,2.63,0s.22,0,.22.22Zm-.39,5.57c.31-.2.34-.17.45,0a18,18,0,0,0,4.17,3.89,3.42,3.42,0,0,0-.73.78c-.17.28-.28.4-.39.4a.89.89,0,0,1-.42-.26,23.52,23.52,0,0,1-3.89-4.08c-.11-.17-.06-.17.28-.37Z"/><path d="M366.88,173.81c.25-.06.34,0,.37.17.05.33.11.84.14,1.2s0,.31-.26.34c-1.51.31-3,.56-4.67.81a67.9,67.9,0,0,1-5.63,11.82c-.14.22-.28.19-.45.08a6.39,6.39,0,0,1-1.12-.84c-.17-.14-.17-.25,0-.48a49.26,49.26,0,0,0,5.27-10.41c-1.21.11-2.33.19-3.53.19-.42,0-.84,0-1.48-.05-.26,0-.28-.06-.34-.34a9.4,9.4,0,0,1-.17-1.4,21.81,21.81,0,0,0,2.21.11,35.93,35.93,0,0,0,3.81-.22,32.68,32.68,0,0,0,.84-3.28,8.51,8.51,0,0,0,.23-2.18,12,12,0,0,1,2.18.56.32.32,0,0,1,.25.31.56.56,0,0,1-.22.42,2.38,2.38,0,0,0-.39.87c-.31,1-.62,2-.9,3A37.93,37.93,0,0,0,366.88,173.81Zm1.71,6.78a8.8,8.8,0,0,0-.17-1.8,9,9,0,0,1,1.91.37.35.35,0,0,1,.3.33,1.39,1.39,0,0,1-.16.51,4,4,0,0,0-.12,1.31,46.52,46.52,0,0,0,.34,5.16,24.19,24.19,0,0,1,5.29,2.8c.23.14.2.22.11.44a9.42,9.42,0,0,1-.67,1.24c-.14.19-.28.16-.45,0a17.2,17.2,0,0,0-4.25-2.66c0,2.83-1.4,4.37-5,4.37-2.13,0-4.34-1.09-4.34-3.41,0-2.1,2-3.53,4.76-3.53a14.34,14.34,0,0,1,2.8.33C368.76,184.34,368.62,182.1,368.59,180.59Zm-2.38,6.69c-2.24,0-3.25.87-3.25,1.9,0,1.29,1,1.88,2.89,1.88,2.29,0,3.13-1.21,3.13-2.63a3.61,3.61,0,0,0,0-.68A9.16,9.16,0,0,0,366.21,187.28ZM371,174.73c.14-.22.22-.25.48-.16a19.51,19.51,0,0,1,5.48,2.63c.2.17.2.28.06.5a7.59,7.59,0,0,1-.64,1.12c-.14.2-.23.17-.4.06a18.9,18.9,0,0,0-5.71-2.86C370.52,175.55,370.75,175.07,371,174.73Z"/><path d="M391.13,170.56a.42.42,0,0,1,.34.37c0,.28-.14.53-.14,1,0,.61.08,1.17.16,1.79a37.7,37.7,0,0,0,1.1,5.65c1.65-.81,3.33-1.59,5-2.52a4.46,4.46,0,0,0,1.62-1.28,11.73,11.73,0,0,1,1.43,1.56c.23.34.17.73-.33.79a10.64,10.64,0,0,0-2.47.89c-2,1-4.45,2.1-6.35,3.2-2.83,1.65-4.15,3.1-4.15,5.06,0,2.5,2.35,3.11,6.58,3.08a53.84,53.84,0,0,0,7.2-.58c.25,0,.33,0,.39.25a13.67,13.67,0,0,1,.17,1.45c0,.26-.09.37-.4.4a62.63,62.63,0,0,1-7.44.39c-4.85,0-8.35-1.07-8.35-4.9,0-2.69,1.91-4.76,5.46-6.92a50.6,50.6,0,0,1-1.48-7.17,10.35,10.35,0,0,0-.62-2.74A13,13,0,0,1,391.13,170.56Zm9.35.11c.11-.08.2,0,.31,0a13.69,13.69,0,0,1,3.16,3.39.2.2,0,0,1-.05.31l-.81.67a.23.23,0,0,1-.37-.06,12.13,12.13,0,0,0-3.25-3.58Zm2.35-1.82c.12-.08.2-.11.31,0a16,16,0,0,1,3.19,3.27c.09.14.06.23-.08.34l-.76.67c-.11.11-.22.11-.33-.06a13.61,13.61,0,0,0-3.22-3.5Z"/><path d="M320.41,261.37a25.38,25.38,0,0,0,1.65,6.78,14.92,14.92,0,0,0,1.59-3.25,8.67,8.67,0,0,0,.4-1.65,8.76,8.76,0,0,1,1.4.5c.19.09.28.17.28.28s-.09.23-.2.36a2.77,2.77,0,0,0-.39.76,22.58,22.58,0,0,1-2.33,4.43c1,1.59,2.16,2.68,2.89,2.68,1,0,1.29-1.06,1.71-3.16a3.26,3.26,0,0,0,.84.7c.47.28.5.34.36.84-.59,2.32-1.34,3.25-2.91,3.25-1.26,0-2.72-1.29-3.89-3.05a17.45,17.45,0,0,1-3.14,2.77c-.22.14-.34.22-.45.22s-.25-.08-.45-.28A2.78,2.78,0,0,0,317,273a16.45,16.45,0,0,0,4.09-3.44,25,25,0,0,1-2.21-8.18H308v2.49a33.69,33.69,0,0,1-.56,5.55,12.84,12.84,0,0,1-2.1,4.81c-.14.23-.22.34-.3.34s-.2-.09-.42-.28a3.23,3.23,0,0,0-1-.59,10.75,10.75,0,0,0,2.18-4.39,25.44,25.44,0,0,0,.62-6.25c0-2-.06-2.8-.06-2.94s0-.22.23-.22,1.14.05,3.94.05h8.21l-.09-1.12a11.82,11.82,0,0,0-.28-2,16.85,16.85,0,0,1,1.77.17c.19,0,.31.11.31.25a1.26,1.26,0,0,1-.12.48,3.72,3.72,0,0,0-.05,1.17c0,.37,0,.73,0,1.09h3.22c2.8,0,3.75-.05,3.89-.05s.22,0,.22.22v1.09c0,.2,0,.23-.22.23s-1.09-.06-3.89-.06Zm-12.16,14c.31.14.34.2.28.4a15.58,15.58,0,0,1-3,5c-.08.08-.14.14-.2.14s-.16-.06-.3-.14l-.7-.5c-.34-.26-.37-.31-.2-.48a12.42,12.42,0,0,0,2.88-4.56c.09-.23.17-.26.54-.12Zm9.36-10.8c0,.19,0,.22-.23.22s-.75-.06-2.6-.06H312c-1.88,0-2.46.06-2.63.06s-.2,0-.2-.22v-1c0-.22,0-.25.2-.25s.75.05,2.63.05h2.83c1.85,0,2.46-.05,2.6-.05s.23,0,.23.25Zm-.65,5.54c0,1.23.06,1.62.06,1.76s0,.23-.23.23-.7-.06-2.38-.06h-2.29c-1.71,0-2.24.06-2.38.06s-.23,0-.23-.23.06-.53.06-1.76v-1.65c0-1.23-.06-1.63-.06-1.77s0-.22.23-.22.67.06,2.38.06h2.29c1.68,0,2.22-.06,2.38-.06s.23,0,.23.22-.06.54-.06,1.77Zm-4.76,8.71c0,.64.14,1,.7,1.09a16.46,16.46,0,0,0,3,.2,11.75,11.75,0,0,0,4.25-.45c.67-.37.9-1.24,1-2.58a4.67,4.67,0,0,0,1.09.56c.51.17.54.25.45.73-.25,1.74-.84,2.38-1.54,2.69-1.15.53-3.13.53-5.21.53a20,20,0,0,1-4.11-.25,1.6,1.6,0,0,1-1.26-1.82v-2.72a14.24,14.24,0,0,0-.11-2.27,14.38,14.38,0,0,1,1.68.17c.22,0,.3.14.3.25a.87.87,0,0,1-.11.37,3.18,3.18,0,0,0-.14,1.23Zm3.39-11h-4.65v2.91h4.65Zm-.39,5.8c.28-.2.33-.2.53,0a17.4,17.4,0,0,1,2.86,2.83c.11.17.08.22-.2.42l-.64.44c-.31.23-.4.26-.54,0a16.57,16.57,0,0,0-2.71-2.88c-.17-.14-.14-.22.14-.42Zm7.28-16.75c.19-.14.25-.14.39,0a12.27,12.27,0,0,1,2.58,2c.16.17.11.23-.12.42l-.5.42c-.28.26-.36.31-.53.12a12.45,12.45,0,0,0-2.49-2.08c-.2-.14-.17-.22.08-.42Zm1.93,18c.28-.17.34-.14.5,0a19.14,19.14,0,0,1,3.17,4.37c.11.19.08.3-.2.44l-.81.42c-.31.17-.39.17-.5,0a19.9,19.9,0,0,0-3-4.46c-.14-.16-.14-.19.2-.39Z"/><path d="M333.51,263.14c.31.08.34.11.31.3a20.22,20.22,0,0,1-1.18,5.74c-.08.2-.14.17-.42.06l-.67-.28c-.39-.17-.42-.14-.31-.45a16.61,16.61,0,0,0,1.12-5.43c0-.2.06-.2.42-.11Zm1.46-2.47a18.82,18.82,0,0,0-.23-3.83,14.85,14.85,0,0,1,1.85.16c.2,0,.34.09.34.23a2.19,2.19,0,0,1-.12.5,11.42,11.42,0,0,0-.19,2.89v16.26c0,3.34.05,4.79.05,4.93s0,.23-.22.23h-1.32c-.19,0-.22,0-.22-.23s.06-1.59.06-4.9Zm3.24,1.74c.23-.06.31-.06.37.08a26,26,0,0,1,1.12,3.84c0,.19,0,.25-.28.36l-.67.23c-.37.11-.45.11-.48-.09a16.56,16.56,0,0,0-1-3.86c-.08-.23,0-.25.31-.37Zm18.18,5c0,.2,0,.2-.2.2s-1.06-.06-3.81-.06h-8.54c-2.74,0-3.67.06-3.81.06s-.22,0-.22-.2v-1c0-.19,0-.22.22-.22s1.07.06,3.81.06h2.86v-2h-1.91c-2.4,0-3.19,0-3.36,0s-.22,0-.22-.22v-.92c0-.2,0-.23.22-.23s1,.06,3.36.06h1.91v-1.88h-2.35c-2.58,0-3.45.06-3.59.06s-.22,0-.22-.23v-1c0-.19,0-.22.22-.22s1,.06,3.59.06h2.35a17.76,17.76,0,0,0-.2-3.08,12.89,12.89,0,0,1,1.79.14c.2,0,.34.13.34.25a1.43,1.43,0,0,1-.17.56,6.21,6.21,0,0,0-.17,2.13h3.22c2.58,0,3.45-.06,3.62-.06s.22,0,.22.22v1c0,.2,0,.23-.22.23s-1-.06-3.62-.06h-3.22V263h2.44c2.44,0,3.19-.06,3.33-.06s.25,0,.25.23v.92c0,.2,0,.22-.25.22s-.89,0-3.33,0h-2.44v2h4.09c2.75,0,3.67-.06,3.81-.06s.2,0,.2.22Zm-6.08,1.85c2.35,0,3.14-.06,3.28-.06s.22,0,.22.23-.06,1.12-.06,3.27v3c0,1.48,0,2.94,0,3.75s-.11,1.49-.59,1.85-1.17.53-2.77.5c-.53,0-.56,0-.73-.56a3.64,3.64,0,0,0-.58-1.09c.64.06,1.26.09,1.9.09,1.06,0,1.18-.31,1.18-1v-2H343v1.07c0,2.54.06,3.41.06,3.55s0,.2-.23.2h-1.23c-.2,0-.22,0-.22-.2s0-.89,0-3.5v-5.77c0-2.15,0-3,0-3.13s0-.23.22-.23.95.06,3.86.06Zm1.88,1.34H343v2h9.16Zm0,3.31H343v2h9.16Z"/><path d="M369.32,272.43c0,6.53.06,7.59.06,7.76s0,.22-.23.22H368c-.2,0-.22,0-.22-.22v-1.6h-5.38v2.21c0,.2,0,.23-.22.23h-1.21c-.19,0-.22,0-.22-.23s.05-1.29.05-8V268c0-4.79-.05-5.94-.05-6.1s0-.23.22-.23.76.06,2.47.06a29.23,29.23,0,0,0,1-3.25,6.31,6.31,0,0,0,.2-1.62,11,11,0,0,1,1.82.42c.19.05.31.16.31.3a.5.5,0,0,1-.2.37,1.84,1.84,0,0,0-.45.81c-.25.73-.67,1.93-1.09,3h1.43c2,0,2.57-.06,2.71-.06s.23,0,.23.23-.06,1.26-.06,5.4Zm-1.59-9.27h-5.38v6h5.38Zm0,7.54h-5.38v6.41h5.38Zm12.65-8.82c2.21,0,2.91-.06,3.05-.06s.26.06.26.25c-.06.7-.06,1.4-.06,2.1a82.73,82.73,0,0,1-.9,13.67c-.44,2.71-1.28,4.2-3.47,4.22-.78,0-1.76-.05-2.66-.14-.5-.05-.5-.05-.61-.64a4.72,4.72,0,0,0-.48-1.29,17.69,17.69,0,0,0,3.64.36c1.18,0,1.65-1.34,2-3.13a87.52,87.52,0,0,0,.81-13.8h-8.2a30.77,30.77,0,0,1-2.24,3.75c-.17.22-.25.33-.37.33s-.22-.08-.42-.28a3.83,3.83,0,0,0-.92-.67,23.81,23.81,0,0,0,4-7.25,10.69,10.69,0,0,0,.53-2.49,14.5,14.5,0,0,1,1.74.5c.22.08.42.23.42.37s-.06.28-.31.5a4.5,4.5,0,0,0-.65,1.32c-.3.78-.64,1.56-1,2.38ZM374,267.7c.22-.17.28-.17.39,0a21.24,21.24,0,0,1,3.69,5.21c.12.22.09.28-.22.47l-.81.59c-.28.17-.34.2-.42,0a21.55,21.55,0,0,0-3.53-5.37c-.14-.17-.11-.2.2-.42Z"/><path d="M394.94,263.81a16.64,16.64,0,0,0,6.27,6.63,3.33,3.33,0,0,0-.78,1.07c-.11.25-.2.36-.31.36s-.22-.08-.39-.22a19.92,19.92,0,0,1-5.54-6.39,22.62,22.62,0,0,1-4,5.49c.28,0,1,.06,2.58.06h2.8c1.93,0,2.54-.06,2.68-.06s.23,0,.23.2-.06.81-.06,2.4v2.16c0,3.53.06,4.09.06,4.23s0,.22-.23.22h-1.2c-.2,0-.22,0-.22-.22v-.62H391.5v1.6c0,.2,0,.22-.23.22h-1.2c-.17,0-.2,0-.2-.22s.06-.76.06-4.65v-2.13c0-1.79-.06-2.55-.06-2.85a22,22,0,0,1-1.68,1.51c-.16.14-.28.22-.36.22s-.2-.14-.34-.39a2.79,2.79,0,0,0-.7-.95,18.15,18.15,0,0,0,6-6.94,5.18,5.18,0,0,0,.53-1.69c.62.09,1.26.2,1.62.29s.37.14.37.28a.3.3,0,0,1-.17.28Zm-2-4.71a3.54,3.54,0,0,0-.59.84,20.84,20.84,0,0,1-3.75,4.57c-.2.14-.31.22-.4.22s-.19-.11-.33-.34a2.72,2.72,0,0,0-.73-.89,15.52,15.52,0,0,0,3.67-4,5.78,5.78,0,0,0,.7-1.71,8.1,8.1,0,0,1,1.43.67c.16.11.25.2.25.34S393.09,259,392.93,259.1Zm3.92,13.19H391.5v5.35h5.35Zm-.62-14.36c.28-.17.31-.17.45,0a13.3,13.3,0,0,0,3.95,4.34,3.59,3.59,0,0,0-.84.89c-.14.23-.23.34-.34.34s-.2-.09-.39-.25a15.72,15.72,0,0,1-3.61-4.57c-.09-.17-.06-.22.22-.42Zm16.07,23.38c-.17.25-.22.39-.33.39s-.2-.08-.37-.25a19.45,19.45,0,0,1-6.05-10.31,14.92,14.92,0,0,1-6,10.59c-.19.14-.3.22-.39.22s-.19-.11-.39-.36a3,3,0,0,0-.95-.84c4.93-2.75,6.63-8.4,6.61-13a19.21,19.21,0,0,0-.12-2.95,12.35,12.35,0,0,1,1.74.2c.25.06.34.14.34.25a1,1,0,0,1-.14.51c-.09.16-.2.42-.23,1.85,1,5.73,3.45,9.94,7.2,12.62A3.62,3.62,0,0,0,412.3,281.31Zm-1.76-19.8a1.43,1.43,0,0,0,.56-.08.71.71,0,0,1,.28-.09c.17,0,.33.09.75.51s.51.56.51.7-.09.22-.2.33a1.31,1.31,0,0,0-.39.7,38.93,38.93,0,0,1-2.24,5.13c-.11.25-.2.36-.28.36a.88.88,0,0,1-.42-.25,4.69,4.69,0,0,0-1.06-.51,21.58,21.58,0,0,0,2.46-5.31h-7.06a21.46,21.46,0,0,1-2.24,4.25c-.16.25-.25.37-.36.37s-.22-.09-.42-.26a3.21,3.21,0,0,0-1-.53,19.75,19.75,0,0,0,3.76-8.23,13.61,13.61,0,0,0,.28-1.93,14.16,14.16,0,0,1,1.68.36c.22.06.33.2.33.31a.57.57,0,0,1-.22.42,2.84,2.84,0,0,0-.45,1.09c-.25.93-.5,1.79-.78,2.66Z"/><path d="M429,264a26.73,26.73,0,0,0,2.8,6.33,25.56,25.56,0,0,0,3.61-3.72,5.14,5.14,0,0,0,.76-1.29,7.06,7.06,0,0,1,1.43,1c.19.17.22.26.22.4s-.14.25-.31.36a4.86,4.86,0,0,0-1.28,1.15,33.56,33.56,0,0,1-3.59,3.39,22.45,22.45,0,0,0,7.79,6.61,3.6,3.6,0,0,0-1,1.09c-.17.25-.23.36-.37.36s-.19-.08-.39-.2a22.24,22.24,0,0,1-10-13c.08,4.56.19,8.87.19,12.79a2.15,2.15,0,0,1-1,2.13c-.56.28-1.23.42-3.38.45-.54,0-.54,0-.68-.56a3.47,3.47,0,0,0-.64-1.29c.67.06,1.4.11,2,.11,1.45,0,1.9-.19,1.9-1.34V264H420c-2.66,0-3.55.06-3.69.06s-.23,0-.23-.23v-1.23c0-.2,0-.22.23-.22s1,0,3.69,0H427v-2.12a17.31,17.31,0,0,0-.2-3.37c.68,0,1.32.09,1.88.17.2,0,.31.12.31.23a1.5,1.5,0,0,1-.14.59,10.43,10.43,0,0,0-.14,2.35v2.15h7.19c2.69,0,3.56,0,3.73,0s.22,0,.22.22v1.23c0,.2,0,.23-.22.23s-1-.06-3.73-.06Zm-3.78,9.91a57.45,57.45,0,0,1-6.44,3.95,4.65,4.65,0,0,0-1,.62c-.14.14-.25.22-.36.22s-.23-.11-.34-.28a15.18,15.18,0,0,1-.75-1.51,13.39,13.39,0,0,0,2-.84,52.22,52.22,0,0,0,7.06-4.2,5.25,5.25,0,0,0,.11,1.15C425.63,273.61,425.63,273.61,425.18,273.94Zm-5.57-8.09c.22-.19.28-.19.42-.11a18.92,18.92,0,0,1,3.53,3.72c.11.14.14.2-.09.42l-.72.7c-.31.28-.37.34-.48.14a15.25,15.25,0,0,0-3.42-3.83c-.19-.17-.16-.2.14-.45Zm13.3-8.23c.2-.17.22-.17.42-.06a18.68,18.68,0,0,1,3.5,2.72c.11.11.11.22-.2.48l-.53.47c-.31.28-.39.34-.56.14a14.34,14.34,0,0,0-3.3-2.8c-.2-.14-.2-.19.08-.45Z"/><path d="M245.34,18.13H230.93c-2.34,0-4.08.08-5.75.2-.4,0-.52-.12-.56-.52-.08-.67-.12-1.82-.12-2.58,2.35.2,4.05.24,6.39.24H241c2.19,0,4.49-.08,6.67-.12.52,0,.68.12.64.6,0,1.86-.08,3.85-.08,5.87v8.61c0,2.39.08,5.08.12,6.71,0,.4-.08.48-.48.48a15.69,15.69,0,0,1-1.94,0c-.48,0-.56,0-.56-.52V35.36H230.93c-2.26,0-4.32.08-6.19.15-.32.05-.39-.07-.43-.47a23.66,23.66,0,0,1-.12-2.54c2,.16,4.2.2,6.74.2h14.41Z"/><path d="M274.19,20.75a56.18,56.18,0,0,1,12.94,5.52c.32.16.4.36.28.63a12.66,12.66,0,0,1-1,2c-.23.31-.39.39-.75.16a43.7,43.7,0,0,0-11.55-5.32v9.2c0,2.43.08,5.52.12,8.1,0,.4-.08.52-.52.52a17,17,0,0,1-2,0c-.44,0-.56-.12-.56-.56.12-2.54.16-5.63.16-8.06V15.23a34.25,34.25,0,0,0-.43-6.34,15.7,15.7,0,0,1,3.29.51c.64.16.48.6.28,1.19a16.52,16.52,0,0,0-.28,4.41Z"/><path class="cls-1" d="M227,74c-94.93.77-168.15,19.91-191.21,53.57S.6,235.56,23.28,278.77c39,74.21,236.92,73.39,315.6,68.15,180.41-12,186-76.42,189.81-151.67C532.2,125.09,459,72.07,227,74Z"/><path class="cls-2" d="M414.6,388.34c-3.43-3.43-16.67-17.5-23.34-25.56-6.95-8.43-13.71-17.6-13.71-30,0-10.47,8.06-18.81,18.06-18.81,8.89,0,16.12,5.19,19.08,14.55h.09c3.06-9.82,10.56-14.55,19.08-14.55,10,0,18.07,8.34,18.07,18.81,0,12.41-6.77,21.58-13.71,30-6.67,8.06-20,22.13-23.44,25.56Z"/><path d="M414.6,388.34c-3.43-3.43-16.67-17.5-23.34-25.56-6.95-8.43-13.71-17.6-13.71-30,0-10.47,8.06-18.81,18.06-18.81,8.89,0,16.12,5.19,19.08,14.55h.09c3.06-9.82,10.56-14.55,19.08-14.55,10,0,18.07,8.34,18.07,18.81,0,12.41-6.77,21.58-13.71,30-6.67,8.06-20,22.13-23.44,25.56Z"/><path class="cls-3" d="M180.79,413.15c1.57-3.82,4.94-7.78,7.4-15.89,1.65-5.43.28-16.07-5-21.35a3,3,0,0,0-.91-.5c.47-.76,1-2.22,1-5.05.14-8.82-7.55-8.74-9.42-7.09-3.25.58-4.53,5.11-3.83,8.59-.1,0-.15,0-.21.07-.18-8.58-.45-18.68-.36-19.91.15-2.08,4.27-6.1,4.87-7.13s2.86-3.76,4.18-5.46-1.13-2.44-1.88-1a15.81,15.81,0,0,1-4.09,3.88c.25-.55,4.13-7.15,4.73-8.79s-1.08-2.52-2-1.08a35.58,35.58,0,0,1-3.63,5.23c.73-1.26,1.12-3.31,2.38-5.85s-1.08-2.81-2.23-1.18c-.24.33-4.48,8.69-4.48,8.69s2.21-5.59,2.91-8.12c.54-2-1.22-1.49-2.41-.1s-3.37,8.05-5.58,10.34c-.78-.36-.75-1-1.23-1.39-2-1.5-4.34-.86-3.4.24a7.63,7.63,0,0,1,1.68,4.89c.06.92,2.29,5.94,2.35,7.59,0,.57-.21,4.16-.5,8.7a16,16,0,0,0-12-4.59c-.77-3.43-1.16-6-.76-6.66,1.51-2.51,2.35-6.24,4.61-7.77s-2.15-2.6-4.1.19c-1.31,1.89-3.67,1.05-4.77-.92a17.88,17.88,0,0,1-1.49-4c-.24-1.2-.7-4.14-1.39-5.07-1.6-2.19-3-1-2.52.94s2.75,7.44,1,6.43c-1.43-2.09-2.46-4.19-3.38-5.83.33-3.05.56-5.18.61-5.51a19.94,19.94,0,0,0,.38-4.56c-.08-.72,3.29-8.69,3.69-9.31a12.67,12.67,0,0,0,1.74-5.08c.38-1.91-1.64-2.12-2.47-1.25a23.65,23.65,0,0,0-2.51,4.24c-.2.7-3.58,6.71-5,7a1.47,1.47,0,0,1-1.46-.7c-.1-.38-.48-5.7-.48-6.46s-.38-9.3-1.46-12.55-3.9-1.53-3.62.41c.36,2.48,0,11.34.11,11.72a29.88,29.88,0,0,1-.28,4.73c-.77-.49-1.3-5.4-1.5-6.61a48.47,48.47,0,0,0-1.14-7.72c-.18-.56-.11-3.19-.63-5.59s-3.23-1.64-3.65,0c-.22.86-.11,5.66-.14,6.15-.14,2.36.7,7.13.66,7.86-.07,1.42,1.43,7.23.11,7.37-1.11.11-2.58-4.7-3.45-5.91-.35-.5-3.17-8-3.72-9.42-.91-2.36-3.34-.79-3.44.62-.24,3.44,1.46,5.46,2.62,11,.2.95,1.86,5.68,2.23,6.6s.67,3.5,1,4.45-.52,4.16-.52,4.16c-2.24,1.94-6.24-1.82-6.65-2.31-3.19-3.82-9.69-1.33-7.3.23a36.77,36.77,0,0,1,4,3.55c1.07.9,5.85,6.91,6.26,7.49s4.14,5,6.61,8.43c.6.85.75,6,.64,13.24-1.95-.58-4.23-.58-5.41.17-2.08,1.3-4.69,2.38-5.23,4.37a15.91,15.91,0,0,0,.05,8.84,5.65,5.65,0,0,0-2.45-2.33,9.3,9.3,0,0,0-5.84-.93,10.24,10.24,0,0,0-2,.35,15.33,15.33,0,0,0-1.73-2.69c1.08-2.49,1.88-4.31,2.19-5,1.64-3.64,4.12-4.7,5.92-8.25a19.77,19.77,0,0,1,4.53-4.8c1.33-1,1.33-3.42,0-3s-5.74,5-5.32,3.23c.71-3,2.66-6.08,3.23-7.79s-1-2.47-1.79-1.52-3,5.13-4.14,7.6c-.52-2.15,2.17-6.37,2.74-8.65s-.84-3.71-2.17-1.81-4.28,10.87-4.36,8c-.07-2.36.72-4,1-5.56.58-2.8-1.77-2.16-2.55,0-1.6,4.43-1.55,5.22-2,9.91-1-1.63-.26-3-.8-4-1.4-2.41-3.42-.56-2.6,2.06,1.4,4.48-.69,6.7.93,10.49.3.71-.22,2.46-1.26,4.83a20.84,20.84,0,0,0-10.58.09l-.17.07c-.34-3.85-.69-7.73-1.06-11.56-.17-1.84,4-5.22,3.59-7.32-.49-2.82-1-8.59-3.47-10.22-.5-1.94-5.24-19.21-6.1-22-1.6-5.11-5.17-3.47-4.49,1.95.27,2.14,3.39,10.47,3.1,13.34-1.54-.36-4.67-2.56-5.71,2.76-1.22.41-3.91.69-3,4.65-1.86-.11-6.65,1.16-.18,10.66,1,1.5,1.67,6.14,5.5,7.35-.1,5.19-.28,12.57-.48,20.48a8.62,8.62,0,0,0-3.84-1.74c1.22-1.79,1.56-5.65-.07-4.74.17-3.34,2.11-5.22.29-7.15-1.17-1.25,0-1.76-3.57-3.81-3.06-1.75-5.74-1.34-7-.53-2.05,1.35-2.11.29-4.16,2.64-1.29,1.47-.59,5.51-.53,8a.77.77,0,0,0-.68-.31c-2.22-6-3.64-10.79-2.81-12,1.34-1.93.62-3.54,2.82-5.21s-.39-2.44-1.87-1.93-2.13,2.2-2.78,1.17-1.29-7.75-2.19-9.81-2.58-1.42-2.32,0a41.28,41.28,0,0,1,.51,4.9c0,.91-3-3.87-4.26-4.9s-2.58-.77-1.29,1.29,2.07,3.74,2.07,4.64a27.65,27.65,0,0,1-3-3.61c-.9-1-2.49-1.32-1.68.78.91,2.32,2.45,3.32,2.45,4.3s-3-.18-4.38-.3-.91,1.42,0,1.67S31,349.12,31.36,350c2,4.86,1.69,6.59,3.14,8,1.27,1.2,2.81,5.9,4.34,11.68a3.29,3.29,0,0,0-.44-.16c-.4-.57-.59-.4-.84-.67s-.33.22-.77-.09-1.7-.39-3.61,0C26.5,370.1,27.26,376,27.3,377s.58,1.65.76,2.72c0,3,1,5.16,2.27,4.54,0,.17.14.54.29,1-4.62,1.43-7.71,2.86-8.56,4.24-6,9.76,1.43,6.15,5.19,23.72H180.79ZM190.48,367m-55.19-1.79c-.47-8.41-.72-15-.45-17.49,0-.24,0-.48.08-.72.93,1.46,2.65,4.47,3.92,6.65a31.46,31.46,0,0,1,1.65,6.2A20.32,20.32,0,0,0,135.29,365.25Zm34.6,11.93q0-1.67-.06-3.54c.34,1.28,1,2.72,1.49,2.51A2.5,2.5,0,0,0,169.89,377.18Z"/><path class="cls-4" d="M180.79,413.15c1.57-3.82,4.94-7.78,7.4-15.89,1.65-5.43.28-16.07-5-21.35a3,3,0,0,0-.91-.5c.47-.76,1-2.22,1-5.05.14-8.82-7.55-8.74-9.42-7.09-3.25.58-4.53,5.11-3.83,8.59-.1,0-.15,0-.21.07-.18-8.58-.45-18.68-.36-19.91.15-2.08,4.27-6.1,4.87-7.13s2.86-3.76,4.18-5.46-1.13-2.44-1.88-1a15.81,15.81,0,0,1-4.09,3.88c.25-.55,4.13-7.15,4.73-8.79s-1.08-2.52-2-1.08a35.58,35.58,0,0,1-3.63,5.23c.73-1.26,1.12-3.31,2.38-5.85s-1.08-2.81-2.23-1.18c-.24.33-4.48,8.69-4.48,8.69s2.21-5.59,2.91-8.12c.54-2-1.22-1.49-2.41-.1s-3.37,8.05-5.58,10.34c-.78-.36-.75-1-1.23-1.39-2-1.5-4.34-.86-3.4.24a7.63,7.63,0,0,1,1.68,4.89c.06.92,2.29,5.94,2.35,7.59,0,.57-.21,4.16-.5,8.7a16,16,0,0,0-12-4.59c-.77-3.43-1.16-6-.76-6.66,1.51-2.51,2.35-6.24,4.61-7.77s-2.15-2.6-4.1.19c-1.31,1.89-3.67,1.05-4.77-.92a17.88,17.88,0,0,1-1.49-4c-.24-1.2-.7-4.14-1.39-5.07-1.6-2.19-3-1-2.52.94s2.75,7.44,1,6.43c-1.43-2.09-2.46-4.19-3.38-5.83.33-3.05.56-5.18.61-5.51a19.94,19.94,0,0,0,.38-4.56c-.08-.72,3.29-8.69,3.69-9.31a12.67,12.67,0,0,0,1.74-5.08c.38-1.91-1.64-2.12-2.47-1.25a23.65,23.65,0,0,0-2.51,4.24c-.2.7-3.58,6.71-5,7a1.47,1.47,0,0,1-1.46-.7c-.1-.38-.48-5.7-.48-6.46s-.38-9.3-1.46-12.55-3.9-1.53-3.62.41c.36,2.48,0,11.34.11,11.72a29.88,29.88,0,0,1-.28,4.73c-.77-.49-1.3-5.4-1.5-6.61a48.47,48.47,0,0,0-1.14-7.72c-.18-.56-.11-3.19-.63-5.59s-3.23-1.64-3.65,0c-.22.86-.11,5.66-.14,6.15-.14,2.36.7,7.13.66,7.86-.07,1.42,1.43,7.23.11,7.37-1.11.11-2.58-4.7-3.45-5.91-.35-.5-3.17-8-3.72-9.42-.91-2.36-3.34-.79-3.44.62-.24,3.44,1.46,5.46,2.62,11,.2.95,1.86,5.68,2.23,6.6s.67,3.5,1,4.45-.52,4.16-.52,4.16c-2.24,1.94-6.24-1.82-6.65-2.31-3.19-3.82-9.69-1.33-7.3.23a36.77,36.77,0,0,1,4,3.55c1.07.9,5.85,6.91,6.26,7.49s4.14,5,6.61,8.43c.6.85.75,6,.64,13.24-1.95-.58-4.23-.58-5.41.17-2.08,1.3-4.69,2.38-5.23,4.37a15.91,15.91,0,0,0,.05,8.84,5.65,5.65,0,0,0-2.45-2.33,9.3,9.3,0,0,0-5.84-.93,10.24,10.24,0,0,0-2,.35,15.33,15.33,0,0,0-1.73-2.69c1.08-2.49,1.88-4.31,2.19-5,1.64-3.64,4.12-4.7,5.92-8.25a19.77,19.77,0,0,1,4.53-4.8c1.33-1,1.33-3.42,0-3s-5.74,5-5.32,3.23c.71-3,2.66-6.08,3.23-7.79s-1-2.47-1.79-1.52-3,5.13-4.14,7.6c-.52-2.15,2.17-6.37,2.74-8.65s-.84-3.71-2.17-1.81-4.28,10.87-4.36,8c-.07-2.36.72-4,1-5.56.58-2.8-1.77-2.16-2.55,0-1.6,4.43-1.55,5.22-2,9.91-1-1.63-.26-3-.8-4-1.4-2.41-3.42-.56-2.6,2.06,1.4,4.48-.69,6.7.93,10.49.3.71-.22,2.46-1.26,4.83a20.84,20.84,0,0,0-10.58.09l-.17.07c-.34-3.85-.69-7.73-1.06-11.56-.17-1.84,4-5.22,3.59-7.32-.49-2.82-1-8.59-3.47-10.22-.5-1.94-5.24-19.21-6.1-22-1.6-5.11-5.17-3.47-4.49,1.95.27,2.14,3.39,10.47,3.1,13.34-1.54-.36-4.67-2.56-5.71,2.76-1.22.41-3.91.69-3,4.65-1.86-.11-6.65,1.16-.18,10.66,1,1.5,1.67,6.14,5.5,7.35-.1,5.19-.28,12.57-.48,20.48a8.62,8.62,0,0,0-3.84-1.74c1.22-1.79,1.56-5.65-.07-4.74.17-3.34,2.11-5.22.29-7.15-1.17-1.25,0-1.76-3.57-3.81-3.06-1.75-5.74-1.34-7-.53-2.05,1.35-2.11.29-4.16,2.64-1.29,1.47-.59,5.51-.53,8a.77.77,0,0,0-.68-.31c-2.22-6-3.64-10.79-2.81-12,1.34-1.93.62-3.54,2.82-5.21s-.39-2.44-1.87-1.93-2.13,2.2-2.78,1.17-1.29-7.75-2.19-9.81-2.58-1.42-2.32,0a41.28,41.28,0,0,1,.51,4.9c0,.91-3-3.87-4.26-4.9s-2.58-.77-1.29,1.29,2.07,3.74,2.07,4.64a27.65,27.65,0,0,1-3-3.61c-.9-1-2.49-1.32-1.68.78.91,2.32,2.45,3.32,2.45,4.3s-3-.18-4.38-.3-.91,1.42,0,1.67S31,349.12,31.36,350c2,4.86,1.69,6.59,3.14,8,1.27,1.2,2.81,5.9,4.34,11.68a3.29,3.29,0,0,0-.44-.16c-.4-.57-.59-.4-.84-.67s-.33.22-.77-.09-1.7-.39-3.61,0C26.5,370.1,27.26,376,27.3,377s.58,1.65.76,2.72c0,3,1,5.16,2.27,4.54,0,.17.14.54.29,1-4.62,1.43-7.71,2.86-8.56,4.24-6,9.76,1.43,6.15,5.19,23.72H180.79ZM190.48,367m-55.19-1.79c-.47-8.41-.72-15-.45-17.49,0-.24,0-.48.08-.72.93,1.46,2.65,4.47,3.92,6.65a31.46,31.46,0,0,1,1.65,6.2A20.32,20.32,0,0,0,135.29,365.25Zm34.6,11.93q0-1.67-.06-3.54c.34,1.28,1,2.72,1.49,2.51A2.5,2.5,0,0,0,169.89,377.18Z"/><path class="cls-5" d="M476.19,394.78c-2.26-2.27-11-11.56-15.41-16.88-4.58-5.56-9-11.62-9-19.81a12.13,12.13,0,0,1,11.93-12.41c5.87,0,10.64,3.42,12.59,9.6h.06c2-6.49,7-9.6,12.6-9.6a12.13,12.13,0,0,1,11.92,12.41c0,8.19-4.46,14.25-9.05,19.81-4.4,5.32-13.2,14.61-15.47,16.88Z"/><path d="M476.19,394.78c-2.26-2.27-11-11.56-15.41-16.88-4.58-5.56-9-11.62-9-19.81a12.13,12.13,0,0,1,11.93-12.41c5.87,0,10.64,3.42,12.59,9.6h.06c2-6.49,7-9.6,12.6-9.6a12.13,12.13,0,0,1,11.92,12.41c0,8.19-4.46,14.25-9.05,19.81-4.4,5.32-13.2,14.61-15.47,16.88Z"/></svg>